<svg id="b39c1444-6a70-41b9-9abe-8f8551343c04" data-name="Capa 1" xmlns="http://www.w3.org/2000/svg" viewBox="0 0 330.16 231.01"><defs><style>.a8a9f438-7bf5-4e25-bf74-31aaf4139536{fill:#fe7801;}.b590c409-afa4-4ec2-ac8b-fcb57d2c7908{fill:#a30899;}.a0324acb-e06a-4dce-8dba-4b34c1f26e2a{fill:#023ba9;}.e0467aa5-c6b0-4c92-8b81-5410be31ac22{fill:#fe8f02;}.a5038571-9086-40a5-912e-8b5bea5e9724{fill:#8b0b88;}.bf789c74-29b5-4312-8a1d-ccf9526d57fa{fill:#fefdfd;}</style></defs><title>_</title><path class="a8a9f438-7bf5-4e25-bf74-31aaf4139536" d="M118.52,135.63c1.22,21.87,2.51,43.73,3.61,65.6.26,5.1,1.72,8.57,7.16,10.26,5.16,1.61,8.77,12.14,6.46,17.1-.32.67-1,1.67-1.5,1.68-7.56.13-15.36,1.26-22.62-.24-5.43-1.11-5.69-8-6.73-12.92-1.69-8-1.1-16.16-1.67-24.36a45.11,45.11,0,0,0-4.5,31c1.25,5.81-.19,6.9-5.6,6.85-18.67-.17-37.34.21-56,.08C16.84,230.51,2,215.38.19,192.92A87.47,87.47,0,0,1,.7,176.75c.52-4.87,2.38-9.47,8.6-8.18,5.63,1.16,5.66,5.61,4.74,10.27a39.37,39.37,0,0,0,3.55,26,29.22,29.22,0,0,0,4.11,6c2.74,3.11,6.4,6.36,10.32,5.49,4.15-.94,2.18-6,2.69-9.14,7.35-45.49,21.1-89.07,38.61-131.57C75,78,76.81,80.28,78.45,82.7,90.85,101.07,103.09,119.56,118.52,135.63Z"/><path class="b590c409-afa4-4ec2-ac8b-fcb57d2c7908" d="M123.47,153.63c-1.59-15.62-1-31.3-1.32-46.95-.07-2.92.6-4.7,3.94-4.57,23.73.9,47.93-3.46,71.1,2.93,21,5.8,41.27,14,64.6,8.71-.83,2.77-.83,3.61-1.26,4.08-9.23,10.29-9.24,10.28,3.58,16.78,3.56,1.8,7.09,3.65,12,6.18-6.17,3.08-10.9,6-16,7.87-7.23,2.62-10.42,6.8-7.74,14.44-4.21-.2-7.48,2.29-11.08,3.84a10.82,10.82,0,0,0-8.43,1.35c-4.81,1.55-9.55,3.43-14.46,4.58C206,175.78,193.5,178.53,181,181c-4,.77-5.63,2.57-5.49,6.41l-1.75.05c-1.11-5.51-3.07-10.26-8.1-13.73-6.4-4.4-12.18-9.68-18.36-14.41-7.9-6-13.9-14.49-23.81-19.45Z"/><path class="a0324acb-e06a-4dce-8dba-4b34c1f26e2a" d="M227.22,18.93C223.46,10,223.43,9.87,233,8.11c13.52-2.5,27-5.13,40.65-7,14.41-2,26.15,3.46,34.06,15.56,5.4,8.25,11.16,16,19.53,21.27,4.26,2.71,3.2,5.73,1.26,8.92C321.73,57.94,312,64.43,298.92,65.51c-.53,0-1.08,0-1.62,0-17.74.13-35.45-1-52.82,5-9.17,3.18-14-2.16-14.41-11.75-.27-6.19,4-5.76,8.55-7-10.51-1.76-19.22,1.78-28.11,3.69-6.71,1.44-10.28-.4-11.41-7.37-1.39-8.51-3.11-17-4.94-25.41-1.44-6.67,1.34-9.82,7.8-10.14C211,12.14,219.57,13.43,227.22,18.93Zm87.86,19.15c-.38-2.55-2-4.14-4.2-4.15a4.19,4.19,0,0,0-4.46,4.5,4.13,4.13,0,0,0,4.14,4A4.38,4.38,0,0,0,315.08,38.08Z"/><path class="e0467aa5-c6b0-4c92-8b81-5410be31ac22" d="M118.52,135.63c-15.43-16.07-27.67-34.56-40.07-52.93C76.81,80.28,75,78,73.32,75.58c5.82-13.83,1.18-28.79,4.59-42.91,1.24-5.16.86-10.7,3.47-15.57l19.75-.1c4.77,2.88,10.07,1.58,15,1.3,7.63-.43,13.32,2.08,16.58,8.85,2.12,4.41,5,5.55,9.62,5.12a115.48,115.48,0,0,1,15.34,0c4.09.18,7,2.52,6.23,6.71-1.86,9.92-4.49,19.5-15.38,23.83C139.8,66.27,131,69.68,123.75,76c-3.54,3.08-5.13,6.28-5.07,11.08C118.89,103.28,118.61,119.46,118.52,135.63ZM121.1,30.22c-2.94.32-5.09,1.72-5.11,4.94,0,2.68,1.37,4.51,4.36,4.68,2.82.16,4.76-.86,5.05-3.83S124.3,30.92,121.1,30.22Z"/><path class="a5038571-9086-40a5-912e-8b5bea5e9724" d="M123.47,153.63V139.84c9.91,5,15.91,13.4,23.81,19.45,6.18,4.73,12,10,18.36,14.41,5,3.47,7,8.22,8.1,13.73,0,12.4-.21,24.81,0,37.21.09,4.51-1.29,6-5.89,6.12-20.11.76-20.43,1-24.5-18.25-1.3-6.16-3.93-8.26-9.68-7.27-6.45,1.12-8.4-1.87-8.65-8C124.46,182.7,122.94,168.21,123.47,153.63Z"/><path class="a5038571-9086-40a5-912e-8b5bea5e9724" d="M241.28,166.94c3.6-1.55,6.87-4,11.08-3.84,1.42,4.9,3,9.76,4.2,14.71,1.15,4.78,2.26,9.34,6.47,12.64,3.67,2.88,3.59,6.41.33,9.75-2.64,2.72-5.3,5.41-8,8.05-3.17,3.07-6.85,3.94-9.94.43s-6.87-3.62-11-3.57c-11.89.11-23.79.1-35.69.11-17.58,0-18.79-.93-23.24-17.84-.14-3.84,1.53-5.64,5.49-6.41,12.52-2.44,25-5.19,37.41-8.1,4.91-1.15,9.65-3,14.46-4.58-1.08,3.78-1.65,7.4,2.89,9.46a5.09,5.09,0,0,0,6.44-1.53C245,172.9,243.6,169.84,241.28,166.94Z"/><path class="a5038571-9086-40a5-912e-8b5bea5e9724" d="M176.16,203.16c9.37,6.91,19.29,4.58,28.8,4.66,4.77,0,6.49,1.06,6.5,6.25,0,16.59.28,16.14-16.29,16.78-7.57.29-11.4-1.89-13-9.36C180.94,215.74,178.54,210.24,176.16,203.16Z"/><path class="a8a9f438-7bf5-4e25-bf74-31aaf4139536" d="M101.13,17l-19.75.1c1.07-6.55,1.61-16,7.6-17C94.73-.91,97.1,8.6,100.35,14A10.36,10.36,0,0,1,101.13,17Z"/><path class="bf789c74-29b5-4312-8a1d-ccf9526d57fa" d="M241.28,166.94c2.32,2.9,3.71,6,.9,9.28a5.09,5.09,0,0,1-6.44,1.53c-4.54-2.06-4-5.68-2.89-9.46A10.82,10.82,0,0,1,241.28,166.94Z"/><path class="bf789c74-29b5-4312-8a1d-ccf9526d57fa" d="M315.08,38.08a4.38,4.38,0,0,1-4.52,4.38,4.13,4.13,0,0,1-4.14-4,4.19,4.19,0,0,1,4.46-4.5C313.06,33.94,314.7,35.53,315.08,38.08Z"/><path class="bf789c74-29b5-4312-8a1d-ccf9526d57fa" d="M121.1,30.22c3.2.7,4.61,2.71,4.3,5.79s-2.23,4-5.05,3.83c-3-.17-4.36-2-4.36-4.68C116,31.94,118.16,30.54,121.1,30.22Z"/></svg>