<svg id="ac511cf5-9954-4230-a0f0-0da0562d4422" data-name="Capa 1" xmlns="http://www.w3.org/2000/svg" viewBox="0 0 274.37 273.17"><defs><style>.b64922ed-4469-4a40-964b-cebbe6444953{fill:#030202;}.a1ce3764-75b6-4852-9cc9-1cbc934642f8{fill:#fcfcfc;}.a9d22575-8046-4b5d-b67e-33cda87379a5{fill:#fc0000;}.fbcc4ea0-0474-4f30-b0c7-f0b62dfc0bf5{fill:#ed0001;}.ff3169f7-7115-4fd3-a4d0-5d53eca29ade{fill:#d9d9d9;}</style></defs><title>_</title><path class="b64922ed-4469-4a40-964b-cebbe6444953" d="M137.63,0C213.7.06,274.54,61.34,274.37,137.75c-.16,74.55-61.79,135.48-137,135.42C60.23,273.11-.13,212.28,0,134.71.13,60.55,62-.06,137.63,0Zm45,126.86c2.35,1.64,5,.92,7.57.92,18.42,0,36.84,0,55.26-.07,8.39,0,8.67-.34,7.18-8.91-3.45-19.91-11.22-38-24.05-53.59C213.54,47,195.29,33.3,172,27.32c-26.16-9.22-52.15-7.57-77.34,2.87C54.74,46.73,31.21,77,23.07,119.34c-1.55,8-1,8.4,7.07,8.41,18.69,0,37.37-.17,56.05.12,5.06.08,7.25-1.42,9-6.35a43.91,43.91,0,0,1,42.25-29.66c18.88.18,35.09,11.65,41.93,29.44C180.06,123.23,179.44,126.24,182.58,126.86ZM223,146.06c-12.05-.14-24.12-.07-36.16-.53-4.39-.16-5.94,1.49-7.32,5.43-6.65,19-22.94,30.41-42.5,30.33s-35.85-11.53-42.29-30.58c-1.46-4.3-3.45-5.19-7.51-5.15-19.41.18-38.82.08-58.24.08-8.61,0-8.76,0-7.27,8.62,4,23.14,13.46,43.82,30,60.56,32.37,32.75,71,44.09,115.94,32.2,24.23-6.17,43.64-19.79,59.33-38.88,13-15.83,20.69-34.18,24.32-54.3,1.07-5.92.26-9.2-7.08-8.37C237.23,146.27,230.08,145.91,223,146.06Zm-59.41-9.37c-.08-14.77-11.91-26.81-26.38-26.84a26.73,26.73,0,1,0,26.38,26.84Z"/><path class="a1ce3764-75b6-4852-9cc9-1cbc934642f8" d="M167.66,247c-44.93,11.89-83.57.55-115.94-32.2-16.55-16.74-26-37.42-30-60.56-1.49-8.59-1.34-8.62,7.27-8.62,19.42,0,38.83.1,58.24-.08,4.06,0,6,.85,7.51,5.15,6.44,19,22.67,30.51,42.29,30.58s35.85-11.35,42.5-30.33c1.38-3.94,2.93-5.59,7.32-5.43,12,.46,24.11.39,36.16.53.84,5-.35,9.88-1.28,14.73-6.35,33.19-20.93,61.43-49.09,81.53C170.81,243.62,168.19,244.27,167.66,247Z"/><path class="a9d22575-8046-4b5d-b67e-33cda87379a5" d="M182.58,126.86c-3.14-.62-2.52-3.63-3.26-5.56-6.84-17.79-23-29.26-41.93-29.44a43.91,43.91,0,0,0-42.25,29.66c-1.7,4.93-3.89,6.43-9,6.35-18.68-.29-37.36-.11-56-.12-8.11,0-8.62-.37-7.07-8.41C31.21,77,54.74,46.73,94.65,30.19,119.84,19.75,145.83,18.1,172,27.32c0,2.11,1.27,3.51,2.81,4.68a124.06,124.06,0,0,1,23.33,23.47c14,18.19,21.37,39.12,24.9,61.51,1.41,8.94.45,9.63-8.57,9.67C203.83,126.7,193.2,126.79,182.58,126.86Z"/><path class="fbcc4ea0-0474-4f30-b0c7-f0b62dfc0bf5" d="M182.58,126.86c10.62-.07,21.25-.16,31.88-.21,9,0,10-.73,8.57-9.67-3.53-22.39-10.87-43.32-24.9-61.51A124.06,124.06,0,0,0,174.8,32c-1.54-1.17-2.78-2.57-2.81-4.68,23.3,6,41.55,19.66,56.55,37.89,12.83,15.6,20.6,33.68,24.05,53.59,1.49,8.57,1.21,8.89-7.18,8.91-18.42,0-36.84.1-55.26.07C187.62,127.78,184.93,128.5,182.58,126.86Z"/><path class="ff3169f7-7115-4fd3-a4d0-5d53eca29ade" d="M167.66,247c.53-2.75,3.15-3.4,5-4.7,28.16-20.1,42.74-48.34,49.09-81.53.93-4.85,2.12-9.71,1.28-14.73,7.08-.15,14.23.21,21.23-.59,7.34-.83,8.15,2.45,7.08,8.37C247.68,174,240,192.31,227,208.14,211.3,227.23,191.89,240.85,167.66,247Z"/><path class="a1ce3764-75b6-4852-9cc9-1cbc934642f8" d="M163.59,136.69a26.42,26.42,0,1,1-26.38-26.84C151.68,109.88,163.51,121.92,163.59,136.69Z"/></svg>