<svg id="ffbc2706-de4b-4261-ad4a-11966e572227" data-name="Capa 1" xmlns="http://www.w3.org/2000/svg" viewBox="0 0 226.1 258.11"><defs><style>.f5d6436f-66c2-4905-b4ed-47dedee0a75e{fill:#590606;}.b1d4dfe6-3e71-4c14-85c8-0746b6a5c1fe{fill:#edd2a8;}.f209737e-f0ba-4e20-bd79-91f6cae6ffbb{fill:#a65944;}.a2402281-f6a8-4f29-a190-2b752f73cee1{fill:#f4e7d2;}.ac645f60-b05d-43db-8a2d-e1795f6c3ce8{fill:#f5e7d2;}.e5ef3952-5db5-4b0d-8ec3-1b6ea12cd835{fill:#783f30;}.a0a1947b-38e9-4083-a3cb-a762b91f01fb{fill:#fbcd00;}.e8a742a9-42f9-45bd-baeb-f07fb9227a26{fill:#fc9600;}.b0cd9435-265b-4e27-a45d-689cbdeb2a25{fill:#03779c;}.f81987b6-8f8d-4b61-9c1d-cd4721261ca2{fill:#01b4ba;}.bfba9440-55d3-4a97-8f96-020d50cf3e5d{fill:#5a0603;}.bb3369a2-5ef7-4257-8a45-2ca8d14461fb{fill:#5b0505;}.a846c3d1-0c48-4835-87d1-4b6ee4c68a4a{fill:#fc1c52;}.ba4ac213-a8ad-4cdd-962e-845806dd90b0{fill:#ba003c;}.f19a1d16-88ad-4461-9181-0b29c5fe0f19{fill:#5f62e1;}</style></defs><title>_</title><path class="f5d6436f-66c2-4905-b4ed-47dedee0a75e" d="M171.09,94.07c2.53-4.09,5.61-2.46,8.62-.78,23.22,12.95,36.15,33.08,38.54,59.12C223.6,210.75,181.62,256.18,123,258,64.13,259.9,21.49,224,6.31,180.18c-23.19-67,19.91-139.13,90.24-150.7,5.32-.87,10.5-1.83,15.82.08,10.08,3.63,16,13,14.32,23.64a30.83,30.83,0,0,0,3.54,19.88c3.91-3.51,7.69-6.57,11.06-10,2.61-2.68,5.22-3.11,8.41-1.53,1.42,4.58-1.72,7-4.54,9.55-13,11.83-26.13,23.6-39.09,35.51-7.07,6.49-7,6.59,1,13,5.7,7.19,5.87,7.35,11.91.8q37.62-40.78,75-81.75c6.91-7.55,13.63-15.29,20.47-22.91,2-2.2,4.23-4.28,1.15-7.25-2.39-.42-3.62,1.37-5.06,2.7-10,9.17-20.05,18.25-29.85,27.61-3.08,2.95-6.19,4.85-10.51,4.35-.29-4.47,1.44-7.67,4.92-10.74,10.22-9,20-18.45,30-27.71,6.26-5.8,12.69-6.2,17.66-1.17,4.8,4.85,4.44,10.86-1.29,17.15q-31.06,34.16-62.22,68.22L113.62,139c-5.33,5.62-10.7,11.21-16,16.87-3.1,3.33-6.51,6.29-11.16,6.82-3.84.44-4.22,1.88-3.77,5.57,1.94,15.8-8,28.4-23.32,30.33-4.54.57-8.85-.9-13.28-1.34-6-.58-10.86,1-15.09,5.43-1.86,1.94-2.26,2.9-.45,5.12,21.45,26.45,48.8,41,83.14,41.68,39.77,2.32,72.8-15.94,88.54-48.88,16.78-35.12,9.32-83.41-28.32-101C171.44,98.43,171.09,96.39,171.09,94.07Zm-70.38,32.14c-3.48-1.95-3.86-11.24-10.84-4.87-7.47,6.83-7,4.34-.29,11.42a19.51,19.51,0,0,0,2.58,2L91.58,141l-6,.08c-2.7-2.88-4.46-8.22-9.08-7-3.89,1-5.65,5.59-5.52,9.79.08,3,.57,6.27,3.88,7.89,8,5.58,14.51,3.4,20.38-6.82,3.18-.61,4.39-3.56,6.31-5.56C108.24,132.43,108.16,132.36,100.71,126.21ZM67.07,156.92c-10-8.09-19.63-7.59-28.3,1.58a36.74,36.74,0,0,0-10.39,26.64c.13,7.89.68,8.13,7.6,4.36,5.11-.28,10.23-.69,15.33.24,10.25,1.86,17.5-1.19,21.54-9C77.11,172.44,75.15,164.34,67.07,156.92ZM112.56,89a72.62,72.62,0,0,1,6.16-5.09c4.47-3,5-6.07,2.51-11.07a31.24,31.24,0,0,1-2.66-19.57c1.05-5.92-.42-11.06-6-14.3-4-3.65-8.76-2.62-13.32-1.83C47.28,46.26,12.27,84.68,8.47,137.32a93.36,93.36,0,0,0,10.86,51.21,51.65,51.65,0,0,1,11.05-32.77c5.55-7.09,12.52-13.08,21.87-12.26,7.6.67,11.44-.81,12.75-8.67.57-3.43,4.19-5.63,6.81-8.06Q92.2,107.92,112.56,89Z"/><path class="b1d4dfe6-3e71-4c14-85c8-0746b6a5c1fe" d="M171.09,94.07c0,2.32.35,4.36,2.83,5.52,37.64,17.59,45.1,65.88,28.32,101-15.74,32.94-48.77,51.2-88.54,48.88q0-8.58,0-17.15c20.85-14.77,15.1-37.37-.14-46.39l0-46.94,45.64-50.12C162.22,92.85,167.52,91.49,171.09,94.07Zm-31.85,86.49c5.19,4.77,10.86,8.59,18.17,9.18.56,4,3,5,6.69,4.63,21.25-1.91,35.77-22.19,30-42.62-3.68-13.07-12.37-21.5-25.91-24.16-13.76-2.71-25.25,1.64-33.63,12.77s-8.87,23.41-2.92,35.92C133.11,179.33,134.79,182.54,139.24,180.56Z"/><path class="f209737e-f0ba-4e20-bd79-91f6cae6ffbb" d="M170.2,43.12c4.32.5,7.43-1.4,10.51-4.35,9.8-9.36,19.87-18.44,29.85-27.61,1.44-1.33,2.67-3.12,5.06-2.7,0,3.16-2.63,4.52-4.44,6.34q-48.88,49-97.82,97.91c-2.2,2.19-4.21,4.57-6.31,6.86-8-6.4-8-6.5-1-13,13-11.91,26.06-23.68,39.09-35.51,2.82-2.56,6-5,4.54-9.55a24.77,24.77,0,0,1,6.91-6.31c7.87.13,9.54-1.47,9.26-8.83C167.24,45.19,168.13,43.36,170.2,43.12Z"/><path class="f5d6436f-66c2-4905-b4ed-47dedee0a75e" d="M165.87,46.38c.28,7.36-1.39,9-9.26,8.83C155.34,47.71,158.37,44.82,165.87,46.38Z"/><path class="a2402281-f6a8-4f29-a190-2b752f73cee1" d="M112.56,89Q92.19,107.9,71.81,126.77c-2.62,2.43-6.24,4.63-6.81,8.06-1.31,7.86-5.15,9.34-12.75,8.67-9.35-.82-16.32,5.17-21.87,12.26a51.65,51.65,0,0,0-11,32.77A93.36,93.36,0,0,1,8.47,137.32c3.8-52.64,38.81-91.06,90.74-100.15,4.56-.79,9.3-1.82,13.32,1.83Zm-50.7,26.81c4.52-.43,5.23-3.3,4.65-7.12A20.51,20.51,0,0,0,46,91.48a20.23,20.23,0,0,0-2.76,40.14c3.9.64,7.24.18,7.7-4.8C56.69,125.3,60.42,121.72,61.86,115.84ZM81.51,56.55a16.82,16.82,0,0,0,.65,33.64,17.19,17.19,0,0,0,16.6-16.8A17.21,17.21,0,0,0,81.51,56.55Z"/><path class="ac645f60-b05d-43db-8a2d-e1795f6c3ce8" d="M113.74,232.32q0,8.58,0,17.15c-34.34-.68-61.69-15.23-83.14-41.68-1.81-2.22-1.41-3.18.45-5.12,4.23-4.41,9.14-6,15.09-5.43,4.43.44,8.74,1.91,13.28,1.34,15.32-1.93,25.26-14.53,23.32-30.33-.45-3.69-.07-5.13,3.77-5.57,4.65-.53,8.06-3.49,11.16-6.82,5.29-5.66,10.66-11.25,16-16.87q0,23.47,0,46.94c-1.46-.46-2.92-.91-4.37-1.39a25.76,25.76,0,0,0-28,40.83C90.22,236,101.43,236.89,113.74,232.32Z"/><path class="e5ef3952-5db5-4b0d-8ec3-1b6ea12cd835" d="M107.05,119.57c2.1-2.29,4.11-4.67,6.31-6.86q48.9-49,97.82-97.91c1.81-1.82,4.46-3.18,4.44-6.34,3.08,3,.81,5-1.15,7.25-6.84,7.62-13.56,15.36-20.47,22.91q-37.45,40.94-75,81.75C112.92,126.92,112.75,126.76,107.05,119.57Z"/><path class="a0a1947b-38e9-4083-a3cb-a762b91f01fb" d="M36,189.5c-6.92,3.77-7.47,3.53-7.6-4.36A36.74,36.74,0,0,1,38.77,158.5c8.67-9.17,18.32-9.67,28.3-1.58-8.92,8.7-17.87,17.37-26.72,26.13C38.5,184.88,36,186.39,36,189.5Z"/><path class="e8a742a9-42f9-45bd-baeb-f07fb9227a26" d="M36,189.5c0-3.11,2.52-4.62,4.37-6.45,8.85-8.76,17.8-17.43,26.72-26.13,8.08,7.42,10,15.52,5.78,23.79-4,7.84-11.29,10.89-21.54,9C46.21,188.81,41.09,189.22,36,189.5Z"/><path class="b1d4dfe6-3e71-4c14-85c8-0746b6a5c1fe" d="M112.56,89l0-50c5.62,3.24,7.09,8.38,6,14.3a31.24,31.24,0,0,0,2.66,19.57c2.49,5,2,8.1-2.51,11.07A72.62,72.62,0,0,0,112.56,89Z"/><path class="e5ef3952-5db5-4b0d-8ec3-1b6ea12cd835" d="M85.59,141.1l6-.08,3.66,3.92c-5.87,10.22-12.38,12.4-20.38,6.82A53.34,53.34,0,0,1,85.59,141.1Z"/><path class="b0cd9435-265b-4e27-a45d-689cbdeb2a25" d="M95.25,144.94,91.59,141l.57-6.26a24.07,24.07,0,0,1,8.55-8.55c7.45,6.15,7.53,6.22.85,13.17C99.64,141.38,98.43,144.33,95.25,144.94Z"/><path class="f209737e-f0ba-4e20-bd79-91f6cae6ffbb" d="M85.59,141.1a53.34,53.34,0,0,0-10.72,10.66c-3.31-1.62-3.8-4.89-3.88-7.89-.13-4.2,1.63-8.78,5.52-9.79C81.13,132.88,82.89,138.22,85.59,141.1Z"/><path class="f81987b6-8f8d-4b61-9c1d-cd4721261ca2" d="M100.71,126.21a24.07,24.07,0,0,0-8.55,8.55,19.51,19.51,0,0,1-2.58-2c-6.66-7.08-7.18-4.59.29-11.42C96.85,115,97.23,124.26,100.71,126.21Z"/><path class="e8a742a9-42f9-45bd-baeb-f07fb9227a26" d="M157.41,189.74c-7.31-.59-13-4.41-18.18-9.18,3.13-3.37.38-6.12-.92-9.07-4.24-9.6-3.32-18.66,3.31-26.88,6.23-7.72,14.44-11.12,24.22-9.32,13.08,2.39,21.84,13.25,21.51,25.89s-9.46,22.76-22.7,25C161.82,186.68,158.7,186.26,157.41,189.74Z"/><path class="bfba9440-55d3-4a97-8f96-020d50cf3e5d" d="M157.41,189.74c1.29-3.48,4.41-3.06,7.24-3.54,13.24-2.26,22.36-12.39,22.7-25s-8.43-23.5-21.51-25.89c-9.78-1.8-18,1.6-24.22,9.32-6.63,8.22-7.55,17.28-3.31,26.88,1.3,2.95,4.05,5.7.92,9.07-4.44,2-6.12-1.23-7.58-4.28-6-12.51-5.48-24.77,2.92-35.92s19.87-15.48,33.63-12.77c13.54,2.66,22.23,11.09,25.91,24.16,5.76,20.43-8.76,40.71-30,42.62C160.42,194.7,158,193.7,157.41,189.74Z"/><path class="bb3369a2-5ef7-4257-8a45-2ca8d14461fb" d="M113.74,232.32c-12.31,4.57-23.52,3.67-32.5-6.95a25.76,25.76,0,0,1,28-40.83c1.45.48,2.91.93,4.37,1.39C128.84,195,134.59,217.55,113.74,232.32Zm1.31-13.38c6-6.91,5.59-13.81-1.12-21.7-5.18-7.8-18.91-7.89-25.76-.19A17.58,17.58,0,0,0,90.36,223C98.67,229.53,109,227.86,115.05,218.94Z"/><path class="f5d6436f-66c2-4905-b4ed-47dedee0a75e" d="M50.9,126.82c-.46,5-3.8,5.44-7.7,4.8A20.23,20.23,0,0,1,46,91.48a20.51,20.51,0,0,1,20.55,17.24c.58,3.82-.13,6.69-4.65,7.12-3.17-1.14-2.91-4-3.56-6.6-1.59-6.22-7-10.14-12.77-9.61a12.39,12.39,0,0,0-10.87,11,11.79,11.79,0,0,0,10.11,12.86C47.45,123.89,49.38,124.74,50.9,126.82Z"/><path class="f5d6436f-66c2-4905-b4ed-47dedee0a75e" d="M81.51,56.55A17.21,17.21,0,0,1,98.76,73.39a17.19,17.19,0,0,1-16.6,16.8,16.82,16.82,0,0,1-.65-33.64ZM82.7,82.06C87,81.64,90,78.65,90.51,73.7c.51-4.58-4.05-9.17-8.69-8.91-5.08.29-8.23,3-8.48,8.29C73.09,78.12,76.87,82,82.7,82.06Z"/><path class="f81987b6-8f8d-4b61-9c1d-cd4721261ca2" d="M50.9,126.82c-1.52-2.08-3.45-2.93-6.13-3.37a11.79,11.79,0,0,1-10.11-12.86,12.39,12.39,0,0,1,10.87-11c5.8-.53,11.18,3.39,12.77,9.61.65,2.56.39,5.46,3.56,6.6C60.42,121.72,56.69,125.3,50.9,126.82Z"/><path class="a846c3d1-0c48-4835-87d1-4b6ee4c68a4a" d="M115.05,218.94c-6.09,8.92-16.38,10.59-24.69,4a17.58,17.58,0,0,1-2.19-25.91c6.85-7.7,20.58-7.61,25.76.19C114.23,204.48,112.22,211.83,115.05,218.94Z"/><path class="ba4ac213-a8ad-4cdd-962e-845806dd90b0" d="M115.05,218.94c-2.83-7.11-.82-14.46-1.12-21.7C120.64,205.13,121,212,115.05,218.94Z"/><path class="f19a1d16-88ad-4461-9181-0b29c5fe0f19" d="M82.7,82.06c-5.83,0-9.61-3.94-9.36-9,.25-5.32,3.4-8,8.48-8.29,4.64-.26,9.2,4.33,8.69,8.91C90,78.65,87,81.64,82.7,82.06Z"/></svg>