<?xml version="1.0" encoding="iso-8859-1"?>
<!-- Generator: Adobe Illustrator 24.0.2, SVG Export Plug-In . SVG Version: 6.00 Build 0)  -->
<svg version="1.1" id="Capa_1" xmlns="http://www.w3.org/2000/svg" xmlns:xlink="http://www.w3.org/1999/xlink" x="0px" y="0px"
	 viewBox="0 0 511.855 358.872" style="enable-background:new 0 0 511.855 358.872;" xml:space="preserve">
<g>
	<path style="fill:#020101;" d="M0,338.879C0,232.583,0,126.288,0,19.993C3.804,9.976,10.491,2.984,20.994,0
		c156.622,0,313.245,0,469.867,0c3.585,1.802,7.519,2.784,10.84,5.254c5.404,4.019,7.82,9.818,10.154,15.738
		c0,105.962,0,211.924,0,317.886c-1.322,0.191-1.241,1.424-1.56,2.26c-3.785,9.895-11.027,15.38-21.403,16.92
		c-2.33,0-4.661,0-6.991,0c-151.788-0.002-303.577-0.006-455.365,0.029c-1.178,0-2.689-0.904-3.542,0.784c-0.333,0-0.666,0-1,0
		c-0.663-1.779-2.493-1.424-3.756-1.813c-7.284-2.245-12.339-6.903-15.799-13.578C1.643,341.944,2.004,339.767,0,338.879z
		 M144.824,170.469c3.65,0.083,7.332-0.101,10.944,0.315c4.854,0.559,6.425-0.828,6.395-6.104
		c-0.249-43.878-0.098-87.758-0.199-131.638c-0.012-5.229,2.442-12.371-1.096-15.2c-3.615-2.891-10.511-0.841-15.973-0.661
		c-39.302-0.052-78.605-0.143-117.907-0.118c-6.872,0.004-9.942,3.514-9.947,10.905c-0.027,46.131,0.026,92.262-0.092,138.392
		c-0.009,3.553,1.03,4.426,4.48,4.404c22.983-0.147,45.967-0.048,68.951-0.085C108.529,170.65,126.676,170.542,144.824,170.469z
		 M475.819,17.205c-0.662-0.059-1.323-0.169-1.985-0.169c-96.914-0.008-193.829,0.019-290.743-0.106
		c-3.96-0.005-4.08,1.627-4.075,4.684c0.074,47.621,0.124,95.242-0.06,142.863c-0.019,4.821,0.834,6.347,6.107,6.336
		c95.748-0.193,191.497-0.14,287.246-0.151c1.824,0,3.648-0.143,5.473-0.22c3.985,0.086,7.998-0.089,11.948,0.328
		c4.17,0.441,5.224-0.998,5.209-5.145c-0.156-43.597-0.326-87.197,0.018-130.792C495.092,17.67,492.41,16.165,475.819,17.205z
		 M255.921,187.771c-77.793,0-155.587,0.045-233.38-0.112c-4.674-0.009-5.654,1.336-5.638,5.778
		c0.164,45.139,0.097,90.28,0.102,135.42c0.001,9.595,2.596,12.268,12.024,12.265c151.42-0.05,302.84-0.108,454.261-0.174
		c8.59-0.004,11.399-2.792,11.414-11.301c0.027-15.158,0.008-30.315,0.008-45.473c0-30.482-0.083-60.965,0.099-91.446
		c0.024-4.044-1.185-5.014-5.018-4.898c-7.986,0.241-15.986-0.051-23.98-0.052C395.849,187.767,325.885,187.771,255.921,187.771z"/>
	<path style="fill:#FE2823;" d="M255.921,187.771c69.964,0,139.928-0.005,209.892,0.006c7.994,0.001,15.995,0.293,23.98,0.052
		c3.833-0.115,5.042,0.854,5.018,4.898c-0.182,30.481-0.099,60.964-0.099,91.446c0,15.158,0.019,30.315-0.008,45.473
		c-0.015,8.509-2.824,11.297-11.414,11.301c-151.42,0.066-302.84,0.125-454.261,0.174c-9.428,0.003-12.023-2.67-12.024-12.265
		c-0.005-45.14,0.062-90.28-0.102-135.42c-0.016-4.442,0.963-5.787,5.638-5.778C100.334,187.817,178.127,187.771,255.921,187.771z"
		/>
	<path style="fill:#F4F4F4;" d="M477.781,170.441c-1.824,0.076-3.648,0.219-5.473,0.22c-95.749,0.011-191.497-0.043-287.246,0.151
		c-5.273,0.011-6.126-1.515-6.107-6.336c0.184-47.62,0.133-95.242,0.06-142.863c-0.005-3.056,0.115-4.689,4.075-4.684
		c96.914,0.125,193.829,0.098,290.743,0.106c0.662,0,1.323,0.11,1.985,0.169c0.838,3.192,2.072,6.287,2.068,9.671
		C477.842,74.731,477.814,122.586,477.781,170.441z"/>
	<path style="fill:#00A9F9;" d="M144.824,170.469c-18.148,0.073-36.296,0.181-54.443,0.21c-22.984,0.037-45.968-0.062-68.951,0.085
		c-3.45,0.022-4.489-0.85-4.48-4.404c0.119-46.131,0.066-92.261,0.092-138.392c0.004-7.391,3.075-10.9,9.947-10.905
		c39.302-0.025,78.605,0.066,117.907,0.118c0.014,18.816,0.028,37.632,0.042,56.448c-9.551-1.297-19.093-2.669-28.659-3.844
		c-2.963-0.364-4.606-1.719-5.883-4.422c-3.899-8.257-8.153-16.347-12.15-24.559c-1.833-3.766-4.462-6.211-8.824-6.145
		c-4.144,0.062-6.656,2.472-8.408,6.025c-3.965,8.044-8.236,15.946-11.936,24.108c-1.617,3.568-3.961,4.733-7.55,5.171
		C52.62,71.05,43.763,72.546,34.863,73.7c-4.117,0.534-7.489,1.966-8.76,6.184c-1.254,4.162,0.613,7.348,3.625,10.177
		c6.55,6.151,12.849,12.577,19.533,18.575c2.73,2.45,3.333,4.892,2.672,8.291c-1.649,8.481-3.014,17.016-4.577,25.514
		c-0.757,4.117-0.898,8.077,2.816,10.91c3.697,2.82,7.421,1.82,11.195-0.19c8.209-4.374,16.547-8.509,24.725-12.938
		c2.468-1.337,4.429-1.372,6.91-0.027c8.469,4.592,17.021,9.036,25.623,13.374c5.081,2.562,9.463,1.686,12.062-2.058
		c2.098-3.023,1.568-6.381,1.014-9.65c-1.445-8.519-3.07-17.007-4.525-25.524c-0.349-2.044-1.067-4.152,0.983-6.009
		c5.66-5.129,11.188-10.403,16.768-15.619C144.893,119.962,144.858,145.215,144.824,170.469z"/>
	<path style="fill:#C6D0D4;" d="M477.781,170.441c0.032-47.855,0.061-95.71,0.106-143.565c0.003-3.384-1.23-6.48-2.068-9.671
		c16.591-1.04,19.273,0.466,19.137,17.628c-0.344,43.595-0.174,87.195-0.018,130.792c0.015,4.148-1.039,5.586-5.209,5.145
		C485.779,170.352,481.767,170.527,477.781,170.441z"/>
	<path style="fill:#0077BF;" d="M144.938,73.63c-0.014-18.816-0.028-37.632-0.042-56.448c5.462-0.18,12.358-2.23,15.973,0.661
		c3.538,2.83,1.084,9.972,1.096,15.2c0.101,43.879-0.05,87.76,0.199,131.638c0.03,5.276-1.541,6.663-6.395,6.104
		c-3.612-0.416-7.293-0.232-10.944-0.315c0.034-25.254,0.068-50.507,0.103-75.761c1.476-1.554,2.918-3.141,4.432-4.658
		C156.342,83.055,154.511,76.23,144.938,73.63z"/>
	<path style="fill:#020101;" d="M144.938,73.63c9.573,2.6,11.404,9.425,4.421,16.421c-1.514,1.516-2.957,3.103-4.432,4.658
		c-5.58,5.217-11.108,10.491-16.768,15.619c-2.05,1.858-1.332,3.965-0.983,6.009c1.455,8.517,3.079,17.005,4.525,25.524
		c0.554,3.268,1.085,6.627-1.014,9.65c-2.599,3.744-6.981,4.62-12.062,2.058c-8.602-4.338-17.154-8.782-25.623-13.374
		c-2.482-1.346-4.442-1.31-6.91,0.027c-8.178,4.43-16.516,8.564-24.725,12.938c-3.774,2.011-7.498,3.011-11.195,0.19
		c-3.714-2.834-3.573-6.793-2.816-10.91c1.563-8.498,2.928-17.033,4.577-25.514c0.661-3.398,0.058-5.841-2.672-8.291
		c-6.685-5.998-12.984-12.423-19.533-18.575c-3.012-2.829-4.879-6.015-3.625-10.177c1.271-4.218,4.643-5.65,8.76-6.184
		c8.901-1.153,17.758-2.65,26.666-3.736c3.59-0.438,5.933-1.603,7.55-5.171c3.7-8.162,7.971-16.064,11.936-24.108
		c1.752-3.554,4.263-5.964,8.408-6.025c4.362-0.065,6.991,2.379,8.824,6.145c3.998,8.212,8.251,16.301,12.15,24.559
		c1.276,2.703,2.92,4.058,5.883,4.422C125.845,70.96,135.387,72.333,144.938,73.63z M125.533,88.215
		c-6.193-0.848-12.119-1.72-18.062-2.452c-4.527-0.558-7.57-2.799-9.499-6.998c-2.559-5.568-5.458-10.98-8.41-16.856
		c-2.836,5.629-5.718,10.694-7.977,16.023c-2.234,5.27-6.055,7.494-11.5,8.04c-5.504,0.553-10.967,1.523-16.392,2.303
		c4.016,4.231,7.47,8.557,11.619,12.061c4.754,4.014,5.605,8.614,4.37,14.294c-1.132,5.205-1.857,10.498-2.875,16.417
		c5.978-3.084,11.22-5.594,16.267-8.448c4.509-2.55,8.69-2.447,13.168,0.075c5.019,2.826,10.235,5.304,16.125,8.322
		c-1.071-6.291-1.738-11.738-2.977-17.051c-1.268-5.441-0.034-9.585,4.213-13.352C117.785,96.882,121.41,92.544,125.533,88.215z"/>
	<path style="fill:#F4F4F4;" d="M125.533,88.215c-4.124,4.329-7.748,8.667-11.931,12.376c-4.247,3.767-5.481,7.911-4.213,13.352
		c1.238,5.314,1.905,10.76,2.977,17.051c-5.89-3.018-11.106-5.496-16.125-8.322c-4.478-2.522-8.66-2.625-13.168-0.075
		c-5.047,2.855-10.288,5.365-16.267,8.448c1.019-5.919,1.743-11.212,2.875-16.417c1.236-5.68,0.384-10.279-4.37-14.294
		c-4.149-3.503-7.603-7.829-11.619-12.061c5.425-0.779,10.887-1.75,16.392-2.303c5.445-0.547,9.265-2.77,11.5-8.04
		c2.259-5.329,5.142-10.393,7.977-16.023c2.952,5.876,5.852,11.288,8.41,16.856c1.929,4.199,4.972,6.44,9.499,6.998
		C113.414,86.496,119.34,87.368,125.533,88.215z"/>
</g>
</svg>
