<svg id="f51bddbe-ef82-494c-9dab-e8782c5c6645" data-name="Capa 1" xmlns="http://www.w3.org/2000/svg" viewBox="0 0 268.76 257.56"><defs><style>.bbf5282a-5b84-49ca-9812-e336ea064c36{fill:#070606;}.fc53f9c8-95d9-4a99-9cfa-9b0ed71370a3{fill:#f8db60;}.ffb35e6b-7f9f-4b63-aa6c-6704f94faa1f{fill:#f95368;}</style></defs><title>_</title><path class="bbf5282a-5b84-49ca-9812-e336ea064c36" d="M268.76,70.83c-3.94,9.73-11.47,14.22-21.59,15.89-8.39,1.38-16.58,4-24.89,5.86A8.11,8.11,0,0,0,216,98a117,117,0,0,1-7.66,16.1c-2.8,4.66-1.23,6.7,2.9,9.1,8.39,4.88,16.42,10.41,24.74,15.43a21.79,21.79,0,0,1,10,13.49c3.95,14.32,8,28.62,11.86,43,3.28,12.16-2.41,23.22-13.25,26.1-11.45,3-21.51-3.41-25-16-3-10.88-6.23-21.72-9.06-32.65a9,9,0,0,0-4.36-5.94c-6.76-4.16-13.51-8.35-20.13-12.73-4.11-2.72-8.83-2.06-13.24-2.6-11.44-1.4-23-2.17-34.43-3.27-2.2-.2-4.39-1.06-4.69,2.48-.25,2.88-2.81,5.71,1.78,7.95,10,4.88,19.76,10.15,29.45,15.56,11.78,6.57,14.57,20.47,6.4,30.44-1.8,2.2-3.88,4.38-6.56,5-5.8,1.26-4.88,4.34-3.3,8.45,4.12,10.72,8,21.54,11.83,32.35,2.07,5.81,1.08,7.33-5,7.34q-53.43.08-106.87,0c-5.66,0-6.93-2-5-7.54,2.12-6,4.49-11.85,6.52-17.85,1-3,2.43-5,5.93-4.38,2.64,1.84,2.39,4.3,1.45,6.88-1.35,3.72-2.63,7.47-4.11,11.14C65.19,248.56,65.11,250,69,250c17.68-.15,35.36-.09,53,0,2,0,3.19-.42,3.94-2.54,5.75-16.14,11.63-32.23,17.64-48.79H98.17c-14.54,0-14.54,0-19.78,13.85a15.32,15.32,0,0,0-.64,1.66c-.76,3.06-2.83,4.09-5.78,3.78-.64-1-1.94-2-1.82-2.9,1.18-8.08,4.55-15.48,7.78-22.87.82-1.88,3.56-1.28,5.52-1.29,8.72,0,17.45,0,26.86,0-2-2.91-4.74-3.54-7-4.75-12.11-6.52-15.5-13.94-12.29-27.39,1.6-6.7,3.18-13.4,4.94-20.84-17.39,6.35-32.2,3.45-44.78-9.1a35.47,35.47,0,0,1-10.1-20.45c-.48-3.28-1.72-4.18-4.9-4-5.54.27-11.15-.29-16.67.16C10.4,105.2,4,101.75,0,93.53V86.36c2.73-7.39,7.72-11.6,15.87-12,3.92-.22,5.94-3,6-6.91s-2.23-6.9-5.94-7c-8-.17-12.51-4.67-15.89-11.1V41c2-1.11,2.08-3.51,3.42-5.12,5.46-6.57,17-7.38,20.62-1.32-1.37,3.8-4.47,4-7.81,3.85-4.69-.28-8,1.71-8.27,6.51s2.67,7.13,7.25,7.85c9.13,1.43,14.42,6.67,14.65,14.35s-5.15,13.57-14,15c-4.72.76-8.25,2.61-7.87,7.78.39,5.47,4.43,7,9.35,6.93,6.36-.06,12.73-.21,19.08.06C40,97,41,95.5,41.86,92.28c4.35-15.74,14.63-25.34,30.68-28.91,4.68-1,9.38-.49,14.52-.54-2-2.5-4.07-2.68-6.3-2.67-4,0-8,.08-11.93,0C61.2,60,55.68,55.35,54.11,47.92c-2-9.47-2-9.48-11.56-9.54-3.37,0-7,.48-8.27-3.92a4.53,4.53,0,0,1,3.29-3.86c11.31-3.81,22.18,2.52,24,14.35.83,5.35,3.57,7.64,8.73,7.67,4.37,0,8.75,0,13.11.15C89.14,53,94,56,95.27,61.18c1.91,7.79,9.31,8.45,13.29,13.33.53-4.85.29-9.23.6-13.58.27-3.84-1.16-6.11-4.42-8.12C96.47,47.72,88.4,42.32,80.34,36.9,70,29.93,67.3,18,73.83,8.46,80.13-.77,92-2.71,102.26,3.93c11.82,7.66,23.49,15.54,35.37,23.09,7.55,4.79,11.21,11.28,11.06,20.29-.18,10.53.26,21.07.14,31.6,0,3.37.9,4.48,4.32,4.33a149.79,149.79,0,0,1,19.07.05c5.45.48,8.41-1.3,10.09-6.5,3.74-11.62,10.77-19.55,23.81-21,2.82-.31,4.51.19,6.22,2,.53,3.54-1.5,5.46-4.57,5.69-9.66.74-14.91,6.32-17.82,15-.87,2.61-2.56,4.95-3.49,7.55-1.33,3.75-3.68,5.1-7.66,5q-15.53-.33-31.05,0c-4.87.11-6.8-1.67-6.75-6.6.14-12.74-.16-25.48-.07-38.22,0-5-1.83-8.83-6-11.56Q116,22.27,97.09,9.85c-3.36-2.22-6.88-3-10.75-1.58a11.77,11.77,0,0,0-8.18,10.11C77.56,23.32,79.83,27.23,84,30c9.61,6.35,19.16,12.79,28.9,18.94a8.09,8.09,0,0,1,4.22,7.79c-.15,10.35,0,20.7-.06,31.05,0,2.37.37,5-2.72,5.88-3.34.9-4.54-1.46-5.6-4A29.7,29.7,0,0,0,98.06,76.36c-1.39-1-2.49-2.51-4.23,0-2.91,4.23-7.41,5.8-12.41,6-3.86.16-6.39,1.94-7.25,5.79C71.14,101.8,68,104.63,54,104.22c-6.09-.18-5.78,2.41-4.56,6.59,5.81,20,29.33,28.71,47.29,17.57,2.23-1.38,4.33-4.22,7.37-1.86,2.83,2.2,1.21,5.2.64,7.76-2.1,9.49-4.44,18.93-6.64,28.4-1.33,5.69-.57,11.1,4.83,14.14,13.52,7.64,26.52,17.22,43.58,14.08,4.11-.76,6.33,1.31,7.32,5.15.39,1.53,1.13,3,1.49,4.52.77,3.22,2.67,3.48,5.33,2.31,4.39-1.93,7-5.31,7.5-10,.51-5.24-1.95-9.3-6.51-11.82-8.15-4.51-16.47-8.73-24.64-13.21-16.32-9-13.92-3.8-10.12-22.75.88-4.4,3-5.74,7.47-5.27,14.43,1.55,28.91,2.64,43.35,4.12,3.86.4,7.84.24,11.43,2.65,7.58,5.09,15.33,9.94,23.15,14.66a10.65,10.65,0,0,1,5.14,6.84c3.07,11.5,6.3,22.95,9.47,34.42,2.43,8.81,8.34,13.15,15.31,11.25,7.41-2,10.3-8.6,7.78-17.82-3.71-13.59-7.53-27.14-11.14-40.75a16.82,16.82,0,0,0-7.9-10.64c-10-6.11-19.73-12.64-29.78-18.65-4.16-2.48-4.77-5-2.65-9.21,4.18-8.32,8.1-16.78,11.91-25.28,1.44-3.23,3.53-4.74,7-5.51,11-2.43,22-5.25,32.94-8,7.91-2,11.79-7.82,10.06-14.83s-7.9-10.46-15.78-8.66c-5.22,1.19-10.48,2.32-15.58,3.93-2.95.93-5,.29-6.85-1.86-.23-1.88.05-4.09,1.85-4.56,9.23-2.43,18.23-6.55,28.08-5.43,8.84,1,13.2,7.43,16.58,14.77ZM149.09,206.17c-5.5,15.29-10.51,29.25-15.66,43.6h31.44C159.68,235.42,154.6,221.39,149.09,206.17ZM87.27,71.49c-16.76-3.75-32.85,5.26-37.51,20.73-.46,1.53-2,3.36.69,4.47a11.54,11.54,0,0,0,16.08-8.81c1.31-8.08,6-12.45,14.31-13.31C83.17,74.32,85.64,74.58,87.27,71.49Z"/><path class="bbf5282a-5b84-49ca-9812-e336ea064c36" d="M0,125.78c5.06-11.78,13-16.5,22.73-13.44,8.11,2.57,13.45,9.9,12.94,17.78A18.3,18.3,0,0,1,20,147c-7.66,1.19-15.6-3.67-18.81-11.49-.36-.88-.8-1.73-1.21-2.59Zm17.87-6.56c-5.42,0-10.36,5-10.21,10.29a10.41,10.41,0,0,0,10.09,9.76,9.86,9.86,0,0,0,10-10.21A10.11,10.11,0,0,0,17.87,119.22Z"/><path class="fc53f9c8-95d9-4a99-9cfa-9b0ed71370a3" d="M72,217.92c3,.31,5-.72,5.78-3.78a15.32,15.32,0,0,1,.64-1.66c5.24-13.85,5.24-13.85,19.78-13.85h45.4c-6,16.56-11.89,32.65-17.64,48.79-.75,2.12-2,2.54-3.94,2.54-17.68-.05-35.36-.11-53,0-3.84,0-3.76-1.44-2.64-4.23,1.48-3.67,2.76-7.42,4.11-11.14.94-2.58,1.19-5-1.45-6.88Zm29.28,18.36c5.16-5.77,11.26-9.73,15.21-15.69,2.85-4.32,3.89-8.92.36-13.21s-8.37-3.83-13.1-2a16.22,16.22,0,0,0-6.92,5.46c-1.62,2.06-2.48,4.39-.32,6.34s4.34,1.11,6.11-1.08c2-2.48,5.08-6,7.62-3.53,2.92,2.85-1.46,5.48-3.48,7.49-5.63,5.59-11.56,10.88-17.44,16.22-1.78,1.61-2.9,3.37-2,5.72s3.07,2.26,5.06,2.3a89.1,89.1,0,0,0,9.53,0c3.38-.3,8.85,1.84,8.79-4C110.66,234.9,105.27,237.41,101.25,236.28Z"/><path class="ffb35e6b-7f9f-4b63-aa6c-6704f94faa1f" d="M24,34.53l10.24-.07c1.29,4.4,4.9,3.9,8.27,3.92,9.56.06,9.56.07,11.56,9.54,1.57,7.43,7.09,12,14.72,12.23,4,.09,8,0,11.93,0,2.23,0,4.35.17,6.3,2.67-5.14.05-9.84-.5-14.52.54C56.49,66.94,46.21,76.54,41.86,92.28,41,95.5,40,97,36.41,96.85c-6.35-.27-12.72-.12-19.08-.06-4.92,0-9-1.46-9.35-6.93-.38-5.17,3.15-7,7.87-7.78,8.86-1.42,14.24-7.4,14-15S24.34,54.17,15.21,52.74C10.63,52,7.7,49.55,8,44.89s3.58-6.79,8.27-6.51C19.57,38.58,22.67,38.33,24,34.53Z"/><path class="fc53f9c8-95d9-4a99-9cfa-9b0ed71370a3" d="M149.09,206.17c5.51,15.22,10.59,29.25,15.78,43.6H133.43C138.58,235.42,143.59,221.46,149.09,206.17Z"/><path class="ffb35e6b-7f9f-4b63-aa6c-6704f94faa1f" d="M87.27,71.49c-1.63,3.09-4.1,2.83-6.43,3.08-8.34.86-13,5.23-14.31,13.31a11.54,11.54,0,0,1-16.08,8.81c-2.68-1.11-1.15-2.94-.69-4.47C54.42,76.75,70.51,67.74,87.27,71.49Z"/><path class="ffb35e6b-7f9f-4b63-aa6c-6704f94faa1f" d="M17.87,119.22a10.11,10.11,0,0,1,9.9,9.84,9.86,9.86,0,0,1-10,10.21,10.41,10.41,0,0,1-10.09-9.76C7.51,124.17,12.45,119.19,17.87,119.22Z"/><path class="bbf5282a-5b84-49ca-9812-e336ea064c36" d="M101.25,236.28c4,1.13,9.41-1.38,9.47,4,.06,5.8-5.41,3.66-8.79,4a89.1,89.1,0,0,1-9.53,0c-2,0-4.16-.07-5.06-2.3s.17-4.11,2-5.72c5.88-5.34,11.81-10.63,17.44-16.22,2-2,6.4-4.64,3.48-7.49-2.54-2.49-5.61,1-7.62,3.53-1.77,2.19-4,3-6.11,1.08s-1.3-4.28.32-6.34a16.22,16.22,0,0,1,6.92-5.46c4.73-1.78,9.53-2.3,13.1,2s2.49,8.89-.36,13.21C112.51,226.55,106.41,230.51,101.25,236.28Z"/></svg>