<svg id="bdd01bad-b9b9-408b-8f4c-6d753816031c" data-name="Capa 1" xmlns="http://www.w3.org/2000/svg" viewBox="0 0 321.15 320.69"><defs><style>.b1fcf86e-8345-4577-8e53-3e5408770cd6{fill:#c29eea;}.b58f1794-f558-41ff-ae82-d918befcd0dc{fill:#6cc2de;}.a8059f72-e9dc-4ef7-9aa6-586bbc482567{fill:#9aafdd;}.e6dc7241-ad74-469c-90db-8ca4f0f411d4{fill:#13d4d2;}</style></defs><title>_</title><path class="b1fcf86e-8345-4577-8e53-3e5408770cd6" d="M308.25,95.93a25.49,25.49,0,0,1,12.36,11.93l.33,3c-.11,2-.23,4-.34,6-.11.5-.22,1-.35,1.47l-1.12,1.44q-1.78,2.91-3.56,5.84c-7.83,2.63-16.49,4.74-22.15-2.56-4.76-6.12-10.09-5.94-16.29-6-4.95-.08-5.66,2-3.86,6-.25,3.6-.5,7.21-.76,10.81q-.13,9-.26,18.07c-4.25,5-10.16,2.26-15.27,3.27-1.94-1.17-4.09-2.81-6.08-.65-2.28,2.47-2.3,5.35,0,8,.23,4,2.9,4.42,6.17,4.63,4.58.3,9.32-1.34,13.74,1.05-.07,5.25-.46,10.51-.1,15.72.28,4-1.78,8.35,1.41,12,1.73,1.74.94,4.07,1.45,6.1a6.71,6.71,0,0,0,.16,1.48c-1.17,1-2.13,3.36-.62,3.21,3.77-.37,8.63,1.75,11.13-3.23l1.69-.42a2.24,2.24,0,0,0,2.94-1c5-6.41,10.4-11.49,19.64-9.21,7.4,1.82,11.14,6.58,12.12,13.66,1,7.38-2.81,12.45-8.89,16s-12.48,3.2-16.95-2.39c-5.69-7.1-13.1-6.06-20.53-6.06-12.36,0-12.65-.31-12.66-12.81,0-6.3.05-12.61-.05-18.91,0-2.61.8-6.2-3.57-6-3.29.16-7.9-2.28-8.91,3.89-.3,1.82-2,3.43-3,5.13-6.3-1.53-4.22-6.17-3.75-10.18.39-3.38,3.23-7.19-1.79-9.55.82-24.63-6.81-46.11-24.85-63.12-5.34-5-10.73-10.2-17.73-13.63-18.46-9-38-9-57.65-8.26-2.15-.16-4.79.18-5.69-2.3-1.17-3.24,2.91-3.36,3.82-5.47,1.39-2.33,5.36-.52,6.15-4.58,1.59-8.15,1.15-9.07-7.45-9.1-13.9,0-13.87,0-13.89-13.9,0-6.89.9-13.32-6.61-18.53-6.93-4.81-5.37-17.52,1.14-22.9,6.7-5.52,17.41-5,22.82,1.15a15.54,15.54,0,0,1-2,22.65c-4.64,3.71-6.92,13.45-4.36,18.48.94,1.84,2.57,2.29,4.43,2.31,3,0,6.07.17,9.1,0,5.51-.3,8.05,2.09,7.44,7.66a3.28,3.28,0,0,0,0,1.5c1.68,4.07-4.28,11.88,5.1,12,10.34.17,3.36-8.32,5.38-12.41.5-1,.12-2.49.11-3.76,0-3.11,1.7-4.57,4.6-4.93,5.66,1.82,11.34,3.95,16.37-1.42.05-2.61,1.28-5.4-1.18-7.62a6.21,6.21,0,0,1,0-1.43c1.63-1.05,1.64-2.11,0-3.17a6.44,6.44,0,0,0-.22-1.45c-.6-3.22-3.37-4.92-5.16-7.3-5.55-7.38-5-15.54,1.65-21.71s12.87-5.51,20.71.75c5.63,4.49,6.32,9.77,5.66,16-9.45,6.25-12.48,15.06-10.37,25.94l.06,3-.42,6c-4.06,5.39-9.51,4.35-15,3.22-4.37-.84-6,.64-6.26,5.37-.4,6.2,3.52,7.74,7.81,9.49,11,.37,19.89,5.75,28.58,11.7,2.49,1.7,4.86,3.89,7.63,4.82,10.63,3.58,14.95,0,15.39-11.06.34-8.69-2.15-17.62,1.77-26.08l2.78-.4,28.79.23c2.07,1.9,4.15,1.89,6.23,0l7.52-.38c3.21.21,6.61,1.06,8.48-2.85,1.73-3.61,5.34-5.14,8.32-7.36l6-.39,4.55,1.25,2.95.68,4.59,4.3c4.92,10.3,3.9,18-3,23.14-6.65,4.9-15.71,3.53-23.95-3.6-.7-3.9-3.54-4.34-6.78-4.32-10.79,0-21.57,0-32.36.05-1.87,0-4.91-.57-4.88,2.09.1,7-2.83,14.39,2,20.94,0,0,.32.49.33.49-3.22,1.14-4,3.75-4,6.76,1.45,11.59-8.15,5.8-13.22,8.39,2.8,5.11,5.32,10.46,8.52,15.37a60.23,60.23,0,0,1,8.63,21.58c.92,4.73,3.48,6.37,7.8,6.24,5.28-.15,4.88-4.05,4.89-7.62,0-7.32.2-14.65-.05-22a13.39,13.39,0,0,1,3.13-9.74l0,0c4.5,0,9-.34,13.48.07,6.67.62,12.08-.75,16.36-6.44C297.85,95.63,303.12,95.54,308.25,95.93ZM310,208.74c0-4.09-2.34-5.47-5.86-5.23-2.57.16-5.73-.67-6.06,3.61s2.55,5.85,5.79,6.48C307.45,214.3,309.2,211.81,310,208.74Zm-117-187.55c3.54-.25,4.89-2.25,4.76-5.53-.12-2.94-1.51-4.9-4.57-4.84-3.5.07-5.72,2.12-5.81,5.61S190.21,20.62,192.92,21.19ZM310,111.87c-.44-2.78-2.12-5.18-5.19-5.11-3.45.07-5.44,2.61-5.18,6.08.18,2.35.51,5.06,4.38,4.46C307.24,116.8,309.94,116.17,310,111.87Zm.18-53.43c.46-2.63-1.67-4.39-4.63-4.87-3.28-.54-5.21,1.65-5.78,4.65-.64,3.34,1,5.27,4.46,5.52C307.44,64,309.61,62.83,310.16,58.44ZM128.23,21.12c3.21-.28,5.25-2,5.4-5.11a4.75,4.75,0,0,0-4.53-5c-2.93-.28-5.5.93-5.66,4.42C123.3,18.62,125.34,20.29,128.23,21.12Z"/><path class="b58f1794-f558-41ff-ae82-d918befcd0dc" d="M208.24,309.64c-9,12.3-19.19,14.35-27.34,5.49a15.53,15.53,0,0,1,1.83-23.21c2.09-1.65,5.19-2.56,3.85-6.26a2.93,2.93,0,0,0-.1-1.41c1.72-12.31,1.53-12.64-6.87-11.52l-6.31-.39-4.36-.22-1.46-.57c-3.06-4.84-1.56-10.21-1.54-15.32,0-4.34-1.73-5.7-5.78-5.55-8.8.34-3.37,6.95-4.77,10.53v4.62c-2.13,10-9.82,5.3-15.51,5.86-.4-.9-1.34-2-1.1-2.66,2.45-6.75-1.11-5.95-5.58-4.82-2.28.57-4.9.86-6.88-1.25.41-1.56,1.81-1.55,3-1.89l3.1.17,4.56,0,4.55,0c5.52-1.31,2.25-5.69,2.85-8.63.64-3.15-2.13-3.4-4.37-3.81-3-.53-5.91-1.09-8.86-1.64-5.17-3.89-12.25-3.85-17.1-8.38-4.53-3.81-8.84-8-15.07-8.93l-9.18-.13-3.07-.55c2.88-5.56,7.43-1.93,11.3-2,1.33,0,3.1,1.11,3.68-1.15.29-1.09-.44-1.76-1.31-2.4-7.15-5.28-19.59-3.13-25.08,4.37-.36-8.31-.12-8.49,13.8-9.61-2.74-7.1-8.74-12.19-10.89-19.44-1.55-5.25-4.42-10.16-5.57-15.46s-2.76-7.59-8.69-7.33c-6.55.28-3.69,5.39-5.35,8.1-3.17,4.37-3.52,8.7.17,13v3.57c-3.7,2.19-3.3,4.6-.41,7.17a2.09,2.09,0,0,1,1.23.15L56.16,214l-5.81.36a1.74,1.74,0,0,0-1.43,0l-10.71,0a1.87,1.87,0,0,0-1.45,0h-3L30,216.14c-1-2.83.43-4.13,3-4.89s3.34-3.07,1.15-4.35c-7.48-4.37-11.57-14.48-22.3-13.31,7.35-2.61,13.1-.32,18,5.51,4.12,5,12.46,5.46,17.6,1.38,2.46-6.4.84-13,.92-19.51V177.5c.92-3.94-.36-8.27,2.15-11.91,4.56-.05,9.12-.3,13.66-.07,4,.2,6-.7,6.07-5.3.1-4.85-2.38-5-6.09-5.36-5.21-.54-11.29,2.64-15.49-3.06l-.39-10.6,0-6.26c0-2.39,0-4.77.08-7.16,0-1.64,0-3.28,0-4.92.22-1.84,1.27-3.85-1.08-5.16l-3.09-.17c-7.58-1.26-14.36-1-18.8,7-1.39,2.48-4.86,3.09-8.06,3.36-5.53.46-9.62-2.48-14-5A3.2,3.2,0,0,0,1.61,120c-.86-4-1.81-8-1.22-12.2a.92.92,0,0,0,.12-1,7.76,7.76,0,0,0,2.78-5.08l1.56-1.61,1.48-1.44L8,98.12l1.41-.91L14,96.14l4.75.78c2.94,3.33,6.38,5.83,10.91,6.48l1.1,1.74,1.1,1.09.45.32c.5,2.06,1.32,5.85,3.1,4.81,8.35-4.86,15.84-1.28,23.57,1.14a171.71,171.71,0,0,1,0,25.66c-4.13,2.25-2.73,5.22-.24,7.18,3.22,2.53,7.09,4.28,9.94-.91l1.84-.18c4.49-3.29,3.76-9.2,6.46-13.2,5.14-7.61,4.28-19.85,16.73-22.24l-.59,6.74,0-.06-1.47,1.63.1.07c-4.82.19-2.92,3.71-3.08,6.2a2.88,2.88,0,0,1-.25,1.16l-1.24,1.7,0,.06c-1.61.41-1.77,1.59-1.54,3l0,0c-1.92.68-1.82,1.65-.42,2.81l-1.43,3c-4.71,1.61-3.42,4.56-1.68,7.6-2.15,13.31-2,26.46,1.49,39.64,3.64,13.81,9.32,26.16,21,35.08,6.38,4.89,12.72,9.82,19.08,14.73a35.24,35.24,0,0,1-4.37-.26c-4.64-.88-1.28,2.82-2.33,4,2.72,2.34,5-.43,7.5-.67.66-.06,1.25-.73,1.88-1.11s1.48-1.07,1.88-.87c17.39,8.33,35.49,8.32,53.91,4.68,2.38.69,5.24.34,6.61,2.53-2.27,4.91-9.27,2.94-10.69,8.51-3.68,10.33-2.25,12.64,7.73,12.46,2,0,3.94-.11,5.92-.17l3,.28c3.05,2.58,2.85,6.09,3.05,9.65.32,5.91-1.46,12,1.33,17.72a4,4,0,0,0,3.83,1.72l5.36,8.61Zm-20.81-1.57c2.41.13,4.51,2.52,7.19.82s4.11-4.25,2.51-7c-2.64-4.6-6.4-2.39-9.87-.83-.67-2.66-2.59-4.41-4.79-2.53a6.82,6.82,0,0,0-2.08,8.11c1,2.15,1.28,5.32,4.18,5.74C187.69,312.8,186.7,309.67,187.43,308.07Zm-166-196.16c-.38-3-2.21-5.27-5.22-5.16-3.43.12-5.09,2.75-5.09,6.23s2.15,4.19,5,4.06C19.21,116.9,21.34,115.57,21.43,111.91Zm21.89,96.51c4.89,2.49,7.64,4.63,9.91,1,1-1.57,1.2-4.46-.77-5.36C48.07,202.12,48.31,208,43.32,208.42Z"/><path class="a8059f72-e9dc-4ef7-9aa6-586bbc482567" d="M93.06,115.55l.59-6.74c-12.45,2.39-11.59,14.63-16.73,22.24-2.7,4-2,9.91-6.46,13.2,2.85-15.3,9.5-28.93,19.09-41.5-14.78-2.45-14.77-2.45-14.73-17.24,0-5.29-.27-10.59,0-15.87.26-4.77-1.55-6.55-6.19-5.48-4.23-.09-8.48-.47-12.7-.22-10.84.65-23-3.74-31.18,7.66l-.25-.28c1.08-4.11-2.67-5.4-4.54-7.79,1.61-2.79,2.39-5.49-.14-8.3-3.9-4.33-6.74.82-10.12,1-1.69-2.67-3.12-4.13-5.6-.37a13.15,13.15,0,0,0-2.6,6.64c-2-1.71-1-4.15-1.51-6.21,6.4-16,18.44-18.48,30-5.94,2.46,2.66,5.12,2.87,8.15,2.87,12.9,0,25.81.29,38.7-.09,6.76-.2,9,2.42,8.66,8.94-.4,7.56.09,15.17-.1,22.76-.12,4.55,1.65,6.26,6.23,6.29,6.16,0,11.36-.8,16.69-5,8.75-6.81,18.7-12,30.1-13.33-.91,2.11-5,2.23-3.82,5.47.9,2.48,3.54,2.14,5.69,2.3-.4,1.22-.91,2.33-2.31,2.72C119.11,88.58,105.06,100.64,93.06,115.55Z"/><path class="e6dc7241-ad74-469c-90db-8ca4f0f411d4" d="M11.82,193.59c10.73-1.17,14.82,8.94,22.3,13.31,2.19,1.28,1.47,3.57-1.15,4.35s-4,2.06-3,4.89a4.58,4.58,0,0,1-.81,1.18c-2-.07-2.95.94-3.07,2.87l0,0c-2.3.37-4.44,1-5.9,3C6,225.63-1.32,216.5,1.82,200.51h0A1.68,1.68,0,0,0,3,200.17a1.5,1.5,0,0,0,1.44-1.68,2.17,2.17,0,0,1,.59-.84c2.63-.05,4.84-.72,5.52-3.68A1.69,1.69,0,0,1,11.82,193.59Zm3.52,9.18c-1.72-.66-2.4.53-3.07,1.74-3,2.85-1.82,5.5.38,8.1,3.89,3.32,7,1.54,9-2,2.28-4,.31-6.44-3.81-7.52Z"/><path class="a8059f72-e9dc-4ef7-9aa6-586bbc482567" d="M58.93,112.5c-7.73-2.42-15.22-6-23.57-1.14-1.78,1-2.6-2.75-3.1-4.81l1.52-.45,17.77.35C55.62,106.52,59,107.39,58.93,112.5Z"/><path class="a8059f72-e9dc-4ef7-9aa6-586bbc482567" d="M68.62,144.43c-2.85,5.19-6.72,3.44-9.94.91-2.49-2-3.89-4.93.24-7.18C58.59,145.75,64.44,143.8,68.62,144.43Z"/><path class="a8059f72-e9dc-4ef7-9aa6-586bbc482567" d="M12.44,74.62C10.71,73.3,8,73.1,7.46,70.4c5.8-1.75,11.16,4.55,17.05.92l.25.28-3.24,2.83Z"/><path class="a8059f72-e9dc-4ef7-9aa6-586bbc482567" d="M29.93,102.09a1.32,1.32,0,0,1-.31,1.31c-4.54-.65-8-3.15-10.92-6.48l2.72-.11A20.7,20.7,0,0,1,29.93,102.09Z"/><path class="b58f1794-f558-41ff-ae82-d918befcd0dc" d="M10.58,194c-.68,3-2.89,3.63-5.52,3.68C5.78,194.74,8.19,194.37,10.58,194Z"/><path class="b58f1794-f558-41ff-ae82-d918befcd0dc" d="M4.47,198.49A1.5,1.5,0,0,1,3,200.17,6.57,6.57,0,0,0,2.71,199Z"/><path class="a8059f72-e9dc-4ef7-9aa6-586bbc482567" d="M178,249c1.42-5.57,8.42-3.6,10.69-8.51-1.37-2.19-4.23-1.84-6.61-2.53L189,235c30.81-13,47.9-36.22,51.55-69.42,5,2.36,2.18,6.17,1.79,9.55-.47,4-2.55,8.65,3.75,10.18.4,10.78-8.19,17.83-11.34,27.14-.61,1.83-1.87,3.44-3,5.44,4.81,2.34,11.9-1.94,14.4,5.37,0,9.26,0,18.51,0,27.76,0,3.28.07,6.29,4.74,5.3l30.33,0,4.58,0,3.07.07,1.43-1.27,3.13-4.46,3-3.19c4.3,0,8.6,0,12.89,0,5,0,8.18,2.11,8.63,7.4-2.49.34-4.22-1.1-6.1-2.4-3.78-2.64-7.61-.27-11.23.55-1.39.31.23,2.6.59,4-2,2.7-2.75,5.46-.09,8.16,1.47,1.5,3.28,2.57,5.43,1.45,3.52-1.83,4-4.87,3.08-8.4,2.93,1.45,1.8,4.2,2,6.48.33,3.23.57,6.47,4.72,7.16-7.07,8-18.76,8.22-24.62-.11-2.61-3.71-5.31-4.63-9.42-4.57-12.91.18-25.82-.15-38.73.12-5.83.12-8.36-1.87-8.13-7.89.31-7.83-.13-15.7.14-23.54.17-5-1.92-6.52-6.74-6.58-6.55-.06-12.27.95-17.19,5.87-2.6,2.59-6.29,4.08-9.49,6.07l-13.91,6.15L184,248,182.43,249V249Zm130.8,22.63c-.9.52-2.15.81-2.4,1.47-.51,1.38.8,1.56,1.78,1.56s2.05-.45,2.14-1.6C310.37,272.67,309.48,272.21,308.81,271.61Z"/><path class="b1fcf86e-8345-4577-8e53-3e5408770cd6" d="M316.37,271.9c-4.15-.69-4.39-3.93-4.72-7.16-.23-2.28.9-5-2-6.48-2.6-1.83-5.45-1.93-8.43-1.21-.36-1.37-2-3.66-.59-4,3.62-.82,7.45-3.19,11.23-.55,1.88,1.3,3.61,2.74,6.1,2.4l-.12.17q0,7,0,14.08A2.73,2.73,0,0,1,316.37,271.9Z"/><path class="a8059f72-e9dc-4ef7-9aa6-586bbc482567" d="M272.15,195.92c-3.19-3.67-1.13-8-1.41-12-.36-5.21,0-10.47.1-15.72.46.17.93.33,1.4.47q.11,4.47.23,8.93Q272.31,186.75,272.15,195.92Z"/><path class="a8059f72-e9dc-4ef7-9aa6-586bbc482567" d="M284.27,203.48c-2.5,5-7.36,2.86-11.13,3.23-1.51.15-.55-2.22.62-3.21l4.31-.41Z"/><path class="a8059f72-e9dc-4ef7-9aa6-586bbc482567" d="M317.8,269.18q0-7.05,0-14.08C322.6,259.8,321.92,264.49,317.8,269.18Z"/><path class="e6dc7241-ad74-469c-90db-8ca4f0f411d4" d="M75.32,228c5.49-7.5,17.93-9.65,25.08-4.37.87.64,1.6,1.31,1.31,2.4-.58,2.26-2.35,1.11-3.68,1.15-3.87.11-8.42-3.52-11.3,2a1.65,1.65,0,0,0-.29,1.39l.11,0q-.76.83-1.56,1.65c-4,1.32-2.08,4.15-1.93,6.77.38,6.51,2.41,13-1.87,19.39-2.81,4.17,1.32,4,4,4.37-1.42,4.83-5.51,3.61-8.8,3.64-12.61.14-25.23,0-37.85.11-3.11,0-6.9-.81-7.84,3.85l0,0c-.4.51-.79,1-1.18,1.54l-3.25,2.7c-2.58.11-4.49,1.51-6.21,3.25l-7.48.06-3.11-1.46L6,274.94,4.8,273.81l-1.37-2c-.58-.92-1.15-1.85-1.72-2.77l-.09-.17c-2.12-6.33-.49-12.26,1.94-18.11l-.06.06c5-3.4,10.36-5.49,16.53-4.78,2.2,1.15,5.36,1,6.61,3.34,4.12,7.71,11.06,7.19,18.24,7.2s14.41,1,21.63,1.35c2.38.11,5.08.94,7.13-1.26a1.44,1.44,0,0,0,1.21-.64,2.64,2.64,0,0,1,.38-.77c.16-.17.49-.35.47-.49a7.06,7.06,0,0,0-.35-1.25q0-10.52,0-21c.85-.62.87-1.22,0-1.83ZM16.41,256.57c-3.27,0-5.33,1.48-5.27,4.89.06,3.12,1.77,5.57,4.93,5.47a5.37,5.37,0,0,0,5.43-5.23C21.65,258.46,19.78,256.63,16.41,256.57Z"/><path class="e6dc7241-ad74-469c-90db-8ca4f0f411d4" d="M126.32,263c2,2.11,4.6,1.82,6.88,1.25,4.47-1.13,8-1.93,5.58,4.82-.24.67.7,1.76,1.1,2.66h-2.82c-2.63-2.87-5.48-3.1-8.6-.77-1.6,1.2-2.78,3.4-1.48,4.46,5.08,4.12,4.39,8.78,2.64,14.1-.76,2.3.91,3.79,3.15,5.2,8.47,5.31,9.2,9.2,3.76,17.2-1.28,1.88-.82,3.83-.8,5.8l-.09.05c-3.37-.14-6.95-1.15-9.39,2.39l.16.56-3.11-.17.21-.56a2.84,2.84,0,0,0-3.49-2.32l-5.61-5.34c-2.55-4.83-.81-10-1.31-15.05a5.77,5.77,0,0,0,3.46-3.84l.93-1c6.27-1.63,6.54-6.18,5.52-11.36q.27-3,.53-6a9.27,9.27,0,0,0,.18-9.33c0-.64,0-1.27,0-1.91Zm7.39,40.81a5.19,5.19,0,0,0-5.8-4.71c-3.91.14-5.12,2.82-4.73,6.27.31,2.8,1,6.14,4.69,5.49C131.24,310.22,133.25,307.41,133.71,303.77Z"/><path class="e6dc7241-ad74-469c-90db-8ca4f0f411d4" d="M58.79,197.19c-3.69-4.28-3.34-8.61-.17-13Q58.71,190.71,58.79,197.19Z"/><path class="e6dc7241-ad74-469c-90db-8ca4f0f411d4" d="M58.38,207.93c-2.89-2.57-3.29-5,.41-7.17Q58.58,204.35,58.38,207.93Z"/><path class="b58f1794-f558-41ff-ae82-d918befcd0dc" d="M123.72,265.67a9.27,9.27,0,0,1-.18,9.33A20.56,20.56,0,0,1,123.72,265.67Z"/><path class="b58f1794-f558-41ff-ae82-d918befcd0dc" d="M20.15,223.25c1.46-2,3.6-2.67,5.9-3,0,2-1.62,2.5-3,3.25Z"/><path class="b58f1794-f558-41ff-ae82-d918befcd0dc" d="M29.14,217.32l-1.48,2.93-1.59-.06C26.19,218.26,27.16,217.25,29.14,217.32Z"/><path class="b58f1794-f558-41ff-ae82-d918befcd0dc" d="M74.85,256.06a1.44,1.44,0,0,1-1.21.64Z"/><path class="b58f1794-f558-41ff-ae82-d918befcd0dc" d="M75.35,253.55a7.06,7.06,0,0,1,.35,1.25c0,.14-.31.32-.47.49Z"/><path class="b58f1794-f558-41ff-ae82-d918befcd0dc" d="M75.33,230.7c.88.61.86,1.21,0,1.83C75.34,231.92,75.34,231.31,75.33,230.7Z"/><path class="e6dc7241-ad74-469c-90db-8ca4f0f411d4" d="M187.26,301l-.6,2.59c-1.14.82-2.4,1.68-2.1,3.28s1.62,1.33,2.79,1.16h.08c-.73,1.6.26,4.73-2.86,4.28-2.9-.42-3.17-3.59-4.18-5.74a6.82,6.82,0,0,1,2.08-8.11C184.67,296.62,186.59,298.37,187.26,301Z"/><path class="e6dc7241-ad74-469c-90db-8ca4f0f411d4" d="M43.32,208.42c5-.38,4.75-6.3,9.14-4.32,2,.9,1.76,3.79.77,5.36C51,213.05,48.21,210.91,43.32,208.42Z"/><path class="e6dc7241-ad74-469c-90db-8ca4f0f411d4" d="M123.62,232.19l2.68,1.94c-.63.38-1.22,1.05-1.88,1.11-2.49.24-4.78,3-7.5.67,1-1.16-2.31-4.86,2.33-4A35.24,35.24,0,0,0,123.62,232.19Z"/><path class="a8059f72-e9dc-4ef7-9aa6-586bbc482567" d="M83.77,135.14l-1.68,7.6C80.35,139.7,79.06,136.75,83.77,135.14Z"/><path class="a8059f72-e9dc-4ef7-9aa6-586bbc482567" d="M91.67,117.19a6.88,6.88,0,0,1-3.08,6.2C88.75,120.9,86.85,117.38,91.67,117.19Z"/><path class="a8059f72-e9dc-4ef7-9aa6-586bbc482567" d="M87.14,126.31a3,3,0,0,1-1.54,3C85.37,127.9,85.53,126.72,87.14,126.31Z"/><path class="a8059f72-e9dc-4ef7-9aa6-586bbc482567" d="M85.62,129.31l-.42,2.81C83.8,131,83.7,130,85.62,129.31Z"/><path class="a8059f72-e9dc-4ef7-9aa6-586bbc482567" d="M30.71,105.14l1.11,1.09Z"/><path class="a8059f72-e9dc-4ef7-9aa6-586bbc482567" d="M93,115.49l-1.47,1.63Z"/><path class="a8059f72-e9dc-4ef7-9aa6-586bbc482567" d="M88.34,124.55c-.41.56-.82,1.13-1.24,1.69C87.52,125.68,87.93,125.11,88.34,124.55Z"/><path class="b58f1794-f558-41ff-ae82-d918befcd0dc" d="M24.51,71.32c-5.89,3.63-11.25-2.67-17-.92l-.06-.22c1.35-5.05-.8-7.46-5.82-7.68H1.51a13.15,13.15,0,0,1,2.6-6.64c2.48-3.76,3.91-2.3,5.6.37C9.4,65.46,10.1,66,20,63.53,21.84,65.92,25.59,67.21,24.51,71.32Z"/><path class="a8059f72-e9dc-4ef7-9aa6-586bbc482567" d="M12.65,212.61c7.76-1,8.54-2.4,5.2-9.52,4.12,1.08,6.09,3.57,3.81,7.52C19.61,214.15,16.54,215.93,12.65,212.61Z"/><path class="a8059f72-e9dc-4ef7-9aa6-586bbc482567" d="M15.34,202.77c-.49,1.51-1.67,1.83-3.07,1.74C12.94,203.3,13.62,202.11,15.34,202.77Z"/><path class="a8059f72-e9dc-4ef7-9aa6-586bbc482567" d="M1.58,62.5c5,.22,7.17,2.63,5.82,7.68C3.13,69.38,1.79,66.37,1.58,62.5Z"/><path class="b1fcf86e-8345-4577-8e53-3e5408770cd6" d="M308.81,271.61c.67.6,1.56,1.06,1.52,1.43-.09,1.15-1.1,1.6-2.14,1.6s-2.29-.18-1.78-1.56C306.66,272.42,307.91,272.13,308.81,271.61Z"/><path class="b58f1794-f558-41ff-ae82-d918befcd0dc" d="M85,232.19a193.28,193.28,0,0,1,.15,30.53c-2.63-.32-6.76-.2-4-4.37,4.28-6.34,2.25-12.88,1.87-19.39C82.91,236.34,81,233.51,85,232.19Z"/><path class="b58f1794-f558-41ff-ae82-d918befcd0dc" d="M137.06,271.7c-5.05,5-4.41,15.22,1.28,20.24,9.36,8.26,8.15,20.2-2.61,25.75,0-2-.48-3.92.8-5.8,5.44-8,4.71-11.89-3.76-17.2-2.24-1.41-3.91-2.9-3.15-5.2,1.75-5.32,2.44-10-2.64-14.1-1.3-1.06-.12-3.26,1.48-4.46C131.58,268.6,134.43,268.83,137.06,271.7Z"/><path class="b58f1794-f558-41ff-ae82-d918befcd0dc" d="M135.64,317.74c-2.63,2.77-5.8,3.39-9.39,2.39C128.69,316.59,132.27,317.6,135.64,317.74Z"/><path class="b58f1794-f558-41ff-ae82-d918befcd0dc" d="M123.51,320c-2.33,1-3.14-.32-3.49-2.32A2.84,2.84,0,0,1,123.51,320Z"/><path class="b58f1794-f558-41ff-ae82-d918befcd0dc" d="M152.26,229c-39.59-4.87-65.7-39.65-60.52-80.57.06-.44.54-.82.82-1.23l11.28-4.54c-.06,2.13-.12,4.27-.17,6.4,2,3.25,1.37,6.86,1.4,10.37-5.5,1.38-2.93,5.67-2.8,8.7.15,3.5,3.13,3,5.75,3,4.78-.06,9.56.19,14.34.35,3,.1,5.51.64,5.57,4.53s-2.25,5.48-5.58,5.75a71.84,71.84,0,0,1-10.58,0c-4.79-.34-4.81,1.78-3.45,5.41,7.11,19,23.78,25.47,40.91,31.36,7.45,3.56,15.35.78,23,1.69,2.69.33,5.91-1.31,8.51,2a39.7,39.7,0,0,1-9.89,4.3C164.69,228.49,158.21,226.56,152.26,229Z"/><path class="a8059f72-e9dc-4ef7-9aa6-586bbc482567" d="M152.26,229c6-2.42,12.43-.49,18.57-2.42a39.7,39.7,0,0,0,9.89-4.3c-2.6-3.31-5.82-1.67-8.51-2-7.63-.91-15.53,1.87-23-1.69,3.24.06,6.47.09,9.71.16,9,.2,17.87-.29,25.58-5.83a2.75,2.75,0,0,0,1.06-.21c15-6,23.85-17.78,30.07-32,.51-1.17,2.31-3.57-.57-4.29-2-.51-4.69-.94-5.36,2.38a34.22,34.22,0,0,1-1.1,4.38,4.65,4.65,0,0,1-5.16,3.49c-2.66-.24-3.81-2-4.33-4.45-2.67-12.82.12-16.5,12.73-16.66a18.93,18.93,0,0,1,2.26,0c4.2.49,5-1.85,5.07-5.44.07-3.89-1.41-5.21-5.31-5.32-4.39-.12-9,1.57-13.19-1.32a33.38,33.38,0,0,1,3.74-.06c6.57.63,14.45-4.35,19.11,4.75.85,1.67,2.62.56,3-1.31.29-1.67-.27-3.56,1.39-4.82,3.34,9.73,1.74,19.22-1.38,28.64-1.12-5.39-.09-11.41-4.63-15.79-5.57,7.93-4.81,11.49,3.76,17.57-3.64,10.84-10,19.28-18.24,27.63C191.67,226.08,173.36,230.64,152.26,229Z"/><path class="b1fcf86e-8345-4577-8e53-3e5408770cd6" d="M227.89,152c-1.66,1.26-1.1,3.15-1.39,4.82-.34,1.87-2.11,3-3,1.31-4.66-9.1-12.54-4.12-19.11-4.75a33.38,33.38,0,0,0-3.74.06h0c0-2.1,0-4.19,0-6.29l0,0c3.74,0,7.49.21,11.22,0,2.85-.12,6.89-.16,7.24-3.28s.47-7.87-4.8-8.72c-12.25-20.85-29.6-33.45-54.57-33.72-1.78-5.15-7.74-2.28-10.55-5.16,2.7-3.67,7.39-2.72,10.51-5.16,14.14-1,25.88,4.46,37.95,11.53,13.65,8,20.69,20.34,27.73,33.14A24.73,24.73,0,0,1,227.89,152Z"/><path class="a8059f72-e9dc-4ef7-9aa6-586bbc482567" d="M159.68,91.22c-3.12,2.44-7.81,1.49-10.51,5.16,2.81,2.88,8.77,0,10.55,5.16a53,53,0,0,0-27.31,7.06c-13.84,7.76-22.75,19.59-28.57,34l-11.28,4.54c.45-2,0-4.35,1.69-6a6.39,6.39,0,0,0,1.23.48c.81-1.27.39-2.35-.65-3.28,9.68-27.2,29.35-42.26,57.33-47.23l3.08-.2Z"/><path class="b1fcf86e-8345-4577-8e53-3e5408770cd6" d="M225.64,182.46c-8.57-6.08-9.33-9.64-3.76-17.57,4.54,4.38,3.51,10.4,4.63,15.79Z"/><path class="b58f1794-f558-41ff-ae82-d918befcd0dc" d="M94.83,138.35c1,.93,1.46,2,.65,3.28a6.39,6.39,0,0,1-1.23-.48C94.44,140.22,94.64,139.28,94.83,138.35Z"/><path class="b58f1794-f558-41ff-ae82-d918befcd0dc" d="M187.35,308.06c-1.17.17-2.5.39-2.79-1.16s1-2.46,2.1-3.28Z"/><path class="a8059f72-e9dc-4ef7-9aa6-586bbc482567" d="M103.67,149c.86-.44,2.18-.67,2.5-1.36,4.08-8.81,8.48-11.21,17.06-9,2.23.58,4.39,1.39,4.69,4.23s-.41,5.43-3.36,6c-5.18.91-8,3.26-7.76,8.86,0,.82-1.69.35-2.6,0-.62-2.38-1-5.91-4-5.34-3.71.71-1.51,4.61-2.12,7.07l-3,0C105,155.9,105.68,152.29,103.67,149Z"/><path class="a8059f72-e9dc-4ef7-9aa6-586bbc482567" d="M200.63,147.21c.57-4.18,3.07-1.68,5-1.54,8.9.68,11.25-2.19,8.64-10.41,5.27.85,5.17,5.52,4.8,8.72s-4.39,3.16-7.24,3.28C208.12,147.42,204.37,147.24,200.63,147.21Z"/><path class="a8059f72-e9dc-4ef7-9aa6-586bbc482567" d="M200.7,153.48c-2.41-2.08-5.42-4.14,0-6.28C200.67,149.29,200.68,151.38,200.7,153.48Z"/><path class="a8059f72-e9dc-4ef7-9aa6-586bbc482567" d="M139.93,185.31c-2.17-2.68-1.11-5.84-1.14-8.76-.12-11.36-.08-22.72,0-34.09,0-4.57.87-9.21-6.23-9.34-3-.05-3.63-3.13-3.28-5.86.39-3,2.4-4.23,5.29-4.26,5.07,0,11,1.51,10.49-7.17-.12-2.26,2.85-3.57,5.27-3.16,3,.52,5.21,2.62,4.61,5.82-.69,3.67-.36,6,4,6.11,4,.14,7.13-.67,6.9-5.65-.16-3.35,1-5,4.79-5.06s6,1.18,5.74,5.09,2.27,5.07,5,6.64c11.34,6.46,14.52,19.65,7.07,30.21-2.35,3.34-1.81,5.47.23,8.54,7.85,11.75,1.38,30.77-11.91,31.84l-.4-.36c.27-5.85-4.31-5.63-7.79-5.48-3.74.16-6.76,2.15-5.76,6.87l-4.61,0c1.79-4.71,2.05-8.1-4.88-7.56-3.69.3-7.4-.72-4.1-5.91.32,1.22.64,2.77,2.1,2.77,7.54,0,15.14.42,22.6-.41,5-.56,7.5-4.45,7.31-9.86-.25-7.54-3.9-10.65-13.18-10.76-18.37-.23-18.37-.23-18.9,15.16-3.2-4.86-.87-10.3-1.61-15.42-.29-2,1-5.26-2.43-5.34s-3.56,3-3.56,5.57c0,5.55-.07,11.12.24,16.66C141.91,184,142,185.12,139.93,185.31Zm22.3-30.4c2.76,0,5.53.12,8.29,0,7.15-.36,10.77-4,10.8-10.73s-3.6-10.22-11-10.49c-4.52-.16-9.08.38-13.56-.09-6.33-.66-7.69,2.32-7.58,7.92C149.46,154.83,149.28,154.84,162.23,154.91Z"/><path class="b58f1794-f558-41ff-ae82-d918befcd0dc" d="M149.24,183.82c-3.3,5.19.41,6.21,4.1,5.91,6.93-.54,6.67,2.85,4.88,7.56-2.84.46-4.67,1.85-4.56,5,.09,2.35-.85,3.87-3.35,4.16s-4.52-1.3-4.68-3c-.6-6.52-5.34-5.88-9.65-6.35-3.06-.33-6.95.32-6.8-4.7.12-4.45,3.24-5.21,6.75-5.42,1.54-.09,3.06-.11,4-1.63,2.07-.19,2-1.31,1.88-3.12-.31-5.54-.23-11.11-.24-16.66,0-2.6.14-5.65,3.56-5.57s2.14,3.31,2.43,5.34c.74,5.12-1.59,10.56,1.61,15.42C149.19,181.75,149.22,182.78,149.24,183.82Z"/><path class="a8059f72-e9dc-4ef7-9aa6-586bbc482567" d="M176.78,196.21c-1.15,4.13,1.77,10.71-4.82,11.6-7.5,1-4.85-7.09-7.61-10.52,4-.53,8.35,1.84,12-1.44Z"/><path class="b58f1794-f558-41ff-ae82-d918befcd0dc" d="M176.38,195.85c-3.68,3.28-8,.91-12,1.44l-1.52,0c-1-4.72,2-6.71,5.76-6.87C172.07,190.22,176.65,190,176.38,195.85Z"/><path class="b58f1794-f558-41ff-ae82-d918befcd0dc" d="M108.07,159.45c.61-2.46-1.59-6.36,2.12-7.07,3-.57,3.39,3,4,5.34Z"/></svg>