<svg id="b98515ac-1f8f-4711-a5ca-5daeece59c71" data-name="Capa 1" xmlns="http://www.w3.org/2000/svg" viewBox="0 0 299.81 417.76"><defs><style>.b1515d73-5c3f-4aaa-a58d-87e95af31257{fill:#6e0302;}.ae17da30-a7b5-4c3a-b38c-ed9fb8838d8d{fill:#6e0202;}.b36a048c-ee44-4134-9232-4bfdf31b1d1f{fill:#872e2e;}.bda0ae09-fc11-4d2e-b2e1-fcc92c4896d8{fill:#720808;}.b205428f-e98b-41bc-92a2-624954cc750e{fill:#02ca77;}.a684fe0a-65b1-41dc-a691-fc1726c1be4e{fill:#fb5300;}.e46575c3-f3ad-47aa-b353-d21cb2a448bc{fill:#fdcf8a;}.b18e2c3d-b6b0-4178-833b-365afdb3f35c{fill:#4fe871;}.f910e100-bb98-4c53-b6cf-217c3e87d9e0{fill:#fb8500;}.bdf3d26d-9a2e-4872-aef4-a4c13690d3a5{fill:#fdaf2a;}.b9a64a29-5dfe-4beb-b9ce-4497bbf2d2d8{fill:#fef2f2;}.a278860c-d7be-499d-a122-821e83b67f81{fill:#efdfd9;}</style></defs><title>_</title><path class="b1515d73-5c3f-4aaa-a58d-87e95af31257" d="M117.74,102.44c5.14.9,7.18,4.06,7.12,9.15-.13,9.82,0,19.64,0,29.46,0,12.49,5.23,22.24,15.86,28.7,16.77,10.21,24.22,25.11,24.17,44.53-.15,58.58-.26,117.16.1,175.74.09,13.83-4.61,23.31-18,27.74h-4c-1.47-1.64-3.42-1-5.17-1q-55.79-.06-111.59,0c-1.74,0-3.7-.67-5.16,1H17a29.45,29.45,0,0,1-17-17v-3c1.78-1.63,1-3.76,1-5.65Q1,301.31,1,210.49c0-1.56.74-3.37-1-4.61v-3c.26-.16.72-.29.77-.5C3.93,187,13,176.4,26.2,168.3c9-5.56,13.64-14.56,13.76-25.23.24-21.31.07-42.63.16-63.94a4.21,4.21,0,0,0-2.5-4.24c-13.6-8-19.76-21.83-16.19-35.84C25.15,24.5,37,15.34,52.88,14.82c1.27-.05,2.7.49,3.53-1.06C60.46,6.3,67.31,2.61,75,0h9c4.84,1.71,9.74,3.22,13.65,6.86a28.45,28.45,0,0,1,8.51,14.68c-1,6.28-4.11,8.82-9.14,7.42-3.17-.88-4-3.59-5.12-6.2-3.43-8.06-10.22-10.59-18.06-6.85-3.52,1.19-5,4.1-6.27,7.26-2.53,6.53-4,7.33-10.78,6-10.77-2.09-20,4-21.91,14.36S39.63,63,50.46,64.44c7.41,1,13.3-2.24,17.3-8.53,2.12-3.33,4.78-5.11,8.72-4,4.16,1.16,4.92,4.47,4.78,8.24-.06,1.66,0,3.33,0,5,.3,28.93-.65,57.87.56,86.8,0,3.88,2.07,5.92,5.81,5.92s5.26-2.5,5.86-5.7a27.27,27.27,0,0,0,.21-5c0-20.43,0-40.86,0-61.29,0-7.22,2.9-9.69,9.9-8.54a14.84,14.84,0,0,0,4.93.1c11.27-1.88,19.52-9.3,21.4-19.36,2.09-11.18-2.28-20.66-12.71-26.7-3.83-2.22-5.63-4.93-4.52-9.31,3.64-5,6.42-5.71,11.78-2.61,13.22,7.62,20.17,19.22,19.85,34.39-.34,15.6-8.11,27-22.09,34-1.47.74-3,1.39-4.46,2.09a15.7,15.7,0,0,1-3.88.73c-5.7-.36-6.52,2.61-6.43,7.62.31,17.09.16,34.18.1,51.28,0,13.18-6.76,20.77-19.7,22.46-13.33-1.23-20.44-8.79-20.51-22.24-.11-21.31,0-42.62,0-63.93,0-3.3.9-7.44-.72-9.64C65.32,74.52,61.46,78,58.49,78c-3.76-.06-4.53,1.82-4.5,5.32.17,18.81.1,37.63.06,56.44a56.17,56.17,0,0,1-.52,9.45C51,163.4,43.69,174.46,31.27,181.92c-10.49,6.29-16.72,15.41-17,27.61-.41,17.47,0,34.95,0,52.43-.07,16.81-.06,33.62-.27,50.43,0,3.1,1.28,3.5,3.86,3.44,6-.14,12,.26,18-.11,11.07-.68,19.16,3.57,25,13,4.85,7.81,11.79,13.11,21.41,13.69,4.17.26,6.12,2.85,7.58,6.22-2,7.06-4.36,8.69-11.5,7.47-3.42-.58-6.76-1.6-10.13-2.42A53.63,53.63,0,0,1,47.49,334.2a9,9,0,0,0-8.37-4.42c-7.13.11-14.28.15-21.42,0-2.81-.07-3.68.79-3.66,3.63.11,20.27,0,40.53.08,60.79,0,6.62,3.11,9.4,10,9.36q38.91.07,77.82.16c13.14,0,26.28.06,39.41,0,5.82,0,9.3-2.85,9.34-8.14.18-21,.08-41.91.11-62.87,0-1.69-.22-3-2.37-2.85-9.41.57-18.94-1.33-28.26,1.15a7.65,7.65,0,0,1-7.37-1.83c-1.68-2.18-1.9-4.71-1.79-7.32l0,0c3.21-4.38,7.8-5.92,12.94-6,7.3-.14,14.62-.32,21.91,0,4.34.22,5.23-1.32,5.1-5.33-.29-9.12.05-18.27-.15-27.4-.1-4.57,2.12-10.45-1-13.35-2.82-2.61-8.57-.61-13-.76-8-.29-16.33,1.19-23.86-3.11-4.31-3-7-7.49-10.09-11.59-11.82-15.5-28-15.73-40.17-.66-1.56,1.94-2.86,4.09-4.35,6.09-4,5.33-9.22,8.57-15.92,9.13-6.11.52-7.85-.81-9.53-6.91.7-4.14,3.12-6.61,7.3-6.92,3.73-.28,6.1-2.27,8-5.25a52.1,52.1,0,0,1,12.31-13.62c10.09-7.86,21.45-9,33.52-6.27l0,0c0,.69.5.78,1,.75a46.81,46.81,0,0,1,21.54,18.68c2.57,4.1,5.88,5.94,10.73,5.76,6.49-.24,13-.25,19.48,0,3.39.14,4.19-1.08,4.15-4.26-.16-11.82-.34-23.65,0-35.47.44-15.19-5.34-26.52-18.59-34.43a41.79,41.79,0,0,1-20.45-30c-2.29-14-.83-28.23-.79-42.36C111,104.67,114.16,103,117.74,102.44Z"/><path class="ae17da30-a7b5-4c3a-b38c-ed9fb8838d8d" d="M198.68,416.87c-3.35-.86-4.19-3.62-4.56-6.45q-8.22-62.32-16.31-124.65c-1-7.45,1.49-9.93,9.15-9.93,34.45,0,68.91.06,103.36-.08,4.8,0,7.88,1.61,9.49,6.08v7c-2,2.3-1.62,5.21-1.89,7.86-.5,5.08-2.87,8-8.09,8.27-8.33-2.49-5.87-9-5.26-14.93H244.82c-15.94-.06-31.88,0-47.81-.3-3.91-.07-4.65,1-4.14,4.66,3.93,28.42,7.68,56.86,11.49,85.3.67,5.4,1.21,10.83,2,16.21,1.25,8.08,1.33,8.07,9.56,7.63,13.27.06,26.54.16,39.81.16,4.46,0,10,1.34,13-.81s1.56-8.33,2.65-12.62c.63-2.47.13-3.59-2.79-3.54-10.62.2-21.24.16-31.86.22-4.08-.06-8.16-.25-12.24-.12-5.06.16-8.05-2-8.88-7.07.88-5.19,4.08-7.1,9.18-7,8.31.13,16.62-.06,24.94-.12,7,.06,13.94,0,20.9.22,2.31.07,3.1-.6,3.35-3,.82-7.58,1.91-15.13,2.94-22.69.86-6.35,2.62-8,8.82-8.48,4.65,1.79,5.81,5.2,5.16,9.93-2.82,20.66-5.46,41.34-8.17,62-.39,3-1.48,5.41-4.67,6.31Z"/><path class="b36a048c-ee44-4134-9232-4bfdf31b1d1f" d="M0,205.88c1.71,1.24,1,3.05,1,4.61Q1,301.3,1,392.12c0,1.89.83,4-.95,5.65Z"/><path class="bda0ae09-fc11-4d2e-b2e1-fcc92c4896d8" d="M21,417.76c1.46-1.64,3.42-1,5.16-1q55.8-.06,111.59,0c1.75,0,3.7-.67,5.17,1Z"/><path class="b36a048c-ee44-4134-9232-4bfdf31b1d1f" d="M278.15,417a.91.91,0,0,1-.33.81H198.87a2.67,2.67,0,0,0-.19-.89Z"/><path class="b205428f-e98b-41bc-92a2-624954cc750e" d="M117.74,102.44c-3.58.6-6.74,2.23-6.75,6.15,0,14.13-1.5,28.34.79,42.36a41.79,41.79,0,0,0,20.45,30c13.25,7.91,19,19.24,18.59,34.43-.34,11.82-.16,23.65,0,35.47,0,3.18-.76,4.4-4.15,4.26-6.48-.26-13-.25-19.48,0-4.85.18-8.16-1.66-10.73-5.76a46.81,46.81,0,0,0-21.54-18.68l-1-.75,0,0c.54-3.3-1.25-6.11-2-9.12-4.09-16-4.25-32.38-4-48.76,12.94-1.69,19.65-9.28,19.7-22.46.06-17.1.21-34.19-.1-51.28-.09-5,.73-8,6.43-7.62A15.7,15.7,0,0,0,117.8,90Z"/><path class="a684fe0a-65b1-41dc-a691-fc1726c1be4e" d="M112.72,22.08c-1.11,4.38.69,7.09,4.52,9.31,10.43,6,14.8,15.52,12.71,26.7-1.88,10.06-10.13,17.48-21.4,19.36a14.84,14.84,0,0,1-4.93-.1c-7-1.15-9.89,1.32-9.9,8.54,0,20.43,0,40.86,0,61.29a27.27,27.27,0,0,1-.21,5c-.6,3.2-2.26,5.71-5.86,5.7s-5.81-2-5.81-5.92C87.79,150,90,147,90,140q0-53.71,0-107.44C90,22,84.34,16.29,73.79,15.91c7.84-3.74,14.63-1.21,18.06,6.85C93,25.37,93.8,28.08,97,29c5,1.4,8.18-1.14,9.14-7.42Z"/><path class="e46575c3-f3ad-47aa-b353-d21cb2a448bc" d="M89.88,348.66c-1.46-3.37-3.41-6-7.58-6.22-9.62-.58-16.56-5.88-21.41-13.69-5.88-9.46-14-13.71-25-13-6,.37-12,0-18,.11-2.58.06-3.9-.34-3.86-3.44.21-16.81.2-33.62.27-50.43l18.52.05c1.68,6.1,3.42,7.43,9.53,6.91,6.7-.56,11.94-3.8,15.92-9.13,1.49-2,2.79-4.15,4.35-6.09,12.16-15.07,28.35-14.84,40.17.66,3.12,4.1,5.78,8.55,10.09,11.59a123.52,123.52,0,0,1,1.07,40.42c-.69,5.23-2.86,10.16-3,15.49l0,0c-2.69,3.19-4.16,7-5.36,10.9-8.4,1-11.55,5.33-9.52,13.06Z"/><path class="b18e2c3d-b6b0-4178-833b-365afdb3f35c" d="M32.81,262,14.29,262c0-17.48-.44-35,0-52.43.29-12.2,6.52-21.32,17-27.61C43.69,174.46,51,163.4,53.53,149.18a56.17,56.17,0,0,0,.52-9.45c0-18.81.11-37.63-.06-56.44,0-3.5.74-5.38,4.5-5.32,3,0,6.83-3.45,8.12-1.71,1.62,2.2.72,6.34.72,9.64,0,21.31-.06,42.62,0,63.93.07,13.45,7.18,21,20.51,22.24-.26,16.38-.1,32.72,4,48.76.76,3,2.55,5.82,2,9.12-12.07-2.71-23.43-1.59-33.52,6.27a52.1,52.1,0,0,0-12.31,13.62c-1.85,3-4.22,5-8,5.25C35.93,255.4,33.51,257.87,32.81,262Z"/><path class="b205428f-e98b-41bc-92a2-624954cc750e" d="M89.88,348.66l6.22-2.88c5.3,3.72,7.85,3.76,11.77.17,3.76-3.43,4-6.36.94-11.3l4-5.51a7.65,7.65,0,0,0,7.37,1.83c9.32-2.48,18.85-.58,28.26-1.15,2.15-.13,2.38,1.16,2.37,2.85,0,21,.07,41.91-.11,62.87,0,5.29-3.52,8.1-9.34,8.14-13.13.08-26.27,0-39.41,0q-38.91-.06-77.82-.16C28.41,391.88,35.5,382,43.62,372.72c7-7.91,15.55-13.8,24.63-19,3.37.82,6.71,1.84,10.13,2.42C85.52,357.35,87.89,355.72,89.88,348.66Z"/><path class="f910e100-bb98-4c53-b6cf-217c3e87d9e0" d="M73.79,15.91C84.34,16.29,90,22,90,32.56Q90,86.28,90,140c0,6.95-2.17,10-8.15,11.92-1.21-28.93-.26-57.87-.56-86.8,0-1.66,0-3.33,0-5,.14-3.77-.62-7.08-4.78-8.24-3.94-1.09-6.6.69-8.72,4-4,6.29-9.89,9.5-17.3,8.53C39.63,63,33,53.81,34.83,43.55S46,27.1,56.74,29.19c6.81,1.31,8.25.51,10.78-6C68.75,20,70.27,17.1,73.79,15.91Z"/><path class="b18e2c3d-b6b0-4178-833b-365afdb3f35c" d="M68.25,353.71c-9.08,5.21-17.67,11.1-24.63,19C35.5,382,28.41,391.88,24.09,403.54c-6.86,0-9.95-2.74-10-9.36-.06-20.26,0-40.52-.08-60.79,0-2.84.85-3.7,3.66-3.63,7.14.17,14.29.13,21.42,0a9,9,0,0,1,8.37,4.42A53.63,53.63,0,0,0,68.25,353.71Z"/><path class="bdf3d26d-9a2e-4872-aef4-a4c13690d3a5" d="M111,321.86c.12-5.33,2.29-10.26,3-15.49A123.52,123.52,0,0,0,112.87,266c7.53,4.3,15.81,2.82,23.86,3.11,4.45.15,10.2-1.85,13,.76,3.13,2.9.91,8.78,1,13.35.2,9.13-.14,18.28.15,27.4.13,4-.76,5.55-5.1,5.33-7.29-.37-14.61-.19-21.91,0C118.76,315.94,114.17,317.48,111,321.86Z"/><path class="bdf3d26d-9a2e-4872-aef4-a4c13690d3a5" d="M112.77,329.14l-4,5.51-3.19-1.93c1.2-3.92,2.67-7.71,5.36-10.9C110.87,324.43,111.09,327,112.77,329.14Z"/><path class="b18e2c3d-b6b0-4178-833b-365afdb3f35c" d="M93.87,229.9l1,.75C94.37,230.68,93.91,230.59,93.87,229.9Z"/><path class="b9a64a29-5dfe-4beb-b9ce-4497bbf2d2d8" d="M249.82,372.61c-8.32.06-16.63.25-24.94.12-5.1-.08-8.3,1.83-9.18,7l-11.34-.06c-3.81-28.44-7.56-56.88-11.49-85.3-.51-3.69.23-4.73,4.14-4.66,15.93.31,31.87.24,47.81.3,1.61,6.5,5.8,11.81,8.23,18a82.33,82.33,0,0,1,4.85,43.89C256.72,359.43,252.56,365.72,249.82,372.61Z"/><path class="a278860c-d7be-499d-a122-821e83b67f81" d="M249.82,372.61c2.74-6.89,6.9-13.18,8.08-20.72A82.33,82.33,0,0,0,253.05,308c-2.43-6.16-6.62-11.47-8.23-18h39.75c-.61,6-3.07,12.44,5.26,14.93l-1.08,8.14c-4.12.32-7.1,1.89-8,6.4-1,5.09,0,9,5.09,11.23q0,4,0,8c-6.2.48-8,2.13-8.82,8.48-1,7.56-2.12,15.11-2.94,22.69-.25,2.36-1,3-3.35,3C263.76,372.64,256.79,372.67,249.82,372.61Z"/><path class="bdf3d26d-9a2e-4872-aef4-a4c13690d3a5" d="M236.82,386.94c10.62-.06,21.24,0,31.86-.22,2.92-.05,3.42,1.07,2.79,3.54-1.09,4.29.49,10.4-2.65,12.62s-8.59.81-13,.81c-13.27,0-26.54-.1-39.81-.16C223.39,398.6,231.06,394,236.82,386.94Z"/><path class="e46575c3-f3ad-47aa-b353-d21cb2a448bc" d="M236.82,386.94c-5.76,7-13.43,11.66-20.86,16.59-8.23.44-8.31.45-9.56-7.63-.83-5.38-1.37-10.81-2-16.21l11.34.06c.83,5,3.82,7.23,8.88,7.07C228.66,386.69,232.74,386.88,236.82,386.94Z"/><path class="bda0ae09-fc11-4d2e-b2e1-fcc92c4896d8" d="M285.81,330.73c-5.12-2.19-6.13-6.14-5.09-11.23.93-4.51,3.91-6.08,8-6.4,4.47,1.62,6.49,4.61,5.83,9.51C293.87,327.86,291.13,330.61,285.81,330.73Z"/><path class="bda0ae09-fc11-4d2e-b2e1-fcc92c4896d8" d="M105.62,332.72l3.19,1.93c3.06,4.94,2.82,7.87-.94,11.3-3.92,3.59-6.47,3.55-11.77-.17C94.07,338.05,97.22,333.72,105.62,332.72Z"/></svg>