<svg id="bd0ee816-07a5-4026-b974-350ef7f41859" data-name="Capa 1" xmlns="http://www.w3.org/2000/svg" viewBox="0 0 409.73 384.5"><defs><style>.b58ef998-43d3-4258-8c89-e08d9bd53c79{fill:#4bbd00;}.a8290c55-ffab-4fdc-8c74-7e4ba0b6fd11{fill:#037504;}.ab333e17-2b45-42dc-9834-eebdcc0a9683{fill:#027403;}.ee113ea0-51ef-4697-9708-41e0c99627b0{fill:#017502;}.ea5ab0b4-cbc0-4b10-9fd0-b764f802eb6e{fill:#009301;}.b267a8ea-37d9-47a4-9e85-e0825dd953da{fill:#4ebd03;}.fc36d79f-90cb-4135-828d-078723881f7b{fill:#68d103;}.b2024084-7af3-4547-89bc-6b312033eaa4{fill:#039205;}.ad791af8-cf3d-4725-8673-256fd8ded17a{fill:#51bc05;}.f5bab3b8-ec09-4819-852c-c06347060ee6{fill:#63d100;}.ab0c30e5-4b41-464b-af9b-847fb0841733{fill:#6cd007;}.ac2773cf-8077-4e4a-8503-ec7f568a4fa5{fill:#79db00;}</style></defs><title>_</title><path class="b58ef998-43d3-4258-8c89-e08d9bd53c79" d="M363.85,271.93a2,2,0,0,0-.86,2,84.48,84.48,0,0,0-5.45,13.72l.08.25-.05-.26c-5.38,9.67-10,19.78-17.2,28.37-1.66-.61-3.29-1.6-5-1.76-9.89-.94-19.51-3.44-29.38-4.61-18.56-2.19-37-2.08-55.63-.92a257,257,0,0,0-58,10.28c-17.13,5.14-33.88,11.24-49.71,19.8-8.58,4.65-17.21,9.22-25.73,14,0-1.1-.15-2.23,1-3,3.85-.92,6-4.22,8.21-6.85,10.37-12.13,22.18-22.64,34.65-32.53A256.07,256.07,0,0,1,211.38,279a355.31,355.31,0,0,1,40.2-16.27c22.17-7.28,45-10.7,68.06-12.58,15.68-1.27,31.5-.22,47.17,1.77l1.45,1.11Z"/><path class="a8290c55-ffab-4fdc-8c74-7e4ba0b6fd11" d="M160.91,50v4c-.12,2.67-1.5,6.47,2.48,6.85,4.75.44,3.48-3.89,3.49-6.58.06-15.09,0-30.17-.08-45.26l.68-1.88c4.38-4.26,8-4,12.13,1,.1.64.19,1.29.28,1.93q-.1,23.4-.22,46.8c0,2.22.53,4.14,3.14,4.15s3.12-1.94,3.11-4.15q-.12-23.4-.21-46.8c.08-.66.17-1.32.25-2,2.18-2.75,4.69-4.75,8.5-3.45s4.26,4.55,4.25,8.08c0,17-.16,34,.07,50.93C199,80.71,191.84,93,175.93,99.8c-2.23,1-2.75,2.07-2.1,4.14v1c-.68,5.81-1.07,11.54,3.89,16l.93,2.62c0,.16-.15.34-.11.48a8.49,8.49,0,0,0,.35.91v94.71l-13.09-7.13c.18-1.87.2-3.69-1.9-4.63-.13-2.25-1.79-3.47-3.39-4.55-3.55-2.42-7.61-1.2-11.48-1.33-.18-3.71-.35-7.43-.52-11.14V128c.37-4,1.44-7.77,4.28-10.81a5.07,5.07,0,0,0,1.24-3.13c1.31-11.88,1.07-12.36-9.69-17.74l-1-.6-7.4-7.21a.7.7,0,0,0-.48-.6c-3.92-6.49-6.67-13.3-6.63-21.09.1-18,.07-36,0-53.94,0-3.29.12-6.35,3.57-8.09,3.22-1.62,5.75-.12,8.26,1.65A.4.4,0,0,0,141,7c.21,2.63.61,5.27.62,7.9.05,13.45,0,26.9,0,40.35,0,2.43-.45,5.57,3.13,5.68,3.78.12,3.18-3.1,3.19-5.49q.06-21.42,0-42.84c0-3.51.28-6.64,4.26-8s6.25.8,8.44,3.48q.15,4.45.32,8.91Z"/><path class="ab333e17-2b45-42dc-9834-eebdcc0a9683" d="M284.74,47c-.05,1-.1,2-.16,3-1.3,4.38-.72,8.74-.23,13.18.53,4.74.4,9.79-1.82,13.95-3,5.54-4.78,12-10.79,15.62-.91.54-1.11,2.29-1.64,3.49-2.12.21-4.61-.23-5.17,2.85l.05,0c-1.64.07-3.76-.9-4.11,1.93h0a10.63,10.63,0,0,0-1.62.82c2,6.49-2,14,3.41,20,1.4,1.54,1.18,3.72,1.18,5.74,0,19.3.36,38.62-.25,57.9-.17,5.55,1.45,11,.2,16.53-2.45,0-4.9-.09-7.35,0-3.07.13-5.49.3-6.06-4.1-.34-2.64-3-4.62-5.53-.93l0,0c-2,4.2-.66,8.62-.83,12.94h1.81c.73,2.23-2,3.17-1.93,5.14l-4,2.83-1.72.22c-2.2-3.21-1.78-6.54-.15-9.75.92-1.79,1.4-3.64.26-5.17-1.69-2.27-1.38-4.71-1.39-7.17q-.09-35.73-.15-71.45c.23-1,.14-2.2.72-2.81,4.85-5,3.67-11.3,3.76-17.32,0-2.17-.39-3.66-2.81-4.49-4.94-1.69-9-4.84-12.83-8.38l-.27-.26c-6.07-7-8.85-15.2-9.46-24.29,0-1,0-2,0-3q.45-6,.89-12c0-.66.09-1.32.13-2l4-18a.39.39,0,0,0,.25-.52L228.88,16h0l7.94-8h0c9.34-5.62,18.69-5.86,28-.07l.06,0C276.27,17.73,281.5,30.61,283.76,45c-1,.8-.89,1.44.28,1.93A3.28,3.28,0,0,0,284.74,47Zm-8.21,14.3h-.22c-.16-2.15-.23-4.32-.48-6.47-1.26-10.62-3.16-21.07-8.75-30.44-1.24-2.08-2.95-3.37-5.35-1.88s-2.34,3.37-1,5.58c2.86,4.57,4.43,9.65,5.68,14.83a101,101,0,0,1,2.62,24.25c0,2.66.92,4.71,3.94,4.61,2.73-.09,3.54-2,3.53-4.5C276.52,65.31,276.53,63.31,276.53,61.32Z"/><path class="ee113ea0-51ef-4697-9708-41e0c99627b0" d="M117.84,349.86c-1.1.73-1,1.86-1,3,.89,3.43,3.61,2.46,5.09,1.37,4.38-3.2,9.77-2.93,14.48-3.88a249.89,249.89,0,0,1,40.17-5.16c15.7-.56,31.49-1.17,47.23.67s31,5.54,46.34,8.92c7.15,1.57,13.58,5.2,20.79,6.42-8.16,5.45-17.13,9.27-26.22,12.82-13.2,5.15-27,7.58-40.94,9.84l-3,.2-15,.48-9-.37-3-.11-3-.18c-9.26-1.86-18.64-3-27.78-5.58-19.24-5.35-36.68-14.33-53.08-25.51h0l-1.14-.81-.07-.05L92.32,337.53l-.08-.07-1-.9-.27.21.24-.25L81.06,325.7l0,0-6.82-9.63a20.83,20.83,0,0,1,3.29-1.1c20-3.36,40.08-6.1,60.37-7,1.45-.07,3-.4,4,1.18-.58,1-1.11,2-1.75,2.91C131.89,324.14,124.13,336.57,117.84,349.86Z"/><path class="ea5ab0b4-cbc0-4b10-9fd0-b764f802eb6e" d="M142,309.14c-1-1.58-2.59-1.25-4-1.18-20.29.93-40.37,3.67-60.37,7a20.83,20.83,0,0,0-3.29,1.1c-4-4.5-6.87-9.78-9.92-14.9-8-13.52-13-28.29-17.41-43.28l-.32-2-.37-4,1.7-.83c4.24-1.8,8.78-.72,13.08-.9,29.77-1.21,59.49-.54,88.38,7.93,9.77,2.87,20.24,3.9,29,9.91-.63,1.82-2.16,2.89-3.42,4.2-7.21,7.51-14.66,14.75-21.25,22.85C149.85,299.78,146.81,305.23,142,309.14Z"/><path class="b267a8ea-37d9-47a4-9e85-e0825dd953da" d="M118.93,170.69c-.41,13.68.65,13.4-13.72,13.3-35.09-.25-62.43-31.79-57.65-65.89.55-3.89,2.07-5.17,5.89-5.59A58.78,58.78,0,0,1,118.93,170.69Z"/><path class="b267a8ea-37d9-47a4-9e85-e0825dd953da" d="M311.82,183.93l-3,.17c-2.33,0-4.66,0-7-.13-11.35-.7-10.51-.35-10.94-11.1-.69-17,5.61-31.44,17.06-43.8l0,0,1-1.07,0,0c13.69-12.08,29.65-17,47.78-15.38,3.53.31,4.94,1.75,5.27,5.14,2,20-4.14,37-18.72,50.9C334.41,177.15,323.43,181.22,311.82,183.93Z"/><path class="fc36d79f-90cb-4135-828d-078723881f7b" d="M315.88,104.49c-8.49.3-8.81,0-9.21-8.66-1.24-27,21-48.9,46.88-46.31,3.07.3,4.19,1.33,4.71,4.36C362.72,79.56,342.73,103.52,315.88,104.49Z"/><path class="fc36d79f-90cb-4135-828d-078723881f7b" d="M103.08,93.79c0,10.82-.6,11.32-11.7,10.48-25.53-1.94-44.14-25.52-39.9-50.33.51-3,1.56-4.09,4.64-4.41C81.09,46.92,103.18,67.65,103.08,93.79Z"/><path class="b2024084-7af3-4547-89bc-6b312033eaa4" d="M376.11,182.06c-7.05.12-13.38-2.05-19.35-5.68-2.05-1.25-2.64-2.44-1.88-4.82,6.75-21,34.55-30.31,52.78-17.75,2.19,1.51,2.48,2.94,1.63,5.42C404.76,172.4,390.72,182.16,376.11,182.06Z"/><path class="b2024084-7af3-4547-89bc-6b312033eaa4" d="M33.43,182.07c-14.38.07-28.08-9.45-32.91-22.52-1.1-3-.48-4.48,2.1-6.08a35.65,35.65,0,0,1,51.69,16.86c1.38,3.4.66,5-2.33,6.71A37.16,37.16,0,0,1,33.43,182.07Z"/><path class="ad791af8-cf3d-4725-8673-256fd8ded17a" d="M83.81,24.09c0-8.31,3-15.52,7.72-22.18,1.41-2,2.74-2.34,5-1.35C116.61,9.32,123.1,37.79,109,54.77c-2.21,2.66-4.15,1.9-6.48.66A35.57,35.57,0,0,1,83.81,24.09Z"/><path class="ad791af8-cf3d-4725-8673-256fd8ded17a" d="M325.82,28.08C325.46,38.36,319,48.65,307,55.6c-2.71,1.57-4.58,1.27-6.67-1.5C287,36.58,292.9,10.67,312.55.89c2.14-1.07,3.82-1.57,5.52.85C322.89,8.56,326,15.9,325.82,28.08Z"/><path class="f5bab3b8-ec09-4819-852c-c06347060ee6" d="M279.65,208.44l28.19-8.4,2-.37a14.38,14.38,0,0,0,7.14-1.59l0,0,32.87-4.1,8-.21,11.93.23h0q.63,3,1.24,5.91c.06.66.11,1.31.17,2a265.37,265.37,0,0,1-.18,38l-.27,2.95L368.26,253l-1.45-1.11c.88-5,2.21-10.06,2.61-14.89,1-11.85,1.06-23.86-1.26-35.73-.78-3.95-2.88-5.13-6.44-5.38-6.67-.48-13.26.57-19.78,1.4-2.74.35-5.57-1.13-7.67,0-4.31,2.26-8.93,1.79-13.39,2.6-2.33.42-5,.45-5.73,3s2.82,2.27,3.67,4l1,1h0c1.65,6.94.79,14,1,21h-4c-.58-6,1.25-12.11-1-18l-1.92-1a1.88,1.88,0,0,0-2.06-2h-2a2,2,0,0,0-1,2h0c-2.43.32-2,2.21-2,3.77,0,4.74,0,9.49,0,14.23h-4c0-4.46,0-8.92,0-13.38,0-1.86,0-3.69-2-4.64l-1-1c-2-1.25-3.91-2.18-5,1h-1c-2.43.31-2,2.19-2,3.76,0,5.08,0,10.16,0,15.24h-4c0-.35,0-.7,0-1v-3c.35-5.84-1-11.78.85-17.57-4.48,5.26-2.21,11.66-2.83,17.57,0,1.33,0,2.67,0,4-.33-.73-.69-1.44-1-2.18-.83-2.18,1.86-6.47-2.09-6.39-3.7.08-1.47,4.26-1.86,6.57-.48,2.85-.27,2.89-3.07,3,3.55-4.24,1.42-9.29,2-13.95,1.93-.09,4.23.42,4.84-2.26.31-1.4.77-3.22-.53-4.2-1.81-1.36-2.84,1-4.31,1.44Z"/><path class="ab0c30e5-4b41-464b-af9b-847fb0841733" d="M25.7,75.82c14.11,0,24.91,9.11,26.86,21.41.59,3.67-.52,5.45-4.27,6.23-13.92,2.9-28.48-7.12-30.84-21.31-.59-3.53.66-5.48,4.08-6A36,36,0,0,1,25.7,75.82Z"/><path class="ab0c30e5-4b41-464b-af9b-847fb0841733" d="M366.44,103.89c-9.56,0-11.4-2.83-7.77-11.83a26.23,26.23,0,0,1,29.44-16c3.36.69,4.74,2.43,4.16,6A26.09,26.09,0,0,1,366.44,103.89Z"/><path class="b2024084-7af3-4547-89bc-6b312033eaa4" d="M72.08,44.08A25.84,25.84,0,0,1,46.82,17.46c.09-2.9,1.06-4.09,3.93-4.46,14.39-1.85,29,11.79,28.1,26.3C78.58,43.61,77.8,44.16,72.08,44.08Z"/><path class="b2024084-7af3-4547-89bc-6b312033eaa4" d="M336.55,44.08c-3.87.72-5.81-1.17-5.73-5.73C331,24.23,343.4,12.4,357.4,12.88c3.83.14,5.57,1.26,5.52,5.54A26,26,0,0,1,336.55,44.08Z"/><path class="a8290c55-ffab-4fdc-8c74-7e4ba0b6fd11" d="M266,125c0,25.31,0,50.61.11,75.92,0,3.51-1,5.43-4.36,6.69-6.05,2.25-11.92,4.95-17.86,7.47,0-2,2.66-2.91,1.93-5.14a51.49,51.49,0,0,1-1-12.93l0,0c2.48-.19,4.32.3,4,3.43a2.45,2.45,0,0,0,1.23,2.48c2.82,1.8,10.52,1.38,13.69-.89,1.25-5.51-.37-11-.2-16.53.61-19.28.23-38.6.25-57.9,0-2,.22-4.2-1.18-5.74-5.43-6-1.38-13.46-3.41-20a10.63,10.63,0,0,1,1.62-.82c-.1,7.7-1.73,15.71,4.61,22.06C265.66,123.69,265.82,124.32,266,125Z"/><path class="b58ef998-43d3-4258-8c89-e08d9bd53c79" d="M93.86,197.74l3,.36a51.85,51.85,0,0,0,12.06,2.62l1.88.38a1.94,1.94,0,0,0,.16.75l-5.1,2.09c-1.84-2.31-4.43-2-7-2a35.18,35.18,0,0,0-14-2,8.57,8.57,0,0,0-.5-1.28c-1,.24-1,.26-.84,1.75.62,7.93.91,15.83-1.67,23.53h0c-4.6,2.86-9,6.47-15,4h0c-3.47-4-6.89-8-6-14,.36-2.47,2.39-4.41,2-7.05l0,0,1.08-1,.92-.94a2.15,2.15,0,0,0,2-1h0c2.34-1.19,4.68-.12,7,0v3c-1.91,1.17-5.11-.22-6,3-4.87,2.54-3.4,6.76-2.16,10.3,1.79,5.1,7.81,5.31,11.16.7,3.28-1.19,2.87-4.15,2.93-6.65.16-6,0-12,0-18Z"/><path class="b58ef998-43d3-4258-8c89-e08d9bd53c79" d="M135.67,208.06l7,3.51-1.83,1.36h-6l-1-2c-.25-.53-.43-1.43-.77-1.5-1.08-.21-1.07.78-1.21,1.52h0c-2.05.11-2,1.59-2,3.06l-1,.94c-1.7-.07-2.63,1.19-3.75,2.14-.79.67-1.74,1.15-2.65.35s-.48-1.78.09-2.65a15.85,15.85,0,0,0,1.35-2.06c.63-1.36,2.94-2.58,1.2-4.2-1.44-1.35-3.41-.46-5.1.34a7.32,7.32,0,0,0-3.91,4.87c-1.46,5.07,2.38,10.22,6.77,9.21h2.93c2.74,1.92,6.19.51,9,1.95,0,1.37-.16,2.5-1.57,3.33-6.51,3.8-18.28-1.13-20.55-8.28-1.39-4.36.37-8.05,1.12-12h0c2.72-.1,3.13-2.42,4.07-4.23,6,.05,11.1,3.57,16.95,4.13A.85.85,0,0,0,135.67,208.06Z"/><path class="b58ef998-43d3-4258-8c89-e08d9bd53c79" d="M48,251.06l-1.71.83c-.49-2.43-1-4.85-1.45-7.3-2.71-16.55-2.34-33.11-.14-49.68a1.07,1.07,0,0,0,.33-.76c11-.2,22,.07,32.92,2,0,.94,0,1.88,0,2.82-1.2-.57-2.39-1.61-3.61-1.64-8.8-.21-17.6-.24-26.41-.28-1.46,0-2,1.09-1.93,2.39.29,3.68-.95,7.24-1,10.85C44.85,223.93,44.27,237.66,48,251.06Z"/><path class="a8290c55-ffab-4fdc-8c74-7e4ba0b6fd11" d="M270.1,96.27c.53-1.2.73-3,1.64-3.49,6-3.59,7.83-10.08,10.79-15.62,2.22-4.16,2.35-9.21,1.82-13.95-.49-4.44-1.07-8.8.23-13.18l1.17,7L285.81,72c-.12.79-.25,1.57-.37,2.36a41.2,41.2,0,0,1-13.65,21.53Z"/><path class="a8290c55-ffab-4fdc-8c74-7e4ba0b6fd11" d="M269.83,97l-4.9,2.08c.56-3.08,3.05-2.64,5.17-2.85A1.43,1.43,0,0,1,269.83,97Z"/><path class="f5bab3b8-ec09-4819-852c-c06347060ee6" d="M221.73,235.73l5-3.79.18-.11,1.1-.75,0,0,2.11-1.05,1.72-.87c.83.11,1.24-.4,1.56-1.05l9.41-4.25,4.07,2.08,1,1c4.56,4.34,9.92,4.34,13,0h0c4.47-2.31,5.76-6.5,4-12.91a4.88,4.88,0,0,1,3.49-1.28c1.09.17,2.05,0,2.59-1.1a.6.6,0,0,1,.84-.32c0,4-.13,8,.18,12,.28,3.49.68,7.33,5.91,6.58,2.8-.07,2.59-.11,3.07-3,.39-2.31-1.84-6.49,1.86-6.57,3.95-.08,1.26,4.21,2.09,6.39.29.74.65,1.45,1,2.18h0c.39,2.13,1.34,2.62,3,1,1.1,0,2.28.18,3-1h0c1.73-1.64.87-3.76,1-5.67.25-4.45-.57-9,1.05-13.33h1l5-1,1,1q0,6.69,0,13.38c0,1.85-.11,3.71,2,4.64h0c.12,1.08.54,1.85,1.76,1.93a1.86,1.86,0,0,0,2.25-1.93h0c1.66-1.47.9-3.42,1-5.17.2-4.29-.48-8.64,1-12.83h0a2.05,2.05,0,0,0,1-2h2a3.41,3.41,0,0,0,2.06,2l1.92,1c.66,6-1.25,12.12,1,18h0a1.87,1.87,0,0,0,2.25,1.92c1.22-.08,1.64-.85,1.76-1.92h0c3.12-6.43,2.33-13,.87-19.67-.21-.95-1-1.21-1.86-1.33h0l-1-1c-.85-1.73-4.45-1.31-3.67-4s3.4-2.6,5.73-3c4.46-.81,9.08-.34,13.39-2.6,2.1-1.1,4.93.38,7.67,0,6.52-.83,13.11-1.88,19.78-1.4,3.56.25,5.66,1.43,6.44,5.38,2.32,11.87,2.24,23.88,1.26,35.73-.4,4.83-1.73,9.91-2.61,14.89-15.67-2-31.49-3-47.17-1.77-23,1.88-45.89,5.3-68.06,12.58A355.31,355.31,0,0,0,211.38,279a256.07,256.07,0,0,0-50.68,31.49c-12.47,9.89-24.28,20.4-34.65,32.53-2.25,2.63-4.36,5.93-8.21,6.85,6.29-13.29,14-25.72,22.38-37.81.64-.93,1.17-1.94,1.75-2.91,4.84-3.91,7.88-9.36,11.73-14.09,6.59-8.1,14-15.34,21.25-22.85,1.26-1.31,2.79-2.38,3.41-4.2,6-4.3,10.83-10.07,17-14.29,3.33-2.28,7.4-3.89,9.48-7.78,5.89.4,9.72-2.84,12.84-7.3l-.1,0c1.39.31,2.13-.23,2.2-1.67l.19-.26.31.09ZM336.84,204a23.47,23.47,0,0,1,12,1c1.85,3.12,1.92,5.87-1.51,8.06a3.33,3.33,0,0,0-1.49,2.93c-2.29.89-5.54,4.22-5-2a21.58,21.58,0,0,0,2.63-2.2c.8-.91,2.54-1.6,1.68-3.16-.62-1.13-2.1-.64-3.21-.63-5.18.06-7.44,3-7.11,9,.28,5,3.7,8.5,8.26,7.59,2.14-.44,3.83.16,5.73.4-4.74,9.08-10.29,1.54-15.65.54,2.47,4.17,11.72,6.56,15.2,4,1.77-1.28,2.09-2.88.47-4.59-.61-3-3.06-1.84-4.81-2-5.79-.42-8.29-3.57-7.16-9.25.38-1.94,1.47-3.85,3.42-3.49,2.12.39-.19,2.49.53,3.7-2.49.36-2.24,2.22-1.75,3.76.58,1.79,2.33,2.26,4,2.16,2.41-.15,2.77-1.93,2.72-3.91,2.32,0,3.4-1.92,4.75-3.3,3.26-3.33,2.76-5.35-1.75-7.7-2.78-3.81-8-4.26-12-1-2.85-.16-4.18,1.17-4,4-4.81,3.95-5.12,9.64-.77,14.85-2.74-5.2-.6-10,.77-14.86C335.16,207.62,335.59,205.38,336.84,204Z"/><path class="ea5ab0b4-cbc0-4b10-9fd0-b764f802eb6e" d="M340.37,316c-9.53,14.48-21.94,26.15-35.75,36.43-3.71,2.76-7.37,5.66-11.68,7.51-.91,0-1.73.1-2,1.17h0c-7.21-1.22-13.64-4.85-20.79-6.42-15.37-3.38-30.65-7.08-46.34-8.92s-31.53-1.23-47.23-.67a249.89,249.89,0,0,0-40.17,5.16c-4.71.95-10.1.68-14.48,3.88-1.48,1.09-4.2,2.06-5.09-1.37,8.52-4.77,17.15-9.34,25.73-14,15.83-8.56,32.58-14.66,49.71-19.8a257,257,0,0,1,58-10.28c18.61-1.16,37.07-1.27,55.63.92,9.87,1.17,19.49,3.67,29.38,4.61C337.08,314.44,338.71,315.43,340.37,316Z"/><path class="b58ef998-43d3-4258-8c89-e08d9bd53c79" d="M149.22,203.84,149,202c3.87.13,7.93-1.09,11.48,1.33,1.6,1.08,3.26,2.3,3.39,4.55l-.06.05C159.64,204.17,154.63,203.31,149.22,203.84Z"/><path class="b58ef998-43d3-4258-8c89-e08d9bd53c79" d="M165.79,212.54l-1-.45-1-4.13.06-.05C166,208.85,166,210.67,165.79,212.54Z"/><path class="a8290c55-ffab-4fdc-8c74-7e4ba0b6fd11" d="M235.94,125.12c.25-.2.5-.39.76-.57q.08,35.72.15,71.44c0,2.46-.3,4.9,1.39,7.17,1.14,1.53.66,3.38-.26,5.17-1.63,3.21-2,6.54.15,9.75-.1.28-.2.55-.31.82h0l-1.93.06c-.07-.35-.14-.7-.2-1.06l0-9c0-1-.05-2-.07-3q0-39,.07-77.95C235.79,127,235.87,126.07,235.94,125.12Z"/><path class="b2024084-7af3-4547-89bc-6b312033eaa4" d="M263.8,201.94c-3.17,2.27-10.87,2.69-13.69.89a2.45,2.45,0,0,1-1.23-2.48c.3-3.13-1.54-3.62-4-3.43,2.54-3.69,5.19-1.71,5.53.93.57,4.4,3,4.23,6.06,4.1C258.9,201.85,261.35,201.94,263.8,201.94Z"/><path class="b2024084-7af3-4547-89bc-6b312033eaa4" d="M244.83,197a51.49,51.49,0,0,0,1,12.93H244C244.17,205.58,242.79,201.16,244.83,197Z"/><path class="a8290c55-ffab-4fdc-8c74-7e4ba0b6fd11" d="M265,99.08,260.87,101C261.22,98.18,263.34,99.15,265,99.08Z"/><path class="a8290c55-ffab-4fdc-8c74-7e4ba0b6fd11" d="M283.76,45c.09.64.19,1.29.28,1.93C282.87,46.43,282.77,45.79,283.76,45Z"/><path class="b58ef998-43d3-4258-8c89-e08d9bd53c79" d="M204.84,245.93c-2.08,3.89-6.15,5.5-9.48,7.78-6.17,4.22-11,10-17,14.29-8.71-6-19.18-7-29-9.91C120.52,249.62,90.8,249,61,250.16c-4.3.18-8.84-.9-13.08.9-3.68-13.4-3.1-27.13-3-40.8,0-3.61,1.27-7.17,1-10.85-.1-1.3.47-2.39,1.93-2.39,8.81,0,17.61.07,26.41.28,1.22,0,2.41,1.07,3.61,1.64,0,.33,0,.66,0,1-2,.67-4.95-1.59-6,2h-2c-.15-.41-.21-1.13-.45-1.19-1-.25-1.22.6-1.56,1.25a2.06,2.06,0,0,0-1,2h0a2,2,0,0,0-2,1l-.93.94-1.07,1,0,0c-2.92.62-2.8,3.48-3.5,5.38-2.27,6.1,1.94,14.46,7.5,15.64h0c4.34,4.48,12.08,2.42,15-4h0c3.25-1.19,2.88-4.13,3-6.62.17-5.79.06-11.58.06-17.38a35.18,35.18,0,0,1,14,2l-2,2-1,1h0l-1,1h0C90.6,209,89,223.65,92.41,227.82c.08.1.31.08.47.12v0c.2,2.15,1.78,2.22,3.25,1.88,2.5-.57,2.41-3,2.61-4.77.57-5-.62-10.16,1.15-15.1h0l3-2h.94c2.71-.31,1.8-2.43,2-4l5.1-2.09h0l3,3.14c0,1,0,2,0,3h0l-2,0c-.65-.69-1.56-1-1.79.11-.56,2.83-.9,5.72-1.21,8.6-.15,1.48-.1,3,2,3.25l.06,2c-1.58,1.59-.33,1.82,1,2a2.12,2.12,0,0,1,1,2,1.21,1.21,0,0,0-.38,2c.76.89,1.6,1.09,2.36,0a2.18,2.18,0,0,1,2,1c.17,1.31.39,2.54,2,1,1.68.27,3.59-.61,5,1a11,11,0,0,0,10,0l1.93,0c4,1.18,2.95-4.91,5.73-4.27s3.91,3.81,7.24,4.55c4.54,1,8.73-.95,13.08-.25h1c.33.57.67.57,1,0l3-1c1.74.15,2.61-1.43,4-2,7.54,3.16,15.48,5.3,22.52,9.83C197.35,240.32,200.05,244.6,204.84,245.93Z"/><path class="f5bab3b8-ec09-4819-852c-c06347060ee6" d="M247.8,226.93l-1-1c-.37-1.09-.75-2.17-1.12-3.26a46.74,46.74,0,0,1,15.2-6.83,1,1,0,0,0,.64-.28l2.23-.86c1,4.54-1.1,8.34-3,12.19h0C256.49,229.28,252.14,228.23,247.8,226.93Z"/><path class="f5bab3b8-ec09-4819-852c-c06347060ee6" d="M277.83,229.89c-5.23.75-5.63-3.09-5.91-6.58-.31-4-.14-8-.18-12l2.06-.47c0,4.67,0,9.33.07,14,0,1.21.35,2.41,1.76,2.64a1.69,1.69,0,0,0,2-1.73c-.28-5.36,1.62-10.87-1.08-16.06l3.09-1.26c.06.83.11,1.65.17,2.48v5C279.25,220.6,281.38,225.65,277.83,229.89Z"/><path class="f5bab3b8-ec09-4819-852c-c06347060ee6" d="M276.56,209.7c2.7,5.19.8,10.7,1.08,16.06a1.69,1.69,0,0,1-2,1.73c-1.41-.23-1.74-1.43-1.76-2.64-.05-4.67-.05-9.33-.07-14A3.34,3.34,0,0,1,276.56,209.7Z"/><path class="f5bab3b8-ec09-4819-852c-c06347060ee6" d="M260.84,226.93c1.85-3.85,3.91-7.65,3-12.19l1-.72C266.6,220.43,265.31,224.62,260.84,226.93Z"/><path class="ac2773cf-8077-4e4a-8503-ec7f568a4fa5" d="M245.72,222.71c.37,1.09.75,2.17,1.12,3.26l-4.07-2.08A3.59,3.59,0,0,1,245.72,222.71Z"/><path class="ac2773cf-8077-4e4a-8503-ec7f568a4fa5" d="M270.9,211.64c-.54,1.15-1.5,1.27-2.59,1.1A2.65,2.65,0,0,1,270.9,211.64Z"/><path class="f5bab3b8-ec09-4819-852c-c06347060ee6" d="M261.56,215.6a1,1,0,0,1-.64.28l.24-.36Z"/><path class="f5bab3b8-ec09-4819-852c-c06347060ee6" d="M319.83,207.93c.85.12,1.65.38,1.86,1.33,1.46,6.63,2.25,13.24-.87,19.67C320.62,221.92,321.48,214.87,319.83,207.93Z"/><path class="f5bab3b8-ec09-4819-852c-c06347060ee6" d="M285.84,224.92c.62-5.91-1.65-12.31,2.83-17.57-1.83,5.79-.5,11.73-.84,17.57Z"/><path class="f5bab3b8-ec09-4819-852c-c06347060ee6" d="M302.82,227.93c-2.1-.93-2-2.79-2-4.64q0-6.69,0-13.38c2.05,1,2,2.78,2,4.64C302.8,219,302.82,223.47,302.82,227.93Z"/><path class="f5bab3b8-ec09-4819-852c-c06347060ee6" d="M279.82,215.94v-5c1.47-.45,2.5-2.8,4.31-1.44,1.3,1,.84,2.8.53,4.2C284.05,216.36,281.75,215.85,279.82,215.94Z"/><path class="f5bab3b8-ec09-4819-852c-c06347060ee6" d="M293.86,209.93c-1.62,4.35-.8,8.88-1.05,13.33-.11,1.91.75,4-1,5.67,0-5.08,0-10.16,0-15.24C291.85,212.12,291.43,210.24,293.86,209.93Z"/><path class="f5bab3b8-ec09-4819-852c-c06347060ee6" d="M308.83,209.93c-1.5,4.19-.82,8.54-1,12.83-.08,1.75.68,3.7-1,5.17,0-4.74,0-9.49,0-14.23C306.85,212.14,306.4,210.25,308.83,209.93Z"/><path class="f5bab3b8-ec09-4819-852c-c06347060ee6" d="M316.82,228.93c-2.29-5.88-.38-12-1-18C318.07,216.82,316.24,223,316.82,228.93Z"/><path class="f5bab3b8-ec09-4819-852c-c06347060ee6" d="M306.83,227.93a1.86,1.86,0,0,1-2.25,1.93c-1.22-.08-1.64-.85-1.76-1.93Z"/><path class="f5bab3b8-ec09-4819-852c-c06347060ee6" d="M320.83,228.93c-.12,1.07-.54,1.84-1.76,1.92a1.87,1.87,0,0,1-2.25-1.92Z"/><path class="ac2773cf-8077-4e4a-8503-ec7f568a4fa5" d="M299.86,208.94l-5,1C296,206.76,297.88,207.69,299.86,208.94Z"/><path class="f5bab3b8-ec09-4819-852c-c06347060ee6" d="M285.84,224.92h2c0,1,0,2,0,3l-1,1.06h-1C285.83,227.59,285.83,226.25,285.84,224.92Z"/><path class="f5bab3b8-ec09-4819-852c-c06347060ee6" d="M291.83,228.93c-.72,1.18-1.9,1-3,1l-1-1,0,0Z"/><path class="ac2773cf-8077-4e4a-8503-ec7f568a4fa5" d="M313.86,209.94a3.41,3.41,0,0,1-2.06-2A1.88,1.88,0,0,1,313.86,209.94Z"/><path class="ac2773cf-8077-4e4a-8503-ec7f568a4fa5" d="M309.84,207.93a2.05,2.05,0,0,1-1,2A2,2,0,0,1,309.84,207.93Z"/><path class="f5bab3b8-ec09-4819-852c-c06347060ee6" d="M286.83,228.93l1-1.06c0,.35,0,.7,0,1l0,0Z"/><path class="ac2773cf-8077-4e4a-8503-ec7f568a4fa5" d="M318.82,206.9l1,1Z"/><path class="b58ef998-43d3-4258-8c89-e08d9bd53c79" d="M204.84,245.93c-4.79-1.33-7.49-5.61-11.46-8.17-7-4.53-15-6.67-22.52-9.83.19-2-.63-3.55-2.57-3.5-2.34.07-1.12,2.25-1.4,3.52a8.62,8.62,0,0,0,0,2l-3,1h-2a9.12,9.12,0,0,1-2.06-6.76c.1-1.61.79-3.79-1.94-4.23L155.8,217l.33-.39c13.57,5.07,26,12.34,38.54,19.53l6.11,3.85,3.56,2.46c1.9,2.46,3.92,1.81,6,.29,1.59-1.16,3.21-2.29,4.82-3.43l2.5-.69C214.56,243.09,210.73,246.33,204.84,245.93Z"/><path class="b58ef998-43d3-4258-8c89-e08d9bd53c79" d="M142.77,211.55c4.77.86,9.06,3,13.36,5.07l-.33.39-7-.06-1.73-2.33c-.44,2.91-.38,5.38,1.81,7.31h0c1.17,1.53,3,2,4.62,2.71,1.23.55,2.78.79,2.06,2.61s-2.08,1.45-3.72,1.27c-3.43-.38-4.66-4.23-8-4.59v0A50.56,50.56,0,0,1,142.77,211.55Z"/><path class="a8290c55-ffab-4fdc-8c74-7e4ba0b6fd11" d="M163.83,208l1,4.13c-4.76-1.88-9.53-3.74-14.28-5.65-1.14-.46-2.14-1.1-1.32-2.6C154.63,203.31,159.64,204.17,163.83,208Z"/><path class="b58ef998-43d3-4258-8c89-e08d9bd53c79" d="M142.77,211.55a50.56,50.56,0,0,0,1.1,12.39c-2.76-.62-2.28-3.18-3-5-.43-2,1-4,0-6l1.83-1.36Z"/><path class="ee113ea0-51ef-4697-9708-41e0c99627b0" d="M291,361.15c.26-1.07,1.08-1.2,2-1.17A2.32,2.32,0,0,1,291,361.15Z"/><path class="b58ef998-43d3-4258-8c89-e08d9bd53c79" d="M77.88,199.93c0-.33,0-.66,0-1,0-.94,0-1.88,0-2.82l1.94.18c0,6,.12,12,0,18-.06,2.5.35,5.46-2.93,6.65h0c0-1,0-2,0-2.94C79.06,212.07,77.35,205.94,77.88,199.93Z"/><path class="b58ef998-43d3-4258-8c89-e08d9bd53c79" d="M66.89,227.94c-5.56-1.18-9.77-9.54-7.5-15.64.7-1.9.58-4.76,3.5-5.38.35,2.64-1.68,4.58-2,7.05C60,219.91,63.42,223.91,66.89,227.94Z"/><path class="b58ef998-43d3-4258-8c89-e08d9bd53c79" d="M76.88,220.93c-3.35,4.61-9.37,4.4-11.16-.7-1.24-3.54-2.71-7.76,2.16-10.3h0c.85,2.54-2.81,4.38-1.09,7,.11,1.07-.09,2.26,1.07,3v0c1.66,3.09,4.57,1.68,7,1.95l2-1Z"/><path class="b58ef998-43d3-4258-8c89-e08d9bd53c79" d="M84.89,199.94c0,5.8.11,11.59-.06,17.38-.07,2.49.3,5.43-3,6.62,2.58-7.7,2.29-15.6,1.67-23.53-.12-1.49-.17-1.51.84-1.75A8.57,8.57,0,0,1,84.89,199.94Z"/><path class="b58ef998-43d3-4258-8c89-e08d9bd53c79" d="M81.89,223.93c-2.94,6.42-10.68,8.48-15,4C72.89,230.4,77.29,226.79,81.89,223.93Z"/><path class="b58ef998-43d3-4258-8c89-e08d9bd53c79" d="M96.88,204l2-2c2.52,0,5.11-.32,7,2-.2,1.57.71,3.69-2,4,.4-7.28-4.08-3.34-7-3Z"/><path class="b58ef998-43d3-4258-8c89-e08d9bd53c79" d="M66.87,203.94a2.06,2.06,0,0,1,1-2l2-.06h2a1.88,1.88,0,0,1,2,2h0C71.55,203.82,69.21,202.75,66.87,203.94Z"/><path class="b58ef998-43d3-4258-8c89-e08d9bd53c79" d="M67.88,209.93c.89-3.22,4.09-1.83,6-3h0c.18,1.57-1.37,1.94-2,2.92l-4,.07Z"/><path class="b58ef998-43d3-4258-8c89-e08d9bd53c79" d="M73.88,206.93v-3h0c1,.14,2,.42,1.79,1.74-.13,1-1,1.14-1.8,1.27Z"/><path class="b58ef998-43d3-4258-8c89-e08d9bd53c79" d="M64.87,205a2,2,0,0,1,2-1A2.15,2.15,0,0,1,64.87,205Z"/><path class="b58ef998-43d3-4258-8c89-e08d9bd53c79" d="M62.87,206.94l1.07-1Z"/><path class="b58ef998-43d3-4258-8c89-e08d9bd53c79" d="M140.87,218.93c.72,1.83.24,4.39,3,5v0c.52,3.19,2.9,4.7,5.56,5.61,2.13.74,4.9,1.26,6.59-.25,1.86-1.66.9-4.22-.16-6.33.61-1,2.17-1.46,2-3,2.73.44,2,2.62,1.94,4.23a9.12,9.12,0,0,0,2.06,6.76c-4.35-.7-8.54,1.27-13.08.25-3.33-.74-4.58-3.93-7.24-4.55s-1.76,5.45-5.73,4.27c-1.05-2.21,3.7-5.21-.94-6.93-2.81-2.07-6-.57-9-1h-2.93a26.2,26.2,0,0,1-4-3.64c-2.66-3.56-.89-7.5,3.64-8.53.15,1.34-1,2-1.57,3-1.3,2.22-1.28,4.15,1,5.56,2.11,1.27,3.86.42,5.2-1.36a27.29,27.29,0,0,0,1.73-3l1-.94a3.14,3.14,0,0,0,2-3.06h0l2,0,1,2c-1.37,3.08-5.42,3.94-6.29,7.58,1.77.48,3.42,1,5.31.59,2.2-.54,3.34,1.83,5.27,2.33C140.45,222.14,139.19,220,140.87,218.93Z"/><path class="b58ef998-43d3-4258-8c89-e08d9bd53c79" d="M134.87,224c4.64,1.72-.11,4.72.94,6.93l-1.93,0-10,0c-1.41-1.6-3.32-.72-5-1a2.12,2.12,0,0,0-2-1,2.18,2.18,0,0,0-2-1l-2-2a2.12,2.12,0,0,0-1-2,2.2,2.2,0,0,0-1-2l-.06-2a41.13,41.13,0,0,1,1-12l2,0c-.75,3.95-2.51,7.64-1.12,12,2.27,7.15,14,12.08,20.55,8.28,1.41-.83,1.59-2,1.57-3.33Z"/><path class="b58ef998-43d3-4258-8c89-e08d9bd53c79" d="M140.87,218.93c-1.68,1-.42,3.21-1.71,4.51-1.93-.5-3.07-2.87-5.27-2.33-1.89.46-3.54-.11-5.31-.59.87-3.64,4.92-4.5,6.29-7.58h6C141.92,214.93,140.44,216.93,140.87,218.93Z"/><path class="b58ef998-43d3-4258-8c89-e08d9bd53c79" d="M128.91,214.93a27.29,27.29,0,0,1-1.73,3c-1.34,1.78-3.09,2.63-5.2,1.36-2.33-1.41-2.35-3.34-1-5.56.56-1,1.72-1.66,1.57-3-4.53,1-6.3,5-3.64,8.53a26.2,26.2,0,0,0,4,3.64c-4.39,1-8.23-4.14-6.77-9.21a7.32,7.32,0,0,1,3.91-4.87c1.69-.8,3.66-1.69,5.1-.34,1.74,1.62-.57,2.84-1.2,4.2a15.85,15.85,0,0,1-1.35,2.06c-.57.87-1,1.84-.09,2.65s1.86.32,2.65-.35C126.28,216.12,127.21,214.86,128.91,214.93Z"/><path class="b58ef998-43d3-4258-8c89-e08d9bd53c79" d="M113.86,207.93c0-1,0-2,0-3a1.85,1.85,0,0,0,1.94-2.08,2,2,0,0,1,2.08.8C117,205.51,116.58,207.83,113.86,207.93Z"/><path class="b58ef998-43d3-4258-8c89-e08d9bd53c79" d="M134.87,224v.92c-2.84-1.44-6.29,0-9-1.95C128.84,223.39,132.06,221.89,134.87,224Z"/><path class="b58ef998-43d3-4258-8c89-e08d9bd53c79" d="M131.87,210.93a3.14,3.14,0,0,1-2,3.06C129.84,212.52,129.82,211,131.87,210.93Z"/><path class="b58ef998-43d3-4258-8c89-e08d9bd53c79" d="M133.85,210.92l-2,0c.14-.74.13-1.73,1.21-1.52C133.42,209.49,133.6,210.39,133.85,210.92Z"/><path class="b58ef998-43d3-4258-8c89-e08d9bd53c79" d="M115.85,202.9a1.85,1.85,0,0,1-1.94,2.08l-3-3.14A7.83,7.83,0,0,1,115.85,202.9Z"/><path class="ad791af8-cf3d-4725-8673-256fd8ded17a" d="M219.78,237c-.07,1.44-.81,2-2.2,1.67A2.3,2.3,0,0,1,219.78,237Z"/><path class="ad791af8-cf3d-4725-8673-256fd8ded17a" d="M221.73,235.73l-1.45,1.08Z"/><path class="f5bab3b8-ec09-4819-852c-c06347060ee6" d="M348.81,224.94c-1.9-.24-3.59-.84-5.73-.4-4.56.91-8-2.57-8.26-7.59-.33-6,1.93-8.94,7.11-9,1.11,0,2.59-.5,3.21.63.86,1.56-.88,2.25-1.68,3.16a21.58,21.58,0,0,1-2.63,2.2l0,0c-.72-1.21,1.59-3.31-.53-3.7-1.95-.36-3,1.55-3.42,3.49-1.13,5.68,1.37,8.83,7.16,9.25,1.75.12,4.2-1.08,4.81,2Z"/><path class="f5bab3b8-ec09-4819-852c-c06347060ee6" d="M348.83,224.92c1.62,1.71,1.3,3.31-.47,4.59-3.48,2.53-12.73.14-15.2-4,5.36,1,10.91,8.54,15.65-.54Z"/><path class="f5bab3b8-ec09-4819-852c-c06347060ee6" d="M348.82,204.93c4.51,2.35,5,4.37,1.75,7.7-1.35,1.38-2.43,3.27-4.75,3.3h0a3.33,3.33,0,0,1,1.49-2.93c3.43-2.19,3.36-4.94,1.51-8.06Z"/><path class="f5bab3b8-ec09-4819-852c-c06347060ee6" d="M332.82,207.93c-1.37,4.86-3.51,9.66-.77,14.86-4.35-5.21-4-10.9.77-14.85Z"/><path class="f5bab3b8-ec09-4819-852c-c06347060ee6" d="M340.83,213.94c-.55,6.21,2.7,2.88,5,2h0c.05,2-.31,3.76-2.72,3.91-1.71.1-3.46-.37-4-2.16-.49-1.54-.74-3.4,1.75-3.76Z"/><path class="f5bab3b8-ec09-4819-852c-c06347060ee6" d="M247.8,226.93c4.34,1.3,8.69,2.35,13,0C257.72,231.27,252.36,231.27,247.8,226.93Z"/><path class="ac2773cf-8077-4e4a-8503-ec7f568a4fa5" d="M336.79,203.9c4-3.23,9.25-2.78,12,1h0a23.47,23.47,0,0,0-12-1Z"/><path class="ac2773cf-8077-4e4a-8503-ec7f568a4fa5" d="M332.82,207.94c-.21-2.86,1.12-4.19,4-4l0,.05c-1.25,1.42-1.68,3.66-4,4Z"/><path class="f5bab3b8-ec09-4819-852c-c06347060ee6" d="M286.83,228.93h1l1,1c-1.65,1.62-2.6,1.13-3-1Z"/><path class="b58ef998-43d3-4258-8c89-e08d9bd53c79" d="M96.88,204.9c2.9-.3,7.38-4.24,7,3h-.94c-1.46,0-3-.07-3,2h0c-2.67.2-3,2-3,4.19,0,3.13.08,6.26,0,9.38-.09,2.47-.75,4.65-4,4.42v0c.41-7.36-1.34-14.92,2-22h0c.33-.34.67-.67,1-1h0Z"/><path class="b58ef998-43d3-4258-8c89-e08d9bd53c79" d="M73.88,206.94c.82-.13,1.67-.24,1.8-1.27.17-1.32-.76-1.6-1.79-1.74a1.88,1.88,0,0,0-2-2c1.05-3.56,4-1.3,6-2-.53,6,1.18,12.14-1,18.06.35-4,.64-7.94-5.09-8.13C72.51,208.88,74.06,208.51,73.88,206.94Z"/><path class="b58ef998-43d3-4258-8c89-e08d9bd53c79" d="M92.87,227.92c3.21.23,3.87-1.95,4-4.42.12-3.12.07-6.25,0-9.38,0-2.16.34-4,3-4.19-1.77,4.94-.58,10.09-1.15,15.1-.2,1.77-.11,4.2-2.61,4.77C94.65,230.14,93.07,230.07,92.87,227.92Z"/><path class="b58ef998-43d3-4258-8c89-e08d9bd53c79" d="M94.88,205.93c-3.34,7.09-1.59,14.65-2,22-.16,0-.39,0-.47-.12C89,223.65,90.6,209,94.88,205.93Z"/><path class="b58ef998-43d3-4258-8c89-e08d9bd53c79" d="M111.9,208a41.13,41.13,0,0,0-1,12c-2.06-.23-2.11-1.77-2-3.25.31-2.88.65-5.77,1.21-8.6C110.34,206.93,111.25,207.28,111.9,208Z"/><path class="b58ef998-43d3-4258-8c89-e08d9bd53c79" d="M166.86,229.92a8.62,8.62,0,0,1,0-2c.28-1.27-.94-3.45,1.4-3.52,1.94-.05,2.76,1.55,2.57,3.5C169.47,228.49,168.6,230.07,166.86,229.92Z"/><path class="b58ef998-43d3-4258-8c89-e08d9bd53c79" d="M123.88,230.89l10,0A11,11,0,0,1,123.88,230.89Z"/><path class="b58ef998-43d3-4258-8c89-e08d9bd53c79" d="M112.91,225.91l2,2c-.76,1.13-1.6.93-2.36,0A1.21,1.21,0,0,1,112.91,225.91Z"/><path class="b58ef998-43d3-4258-8c89-e08d9bd53c79" d="M110.92,221.9a2.2,2.2,0,0,1,1,2C110.59,223.72,109.34,223.49,110.92,221.9Z"/><path class="b58ef998-43d3-4258-8c89-e08d9bd53c79" d="M99.87,209.94c.08-2.08,1.59-2,3-2Z"/><path class="b58ef998-43d3-4258-8c89-e08d9bd53c79" d="M116.89,228.9a2.12,2.12,0,0,1,2,1C117.28,231.44,117.06,230.21,116.89,228.9Z"/><path class="b58ef998-43d3-4258-8c89-e08d9bd53c79" d="M69.89,201.89l-2,.06c.34-.65.6-1.5,1.56-1.25C69.68,200.76,69.74,201.48,69.89,201.89Z"/><path class="b58ef998-43d3-4258-8c89-e08d9bd53c79" d="M162.86,230.93h1C163.53,231.5,163.19,231.5,162.86,230.93Z"/><path class="b58ef998-43d3-4258-8c89-e08d9bd53c79" d="M95.88,204.93c-.34.34-.68.67-1,1C95.2,205.6,95.54,205.27,95.88,204.93Z"/><path class="b58ef998-43d3-4258-8c89-e08d9bd53c79" d="M96.88,204.9l-1,0,1-1Z"/><path class="b58ef998-43d3-4258-8c89-e08d9bd53c79" d="M157.86,219.93c.16,1.56-1.4,2-2,3l-7-1h0c0-1.66-.05-3.32-.08-5l7,.06Z"/><path class="b58ef998-43d3-4258-8c89-e08d9bd53c79" d="M148.86,221.92l7,1c1.06,2.12,2,4.68.16,6.34-1.69,1.51-4.46,1-6.59.25-2.66-.91-5-2.42-5.56-5.61,3.3.36,4.53,4.21,8,4.59,1.64.18,3,.44,3.72-1.27s-.83-2.06-2.06-2.61C151.86,223.9,150,223.45,148.86,221.92Z"/><path class="b58ef998-43d3-4258-8c89-e08d9bd53c79" d="M148.79,217c0,1.66.05,3.32.08,5-2.19-1.93-2.25-4.4-1.81-7.31Z"/><path class="b58ef998-43d3-4258-8c89-e08d9bd53c79" d="M71.83,209.86c5.73.19,5.44,4.14,5.09,8.13,0,1,0,2,0,2.94l-2,1c-1.51-3.61-4.66-1.35-7-1.95v0c0-1.11.24-2.32-1.07-3-1.72-2.67,1.94-4.51,1.09-7Z"/><path class="b58ef998-43d3-4258-8c89-e08d9bd53c79" d="M67.87,220c2.35.6,5.5-1.66,7,1.95C72.44,221.64,69.53,223.05,67.87,220Z"/><path class="b58ef998-43d3-4258-8c89-e08d9bd53c79" d="M66.79,217c1.31.64,1,1.85,1.07,3C66.7,219.24,66.9,218.05,66.79,217Z"/></svg>