<svg id="a3fc8a27-5d59-41c1-80ac-9ebcae46faee" data-name="Capa 1" xmlns="http://www.w3.org/2000/svg" viewBox="0 0 511.77 413.83"><defs><style>.a1246cdf-6ddb-4508-a471-cff0ddea899d{fill:#030303;}.f4e331cf-d71b-426b-b5c8-9477d57e2f37{fill:#020303;}.b032e849-cd58-4e99-a5cf-a52a02de0615{fill:#030404;}.b54ee17d-a9dc-4729-8279-ac6966ae684d{fill:#6a91e2;}.b7059226-fb6b-4793-b06d-e38a8d5083f8{fill:#3875d9;}.b0eb501e-cf2b-45d8-adf0-7bb2edc208d8{fill:#fdb6d4;}.a1df1618-d7b7-47d4-9e62-03826aab5951{fill:#fd8fc3;}.ae218f20-a9ed-4e5c-b4d7-7bf132f0a761{fill:#fa8dc0;}.b8388212-cfe5-4363-a85b-3b86b1cf3f20{fill:#edeafd;}.b2ec746a-e850-4412-927c-192d70d0eec0{fill:#d2d0fc;}.b977866e-429f-413b-b051-539bb4c1e8d3{fill:#030204;}.ebe0456b-0eb1-4b30-945b-714317b51817{fill:#f2e44a;}</style></defs><title>_</title><path class="a1246cdf-6ddb-4508-a471-cff0ddea899d" d="M127.94,0c3.21,1.75,6.89,1.54,10.3,2.5a66.1,66.1,0,0,1,41.54,93.6c-.51,1-1.08,2-2,3.82h5.57q100.38,0,200.76,0c6.74,0,8.42,1.21,10.14,7.12-1.22,6.35-3.21,7.88-10.43,7.88q-102.42,0-204.86-.1c-8.15,0-15.85,0-21.89,6.54a10.42,10.42,0,0,1-3.8,2.36c-2.64,1-3.18,2.87-3.13,5.49.14,7.83.2,15.66,0,23.48-.09,3.19.93,5.06,3.54,7,20.53,14.93,28.21,40.59,19.41,64.41-5.69,15.38-16.63,25.76-31.35,32.46-10.05,3.64-20.45,5.08-30.9,2.83C87.05,254.23,71.58,239.69,66.53,216c-4.92-23.09,3-42.25,21.94-56.55a7.13,7.13,0,0,0,3.26-6.6c-.17-7.49,0-15-.06-22.47,0-7.12-4.33-9.68-10.64-6.1-21.12,12-33.76,30.08-38,54-8.63,48.59-17,97.23-25.85,145.76-2.9,15.86-3.13,31,4.93,45.53,2.22,4,.72,7.35-2.22,10.32-6.27,1.83-8.85.85-11.68-4.67C7,372.69,6.06,370,4.78,367.54c-2.4-4.65-2.16-10.13-4.78-14.69v-21c.77-.21.89-.81,1-1.49C10,279.29,19.08,228.22,28,177.12c4.7-27,17.94-48.35,41.17-63.13,3.23-2.06,3.38-3,.93-5.94C39.44,70.86,57.58,14.8,104.11,2.32c2.94-.79,6.19-.43,8.84-2.32h3a11.18,11.18,0,0,0,10,0Zm7,153.93c.07-6.79.09-13.58.27-20.37.05-2.29-.74-2.83-2.92-2.41a59.88,59.88,0,0,1-22.72,0c-2.15-.41-3,.09-3,2.4.18,6.79.21,13.58.3,20.37,0,12.79-.33,25.59-.06,38.38.16,7.58,6.7,13.39,14.05,13.39s14-5.88,14.11-13.37C135.25,179.53,135,166.73,134.93,153.93ZM91.74,24.85l.06-.07C73.38,35.94,64.87,62,73.05,83.63c7.19,19,21.22,30.52,41.31,33.05C133.9,119.14,150.22,112.34,162,96c14.72-18.36,12.91-46.86-4.12-64.79-17.19-18.1-45.45-21.25-64.92-7.24Zm0,152.62c-10.28,7.42-14.32,26.36-9.09,40.9a40.39,40.39,0,0,0,40.69,26.82c18.47-1.26,33.68-14.2,37.46-31.87,2.88-13.49-2.31-31-10.64-35.51,0,4.56.08,9,0,13.52-.36,16.46-13.1,29.28-29.1,29.36S92.19,208,91.72,191.55C91.59,187,91.7,182.36,91.7,177.47Z"/><path class="f4e331cf-d71b-426b-b5c8-9477d57e2f37" d="M431.8,413.83c-.18-.78-.79-.89-1.46-1-32-6.42-51.34-26.65-56.48-58.86-.92-5.75-1.85-11.49-3.07-17.18a25,25,0,0,0-24.28-19.88q-90.61-.12-181.24,0A25,25,0,0,0,141,336.76c-1.77,8.45-2.87,17.05-4.82,25.46-6.43,27.7-28.49,47.27-56.72,50.66-.69.08-1.29.16-1.49.95H76a11.14,11.14,0,0,0-10,0H62c-.49-1.56-1.91-1-2.93-1.23a76.14,76.14,0,0,1-19.2-6.48c-6-3.08-7-5.18-5.22-12,3.68-3.72,7.45-3.76,12.15-1.41,32.41,16.22,70.15-2.8,75.68-37.7.75-4.75,1.9-9.45,2.45-14.23,3.06-26.47,22.75-39.74,43-39.14,2,.06,4,.16,6,.16q85.67,0,171.31,0c20.85,0,37,13.57,40.7,34,1.35,7.35,2.5,14.75,4,22.07,5.35,25.48,30,43.45,55.16,40.39,35.31-4.29,56.76-34,50.38-69.09-8.8-48.41-17.51-96.84-25.59-145.38-5-30.1-19.85-52.06-48.46-63.89-4.58-1.89-6.19-5.2-5.59-9.89,3.92-5.45,6.17-6.24,12.19-3.65,31.13,13.41,49.7,36.94,55.67,70.2,9.05,50.39,17.81,100.84,26.79,151.24.29,1.66-.54,3.72,1.29,5v20c-1.84,1-1.27,2.92-1.64,4.38-7.08,28-24.44,46-52.1,54.12-3.38,1-7.06.67-10.23,2.48h-3a5.73,5.73,0,0,0-7,0Z"/><path class="b032e849-cd58-4e99-a5cf-a52a02de0615" d="M125.94,0a11.18,11.18,0,0,1-10,0Z"/><path class="b032e849-cd58-4e99-a5cf-a52a02de0615" d="M66,413.83a11.14,11.14,0,0,1,10,0Z"/><path class="b032e849-cd58-4e99-a5cf-a52a02de0615" d="M437.8,413.83a5.73,5.73,0,0,1,7,0Z"/><path class="b54ee17d-a9dc-4729-8279-ac6966ae684d" d="M415.83,110.06c-.6,4.69,1,8,5.59,9.89,28.61,11.83,43.45,33.79,48.46,63.89,8.08,48.54,16.79,97,25.59,145.38,6.38,35-15.07,64.8-50.38,69.09-25.19,3.06-49.81-14.91-55.16-40.39-1.53-7.32-2.68-14.72-4-22.07-3.73-20.43-19.85-34-40.7-34q-85.65-.08-171.31,0c-2,0-4-.1-6-.16-3-3.75-6.24-7.31-8.86-11.3-7-10.63-13.78-21.43-17.36-33.84,14.72-6.7,25.66-17.08,31.35-32.46,8.8-23.82,1.12-49.48-19.41-64.41-2.61-1.9-3.63-3.77-3.54-7,.22-7.82.16-15.65,0-23.48-.05-2.62.49-4.47,3.13-5.49a10.42,10.42,0,0,0,3.8-2.36c6-6.52,13.74-6.56,21.89-6.54q102.44.27,204.86.1c7.22,0,9.21-1.53,10.43-7.88C401.43,108,408.75,108.18,415.83,110.06ZM255.68,257.3h23c.5,0,1,0,1.5,0,12.33-.63,20.36-8.85,20.57-21.12.09-5,.11-10,0-15-.29-11.93-8.51-20.57-20.41-20.77q-24.45-.42-48.92,0c-11.91.21-20,8.88-20.31,20.85-.1,4.66,0,9.32,0,14,.09,13.47,8.15,21.75,21.66,22C240.37,257.42,248,257.29,255.68,257.3Zm135-18a31.32,31.32,0,1,0-30.87,31.49A31.69,31.69,0,0,0,390.65,239.31Zm43.18-68.92a31.18,31.18,0,1,0-30.93,31.34A31.36,31.36,0,0,0,433.83,170.39Zm-177.39,1.74c7.54.08,14.55-2.89,20.34-8.73,3.83-3.86,4.06-8.16.79-11.43-3.07-3.05-7.17-2.84-11.08.57-7.35,6.38-13.83,6.35-21.32-.12-3.88-3.34-8-3.47-11.08-.33s-2.91,7.39.67,11.08C240.47,169.06,247.46,172.11,256.44,172.13Zm-55.52-20.3c0-2.17.13-4.34,0-6.49-.33-4.24-3.52-7.42-7.43-7.23-4.19.21-7,2.57-7.36,6.75a74.6,74.6,0,0,0,0,13.45c.39,4.12,3,6.57,7.36,6.67,4,.09,7.11-2.88,7.43-7.16C201.05,155.83,200.93,153.82,200.92,151.83Zm124.85-.06h0c0-2.16.16-4.34,0-6.49a7.56,7.56,0,0,0-7.51-7.2,7.43,7.43,0,0,0-7.35,7.33,115.27,115.27,0,0,0,0,12.47c.25,4.2,2.7,6.72,7,7.07a7.23,7.23,0,0,0,7.85-6.7A56,56,0,0,0,325.77,151.77Z"/><path class="b7059226-fb6b-4793-b06d-e38a8d5083f8" d="M141.69,256.52c3.58,12.41,10.36,23.21,17.36,33.84,2.62,4,5.89,7.55,8.86,11.3-20.26-.6-39.95,12.67-43,39.14-.55,4.78-1.7,9.48-2.45,14.23-5.53,34.9-43.27,53.92-75.68,37.7-4.7-2.35-8.47-2.31-12.15,1.41a49.86,49.86,0,0,1-14.73-14.31c2.94-3,4.44-6.34,2.22-10.32C14.05,355,14.28,339.84,17.18,324,26.06,275.45,34.4,226.81,43,178.22c4.24-23.87,16.88-41.94,38-53.95,6.31-3.58,10.63-1,10.64,6.1,0,7.49-.11,15,.06,22.47a7.13,7.13,0,0,1-3.26,6.6C69.58,173.74,61.61,192.9,66.53,216c5,23.7,20.52,38.24,44.26,43.36C121.24,261.6,131.64,260.16,141.69,256.52Z"/><path class="b0eb501e-cf2b-45d8-adf0-7bb2edc208d8" d="M92.94,23.93c19.47-14,47.73-10.86,64.92,7.24C174.89,49.1,176.7,77.6,162,96c-11.61.16-23-.19-34.22-4.38-19.58-7.31-37.36-29.36-36.93-52,.09-5,1.26-9.85,1-14.83l-.06.07Z"/><path class="a1df1618-d7b7-47d4-9e62-03826aab5951" d="M91.8,24.78c.29,5-.88,9.84-1,14.83-.43,22.61,17.35,44.66,36.93,52C139,95.77,150.37,96.12,162,96c-11.76,16.38-28.08,23.18-47.62,20.72-20.09-2.53-34.12-14-41.31-33.05C64.87,62,73.38,35.94,91.8,24.78Z"/><path class="ae218f20-a9ed-4e5c-b4d7-7bf132f0a761" d="M91.7,177.47c0,4.89-.11,9.49,0,14.08.47,16.47,13.33,29.22,29.29,29.14s28.74-12.9,29.1-29.36c.09-4.48,0-9,0-13.52,8.33,4.48,13.52,22,10.64,35.51-3.78,17.67-19,30.61-37.46,31.87a40.39,40.39,0,0,1-40.69-26.82C77.38,203.83,81.42,184.89,91.7,177.47Z"/><path class="b8388212-cfe5-4363-a85b-3b86b1cf3f20" d="M134.93,153.93c0,12.8.32,25.6.08,38.4-.14,7.49-6.75,13.37-14.11,13.37s-13.89-5.81-14.05-13.39c-.27-12.79,0-25.59.06-38.38A103.51,103.51,0,0,0,134.93,153.93Z"/><path class="b2ec746a-e850-4412-927c-192d70d0eec0" d="M134.93,153.93a103.51,103.51,0,0,1-28,0c-.09-6.79-.12-13.58-.3-20.37-.06-2.31.8-2.81,3-2.4a59.88,59.88,0,0,0,22.72,0c2.18-.42,3,.12,2.92,2.41C135,140.35,135,147.14,134.93,153.93Z"/><path class="a1df1618-d7b7-47d4-9e62-03826aab5951" d="M92.94,23.93l-1.2.92Z"/><path class="b032e849-cd58-4e99-a5cf-a52a02de0615" d="M255.68,257.29c-7.65,0-15.31.13-23,0-13.51-.29-21.57-8.57-21.66-22,0-4.66-.09-9.32,0-14,.26-12,8.4-20.64,20.31-20.85q24.45-.45,48.92,0c11.9.2,20.12,8.84,20.41,20.77.11,5,.09,10,0,15-.21,12.27-8.24,20.49-20.57,21.12-.5,0-1,0-1.5,0Zm-.3-15.06c7.66,0,15.33,0,23,0,5.73-.05,7.28-1.68,7.35-7.53,0-4.16,0-8.33,0-12.49,0-4.49-2-6.86-6.6-6.86H232.66c-4.59,0-6.66,2.36-6.61,6.85,0,4.33-.06,8.66,0,13,.1,5.38,1.76,7,7.33,7C240.73,242.27,248.05,242.23,255.38,242.23Z"/><path class="b977866e-429f-413b-b051-539bb4c1e8d3" d="M390.65,239.31a31.32,31.32,0,1,1-31.27-31.15A31.59,31.59,0,0,1,390.65,239.31Zm-15,.15a16.35,16.35,0,1,0-16.19,16.37A16.74,16.74,0,0,0,375.68,239.46Z"/><path class="f4e331cf-d71b-426b-b5c8-9477d57e2f37" d="M433.83,170.39a31.18,31.18,0,1,1-31.46-31.3A31.38,31.38,0,0,1,433.83,170.39Zm-15-.11a16.2,16.2,0,1,0-16,16.45A16.41,16.41,0,0,0,418.84,170.28Z"/><path class="b977866e-429f-413b-b051-539bb4c1e8d3" d="M256.44,172.13c-9,0-16-3.07-21.68-9-3.58-3.69-3.75-7.88-.67-11.08s7.2-3,11.08.33c7.49,6.47,14,6.5,21.32.12,3.91-3.41,8-3.62,11.08-.57,3.27,3.27,3,7.57-.79,11.43C271,169.24,264,172.21,256.44,172.13Z"/><path class="b977866e-429f-413b-b051-539bb4c1e8d3" d="M200.92,151.83c0,2,.13,4,0,6-.32,4.28-3.4,7.25-7.43,7.16-4.32-.1-7-2.55-7.36-6.67a74.6,74.6,0,0,1,0-13.45c.36-4.18,3.17-6.54,7.36-6.75,3.91-.19,7.1,3,7.43,7.23C201.05,147.49,200.92,149.66,200.92,151.83Z"/><path class="b977866e-429f-413b-b051-539bb4c1e8d3" d="M325.77,151.77a56,56,0,0,1,0,6.48,7.23,7.23,0,0,1-7.85,6.7c-4.26-.35-6.71-2.87-7-7.07a115.27,115.27,0,0,1,0-12.47,7.43,7.43,0,0,1,7.35-7.33,7.56,7.56,0,0,1,7.51,7.2c.2,2.15,0,4.33,0,6.49Z"/><path class="ebe0456b-0eb1-4b30-945b-714317b51817" d="M255.38,242.23c-7.33,0-14.65,0-22,0-5.57-.05-7.23-1.66-7.33-7-.08-4.33,0-8.66,0-13-.05-4.49,2-6.85,6.61-6.85h46.47c4.58,0,6.65,2.37,6.6,6.86,0,4.16,0,8.33,0,12.49-.07,5.85-1.62,7.48-7.35,7.53C270.71,242.27,263,242.23,255.38,242.23Z"/><path class="ae218f20-a9ed-4e5c-b4d7-7bf132f0a761" d="M375.68,239.46a16.35,16.35,0,1,1-16.27-16.31A16.7,16.7,0,0,1,375.68,239.46Z"/><path class="ebe0456b-0eb1-4b30-945b-714317b51817" d="M418.84,170.28a16.2,16.2,0,1,1-16.2-16.2A16.45,16.45,0,0,1,418.84,170.28Z"/></svg>