<svg id="a0a5303a-1c74-46f4-8eea-2e849facf7ea" data-name="Capa 1" xmlns="http://www.w3.org/2000/svg" viewBox="0 0 475.92 478.8"><defs><style>.a75f1bac-aded-48fd-a8cd-d5193a055a64{fill:#262122;}.af9a27d9-980d-4249-bc1c-5dd4e64c609f{fill:#272022;}.ba2c291c-e70b-475b-95f9-fdb816bda4ac{fill:#fdb8a6;}.aaf22a01-08cc-4580-9eb4-4b924e4e2874{fill:#006bf8;}.e22076b3-0626-43e5-bc98-f90e22d03eec{fill:#faa48e;}.b51b974d-4651-46b5-a00c-266628c76d07{fill:#faa58e;}.bd4f65ae-e8a6-4e92-b411-c59faad49b26{fill:#eb0018;}.be95ca35-8cca-4e52-bbf0-5736f7dafd7a{fill:#cb0015;}.b03ecf1b-d003-4c6b-b2ff-a6beee84202d{fill:#251f20;}</style></defs><title>_</title><path class="a75f1bac-aded-48fd-a8cd-d5193a055a64" d="M250.91,478.8c-4-2.8-5.16-6.62-5.1-11.5.24-19.15.17-38.31,0-57.47,0-5.12.91-9.32,6.52-10.85,2.85-.78,1.45-3,1.46-4.53.1-22.82.07-45.64.07-68.46,0-29.16,12.7-51.08,37.77-65.84q32.88-19.35,65.9-38.47a11.86,11.86,0,0,0,5.78-6.91c11.18-32.68,22.61-65.27,33.88-97.92,5.46-15.82,20.08-25.14,36-22.77,15.34,2.28,26.42,15.8,26.53,32.62a5.42,5.42,0,0,0,2.45,4.92c11.94,9,16.09,20.92,12.31,35.24-11.3,42.73-22.87,85.38-34.26,128.08a43,43,0,0,1-13.68,21.56c-16.49,14.54-32.71,29.39-49.39,43.71-7.93,6.81-12.19,14.72-11.38,25.23.18,2.32,0,4.66,0,7,0,3.35-.85,6.74,4.23,7.89,2.76.63,3.77,3.95,3.76,7,0,21-.05,42,0,63,0,4-2.54,6.16-5,8.5Zm83.74-184.92c.64-3.39,2.86-5.4,5.75-7,14-8,27.88-16,41.81-24.07,4.72-2.72,8.78-6,9.5-11.91,1.25-6.7-.68-12.25-6.3-16.18-5.77-4-11.86-3.94-17.85-.44-23.7,13.84-47.52,27.49-71,41.71-16.16,9.79-25.58,24.76-26.32,43.5-1,25.45-.3,51-.37,76.45,0,2,.37,3,2.7,3q37.25-.11,74.48,0c2.15,0,2.94-.62,2.86-2.83-.14-4.32,0-8.66,0-13-.15-13.48,5-24.44,15.18-33.33,16.92-14.81,33.6-29.89,50.48-44.75a31,31,0,0,0,9.75-15.84c11.12-41.92,22.41-83.79,33.6-125.69,2.69-10.05-1.63-18.6-10.47-21.14-8.25-2.38-17.14,2.87-20.13,12-7.91,24.33-15.7,48.7-23.67,73A8.28,8.28,0,0,0,405,234c7.11,15.59,2,32.47-12.63,41.18s-29.6,17.26-44.48,25.75C340.82,304.93,335.71,302.11,334.65,293.88ZM309.38,462.81c14.82,0,29.63-.1,44.45.07,3.33,0,4.16-1,4.12-4.2-.17-13.31-.15-26.63,0-39.94,0-3-.66-4-3.84-4q-44.19.18-88.39,0c-3.14,0-3.9.94-3.87,3.95.15,13.32.21,26.63,0,39.94-.07,3.78,1.39,4.26,4.62,4.22C280.75,462.72,295.07,462.81,309.38,462.81ZM428.52,109.88c-7.26,0-13.29,4.28-15.84,11.45-3.17,8.91-6.21,17.87-9.31,26.8-7.36,21.16-14.63,42.34-22.18,63.42-1.31,3.65-.75,5.14,3.06,5.37a4.51,4.51,0,0,1,1.91.53c3.53,2,4.79.7,6-3,6.75-21.53,13.86-42.94,20.77-64.42,4.46-13.86,13.74-22,28.2-24,2.56-.34,3-1.23,2.62-3.45A15.9,15.9,0,0,0,428.52,109.88Z"/><path class="a75f1bac-aded-48fd-a8cd-d5193a055a64" d="M106.94,478.8c-4-2.8-5.17-6.62-5.1-11.5.23-19.15.17-38.31,0-57.46,0-5.13.89-9.39,6.53-10.82,2-.51,1.49-1.88,1.5-3.07,0-5.33.18-10.67-.07-16-.34-7.4-4-13.17-9.45-18-16.86-14.88-33.53-30-50.47-44.76a47.65,47.65,0,0,1-15.09-24.63Q18.45,230.38,1.58,168.34c-4.08-15.15-.35-27.59,12.36-37,1.77-1.32,2-2.67,2-4.6.16-16.83,11.2-30.37,26.51-32.65,16.06-2.38,30.91,7.29,36.33,23.18,11.27,33,22.78,65.92,34.12,98.9a8.18,8.18,0,0,0,4,4.65c22.84,13.32,45.73,26.56,68.41,40.14,24.1,14.43,36.26,35.94,36.48,64,.18,23,.05,46,0,69,0,2.67-.27,4.92,3.37,5.89,3.35.9,4.64,4,4.64,7.5,0,21,0,42,0,63,0,4-2.53,6.16-5,8.5ZM84.1,250.86c.69,5.47,4.19,8.77,8.68,11.35q20.89,12,41.79,24.1c3.1,1.77,6,3.69,6.59,7.56-1,8.22-6.2,11.05-13.23,7-14.88-8.5-29.77-17-44.48-25.75S63.67,249.5,70.8,234a8,8,0,0,0,.41-6.61C68.62,220,66.35,212.52,64,205.09q-8.18-25.38-16.37-50.75c-2.58-7.92-9-12.6-16.74-12.47-6.68.12-12.49,4.87-14.41,11.75-1,3.68-.36,7.24.6,10.81q16.71,62.08,33.35,124.2A32.44,32.44,0,0,0,60.63,305.3c16.91,14.83,33.61,29.89,50.49,44.75,8.23,7.25,13.38,16.15,14.53,27a117.06,117.06,0,0,1,.19,17.47c-.16,3.57,1,4.39,4.43,4.37,23.66-.16,47.32-.21,71,0,4.2,0,4.76-1.43,4.74-5.06-.15-23.16.07-46.31-.12-69.47-.18-21.49-9.46-38.22-27.89-49.31C155,261.31,131.79,248,108.69,234.44c-6-3.5-12-3.93-17.9-.07S82.84,243.94,84.1,250.86Zm81.84,212c14.48,0,29-.09,43.44.06,3.23,0,4.69-.45,4.62-4.22-.24-13.31-.18-26.63,0-39.94,0-3-.74-4-3.88-3.95q-44.19.18-88.38,0c-3.18,0-3.88,1-3.85,4q.22,20,0,39.94c0,3.21.79,4.24,4.12,4.2C136.64,462.71,151.29,462.81,165.94,462.81ZM47.09,109.88a15.73,15.73,0,0,0-14.92,12.39c-.49,2.36-.17,3.41,2.72,3.82,14,2,23.38,9.82,27.81,23.19,6.84,20.62,13.43,41.33,20.1,62,2.41,7.45,2.36,7.39,10,5.43,2.33-.6,3.22-1.17,2.26-3.92-10.7-30.52-21.21-61.11-31.87-91.64A16.72,16.72,0,0,0,47.09,109.88Z"/><path class="af9a27d9-980d-4249-bc1c-5dd4e64c609f" d="M298.9,0c4.08,1.89,8.62,1.36,12.87,2.45,30.2,7.7,50.74,26.1,59.35,56.05,8.54,29.75,1.46,56.55-20.23,78.63-34.91,35.51-70.35,70.51-105.58,105.7-5.6,5.59-9.2,5.57-14.83-.05-34.87-34.85-69.85-69.6-104.56-104.61-22.86-23-30.35-50.76-20.63-81.63S137.14,7.59,169,1.5c1.62-.31,3.76.52,4.91-1.5h11c.35.29.69.8,1.05.82,19.16,1.05,35.71,8.27,49.72,21.26,2.15,2,3.16,1.11,4.78-.39a80.44,80.44,0,0,1,37-19.33c3.78-.9,7.83-.4,11.38-2.36ZM327,25.87C305,12.94,283.05,13.68,261.19,26c-6.59,3.72-11.81,9.13-17.15,14.4-3.95,3.91-8.25,3.81-12.31,0-2.18-2-4.18-4.3-6.4-6.3-18.63-16.78-40.25-22-63.92-14.13-45.83,15.24-59,71.63-25,106,26.57,26.87,53.4,53.48,80.14,80.18,6.35,6.34,12.81,12.59,19.21,18.88,2.2,3.68,3.75.92,5.28-.61,33.09-33.06,66.3-66,99.17-99.3,16.19-16.38,21.38-36.49,16.51-58.81C352.85,48.62,343.08,34.78,327,25.87Z"/><path class="ba2c291c-e70b-475b-95f9-fdb816bda4ac" d="M334.65,293.88c1.06,8.23,6.17,11.05,13.24,7,14.88-8.49,29.76-17,44.48-25.75S412.11,249.57,405,234a8.28,8.28,0,0,1-.38-6.62c8-24.31,15.76-48.68,23.67-73,3-9.18,11.88-14.43,20.13-12,8.84,2.54,13.16,11.09,10.47,21.14-11.19,41.9-22.48,83.77-33.6,125.69A31,31,0,0,1,415.54,305c-16.88,14.86-33.56,29.94-50.48,44.75-10.16,8.89-15.33,19.85-15.18,33.33,0,4.33-.1,8.67,0,13,.08,2.21-.71,2.84-2.86,2.83q-37.24-.09-74.48,0c-2.33,0-2.71-1-2.7-3,.07-25.49-.64-51,.37-76.45.74-18.74,10.16-33.71,26.32-43.5,23.47-14.22,47.29-27.87,71-41.71,6-3.5,12.08-3.6,17.85.44,5.62,3.93,7.55,9.48,6.3,16.18q-28.32,15.48-56.64,31C330.57,284.34,330.48,289.68,334.65,293.88Z"/><path class="aaf22a01-08cc-4580-9eb4-4b924e4e2874" d="M309.38,462.81c-14.31,0-28.63-.09-42.94.06-3.23,0-4.69-.44-4.62-4.22.23-13.31.17-26.62,0-39.94,0-3,.73-4,3.87-3.95q44.21.18,88.39,0c3.18,0,3.88,1,3.84,4-.14,13.31-.16,26.63,0,39.94,0,3.21-.79,4.24-4.12,4.2C339,462.71,324.2,462.81,309.38,462.81Z"/><path class="e22076b3-0626-43e5-bc98-f90e22d03eec" d="M428.52,109.88a15.9,15.9,0,0,1,15.19,12.72c.38,2.22-.06,3.11-2.62,3.45-14.46,2-23.74,10.12-28.2,24-6.91,21.48-14,42.89-20.77,64.42-1.17,3.7-2.43,5-6,3a4.51,4.51,0,0,0-1.91-.53c-3.81-.23-4.37-1.72-3.06-5.37,7.55-21.08,14.82-42.26,22.18-63.42,3.1-8.93,6.14-17.89,9.31-26.8C415.23,114.16,421.26,109.88,428.52,109.88Z"/><path class="b51b974d-4651-46b5-a00c-266628c76d07" d="M334.65,293.88c-4.17-4.2-4.08-9.54.42-12q28.28-15.58,56.64-31c-.72,5.92-4.78,9.19-9.5,11.91-13.93,8-27.85,16.1-41.81,24.07C337.51,288.48,335.29,290.49,334.65,293.88Z"/><path class="ba2c291c-e70b-475b-95f9-fdb816bda4ac" d="M84.1,250.86c-1.26-6.92.81-12.61,6.69-16.49s11.92-3.43,17.9.07C131.79,248,155,261.31,178,275.11c18.43,11.09,27.71,27.82,27.89,49.31.19,23.16,0,46.31.12,69.47,0,3.63-.54,5.1-4.74,5.06-23.66-.24-47.32-.19-71,0-3.47,0-4.59-.8-4.43-4.37a117.06,117.06,0,0,0-.19-17.47c-1.15-10.88-6.3-19.78-14.53-27-16.88-14.86-33.58-29.92-50.49-44.75a32.44,32.44,0,0,1-10.25-16.67Q33.85,226.5,17,164.43c-1-3.57-1.63-7.13-.6-10.81,1.92-6.88,7.73-11.63,14.41-11.75,7.76-.13,14.16,4.55,16.74,12.47Q55.83,179.69,64,205.09c2.4,7.43,4.67,14.91,7.26,22.28A8,8,0,0,1,70.8,234c-7.13,15.52-2,32.39,12.65,41.18s29.6,17.25,44.48,25.75c7,4,12.19,1.18,13.23-7,4.17-4.18,4.09-9.52-.41-12Q112.48,266.28,84.1,250.86Z"/><path class="aaf22a01-08cc-4580-9eb4-4b924e4e2874" d="M165.94,462.81c-14.65,0-29.3-.1-43.95.07-3.33,0-4.16-1-4.12-4.2q.24-20,0-39.94c0-3,.67-4,3.85-4q44.19.18,88.38,0c3.14,0,3.91.93,3.88,3.95-.16,13.31-.22,26.63,0,39.94.07,3.77-1.39,4.26-4.62,4.22C194.9,462.72,180.42,462.81,165.94,462.81Z"/><path class="e22076b3-0626-43e5-bc98-f90e22d03eec" d="M47.09,109.88a16.72,16.72,0,0,1,16,11.28C73.8,151.69,84.31,182.28,95,212.8c1,2.75.07,3.32-2.26,3.92-7.59,2-7.54,2-10-5.43-6.67-20.68-13.26-41.39-20.1-62-4.43-13.37-13.85-21.22-27.81-23.19-2.89-.41-3.21-1.46-2.72-3.82A15.73,15.73,0,0,1,47.09,109.88Z"/><path class="b51b974d-4651-46b5-a00c-266628c76d07" d="M84.1,250.86q28.34,15.48,56.65,31c4.5,2.49,4.58,7.83.41,12-.64-3.87-3.49-5.79-6.59-7.56q-20.92-12-41.79-24.1C88.29,259.63,84.79,256.33,84.1,250.86Z"/><path class="bd4f65ae-e8a6-4e92-b411-c59faad49b26" d="M235.74,225c-6.4-6.29-12.86-12.54-19.21-18.88C189.79,179.45,163,152.84,136.39,126c-34-34.34-20.81-90.73,25-106,23.67-7.87,45.29-2.65,63.92,14.13,2.22,2,4.22,4.25,6.4,6.3,4.06,3.82,8.36,3.92,12.31,0,5.34-5.27,10.56-10.68,17.15-14.4C283.05,13.68,305,12.94,327,25.87c-.17,2,1.32,2.94,2.46,4.12,15.4,15.85,22.47,34.64,20.56,56.84a69.71,69.71,0,0,1-11,32.61,106.08,106.08,0,0,1-14,16.79q-42.39,42.77-85.12,85.2C238.57,222.71,237.12,223.83,235.74,225Zm2.07-170c-5,0-10-.08-15,0-5.89.11-8.81,3.07-8.9,9s-.23,12,.06,18c.18,3.76-.7,5.33-4.85,5.06-6-.38-12-.15-18-.08-6.25.08-9.18,3-9.23,9.2q-.12,14.73,0,29.46c.05,6.45,3,9.24,9.64,9.29,6.33.06,12.66.13,19,0,2.65-.07,3.46.84,3.4,3.43-.15,6.32-.09,12.65,0,19,0,6.61,2.87,9.56,9.33,9.6q14.73.1,29.47,0c6.18,0,9.07-3,9.16-9.27.08-6,.22-12-.06-18-.17-3.6.67-5,4.6-4.81,6,.36,12,.14,18,.08,6.53-.06,9.44-2.94,9.48-9.47q.11-14.47,0-29c0-6.58-2.9-9.46-9.41-9.52-6.33-.07-12.66-.15-19,0-2.88.09-3.72-.92-3.64-3.71.18-5.82.07-11.65,0-17.48,0-8.26-2.52-10.83-10.6-10.85Z"/><path class="be95ca35-8cca-4e52-bbf0-5736f7dafd7a" d="M235.74,225c1.38-1.2,2.83-2.32,4.11-3.6q42.61-42.56,85.12-85.2a106.08,106.08,0,0,0,14-16.79,69.71,69.71,0,0,0,11-32.61c1.91-22.2-5.16-41-20.56-56.84-1.14-1.18-2.63-2.16-2.46-4.12,16.13,8.91,25.9,22.75,29.75,40.44,4.87,22.32-.32,42.43-16.51,58.81-32.87,33.29-66.08,66.24-99.17,99.3C239.49,226,237.94,228.71,235.74,225Z"/><path class="b03ecf1b-d003-4c6b-b2ff-a6beee84202d" d="M237.81,55H251.3c8.08,0,10.58,2.59,10.6,10.85,0,5.83.13,11.66,0,17.48-.08,2.79.76,3.8,3.64,3.71,6.32-.19,12.65-.11,19,0,6.51.06,9.37,2.94,9.41,9.52q.09,14.48,0,29c0,6.53-2.95,9.41-9.48,9.47-6,.06-12,.28-18-.08-3.93-.23-4.77,1.21-4.6,4.81.28,6,.14,12,.06,18-.09,6.25-3,9.22-9.16,9.27q-14.74.12-29.47,0c-6.46,0-9.28-3-9.33-9.6-.06-6.33-.12-12.66,0-19,.06-2.59-.75-3.5-3.4-3.43-6.32.16-12.65.09-19,0-6.64-.05-9.59-2.84-9.64-9.29q-.12-14.73,0-29.46c.05-6.23,3-9.12,9.23-9.2,6-.07,12-.3,18,.08,4.15.27,5-1.3,4.85-5.06-.29-6-.15-12-.06-18s3-8.91,8.9-9C227.82,54.9,232.82,55,237.81,55Zm-26.43,64c3.33,0,6.66-.1,10,0,5.31.18,8.31,3.12,8.51,8.39.14,3.82,0,7.65,0,11.48,0,12.41,0,12.32,12.43,12.16,2.75,0,3.72-.66,3.63-3.56-.21-6.64-.16-13.31,0-20,.11-5.33,3.1-8.32,8.37-8.51,3.83-.13,7.66,0,11.49,0,12.42,0,12.33,0,12.17-12.42,0-2.73-.63-3.74-3.54-3.64-6.49.22-13,.14-19.47,0-5.92-.09-8.89-3-9-8.89-.08-3.65,0-7.32,0-11,0-12.42,0-12.33-12.42-12.17-2.74,0-3.75.64-3.65,3.55.22,6.31.12,12.64.06,19-.06,6.55-2.93,9.47-9.4,9.53s-13,.1-19.47,0c-2.29,0-3.07.5-3.19,3-.59,13-.68,13,12,13Z"/></svg>