<svg id="a100491c-8279-4fac-a4e6-4a2e129bafc0" data-name="Capa 1" xmlns="http://www.w3.org/2000/svg" viewBox="0 0 205.46 205.95"><defs><style>.b1694a0d-b3c2-4f2c-ab43-d19bbbc38aa9{fill:#fed748;}.be676f9f-db18-4a5c-8b56-7e8de26a23a7{fill:#6c2500;}.e15cdd17-5b8e-4315-8d7a-0991434c1008{fill:#23314c;}.b2baee9f-50f5-4def-a079-25c4e29bf270{fill:#fa0135;}</style></defs><title>_</title><path class="b1694a0d-b3c2-4f2c-ab43-d19bbbc38aa9" d="M187.88,46.51c-.14.64-.25,1.28-.42,1.9-.36,1.33.63,3.16-1,4-1.09.52-1.67-.66-2-1.6-.49-1.63-1.65-3.47,1.2-4.21.34-.09.52-.77.77-1.18C187.28,45.33,187.66,45.82,187.88,46.51Z"/><path class="b1694a0d-b3c2-4f2c-ab43-d19bbbc38aa9" d="M200,70.46c-3.11-.57-2.31-2.72-2-4.66a3.49,3.49,0,0,0,.34.15c.42-1.94-.77-3.41-1.42-5.06-2.12-5.36-5.81-9.71-9-14.38-.14.64-.25,1.28-.42,1.9-.36,1.33.63,3.16-1,4-1.09.52-1.67-.66-2-1.6-.49-1.63-1.65-3.47,1.2-4.21.34-.09.52-.77.77-1.18.88-2.59-1.27-4.09-2.47-5.58-15.37-19-34.74-31.69-58.95-36C121.37,3.09,118.58.84,114.87.5A136.88,136.88,0,0,0,96.43.16C79.72.88,64.27,6,49.93,14.51A103.45,103.45,0,0,0,24,36.92C17.09,45.05,11.08,53.58,8.14,64c.71.36,1.94.4,1.85,1.37C9,75.75,11.77,86,11.33,96.41a8.92,8.92,0,0,0,.73,4.36,151.58,151.58,0,0,1,9.65,24.35c.19.68.87,1.21,1.51,2a4,4,0,0,0,1-2.35,4.27,4.27,0,0,1-1,2.74c-.64-.84-1.33-1.37-1.52-2a151.55,151.55,0,0,0-9.77-24.3,8.79,8.79,0,0,1-.75-4.36c.39-10.4-2.41-20.64-1.49-31.08.08-1-1.15-1-1.85-1.36-1.35,3.06-3.29,5.89-3.55,9.36l.06.13C2.06,80.15.08,86.46.53,93.27c1.88.46,3.14.34,3.66-.5-.3,1.26-1.66,1.53-3.85,1l-.09,2,.07.06a16.69,16.69,0,0,0,0,6.34c.31-1,1-2,1.37-3-.31,1.18-1.16,2.35-1.51,3.52-.59,20.31,5,38.89,15.79,56,11.92,18.9,28.65,32.2,49.33,40.18,46,17.79,97.64,1.82,124.76-41.65C207,130,209.45,100.83,200,70.46ZM5.42,84.54A11.68,11.68,0,0,1,4,86.92a2.75,2.75,0,0,0-.25.38,2.84,2.84,0,0,1,.47-.86A11.73,11.73,0,0,0,5.42,84.54Zm187-15.8a8.75,8.75,0,0,1-1.89-2,9.36,9.36,0,0,0,1.58,1.56,6.61,6.61,0,0,1,1.56,1.7A7.45,7.45,0,0,0,192.44,68.74ZM192,59.05c1,1.16,1.74,2.52,2.62,3.76C193.66,61.61,192.9,60.25,192,59.05Zm-62,5.33c6-5.66,13.18-9.79,19.56-15a19.91,19.91,0,0,1,11.92-4.71,5,5,0,0,1,5,4.11c.57,2.43.22,4.39-2.24,6-5.4,3.43-10.43,7.39-16.13,10.45-2.41,1.29-4.45,3.85-6.67,5.82-1.43,1.28-1.16,2.71,1.25,2.67,6.14-.11,12.14,1.25,18.2,1.72,6.36.49,11.42,4.07,17.14,6,3.15,1.06,4,6.2,1.93,8.91s-5.81,3.93-8.55,1.83c-4.94-3.77-10.57-4.7-16.29-5.38-9.77-1.15-19.57-1.81-29.4-.19-3.12.51-6.4.42-7.16-4.16C118.19,73.68,124.81,69.34,130,64.38ZM38.5,76.66c10-1.63,20-4,30.85-3C66.46,68,60.7,66.87,57,63.3c-3.24-3.1-6.3-6.43-10.93-8-3.66-1.23-4.71-4.69-2.58-8.07s6-3.44,9-1.89a44.93,44.93,0,0,1,11.28,7.93c2.26,2.27,4.86,3.57,7.38,5.24,7.06,4.66,12.91,10.69,18.2,17.24,2.18,2.69,2.1,5.54.31,8.66s-4.5,2.37-7,2.08c-12-1.37-23.93-1.63-35.78,1a97.65,97.65,0,0,0-9.72,3.19,4.53,4.53,0,0,1-5.5,0C27,84.24,30.12,78,38.5,76.66ZM24.31,122.88a4,4,0,0,1,.81-2.28c2.5,2.69,1.95,5.84,2.08,8.83,0,.26,0,.53,0,.8v-.43c-.14-3,.39-6.14-2.13-8.83A3.8,3.8,0,0,0,24.31,122.88Zm4.81,11.32c-1.84-.1-2-1.5-1.95-2.91,0,1.28.26,2.45,1.94,2.55,2.34.13,3-2,3.1-4.14v.23C32.18,132.1,31.5,134.32,29.12,134.2Zm108.11,43.43c-12.58,7.44-26.63,9.23-41.15,8.14-12.25-.91-23-6-32.91-12.53-4.73-3.14-9.72-7.21-12.22-13-5.82-5.89-8.25-13.9-12.78-20.6-2.47-.18-1.93-2-1.91-3.52l.16-.21-.13-.22c-1.42-.05-1.95-.83-2.15-2.2-.36-2.53-.91-5-1.37-7.57a8.29,8.29,0,0,0-.54,2.85,8.79,8.79,0,0,1,.57-3.19c.45,2.52,1,5,1.33,7.58.19,1.36.73,2.15,2.14,2.21a29.86,29.86,0,0,0-1.53-9.78C32.22,116.87,36,110.91,44.89,110c12.23-1.25,24.46-2.2,36.77-2.76,11.43-.52,22.89-1.48,34.24-.48s22.58.64,33.78,2.76c4.45.85,9.22.34,13.87.87,8.73,1,10.2,5.54,9.83,13.52-.51,10.84-5.84,20.07-10.31,29.57h0l-6.77,8.36C151.43,168.9,144.27,173.46,137.23,177.63Zm42.89-45.21c0-.59-.12-1.22-.11-1.8C180,131.22,180.15,131.85,180.12,132.42Z"/><path class="b1694a0d-b3c2-4f2c-ab43-d19bbbc38aa9" d="M200.31,70.93c-3.25-.61-2.21-2.93-2-4.94A5.42,5.42,0,0,1,200.31,70.93Z"/><path class="be676f9f-db18-4a5c-8b56-7e8de26a23a7" d="M50.82,160C45,154.06,42.63,146,38.13,139.32c-.56-1.22-.61-2.7-1.89-3.54l.16-.2-.13-.22a29.86,29.86,0,0,0-1.53-9.78C32.22,116.87,36,110.91,44.89,110c12.23-1.25,24.46-2.2,36.77-2.76,11.43-.52,22.89-1.48,34.24-.48s22.58.64,33.78,2.76c4.45.85,9.22.34,13.87.87,8.73,1,10.2,5.54,9.83,13.52-.51,10.95-5.95,20.26-10.45,29.86q-3.39,4.17-6.8,8.33c-5.71-2.81-11-6.23-17.07-8.58-11-4.26-21.37-4.54-32,.35-2.45,1.13-4.83,2.49-7.47.76-3.88-2.55-8.34-3.56-12.59-5.17C76.88,145.58,57.71,152.15,50.82,160Z"/><path class="e15cdd17-5b8e-4315-8d7a-0991434c1008" d="M118.58,82.41c-.39-8.73,6.23-13.07,11.43-18,6-5.66,13.18-9.79,19.56-15a19.9,19.9,0,0,1,11.91-4.71,5,5,0,0,1,5,4.11c.57,2.43.22,4.39-2.24,6-5.4,3.43-10.43,7.39-16.13,10.45-2.41,1.29-4.45,3.85-6.67,5.82-1.43,1.28-1.16,2.71,1.25,2.67,6.14-.11,12.14,1.25,18.2,1.72,6.36.49,11.42,4.07,17.14,6,3.15,1.06,4,6.2,1.93,8.91s-5.81,3.93-8.55,1.83c-4.94-3.77-10.57-4.7-16.29-5.38-9.77-1.15-19.57-1.81-29.4-.19C122.62,87.08,119.34,87,118.58,82.41Z"/><path class="e15cdd17-5b8e-4315-8d7a-0991434c1008" d="M31.68,90.62C27,84.24,30.12,78,38.5,76.66c10-1.63,20-4,30.85-3C66.46,68,60.7,66.87,57,63.3c-3.24-3.1-6.3-6.43-10.93-8-3.66-1.23-4.71-4.69-2.58-8.07s6-3.44,9-1.89a44.93,44.93,0,0,1,11.28,7.93c2.26,2.27,4.86,3.57,7.38,5.24,7.06,4.66,12.91,10.69,18.2,17.24,2.18,2.69,2.1,5.54.31,8.66s-4.5,2.37-7,2.08c-12-1.37-23.93-1.63-35.78,1a100.24,100.24,0,0,0-9.72,3.18Z"/><path class="be676f9f-db18-4a5c-8b56-7e8de26a23a7" d="M31.68,90.62l5.5,0A4.52,4.52,0,0,1,31.68,90.62Z"/><path class="b2baee9f-50f5-4def-a079-25c4e29bf270" d="M50.82,160c6.89-7.83,26.06-14.4,36.22-10.53,4.25,1.61,8.71,2.62,12.59,5.17,2.64,1.73,5,.37,7.47-.76,10.59-4.89,21-4.61,32-.35,6.07,2.35,11.36,5.77,17.07,8.58-4.88,7-12.06,11.57-19.13,15.7-12.61,7.39-26.67,9.11-41.18,8-12.25-1-23-6.11-32.85-12.69C58.25,169.89,53.28,165.79,50.82,160Z"/><path class="b1694a0d-b3c2-4f2c-ab43-d19bbbc38aa9" d="M36.24,135.78c1.28.84,1.33,2.32,1.89,3.54C35.66,139.13,36.21,137.31,36.24,135.78Z"/></svg>