<svg id="e7253099-7db2-45f5-9265-6b0e3fd30d10" data-name="Capa 1" xmlns="http://www.w3.org/2000/svg" viewBox="0 0 498.48 491.17"><defs><style>.ab493ff7-d9d9-4d72-80d6-7e338ef6d14c{fill:#80ccd8;}.b32282a9-2ac8-427c-9fa9-314f8e2dae74{fill:#6b6381;}.a9359b72-2edb-47d9-b992-7b169a5ce756{fill:#6b607e;}.e9f9c330-48e4-421b-9fa8-d45af18f9998{fill:#6c6280;}.f16e922a-4331-499a-8620-dc215e7eec53{fill:#fece7a;}.e0a23aa6-543a-4135-b50d-fdebeb5c049f{fill:#6a6280;}.ae78c68d-922c-4a01-bfe5-a4e9d6837cef{fill:#7fc9d6;}.b4a36dac-60bc-4b0e-bd18-0145273319e0{fill:#2b9dbb;}.a3fb155f-2a30-43b9-9545-de3f57c77bbc{fill:#635476;}.f6efffa8-0c4e-459a-9491-0e91f42b0d9d{fill:#f9cc7a;}.ba521928-1e13-45e9-a3f8-82ce64d1a048{fill:#fbcd79;}.a710c304-07a0-41fb-b256-3c954a2404f0{fill:#2c9bba;}.ee661af5-0ac2-4b7e-9286-c3ead95e96e6{fill:#69617f;}.ebc5fa69-ddba-4fc9-98e2-7075959d66a5{fill:#696482;}.fce6706f-724d-49dc-ad09-e0aac3e601cc{fill:#2a9cbb;}</style></defs><title>_</title><path class="ab493ff7-d9d9-4d72-80d6-7e338ef6d14c" d="M307.91,429.21c.11,17.73,0,35.46.44,53.18.18,6.84-2.38,8.71-8.92,8.67-38.22-.24-76.46-.43-114.68.1-9.8.14-9.62-4.87-9.45-11.72a366.22,366.22,0,0,0-21.47-133.08,408.53,408.53,0,0,0-37.47-77.44c-12.58-20.43-17.85-43.33-24-66,2.35-3.41,5.9-3.42,9.5-3.39q26,.21,51.92.36c.87,2.57,1.33,5.38,2.68,7.67,27.1,46.16,66.59,68.93,120.92,65.74,65.1-3.82,124-65.27,113.1-141.37S307,8.87,232.68,29.56c-37,10.3-64.92,32.73-79.12,69.8l-42.32-.14C143.8,37.13,194.86,3.81,265.07.22,350-4.11,420.39,54.78,441.67,125.46a185.3,185.3,0,0,1,7.11,37c2.05,22.73,13.31,42.68,20.71,63.78,8.72,24.89,18.22,49.51,27.82,74.08,2.65,6.77.8,8.05-5.71,7.94-17.76-.29-35.58.69-53.28-.37-11.92-.71-15.35,3.57-14,14.68.76,6.21,0,12.61-.08,18.92-9.83,0-19.67.13-29.49-.13-12.95-.36-23.66-5.53-26.75-18.7-2.18-9.29-8.13-7.53-13.29-6.59-7.15,1.31-4.14,7.57-3.17,11.5,4.15,16.8,21.95,30,40.62,30.4,10.61.25,21.24.08,31.86.1.15,16.15,0,32.31.59,48.44.29,7.77-3.26,9.06-9.92,9-35.46-.3-70.93-.27-106.39-.35H270.66C283.1,421,293.79,430.25,307.91,429.21Z"/><path class="b32282a9-2ac8-427c-9fa9-314f8e2dae74" d="M50,141.05l47-1,45.33.2c10.54.07,21.1-.19,31.62.31,6.52.31,9.4-2.29,9.56-8.53a42.78,42.78,0,0,0,15.67.28q.19,17,.4,34l-16.4.37c.22-6.45-1.65-10.25-9.36-9.71-10.5.74-21.08.51-31.62.69l-49.94.1-39.94-.87-2.06-2.29Q50.09,147.83,50,141.05Z"/><path class="a9359b72-2edb-47d9-b992-7b169a5ce756" d="M153.73,199.91q-25.95-.16-51.91-.36c-3.6,0-7.15,0-9.5,3.39-7.33,7.15-15.13,13.9-21.84,21.6-5.76,6.62-12.13,9.61-20.68,8q-.06-8.15-.11-16.28c5.93.61,8.66-4.09,12.46-7.23,10.3-8.5,16.85-21.22,30-26.51l52.91.18,22.27.73-.84,15.87Z"/><path class="e9f9c330-48e4-421b-9fa8-d45af18f9998" d="M111.24,99.22l42.33.14,13.86,1c-2.18,5.44-.24,10.73.59,16.06l-22.74.26-43,0c-10.77,1.44-17.75-4.31-25.17-11.34C68.62,97.32,63,85.39,50,82.74L49.8,66.6c8.94-1.83,15.59,1.56,21.3,8.42,4.47,5.35,10.35,9.56,14.61,15C92.48,98.76,100.89,101.31,111.24,99.22Z"/><path class="f16e922a-4331-499a-8620-dc215e7eec53" d="M50,141.05q.1,6.78.23,13.56c-.13.83-.25,1.66-.38,2.5-5.58,9.51-12,17.35-24.76,16.75-12-.57-21-7-24.19-18.59-2.8-10.2,2.14-21.65,11.74-27.17,11-6.33,21.45-5.12,30.06,3.76C45.39,134.66,47.56,138,50,141.05Z"/><path class="f16e922a-4331-499a-8620-dc215e7eec53" d="M49.8,66.6,50,82.74c-12,16.27-21.36,20.2-34.17,14.61C5.24,92.74-.17,84.5.34,73.26S7.1,53.45,18,50.78c10.73-2.62,21.29-1,27.82,10C47,62.77,48.47,64.65,49.8,66.6Z"/><path class="f16e922a-4331-499a-8620-dc215e7eec53" d="M49.69,216.25q.06,8.15.11,16.28C37,250.09,23.38,254.29,10.65,244.42,2.59,238.18-1.63,230,.58,219.73c2.16-9.94,8.68-16.87,18.45-19.49,10.42-2.79,19.26,1.06,26.12,9.24A71.34,71.34,0,0,1,49.69,216.25Z"/><path class="e0a23aa6-543a-4135-b50d-fdebeb5c049f" d="M424,358.06c-10.62,0-21.25.15-31.86-.1-18.67-.44-36.47-13.6-40.62-30.4-1-3.93-4-10.19,3.17-11.5,5.16-.94,11.11-2.7,13.29,6.59,3.09,13.17,13.8,18.34,26.75,18.7,9.82.26,19.66.1,29.49.13Q424.14,349.78,424,358.06Z"/><path class="ae78c68d-922c-4a01-bfe5-a4e9d6837cef" d="M145,182.69l-52.91-.18q0-12.37.09-24.74l49.94-.1Q143.59,170.17,145,182.69Z"/><path class="ab493ff7-d9d9-4d72-80d6-7e338ef6d14c" d="M102.29,116.71l43,0q-1.5,11.8-3,23.62L97,140.1C96.57,131.81,101.73,124.78,102.29,116.71Z"/><path class="b4a36dac-60bc-4b0e-bd18-0145273319e0" d="M307.91,429.21c-14.12,1-24.81-8.21-37.25-14.06H308.3Z"/><path class="a3fb155f-2a30-43b9-9545-de3f57c77bbc" d="M49.83,157.11c.13-.84.25-1.67.38-2.5l2.06,2.29Z"/><path class="b4a36dac-60bc-4b0e-bd18-0145273319e0" d="M167.43,100.36l-13.86-1c14.19-37.07,42.15-59.5,79.11-69.8C307,8.87,379.55,55.77,390.44,132s-48,137.55-113.1,141.37c-54.33,3.19-93.82-19.58-120.92-65.74-1.35-2.29-1.81-5.1-2.68-7.67l12.72-.63-.35.08,2,2.42c14.79,17.17,21.78,18.67,40.21,8.6l33.2,17.6c.71,17,7.57,27.81,21.83,30.13,10,1.62,18.55-3.56,24.64-12.11,3.95-5.54,3.44-11.83,3.82-18l33.31-17.46c6.33.31,8.45,9.2,17.06,6.71,12.32-3.57,21.92-9.14,24.36-22.17,2.52-13.52-5.65-21.9-16.32-28.35.39-11.6,1-23.2-.42-34.78,19.42-11.69,23-29.78,8.44-42.85-8.82-7.92-19.47-8.08-33.42-.49L291.88,71.29c-.42-6.58.16-13.38-4.29-19.06C280.77,43.52,272.09,39,261,41.59c-12.61,3-18.78,12.81-19.42,29.64l-33,17.34C189.83,78.25,177.5,81.78,167.43,100.36Z"/><path class="f6efffa8-0c4e-459a-9491-0e91f42b0d9d" d="M208.33,210.38c-18.44,10.07-25.43,8.57-40.22-8.6-.19-1.2-.38-2.41-2-2.42l.35-.08.84-15.86c3.32-7.43,9-12.66,15.83-16.73l16.4-.37,8.9,5.41c8.52,8.61,9,19,6.61,30Z"/><path class="ba521928-1e13-45e9-a3f8-82ce64d1a048" d="M167.43,100.36c10.07-18.58,22.4-22.11,41.12-11.79q3.47,4.61,6.92,9.2c1.88,11.35,1.28,22-8.38,30.16l-8,4.43a43,43,0,0,1-15.67-.27c-6.62-3.76-12.42-8.35-15.44-15.67C167.19,111.09,165.25,105.8,167.43,100.36Z"/><path class="a710c304-07a0-41fb-b256-3c954a2404f0" d="M199.13,132.36l8-4.43c13,1.87,21.78,13,34.51,15.49,0,2.88-.09,5.75-.13,8.62-9.56,9-21.85,13.41-33,19.69l-8.9-5.41Q199.32,149.34,199.13,132.36Z"/><path class="a710c304-07a0-41fb-b256-3c954a2404f0" d="M183.13,166.69c-6.87,4.07-12.51,9.3-15.83,16.73L145,182.69q-1.44-12.51-2.88-25c10.54-.18,21.12.05,31.62-.69C181.48,156.44,183.35,160.24,183.13,166.69Z"/><path class="b4a36dac-60bc-4b0e-bd18-0145273319e0" d="M168,116.42c3,7.32,8.82,11.91,15.44,15.67-.16,6.23-3,8.83-9.56,8.52-10.52-.5-21.08-.24-31.62-.31q1.49-11.81,3-23.62Z"/><path class="f6efffa8-0c4e-459a-9491-0e91f42b0d9d" d="M291.81,228c-.38,6.2.13,12.49-3.82,18-6.09,8.55-14.65,13.73-24.64,12.11C249.09,255.79,242.23,245,241.52,228c1.49-5.22,4.52-9.58,7.66-13.88l9.25-5.35a30.87,30.87,0,0,1,16.57-.12l9.15,5.35C287.38,218.28,290.35,222.71,291.81,228Z"/><path class="f6efffa8-0c4e-459a-9491-0e91f42b0d9d" d="M350.22,166.7c10.67,6.45,18.84,14.83,16.32,28.35-2.44,13-12,18.6-24.36,22.17-8.61,2.49-10.73-6.4-17.06-6.71l-6.66-8.81q-1-4.19-2-8.35c0-2,0-4,.07-6a40,40,0,0,1,8.39-15.61l9-5.36Z"/><path class="ba521928-1e13-45e9-a3f8-82ce64d1a048" d="M241.55,71.23c.64-16.83,6.81-26.65,19.42-29.64,11.12-2.63,19.8,1.93,26.62,10.64,4.45,5.68,3.87,12.48,4.29,19.06l-8,13.94-9,5.25-16.35-.11-8.87-5.24Z"/><path class="ba521928-1e13-45e9-a3f8-82ce64d1a048" d="M324.82,88.58c13.95-7.59,24.6-7.43,33.42.49,14.54,13.07,11,31.16-8.44,42.86-5.15,1.55-10.37,1.08-15.6.48l-7.83-4.54c-8-6.69-10-15.59-9.41-25.47C318.43,97.14,321.63,92.86,324.82,88.58Z"/><path class="ee661af5-0ac2-4b7e-9286-c3ead95e96e6" d="M324.82,88.58c-3.19,4.28-6.39,8.56-7.86,13.82-.55,0-1.11,0-1.66,0l-31.44-17.2,8-13.94Z"/><path class="ee661af5-0ac2-4b7e-9286-c3ead95e96e6" d="M241.55,71.23l8.09,13.9c-9.76,4.71-18.21,11.9-28.75,15.13l-5.42-2.49q-3.45-4.6-6.92-9.2Z"/><path class="ee661af5-0ac2-4b7e-9286-c3ead95e96e6" d="M249.18,214.1c-3.14,4.3-6.17,8.66-7.66,13.88l-33.2-17.6,6.72-8.63c2.56-.68,3-2.73,3.22-4.93C229.38,201.13,239.38,207.43,249.18,214.1Z"/><path class="ee661af5-0ac2-4b7e-9286-c3ead95e96e6" d="M318.46,201.7l6.66,8.81L291.81,228c-1.46-5.26-4.43-9.69-7.66-14L315.2,197.1C315.35,199.29,315.87,201.23,318.46,201.7Z"/><path class="ee661af5-0ac2-4b7e-9286-c3ead95e96e6" d="M334.2,132.4c5.23.61,10.45,1.08,15.6-.47,1.47,11.57.81,23.17.42,34.77L334,166.34Q334.09,149.38,334.2,132.4Z"/><path class="a9359b72-2edb-47d9-b992-7b169a5ce756" d="M166.11,199.36c1.62,0,1.81,1.22,2,2.42Z"/><path class="ebc5fa69-ddba-4fc9-98e2-7075959d66a5" d="M218.26,196.82c-.22,2.2-.66,4.25-3.22,4.93,2.4-11,1.91-21.41-6.61-30,11.18-6.28,23.47-10.69,33-19.69,1.2,6.14,4.35,11.29,8.07,16.17-7.68,4.36-15.27,8.9-23.08,13C220,184.64,216.16,189.08,218.26,196.82Z"/><path class="ebc5fa69-ddba-4fc9-98e2-7075959d66a5" d="M215.47,97.77l5.41,2.49c-5.09,7.26-3.91,12.4,4.41,16.56s15.86,9.35,23.76,14.1q-3.74,6.26-7.46,12.5c-12.73-2.44-21.53-13.62-34.51-15.49C216.75,119.78,217.35,109.12,215.47,97.77Z"/><path class="ba521928-1e13-45e9-a3f8-82ce64d1a048" d="M241.59,143.42q3.74-6.24,7.46-12.5l9.83-5.83a30.44,30.44,0,0,1,15.6,0l9.86,5.72c2.91,4.53,6.21,8.86,7.49,14.25l.06,9.15L284,168.29l-9.14,5.3-16.42,0-8.94-5.34c-3.72-4.88-6.87-10-8.07-16.17C241.5,149.17,241.55,146.3,241.59,143.42Z"/><path class="fce6706f-724d-49dc-ad09-e0aac3e601cc" d="M274.89,173.59l9.14-5.3,32.51,19c0,2-.05,4-.07,6-.42,1.24-.85,2.5-1.27,3.76L284.15,214,275,208.63Q274.94,191.11,274.89,173.59Z"/><path class="fce6706f-724d-49dc-ad09-e0aac3e601cc" d="M249.53,168.21l8.94,5.34q0,17.59,0,35.2l-9.25,5.35c-9.8-6.67-19.8-13-30.92-17.28-2.1-7.74,1.74-12.18,8.19-15.58C234.26,177.11,241.85,172.57,249.53,168.21Z"/><path class="a9359b72-2edb-47d9-b992-7b169a5ce756" d="M258.43,208.75q0-17.61,0-35.2l16.42,0q.06,17.52.11,35A30.87,30.87,0,0,0,258.43,208.75Z"/><path class="a710c304-07a0-41fb-b256-3c954a2404f0" d="M291.89,154.21l-.06-9.15c11.92-4.91,21.59-14.33,34.53-17.2l7.84,4.55q-.12,17-.23,33.93l-9,5.36Z"/><path class="ebc5fa69-ddba-4fc9-98e2-7075959d66a5" d="M291.89,154.21l33,17.49a40,40,0,0,0-8.39,15.61l-32.51-19Z"/><path class="ebc5fa69-ddba-4fc9-98e2-7075959d66a5" d="M315.2,197.1c.42-1.26.85-2.52,1.27-3.76.66,2.79,1.32,5.57,2,8.36C315.87,201.23,315.35,199.29,315.2,197.1Z"/><path class="fce6706f-724d-49dc-ad09-e0aac3e601cc" d="M284.34,130.81l-9.86-5.73q.18-17.3.38-34.6l9-5.25,31.44,17.2c1.63,7.78-1.81,12.12-8.85,15.42C298.75,121.46,291.68,126.43,284.34,130.81Z"/><path class="fce6706f-724d-49dc-ad09-e0aac3e601cc" d="M258.88,125.09l-9.83,5.83c-7.9-4.75-15.55-10-23.76-14.1s-9.5-9.3-4.41-16.56c10.55-3.23,19-10.42,28.76-15.13l8.87,5.24Q258.71,107.73,258.88,125.09Z"/><path class="a9359b72-2edb-47d9-b992-7b169a5ce756" d="M258.88,125.09q-.18-17.37-.37-34.72l16.35.11q-.19,17.3-.38,34.6A30.55,30.55,0,0,0,258.88,125.09Z"/><path class="ebc5fa69-ddba-4fc9-98e2-7075959d66a5" d="M284.34,130.81c7.34-4.38,14.41-9.35,22.11-13,7-3.3,10.48-7.64,8.85-15.42.55,0,1.11,0,1.66,0-.62,9.88,1.42,18.78,9.41,25.47-12.95,2.86-22.62,12.28-34.54,17.19C290.55,139.67,287.25,135.34,284.34,130.81Z"/></svg>