<svg id="f0c18739-29e5-41e3-b046-18fd248679db" data-name="Capa 1" xmlns="http://www.w3.org/2000/svg" viewBox="0 0 561.78 561.8"><defs><style>.aeb33a77-985d-4443-9fcb-72dd8660f9b0{fill:#040504;}.b9a2160c-7cb0-4990-ab84-f2eb6019cd74{fill:#8f99a5;}.a4bf0fde-5477-4818-87a6-687655949d6e{fill:#8ed455;}.e8429953-3960-43a4-81d7-0ae1cdce0adb{fill:#f87563;}.b80622d0-c594-4b70-8192-f2eaeab05b3e{fill:#a2d86d;}.e0798143-5965-4b7d-9925-8a6bca077087{fill:#2ed6f4;}.a1c9a934-1c12-47e2-810c-0b353074c6cf{fill:#dee2e5;}.a9ae6418-55f5-4389-9f4a-8467f70d3101{fill:#e3e7eb;}.bc926c6e-5cb0-426c-b983-1be1a88aae02{fill:#d7dade;}.a168e24b-1bd6-4339-b253-8461d49d7c3a{fill:#d9dde0;}.a0fe9cc2-16e7-4104-a5ab-6ff7c2deb6ac{fill:#fad159;}.e4020643-c690-4686-aaf4-d8c899d68a6f{fill:#95de58;}.b5c86b78-ac40-4dfd-b2da-f1f44f1563e9{fill:#090a0b;}.be18ac88-4743-4c20-93ce-028e57b06558{fill:#060403;}.bb9a7714-ee55-4e59-b07b-a8c8b3b2ab65{fill:#f5e198;}</style></defs><title>_</title><path class="aeb33a77-985d-4443-9fcb-72dd8660f9b0" d="M75.66,272c-15.46-29.17-30.55-56.9-44.9-85C20.29,166.51,6.34,147.4,2.12,124.16-9.59,59.68,28.83,14.73,75.84,3c52.41-13.08,105,17.58,119.82,70.89,7.44,26.7,4.65,52.71-8.24,77.34C168,188.4,148.26,225.43,128.67,262.52c-1.35,2.55-2.65,5.13-4.9,9.51,12.15,0,22.68-.35,33.16.13,6.36.29,6.81-2.85,6.66-7.78-.27-8.59-.12-17.2-.07-25.8.16-24.72,14.4-38.78,39.46-38.86,20.21-.07,40.42-.29,60.62.14,6.67.14,8.81-1.59,8.62-8.47-.48-18-.31-36.12-.13-54.17.28-27.07,19.37-46.09,46.36-46.12q98.69-.12,197.36,0c27,0,45.79,18.13,45.83,44.87q.29,190.26,0,380.53c0,27-18.31,45-45.52,45.12q-99.31.35-198.65,0c-26.25-.09-45.16-19.35-45.37-45.75q-.35-44.5.09-89c.07-7.14-.71-10.43-9.44-10.56-9.61-.15-8.86,4.79-8.81,11.05.14,19.78.19,39.56,0,59.34-.21,23.87-14.8,38.65-38.42,38.69-68.37.12-136.73-.07-205.1.21-7.57,0-10.24-1.37-10.21-9.73Q.78,398.5.29,281.11c0-7.33,2-9.4,9.26-9.24C31,272.33,52.39,272,75.66,272ZM272.47,396c-.18,1.61.25,2.69,2.17,2.48h49c1.9.21,2.41-.82,2.22-2.48.16-24.9.28-49.8.51-74.7,0-4-1.31-8.56,4.54-10.6,28.25-9.85,56.41-19.94,85.82-30.39,0,36.9.24,72.49-.17,108.07-.1,8.35,2.17,11.19,10.76,10.89,18-.63,36.07-.19,54.11-.19,28.4,0,28.4,0,26.67-28.24a7,7,0,0,1,0-1.29c.59-5.8-2.42-7.25-7.68-7.14-12.45.24-24.93-.28-37.36.2-7.15.28-9.88-1.83-9.65-9.32.49-15.88.07-31.78.17-47.67.08-12.44-3.81-27.36,1.71-36.63,5.95-10,22.56-10.32,34.52-14.82,18.93-7.13,18.56-6.86,18.53-26.87,0-8.35-3.23-9.34-10.55-9.93-22.46-1.81-43.06,4-63.75,11.83-35.15,13.31-70.73,25.52-108.17,38.92V220.37c.22-1.67-.43-2.5-2.18-2.27H274.6c-1.76-.24-2.34.63-2.13,2.25-.14,19.33-.63,38.67-.26,58,.15,7.4-2.37,10.32-9.46,12.29-24.37,6.77-48.49,14.4-72.72,21.65-4.55,1.36-9.08,2-8.85,8.75.41,12.41.11,24.84.11,38.59,27.39-8.14,53.75-15.42,79.7-23.95,10.09-3.31,11.45-.39,11.22,8.74C271.76,361.59,272.33,378.78,272.47,396ZM544.84,326.1q0-91.55,0-183.1c0-24.25-10.35-34.38-34.56-34.43-30.08-.06-60.17,0-90.26,0-32.23,0-64.47-.08-96.7,0-23.32.08-33.1,9.79-33.18,32.66-.06,16.76.18,33.52-.12,50.28-.1,5.81,1.3,7.88,7.7,8.42,10.1.86,10.87-3.85,10.72-11.95-.32-17.61,5.58-24.39,20.56-24.42q88.32-.16,176.65,0c13.6,0,19.72,6.11,19.74,19.65q.17,143.13,0,286.25c0,14-5.68,19.59-19.56,19.62q-88.34.18-176.65,0c-14.47,0-20.71-6.6-20.88-21.53-.15-13.75-.34-27.52.1-41.26.22-6.87-1.31-9.93-9-9.87-7.25.06-9.51,2.17-9.41,9.48.38,27.93.13,55.87.16,83.81,0,25,10,35,35.12,35.06q90.9.08,181.81,0c27.94,0,37.8-10,37.81-38.18Q544.88,416.37,544.84,326.1ZM181.71,102.32c.87-43.2-31.52-85-83.14-84.69C37.64,18-1.51,83.79,25.84,139.14c20.87,42.21,43.7,83.46,65.88,125,5.82,10.91,10,10.93,15.67.32q32.94-61.77,65.48-123.75A78.19,78.19,0,0,0,181.71,102.32Zm-72.48,362V443.65c0-26.38,0-26.38,27-26.38,29.05,0,28.74,0,27.6-28.58-.29-7.28-3.12-8.45-9.29-8.27-12,.33-24.08-.33-36.09.25-7.42.36-9.53-2.16-9.33-9.43.47-18,.15-36.09.15-54.14,0-28.5,0-28.23-28.88-27.24-6.95.24-8.69,2.49-8.56,9,.36,17.61.12,35.24.12,52.86,0,28.79,0,28.79-28.43,28.79-28.23,0-28,0-26.26,28.7.37,6.18,2.35,8.29,8.37,8.14,12-.29,24.08.32,36.09-.22,7.78-.35,10.61,2.12,10.39,10.15-.51,18-.16,36.09-.16,54.14,0,29.16,0,29,29.28,27.2,6-.37,8.35-2,8.15-8.25C109,488.35,109.23,476.31,109.23,464.28ZM418,471.84c26.59,0,53.19-.35,79.77.19,8.67.18,11.23-2.66,10.79-11-.6-11.55-.45-23.16,0-34.73.25-6.92-1.52-9.77-9.22-9.73q-82.35.46-164.71,0c-7.09,0-8.64,2.5-8.42,8.92.41,12.43.56,24.9,0,37.31-.37,7.59,2.46,9.26,9.52,9.16C363.07,471.62,390.52,471.84,418,471.84ZM174.54,508.37v-.31c14.56,0,29.15.56,43.67-.18,10.88-.55,17.55-7.38,17.48-18.37s-7.36-16.86-17.91-18.25c-4.63-.61-9.41-.17-14.12-.19C181,471,169.42,462.54,164,440.86c-1.21-4.8-2.6-6.3-7.24-6.11-7.27.29-14.58.38-21.85,0-5.88-.33-8.44,1.3-8.33,7.74.33,19.28.3,38.56,0,57.84-.08,6.1,2,8.33,8.12,8.17C148,508.14,161.25,508.37,174.54,508.37Zm7-212.29c10.09-3,19.1-5.59,28-8.41,14.64-4.63,35.5-4.12,42.28-15.05,7.17-11.55,2-30.79,2.17-46.67a24.46,24.46,0,0,1,0-2.57c.56-4.57-1.59-5.88-5.94-5.83-16.76.22-33.54-.21-50.29.34-9.34.31-15.71,6.25-16,15.42C181,253.82,181.51,274.38,181.51,296.08Zm217.57,9.5c-9.79,3.45-17.81,6.23-25.8,9.1-28.91,10.37-29.18,10.38-28.79,40.57.2,14.42-6.47,35.24,2.51,41.61,10.32,7.31,29.6,1.8,45,2.31,5.67.19,7.28-1.65,7.23-7.25C399,363.67,399.08,335.41,399.08,305.58Zm17.75-105.89c27.07,0,54.15-.22,81.21.15,7.3.09,10.87-1,10.65-9.6-.2-7.73-3-9.16-9.94-9.14q-81.86.35-163.72,0c-7.82-.05-8.82,2.95-9,9.69-.21,7.62,2.62,9.19,9.6,9.09C362.69,199.48,389.76,199.69,416.83,199.69ZM54.89,472.22c0-9.86-.15-19.73.06-29.59.1-5-.88-9-6.88-7.75-10.14,2.12-21.67-5.24-30.59,4.5-.44.48-.12,1.67-.12,2.52,0,19.74.06,39.47-.05,59.2,0,4.54,1.17,6.73,6.31,7.47,28.51,4.05,31.27,1.91,31.27-26.05ZM17.37,326.07v9c0,28.45,0,28.19,28.22,27.82,7.13-.09,9.71-1.7,9.45-9.24-.56-16.72-1.11-33.55.14-50.2.91-12-3.4-14.05-14.2-13.68-23.59.81-23.61.24-23.61,23.4Zm491.07-58.89c-37.38,10.68-37.38,10.68-37.38,46.25v3.86c0,28.2,0,28,28.38,27.44,6.24-.13,9.33-.87,9.17-8.29C508.15,313.7,508.44,291,508.44,267.18ZM126.73,325c0,10.29-.1,20.57.06,30.85,0,2.62-1.46,6.68,3.41,6.76,9.85.17,19.7.09,29.55,0,4.73,0,3.69-3.75,3.7-6.52.05-19.71,0-39.41,0-59.12,0-3.42.63-7-4.79-6.84-10.21.37-22-2.47-30.09,1.78-5.79,3-1.15,15.76-1.85,24.12C126.52,319,126.72,322,126.73,325ZM254,356.57l-53,16.09c-20.41,6.21-20.42,6.21-19.57,27.27,0,1,.78,2,1.23,3.14,6.45-2.2,12.5-4.13,19.07-4.06,14.6.16,29.22-.29,43.81.2,6.75.22,9-1.73,8.64-8.58C253.58,379.94,254,369.21,254,356.57ZM235.93,458.63c0-4.56,0-7.11,0-9.66.28-33,.28-33-32.49-32.25-13.61.32-21.81,7-22.15,18.12-.36,11.5,8.06,18.59,22.61,18.78C214.18,453.76,224.54,452.89,235.93,458.63ZM345,240.74c10.65-1.43,53.67-16.85,64.07-23.16H366C343.18,217.58,343.18,217.58,345,240.74Z"/><path class="b9a2160c-7cb0-4990-ab84-f2eb6019cd74" d="M544.84,326.1q0,90.25,0,180.52c0,28.2-9.87,38.17-37.81,38.18q-90.9.06-181.81,0c-25.15,0-35.09-10-35.12-35.06,0-27.94.22-55.88-.16-83.81-.1-7.31,2.16-9.42,9.41-9.48,7.71-.06,9.24,3,9,9.87-.44,13.74-.25,27.51-.1,41.26.17,14.93,6.41,21.5,20.88,21.53q88.32.15,176.65,0c13.88,0,19.54-5.64,19.56-19.62q.17-143.13,0-286.25c0-13.54-6.14-19.62-19.74-19.65q-88.32-.21-176.65,0c-15,0-20.88,6.81-20.56,24.42.15,8.1-.62,12.81-10.72,11.95-6.4-.54-7.8-2.61-7.7-8.42.3-16.76.06-33.52.12-50.28.08-22.87,9.86-32.58,33.18-32.66,32.23-.1,64.47,0,96.7,0,30.09,0,60.18,0,90.26,0,24.21.05,34.52,10.18,34.56,34.43Q545,234.56,544.84,326.1ZM435.63,145c6.42,0,12.87-.4,19.25.11,8,.63,7.52-4.25,7.78-9.73.28-6.08-1.77-8.36-8-8.17-12,.37-24,.24-35.94,0-6-.1-10.45-.31-10.49,8.33s3.45,10.14,10.7,9.52C424.48,144.58,430.07,145,435.63,145ZM416.7,525.38c6.43,0,12.86-.24,19.27.07,5.78.29,8.54-1.29,8.46-7.82-.07-6.26-1.27-9.52-8.45-9.25-12,.44-24,.44-36,0-7.05-.27-9.71,1.71-9.71,9.27,0,7.84,4.1,8,9.7,7.79S411.13,525.38,416.7,525.38ZM380.91,144.83c6.72,1.16,9.07-1.52,9.23-8.38.18-7.52-2.6-9.35-9.71-9.42-7.38-.07-8.24,3.22-8.3,9.3C372.06,142.93,374,146.22,380.91,144.83Z"/><path class="a4bf0fde-5477-4818-87a6-687655949d6e" d="M274.6,218.1h49.12l2.18,2.27v47.72c37.44-13.4,73-25.61,108.17-38.92,20.69-7.84,41.29-13.64,63.75-11.83,7.32.59,10.53,1.58,10.55,9.93,0,20,.4,19.74-18.53,26.87-12,4.5-28.57,4.81-34.52,14.82-5.52,9.27-1.63,24.19-1.71,36.63-.1,15.89.32,31.79-.17,47.67-.23,7.49,2.5,9.6,9.65,9.32,12.43-.48,24.91,0,37.36-.2,5.26-.11,8.27,1.34,7.68,7.14a7,7,0,0,0,0,1.29c1.73,28.24,1.73,28.24-26.67,28.24-18,0-36.09-.44-54.11.19-8.59.3-10.86-2.54-10.76-10.89.41-35.58.17-71.17.17-108.07-29.41,10.45-57.57,20.54-85.82,30.39-5.85,2-4.51,6.55-4.54,10.6-.23,24.9-.35,49.8-.51,74.7l-2.22,2.48h-49L272.47,396c-.14-17.19-.71-34.38-.26-51.55.23-9.13-1.13-12.05-11.22-8.74-26,8.53-52.31,15.81-79.7,23.95,0-13.75.3-26.18-.11-38.59-.23-6.73,4.3-7.39,8.85-8.75,24.23-7.25,48.35-14.88,72.72-21.65,7.09-2,9.61-4.89,9.46-12.29-.37-19.33.12-38.67.26-58Z"/><path class="e8429953-3960-43a4-81d7-0ae1cdce0adb" d="M181.7,102.32a78.07,78.07,0,0,1-8.83,38.41q-32.46,62-65.48,123.75c-5.67,10.61-9.85,10.59-15.67-.32-22.18-41.56-45-82.81-65.88-125C-1.51,83.79,37.64,18,98.57,17.63,150.19,17.31,182.58,59.12,181.7,102.32ZM36.79,98.9c-.17,35.77,27.9,64.27,63.11,64.09,34.42-.17,63.15-28.92,63.13-63.17a62.88,62.88,0,0,0-62.86-63.06C64.82,36.54,36.94,63.87,36.79,98.9Zm45.38,82.88c-5.9-.89-9.82.07-9.27,7.59.41,5.68-.58,10.65,8.16,10.34,7-.24,9.68-2.07,9.46-9.34C90.33,184.23,89.38,180.32,82.17,181.78Zm35,17.52c7,1.29,10.07-1.09,9.82-8.73-.2-6.17-1.23-9.21-8.4-9.15-6.83.06-10.08,1.4-9.53,9C109.51,196.15,109.41,201,117.21,199.3Z"/><path class="b80622d0-c594-4b70-8192-f2eaeab05b3e" d="M109.23,464.28c0,12-.28,24.07.11,36.09.2,6.23-2.14,7.88-8.15,8.25-29.29,1.78-29.28,2-29.28-27.2,0-18.05-.35-36.11.16-54.14.22-8-2.61-10.5-10.39-10.15-12,.54-24.06-.07-36.09.22-6,.15-8-2-8.37-8.14-1.76-28.71-2-28.7,26.26-28.7,28.43,0,28.43,0,28.43-28.79,0-17.62.24-35.25-.12-52.86-.13-6.51,1.61-8.76,8.56-9,28.89-1,28.88-1.26,28.88,27.24,0,18,.32,36.11-.15,54.14-.2,7.27,1.91,9.79,9.33,9.43,12-.58,24.07.08,36.09-.25,6.17-.18,9,1,9.29,8.27,1.14,28.59,1.45,28.58-27.6,28.58-27,0-27,0-27,26.38Z"/><path class="e0798143-5965-4b7d-9925-8a6bca077087" d="M418,471.84c-27.46,0-54.91-.22-82.36.14-7.06.1-9.89-1.57-9.52-9.16.61-12.41.46-24.88,0-37.31-.22-6.42,1.33-8.95,8.42-8.92q82.37.42,164.71,0c7.7,0,9.47,2.81,9.22,9.73-.41,11.57-.56,23.18,0,34.73.44,8.33-2.12,11.17-10.79,11C471.17,471.49,444.57,471.84,418,471.84Z"/><path class="a1c9a934-1c12-47e2-810c-0b353074c6cf" d="M174.54,508.37c-13.29,0-26.57-.23-39.85.1-6.17.16-8.2-2.07-8.12-8.17.29-19.28.32-38.56,0-57.84-.11-6.44,2.45-8.07,8.33-7.74,7.27.41,14.58.32,21.85,0,4.64-.19,6,1.31,7.24,6.11,5.44,21.68,17,30.09,39.68,30.21,4.71,0,9.49-.42,14.12.19,10.55,1.39,17.85,7.13,17.91,18.25s-6.6,17.82-17.48,18.37c-14.52.74-29.11.18-43.67.18Z"/><path class="a9ae6418-55f5-4389-9f4a-8467f70d3101" d="M181.51,296.08c0-21.7-.49-42.26.23-62.77.32-9.17,6.69-15.11,16-15.42,16.75-.55,33.53-.12,50.29-.34,4.35-.05,6.5,1.26,5.94,5.83a24.46,24.46,0,0,0,0,2.57c-.2,15.88,5,35.12-2.17,46.67C245,283.55,224.18,283,209.54,287.67,200.61,290.49,191.6,293.06,181.51,296.08Z"/><path class="a9ae6418-55f5-4389-9f4a-8467f70d3101" d="M399.08,305.58c0,29.83-.13,58.09.12,86.34.05,5.6-1.56,7.44-7.23,7.25-15.37-.51-34.65,5-45-2.31-9-6.37-2.31-27.19-2.51-41.61-.39-30.19-.12-30.2,28.79-40.57C381.27,311.81,389.29,309,399.08,305.58Z"/><path class="e0798143-5965-4b7d-9925-8a6bca077087" d="M416.83,199.69c-27.07,0-54.14-.21-81.21.14-7,.1-9.81-1.47-9.6-9.09.19-6.74,1.19-9.74,9-9.69q81.86.51,163.72,0c6.9,0,9.74,1.41,9.94,9.14.22,8.63-3.35,9.69-10.65,9.6C471,199.47,443.9,199.69,416.83,199.69Z"/><path class="bc926c6e-5cb0-426c-b983-1be1a88aae02" d="M54.89,472.22v10.3c0,28-2.76,30.1-31.27,26.05-5.14-.74-6.34-2.93-6.31-7.47.11-19.73,0-39.46.05-59.2,0-.85-.32-2,.12-2.52,8.92-9.74,20.45-2.38,30.59-4.5,6-1.26,7,2.75,6.88,7.75C54.74,452.49,54.89,462.36,54.89,472.22Z"/><path class="a168e24b-1bd6-4339-b253-8461d49d7c3a" d="M17.37,326.07V313.19c0-23.16,0-22.59,23.61-23.4,10.8-.37,15.11,1.69,14.2,13.68-1.25,16.65-.7,33.48-.14,50.2.26,7.54-2.32,9.15-9.45,9.24-28.22.37-28.22.63-28.22-27.82Z"/><path class="a168e24b-1bd6-4339-b253-8461d49d7c3a" d="M508.44,267.18c0,23.77-.29,46.52.17,69.26.16,7.42-2.93,8.16-9.17,8.29-28.38.57-28.38.76-28.38-27.44v-3.86C471.06,277.86,471.06,277.86,508.44,267.18Z"/><path class="a9ae6418-55f5-4389-9f4a-8467f70d3101" d="M126.72,325c0-3-.2-6,0-9,.7-8.36-3.94-21.09,1.85-24.12,8.11-4.25,19.88-1.41,30.09-1.78,5.42-.2,4.79,3.42,4.79,6.84,0,19.71,0,39.41,0,59.12,0,2.77,1,6.48-3.7,6.52-9.85.11-19.7.19-29.55,0-4.87-.08-3.37-4.14-3.41-6.76C126.63,345.54,126.73,335.26,126.72,325Z"/><path class="a9ae6418-55f5-4389-9f4a-8467f70d3101" d="M254,356.57c0,12.64-.41,23.37.15,34.06.35,6.85-1.89,8.8-8.64,8.58-14.59-.49-29.21,0-43.81-.2-6.57-.07-12.62,1.86-19.07,4.06-.45-1.1-1.19-2.11-1.23-3.14-.85-21.06-.84-21.06,19.57-27.27Z"/><path class="a0fe9cc2-16e7-4104-a5ab-6ff7c2deb6ac" d="M235.93,458.63c-11.39-5.74-21.75-4.87-32-5-14.55-.19-23-7.28-22.61-18.78.34-11.09,8.54-17.8,22.15-18.12,32.77-.79,32.77-.79,32.49,32.25C235.91,451.52,235.93,454.07,235.93,458.63Z"/><path class="a1c9a934-1c12-47e2-810c-0b353074c6cf" d="M345,240.74c-1.8-23.16-1.8-23.16,21-23.16h43C398.65,223.89,355.63,239.31,345,240.74Z"/><path class="e4020643-c690-4686-aaf4-d8c899d68a6f" d="M274.6,218.1l-2.13,2.25C272.26,218.73,272.84,217.86,274.6,218.1Z"/><path class="e4020643-c690-4686-aaf4-d8c899d68a6f" d="M325.9,220.37l-2.18-2.27C325.47,217.87,326.12,218.7,325.9,220.37Z"/><path class="e4020643-c690-4686-aaf4-d8c899d68a6f" d="M272.47,396l2.17,2.48C272.72,398.66,272.29,397.58,272.47,396Z"/><path class="e4020643-c690-4686-aaf4-d8c899d68a6f" d="M323.68,398.45,325.9,396C326.09,397.63,325.58,398.66,323.68,398.45Z"/><path class="b5c86b78-ac40-4dfd-b2da-f1f44f1563e9" d="M435.63,145c-5.56,0-11.15-.38-16.68.09-7.25.62-10.75-.92-10.7-9.52s4.5-8.43,10.49-8.33c12,.2,24,.33,35.94,0,6.21-.19,8.26,2.09,8,8.17-.26,5.48.2,10.36-7.78,9.73C448.5,144.55,442.05,145,435.63,145Z"/><path class="aeb33a77-985d-4443-9fcb-72dd8660f9b0" d="M416.7,525.38c-5.57,0-11.15-.15-16.71,0s-9.69.05-9.7-7.79c0-7.56,2.66-9.54,9.71-9.27,12,.45,24,.45,36,0,7.18-.27,8.38,3,8.45,9.25.08,6.53-2.68,8.11-8.46,7.82C429.56,525.14,423.13,525.38,416.7,525.38Z"/><path class="b5c86b78-ac40-4dfd-b2da-f1f44f1563e9" d="M380.91,144.83c-6.94,1.39-8.85-1.9-8.78-8.5.06-6.08.92-9.37,8.3-9.3,7.11.07,9.89,1.9,9.71,9.42C390,143.31,387.63,146,380.91,144.83Z"/><path class="be18ac88-4743-4c20-93ce-028e57b06558" d="M36.79,98.9c.15-35,28-62.36,63.38-62.14A62.88,62.88,0,0,1,163,99.82c0,34.25-28.71,63-63.13,63.17C64.69,163.17,36.62,134.67,36.79,98.9Zm62.47,46.46c24.72.26,46.16-20.91,46.14-45.56,0-24.84-21.22-46-45.94-45.89C75.26,54,54.54,74.5,54,98.86,53.34,123.4,74.51,145.11,99.26,145.36Z"/><path class="b5c86b78-ac40-4dfd-b2da-f1f44f1563e9" d="M82.17,181.78c7.21-1.46,8.16,2.45,8.35,8.59.22,7.27-2.41,9.1-9.46,9.34-8.74.31-7.75-4.66-8.16-10.34C72.35,181.85,76.27,180.89,82.17,181.78Z"/><path class="b5c86b78-ac40-4dfd-b2da-f1f44f1563e9" d="M117.21,199.3c-7.8,1.66-7.7-3.15-8.11-8.84-.55-7.64,2.7-9,9.53-9,7.17-.06,8.2,3,8.4,9.15C127.28,198.21,124.18,200.59,117.21,199.3Z"/><path class="bb9a7714-ee55-4e59-b07b-a8c8b3b2ab65" d="M99.26,145.36c-24.75-.25-45.92-22-45.31-46.5C54.54,74.5,75.26,54,99.46,53.91c24.72-.13,45.92,21,45.94,45.89C145.42,124.45,124,145.62,99.26,145.36Zm33.87-56.69c-12.19-13.76-12.19-13.76-23.73-2.23-4.55,4.55-9.32,8.9-13.58,13.71-3.6,4.07-6.73,5-10.08.12-4.5-6.56-7.95-6-13.77-.39-7.17,6.86-2.18,10,2,14.13,3.65,3.63,7.51,7.07,10.85,11,3.59,4.17,6,5.65,10.77.6C107.7,112.84,120.61,100.88,133.13,88.67Z"/><path class="aeb33a77-985d-4443-9fcb-72dd8660f9b0" d="M133.13,88.67c-12.52,12.21-25.43,24.17-37.52,36.9-4.79,5.05-7.18,3.57-10.77-.6-3.34-3.89-7.2-7.33-10.85-11-4.2-4.17-9.19-7.27-2-14.13,5.82-5.57,9.27-6.17,13.77.39,3.35,4.88,6.48,4,10.08-.12,4.26-4.81,9-9.16,13.58-13.71C120.94,74.91,120.94,74.91,133.13,88.67Z"/></svg>