<svg id="adecd9fd-586e-4e63-901b-9e7509687275" data-name="Capa 1" xmlns="http://www.w3.org/2000/svg" viewBox="0 0 259.47 415.2"><defs><style>.a6e46f3d-71e7-4f99-b1f8-023efb7598cb{fill:#fd8807;}.f057b4a2-fcc8-485e-9a17-cab258c94ba3{fill:#fd2803;}.bbaeb75c-bef3-41e0-a50b-b288b060f656{fill:#fc2a06;}.b21f9376-f58a-484b-a46d-09dbdbd473a2{fill:#f30505;}.b3473085-d5d8-4ef6-b11d-dd45f2ec9893{fill:#f00e0f;}.ef38f019-f617-496d-9bc5-542ed78edf16{fill:#fa3e1b;}.ae0bf48b-a465-4a98-ba0d-a737ca35a6ce{fill:#ee221c;}.f322c029-142c-4747-bdf4-4efd0c0b7d1b{fill:#f9ecd7;}.a404b9b1-47cc-40fa-8344-fbd4779b6c8e{fill:#faebd8;}.ae0ae5bb-fc4f-49e5-aed4-5a24cd19f531{fill:#f64229;}.f29a90d3-c1d1-4261-a1b6-8f0353caf1c9{fill:#fb401a;}</style></defs><title>_</title><path class="a6e46f3d-71e7-4f99-b1f8-023efb7598cb" d="M208.7,207.93q.17,77.49.32,155c0,20.9-7.61,30.91-27.14,36.18-20.57,5.55-43-1.42-51.59-16.25-5.63-9.73-4.59-19.06,3.13-27.22,8.72-9.22,19.85-13.79,32.33-13.14,10,.51,13.72-2.24,13.19-12.83-.88-17.7-.6-35.49-.09-53.22.24-8.58-2.61-10.74-10.89-9.3-22.58,3.93-45.24,7.51-67.95,10.59-9.28,1.26-9.94,6.6-9.87,14.13.27,29.22.19,58.45.08,87.67C90.15,399,80.77,409.92,60.93,414c-21.22,4.4-44.06-4-50.68-18.92C5.69,384.85,8.05,375.51,16,368c5.32-5,12-8,19.11-10.21,7.83-2.46,19.48,2.61,23-4.62,3.76-7.64,1.54-18.32,1.58-27.67.11-27.13,0-54.27.08-81.41,0-5.6-1.46-11.57,2.92-16.44,40.93-7.37,81.83-14.89,122.8-22C193.22,204.37,201.75,199.47,208.7,207.93Zm-43.84,146c-1.77-1.44-3.53-4.09-5.31-4.1-6.19,0-12.68,1-15.31,7.56-1.13,2.81,2.52,3.8,5.16,3.86C155.25,361.38,160.46,359.93,164.86,353.94ZM48.26,366.38c-2.14-4.08-5.5-4.74-9.35-3.48-4.26,1.41-10.52,1.6-10.38,7.46.13,5.13,5.55,3.56,8.78,3.14C41.89,372.91,46.46,371.51,48.26,366.38Z"/><path class="f057b4a2-fcc8-485e-9a17-cab258c94ba3" d="M40.86,151.46c3.73,7.38,2.84,16.58,8.87,23,7,7.53,13.05,10.78,23.21,2,23.25-20.06,28.77-43.34,18.19-71.42-3.11-8.26-6-16.61-8.82-25-13-38.35-5.87-57,33.52-80.09-5.93,15-8.46,27.78-6.33,40.92-3.67,26.55,2.73,47.48,28.95,60.62,13.13,6.58,24.83,16.56,26.69,33.75,1.48,13.78,4.49,27.39,6.82,41.07-3.75,6.73-1.05,14.45-3.29,21.42-7.68,1.34-15.48,2.22-23,4.1C117,209,87.05,209.73,59.19,220.32H57.62l-1.53.31c-.58-3-7.05-4-2.84-8.83,3.12-3.57,3.87-7.33-1-10.42-3.32-2.09-6.42-2.69-10.17-.73-4.41,2.3-8.12,4.83-7.81,10.43.55,10,6.4,13.43,15.71,12.4V328.06C17,300.68-1.08,270,.1,229.57c9.11-12,13.75-25.58,15.11-40.43C25.4,177.69,27.9,161,40.86,151.46ZM20.32,224.57c6.51-3.88,2.86-10.34,5.6-14.61,2-3.14,8.1-7,2.45-9.77-5-2.47-8.69,2.65-10.75,8.26C15.43,214.4,14.8,219.37,20.32,224.57Z"/><path class="bbaeb75c-bef3-41e0-a50b-b288b060f656" d="M219.24,142c4.92-10.33-1-22.86,6.85-32.31,41.35,55,50.15,165.18-7.45,213V214c2.79-11.16-5.32-16.15-12.32-21.76-2.44-4.16.14-5.88,3.14-8.51C222.53,172.3,224.93,158,219.24,142ZM242,223.26c9-2-1.37-12.13,4.16-17.38,2.26-2.14-2.87-7.8-7.57-6.91-7.77,1.48-10.8,7.23-10.33,15C228.71,221.32,233.21,223.61,242,223.26Z"/><path class="b21f9376-f58a-484b-a46d-09dbdbd473a2" d="M219.24,142c5.69,16,3.29,30.28-9.78,41.71-3,2.63-5.58,4.35-3.14,8.51l-12.6.07c-1.29-16.62-4.9-19.27-21.76-15.95-2.33-13.68-5.34-27.29-6.82-41.07-1.86-17.19-13.56-27.17-26.69-33.75C112.23,88.4,105.83,67.47,109.5,40.92c7.55,14.18,18.91,24.33,32.95,31.88,15.58,8.38,22.92,21.91,23.47,39.38.29,9.43,1.93,18.65,6.29,27.07C184,161.9,204.7,163.06,219.24,142Z"/><path class="b3473085-d5d8-4ef6-b11d-dd45f2ec9893" d="M40.86,151.46c-13,9.56-15.46,26.23-25.64,37.67l-8.44-3.25c7.12-25.09,19.18-47.7,34.08-69.34Z"/><path class="ef38f019-f617-496d-9bc5-542ed78edf16" d="M49.94,223.47c-9.31,1-15.16-2.4-15.71-12.4-.31-5.6,3.4-8.13,7.81-10.43,3.75-2,6.85-1.36,10.17.73,4.91,3.09,4.16,6.85,1,10.42-4.21,4.83,2.26,5.79,2.84,8.83C55.16,224,52.29,223.16,49.94,223.47Z"/><path class="ae0bf48b-a465-4a98-ba0d-a737ca35a6ce" d="M6.78,185.88l8.44,3.25C13.85,204,9.21,217.61.1,229.57-.41,214.58.92,199.88,6.78,185.88Z"/><path class="f322c029-142c-4747-bdf4-4efd0c0b7d1b" d="M164.86,353.94c-4.4,6-9.61,7.44-15.46,7.32-2.64-.06-6.29-1.05-5.16-3.86,2.63-6.53,9.12-7.61,15.31-7.56C161.33,349.85,163.09,352.5,164.86,353.94Z"/><path class="a404b9b1-47cc-40fa-8344-fbd4779b6c8e" d="M48.26,366.38c-1.8,5.13-6.37,6.53-10.95,7.12-3.23.42-8.65,2-8.78-3.14-.14-5.86,6.12-6.05,10.38-7.46C42.76,361.64,46.12,362.3,48.26,366.38Z"/><path class="ae0ae5bb-fc4f-49e5-aed4-5a24cd19f531" d="M193.72,192.31l-25.05,5.47c2.24-7-.46-14.69,3.29-21.42C188.82,173,192.43,175.69,193.72,192.31Z"/><path class="f29a90d3-c1d1-4261-a1b6-8f0353caf1c9" d="M20.32,224.57c-5.52-5.2-4.89-10.17-2.7-16.12,2.06-5.61,5.73-10.73,10.75-8.26,5.65,2.78-.43,6.63-2.45,9.77C23.18,214.23,26.83,220.69,20.32,224.57Z"/><path class="ef38f019-f617-496d-9bc5-542ed78edf16" d="M242,223.26c-8.8.35-13.3-1.94-13.74-9.32-.47-7.74,2.56-13.49,10.33-15,4.7-.89,9.83,4.77,7.57,6.91C240.64,211.13,251,221.24,242,223.26Z"/></svg>