<svg id="ad43a1c1-3ddb-4931-9fc3-c292837f014f" data-name="Capa 1" xmlns="http://www.w3.org/2000/svg" viewBox="0 0 180 180"><defs><style>.bf78ff06-878f-4074-9942-5dc162347aad{fill:#fff;}</style></defs><title>_</title><path d="M81.55,77.71c2.12.79,2.71-.8,3.24-3.92C87.4,58.33,90,42.85,93.41,27.56c1.17-5.3,4-10.5,7.14-15,5.52-8.08,13.6-7.11,16.91,2a64,64,0,0,1,3.39,16.82c1.43,19.07-.87,37.89-4.72,56.57a8.31,8.31,0,0,0,1.42,6.13c12.56,15.7,14.39,36.35,4.46,53.29-9.64,16.44-28.82,25.49-47.31,22.32-19.55-3.36-34.51-17.83-38.07-37.46-2.49-13.73.61-26.36,9.55-37.19,2.27-2.76,2.56-5.12,1.86-8.41-4.51-21.27-7.19-42.68-3.55-64.39a33.61,33.61,0,0,1,3.35-10.11c3.15-5.89,9.73-7,13.85-1.76C65.36,15,68.8,20.49,70.24,26.14,74.49,42.81,77.69,59.75,81.55,77.71Zm25.73,6.78c4.3-12.25,6.87-46.88,4.11-58.65-.38-1.62-2.27-2.9-3.46-4.34-1.52,1.32-3.79,2.33-4.44,4-6.43,16.37-8.89,33.57-10.08,51a3.56,3.56,0,0,0,1.51,2.86C99,81.22,103.15,82.8,107.28,84.49Zm-50.77.4C61.65,82.53,68,81.6,70.05,78.12s.51-9.69-.49-14.49c-2.67-12.89-5.79-25.68-9-38.43-.38-1.49-2.71-3.46-4.1-3.43s-3.34,2.38-3.55,3.91C50.17,45.47,52.51,65,56.51,84.89Zm53.08,33.85a6.91,6.91,0,0,0-6.74-6.84,6.74,6.74,0,1,0-.2,13.48A6.91,6.91,0,0,0,109.59,118.74Zm-39.25,27.5c4.57,3.33,6.67,3.07,11.7-1,5.31,4.19,7.56,4.42,11.78.93-4.79-.8-9.4-1.71-10.51-6.35L87.14,133c-2.35-.4-4.69-.93-7-1.11-.93-.07-2.69.55-2.74,1a4.84,4.84,0,0,0,1,3.21c3,3.82,2.34,6.75-2.17,8.62A47.26,47.26,0,0,1,70.34,146.24Zm-8.93-20.88a6.73,6.73,0,0,0,.25-13.45,6.73,6.73,0,1,0-.25,13.45Z"/><path class="bf78ff06-878f-4074-9942-5dc162347aad" d="M107.28,84.49c-4.13-1.69-8.31-3.27-12.36-5.15a3.56,3.56,0,0,1-1.51-2.86c1.19-17.43,3.65-34.63,10.08-51,.65-1.65,2.92-2.66,4.44-4,1.19,1.44,3.08,2.72,3.46,4.34C114.15,37.61,111.58,72.24,107.28,84.49Z"/><path class="bf78ff06-878f-4074-9942-5dc162347aad" d="M56.51,84.89c-4-19.92-6.34-39.42-3.64-59.21.21-1.53,2.29-3.88,3.55-3.91s3.72,1.94,4.1,3.43c3.25,12.75,6.37,25.54,9,38.43,1,4.8,2.57,10.95.49,14.49S61.65,82.53,56.51,84.89Z"/><path class="bf78ff06-878f-4074-9942-5dc162347aad" d="M109.59,118.74a6.83,6.83,0,0,1-13.65-.21,6.83,6.83,0,0,1,6.91-6.63A6.91,6.91,0,0,1,109.59,118.74Z"/><path class="bf78ff06-878f-4074-9942-5dc162347aad" d="M70.34,146.24a47.26,47.26,0,0,0,5.85-1.55c4.51-1.87,5.13-4.8,2.17-8.62a4.84,4.84,0,0,1-1-3.21c.05-.46,1.81-1.08,2.74-1,2.36.18,4.7.71,7,1.11-1.15,2-2.31,4.1-3.83,6.82,1.11,4.64,5.72,5.55,10.51,6.35-4.22,3.49-6.47,3.26-11.78-.93C77,149.31,74.91,149.57,70.34,146.24Z"/><path class="bf78ff06-878f-4074-9942-5dc162347aad" d="M61.41,125.36a6.73,6.73,0,1,1,.25-13.45,6.73,6.73,0,0,1-.25,13.45Z"/></svg>