<svg id="e4992e0c-fafc-4fe3-9f57-648f912bf7bb" data-name="Capa 1" xmlns="http://www.w3.org/2000/svg" viewBox="0 0 180 180"><defs><style>.b5bc682f-0703-4153-a898-83344e675078{fill:#fff;}</style></defs><title>_</title><path d="M98.59,31.2c1.81-2.86,3-5.22,4.66-7.3,6.24-8.06,15.49-8.11,21.74,0,5.63,7.29,7.58,16,8.91,24.87a123.86,123.86,0,0,1-.68,42.42c-.49,2.53-.57,4.42,1.87,6.48,22.88,19.22,20.79,49.21-4.4,65.31-19.63,12.54-47.45,11.91-66.39-1.5C41.26,145.13,40,115.93,61.65,98c2.41-2,2.95-3.67,2.4-6.66-3.3-18-3.28-36.06,1.81-53.81a46.08,46.08,0,0,1,5.5-12.32c6.46-9.94,16.9-9.79,23.63,0C96.2,27,97.21,28.9,98.59,31.2ZM96.43,91.31C97,84.39,97.9,78,98.1,71.68c.39-12.08-.49-24.08-4.68-35.54C91.53,31,89.78,24.34,83,24.39c-6.48,0-8.57,6.37-10,11.54a129.12,129.12,0,0,0-4.46,22.4A105.37,105.37,0,0,0,72,98.1c-1.57,1.11-2.85,2-4.11,2.9-21,15.22-20.78,41.74,1,55.85,18.83,12.21,38.75,12.41,58,1,23.38-13.8,24-42,1.66-57.35-2.78-1.9-3-3.5-2.29-6.46,4.18-18,4.26-36-.56-53.77A44.44,44.44,0,0,0,119.24,27c-2.79-4-7.2-3.89-10.32-.08-2,2.49-4.14,5.45-4.74,8.48-2,10.2-4.06,20.48-4.81,30.82-.59,8.28.68,16.68,1.13,25.13Z"/><path class="b5bc682f-0703-4153-a898-83344e675078" d="M96.43,91.31h4.07c-.45-8.45-1.72-16.85-1.13-25.13.75-10.34,2.78-20.62,4.81-30.82.6-3,2.7-6,4.74-8.48,3.12-3.81,7.53-3.95,10.32.08a44.44,44.44,0,0,1,6.44,13.33c4.82,17.81,4.74,35.82.56,53.77-.69,3-.49,4.56,2.29,6.46,22.38,15.33,21.72,43.55-1.66,57.35-19.29,11.39-39.21,11.19-58-1-21.77-14.11-21.95-40.63-1-55.85,1.26-.92,2.54-1.79,4.11-2.9a105.37,105.37,0,0,1-3.42-39.77A129.12,129.12,0,0,1,73,35.93c1.44-5.17,3.53-11.5,10-11.54,6.78-.05,8.53,6.57,10.42,11.75C97.61,47.6,98.49,59.6,98.1,71.68,97.9,78,97,84.39,96.43,91.31Zm23.25,3.88c3.1-16,3.84-31.39-.79-46.66-.72-2.37-3.16-4.21-4.8-6.29-1.64,2.09-3.29,4.17-4.93,6.27A1.2,1.2,0,0,0,109,49c-3.67,13.32-3.7,26.79-1.52,40.31a4.94,4.94,0,0,0,2.51,3.3A89.48,89.48,0,0,0,119.68,95.19Zm-41.84,0c2.61-.75,4.79-1.73,7-2,3.69-.36,5.11-2.2,5.18-5.73.17-8.24.77-16.48.6-24.71A43.77,43.77,0,0,0,88.3,50c-1-2.83-3.33-5.18-5.07-7.74C81.43,44.75,79,47,78,49.79a47.78,47.78,0,0,0-2.34,11.86C74.59,72.83,74.75,84,77.84,95.19Zm22,48.43c3.46,2.55,4.85,2.77,9.81.16-6.86-1.26-13-2.92-6.47-11.25H95.64c0,3.28.94,6.53-.26,8.35s-4.56,2.2-7,3.21l.54,1.83Zm19.36-30.3c-5.14.23-7.26,2.07-7.26,5.59a5,5,0,0,0,5.3,5.4c3.42,0,6-2,5.47-5.48C122.33,116.61,120.1,114.69,119.18,113.32Zm-37.46,0c-5.07.18-7.29,1.9-7.39,5.43a5.06,5.06,0,0,0,5.14,5.57c3.38.16,6.1-1.81,5.63-5.32C84.8,116.75,82.63,114.76,81.72,113.31Z"/><path d="M119.68,95.19A89.48,89.48,0,0,1,110,92.56a4.94,4.94,0,0,1-2.51-3.3c-2.18-13.52-2.15-27,1.52-40.31a1.2,1.2,0,0,1,.14-.44c1.64-2.1,3.29-4.18,4.93-6.27,1.64,2.08,4.08,3.92,4.8,6.29C123.52,63.8,122.78,79.22,119.68,95.19Z"/><path d="M77.84,95.19C74.75,84,74.59,72.83,75.65,61.65A47.78,47.78,0,0,1,78,49.79c1-2.78,3.44-5,5.24-7.53C85,44.82,87.35,47.17,88.3,50a43.77,43.77,0,0,1,2.35,12.8c.17,8.23-.43,16.47-.6,24.71C90,91,88.56,92.88,84.87,93.24,82.63,93.46,80.45,94.44,77.84,95.19Z"/><path d="M99.82,143.62,89,145.92l-.54-1.83c2.41-1,5.77-1.39,7-3.21s.26-5.07.26-8.35h7.52c-6.5,8.33-.39,10,6.47,11.25C104.67,146.39,103.28,146.17,99.82,143.62Z"/><path d="M119.18,113.32c.92,1.37,3.15,3.29,3.51,5.51.56,3.5-2,5.53-5.47,5.48a5,5,0,0,1-5.3-5.4C111.92,115.39,114,113.55,119.18,113.32Z"/><path d="M81.72,113.31c.91,1.45,3.08,3.44,3.38,5.68.47,3.51-2.25,5.48-5.63,5.32a5.06,5.06,0,0,1-5.14-5.57C74.43,115.21,76.65,113.49,81.72,113.31Z"/></svg>