<svg id="f1eeaa1e-5a73-4523-9800-be4e6c7fe3ca" data-name="Capa 1" xmlns="http://www.w3.org/2000/svg" viewBox="0 0 180 180"><defs><style>.fc1bad60-8eef-459a-a186-c870764b0580{fill:#fff;}</style></defs><title>_</title><path d="M140.58,110.65c-.63,14.2-7.12,24.95-18.37,32.84s-24.1,10.94-37.83,10.28c-26.89-1.28-43.92-16-49.32-43-3.62,1-7.19,2.17-10.85,2.95a23.74,23.74,0,0,1-7.4.58c-4.36-.48-6.55-3.87-4.76-7.89a30.43,30.43,0,0,1,6.49-9.9c8.25-7.71,16.71-15.25,25.59-22.23,7.63-6,16.62-7.31,26.06-4.77a3.81,3.81,0,0,0,1,.26C83,69.61,95,70,106.77,69c8.27-.72,16.42-1.11,23,4.07C140.26,81.4,150.21,90.49,160,99.7c3.12,3,6.48,7.3,3.47,12s-8,2.88-12.38,1.95C147.72,112.92,144.45,111.76,140.58,110.65Zm17.07-2.35A31.49,31.49,0,0,0,155.8,105a118.64,118.64,0,0,0-31-27.2c-5.49-3.35-11.6-3.57-17.87-1.8-2.27.64-4.81.44-7.22.46-7.93,0-15.86,0-23.79,0-2.09,0-4.36.41-6.26-.23-7.54-2.53-14.82-1.8-20.88,3-9.12,7.18-17.66,15.11-26.33,22.84-1.52,1.36-2.48,3.34-4.6,6.29,16.22-2.88,28.65-10.69,41.77-17.61l3.45,5.53c-5.77,3.14-11.13,6.5-16.86,9-3.74,1.63-4.38,4-4.07,7.47,1,11.08,6.7,19.32,15.56,25.55,17.09,12,43.18,12.07,60.31.13,8.88-6.19,14.64-14.39,15.75-25.46.37-3.7-.56-6.14-4.33-7.84-5.66-2.54-11-5.81-16.59-8.85.91-1.52,1.38-2.39,1.94-3.2s1.17-1.48,1.8-2.26C129.48,97.81,141.86,105.35,157.65,108.3Z"/><path class="fc1bad60-8eef-459a-a186-c870764b0580" d="M157.65,108.3c-15.79-3-28.17-10.49-41.06-17.49-.63.78-1.26,1.48-1.8,2.26s-1,1.68-1.94,3.2c5.6,3,10.93,6.31,16.59,8.85,3.77,1.7,4.7,4.14,4.33,7.84C132.66,124,126.9,132.23,118,138.42c-17.13,11.94-43.22,11.89-60.31-.13-8.86-6.23-14.58-14.47-15.56-25.55-.31-3.42.33-5.84,4.07-7.47,5.73-2.51,11.09-5.87,16.86-9l-3.45-5.53c-13.12,6.92-25.55,14.73-41.77,17.61,2.12-3,3.08-4.93,4.6-6.29,8.67-7.73,17.21-15.66,26.33-22.84,6.06-4.77,13.34-5.5,20.88-3,1.9.64,4.17.22,6.26.23,7.93,0,15.86,0,23.79,0,2.41,0,5,.18,7.22-.46,6.27-1.77,12.38-1.55,17.87,1.8a118.64,118.64,0,0,1,31,27.2A31.49,31.49,0,0,1,157.65,108.3Zm-58.53,25,1.54-2.3c-7-1.55-13.88-3.18-7-12H83.42c9.76,10.27-1.71,9.61-5.82,12.72l1.15,1.62,10.17-2.51Zm3.91-29c.36,3.52,2.29,5.88,6,5.87a5.4,5.4,0,0,0,5.79-5.62c.11-3.52-1.87-5.71-5.38-6C105.65,98.32,103.62,100.46,103,104.29Zm-40.21-1.51c.56,5.47,2.8,7.54,6.44,7.36a5.37,5.37,0,0,0,5.46-5.92c-.13-3.73-2.55-6.23-6.16-5.49C66.21,99.22,64.27,101.7,62.82,102.78Z"/><path d="M99.12,133.32l-10.2-2.49-10.17,2.51-1.15-1.62c4.11-3.11,15.58-2.45,5.82-12.72H93.68c-6.9,8.84,0,10.47,7,12Z"/><path d="M103,104.29c.59-3.83,2.62-6,6.41-5.7,3.51.24,5.49,2.43,5.38,6a5.4,5.4,0,0,1-5.79,5.62C105.32,110.17,103.39,107.81,103,104.29Z"/><path d="M62.82,102.78c1.45-1.08,3.39-3.56,5.74-4,3.61-.74,6,1.76,6.16,5.49a5.37,5.37,0,0,1-5.46,5.92C65.62,110.32,63.38,108.25,62.82,102.78Z"/></svg>