<svg id="bb9a6b30-eac1-4cd4-bf13-25d7e2b2ed5b" data-name="Capa 1" xmlns="http://www.w3.org/2000/svg" viewBox="0 0 180 180"><defs><style>.bc1d1cd6-bd37-4fae-afb2-533283577f43{fill:#fff;}</style></defs><title>_</title><path d="M43.5,50.88c-1.81-5.57-4-10.88-5.21-16.41a88.1,88.1,0,0,1-1.75-16.61A12.78,12.78,0,0,1,42.12,7.05c4.51-3.26,9-2.64,12.13,2a78.5,78.5,0,0,1,4.09,7.64c1-1.17,1.85-2.31,2.8-3.39C64.25,9.71,68,8.5,71.76,9.81A8.41,8.41,0,0,1,77.41,19a80.21,80.21,0,0,1-3,15.72c-1.49,5.12-3.83,10-6,15.46A24.85,24.85,0,0,1,80.14,61.88c.5,1,2.33,1.14,3.16,2,4,4.35,8.64,8.36,11.65,13.34A171.23,171.23,0,0,1,116.43,131a18.72,18.72,0,0,0,.59,1.85c4.09-1.79,8.29-2.8,12.19-.58a18.35,18.35,0,0,1,6.3,5.76c3.27,5.14,2,11.81-2.54,16-5,4.65-11.15,4.64-18.23,0-.19.08-.5.1-.57.25-5.1,10-13.77,14.85-24.4,16.86-8.59,1.62-17.13,3.56-25.78,4.7a24.33,24.33,0,0,1-11-1.39c-6.23-2.23-6.73-7.84-1.32-11.67A69,69,0,0,1,58,159.06c-2.56-6.82-5-13.54-7.66-20.21a3.25,3.25,0,0,0-2.27-1.4c-1.24-.2-2.57.21-3.82.06-4.35-.5-6.37-3.16-5-7.3a29,29,0,0,1,4.37-8.67,13.42,13.42,0,0,0,2.82-10c-.39-5.08-.1-10.2-.1-15.58-3.3,0-5.74.11-8.15,0-8.79-.47-14.64-6.09-15.06-14.9-.58-12.35,4.66-21.63,15.45-27.73.81-.46,1.68-.82,2.52-1.23Zm13.07,61.33c-5.24,6.5-11.24,12.14-13.73,20.7,9.76.79,16.11-3.43,20.94-10.63l3.73,1.88A26.74,26.74,0,0,1,56.6,135c-.92.52-2.09,2.24-1.83,2.91C57,143.8,59.48,149.57,62,155.32c.3.68,1.43,1.56,2,1.47,3.36-.54,6.68-1.34,10.11-2.08-5.81-9.14-3.89-17.17,5.26-22.35.87-.49,2.28,0,3.44,0a30.32,30.32,0,0,1-1,3.54c-.19.46-.89.72-1.34,1.09-7.74,6.36-7.5,12,.74,17.62.38.27.89.44,1.15.79.79,1.11,1.48,2.28,2.22,3.43-1.31.38-2.7,1.25-3.92,1.06-9.4-1.42-17.78,1.4-25.75,6a18.29,18.29,0,0,0-2.87,2.63c4.1,3.56,8.66,3.67,13,2.9q15-2.67,29.73-6.36a22.62,22.62,0,0,0,8.58-4.56c4.85-4,8.84-8.66,7.54-15.83-.27-1.51.48-3.19.7-4.8a25.91,25.91,0,0,0,.66-5.76c-1-12-5.84-22.83-10.58-33.58A228.11,228.11,0,0,0,88,74.91c-1.9-3.14-5.15-5.75-8.32-7.76a10.39,10.39,0,0,1-4.38-4.45,16.14,16.14,0,0,0-8.94-8.42L64,57.45l-2.84-1.79c3.65-9.27,7.37-18.07,10.51-27.07a28.78,28.78,0,0,0,1.22-10.67c-.19-4.17-4.22-5.59-7.29-2.7a15.33,15.33,0,0,0-4,5.63c-2.34,6.57-4.49,13.24-6.26,20C54,45.62,53.47,50.6,52.56,55.77c-8.6-2.65-14.41,1.94-19.3,7.49S26.09,75.78,28,83.82c1.11-.53,1.72-.86,2.36-1.1s1.24-.39,1.88-.58c.84,4.79.83,4.74,6.24,4.35.6,0,1.26.76,2,1.23-2.4,3-5.17,3-8.2,1.71,8.55,5.17,25.08,1.27,35-8.19l3.5,1.93c-.59.87-.88,1.37-1.24,1.83-4.22,5.3-10.14,7.64-16.38,9.5-1,.31-2.65,1.28-2.68,2-.24,4.84-.13,9.7-.13,15.36l3.3-2.47Zm-7.8-63c1.64-6.91,2.83-14,5-20.67s-.23-11.85-3.29-17.13C49.14,9.06,47,9,44.83,10.58c-2.93,2.1-4,5.23-4.1,8.55C40.27,29.9,44.05,39.64,48.77,49.24Zm84,95a8.7,8.7,0,1,0-8.61,8.71A8.66,8.66,0,0,0,132.76,144.24Z"/><path class="bc1d1cd6-bd37-4fae-afb2-533283577f43" d="M56.57,112.21l-2.94-2.8-3.3,2.47c0-5.66-.11-10.52.13-15.36,0-.74,1.64-1.71,2.68-2,6.24-1.86,12.16-4.2,16.38-9.5.36-.46.65-1,1.24-1.83l-3.5-1.93c-9.9,9.46-26.43,13.36-35,8.19,3,1.25,5.8,1.26,8.2-1.71-.72-.47-1.38-1.28-2-1.23-5.41.39-5.4.44-6.24-4.35-.64.19-1.28.34-1.88.58s-1.25.57-2.36,1.1c-1.93-8,.24-14.89,5.24-20.56S44,53.12,52.56,55.77c.91-5.17,1.45-10.15,2.72-14.94,1.77-6.74,3.92-13.41,6.26-20a15.33,15.33,0,0,1,4-5.63c3.07-2.89,7.1-1.47,7.29,2.7a28.78,28.78,0,0,1-1.22,10.67c-3.14,9-6.86,17.8-10.51,27.07L64,57.45l2.41-3.17a16.14,16.14,0,0,1,8.94,8.42,10.39,10.39,0,0,0,4.38,4.45c3.17,2,6.42,4.62,8.32,7.76a228.11,228.11,0,0,1,13.68,25.56c4.74,10.75,9.55,21.62,10.58,33.58a25.91,25.91,0,0,1-.66,5.76c-.22,1.61-1,3.29-.7,4.8,1.3,7.17-2.69,11.82-7.54,15.83A22.62,22.62,0,0,1,94.79,165Q80,168.66,65.06,171.36c-4.29.77-8.85.66-13-2.9A18.29,18.29,0,0,1,55,165.83c8-4.55,16.35-7.37,25.75-6,1.22.19,2.61-.68,3.92-1.06-.74-1.15-1.43-2.32-2.22-3.43-.26-.35-.77-.52-1.15-.79C73,149,72.8,143.34,80.54,137c.45-.37,1.15-.63,1.34-1.09a30.32,30.32,0,0,0,1-3.54c-1.16,0-2.57-.48-3.44,0-9.15,5.18-11.07,13.21-5.26,22.35-3.43.74-6.75,1.54-10.11,2.08-.6.09-1.73-.79-2-1.47-2.53-5.75-5-11.52-7.24-17.38-.26-.67.91-2.39,1.83-2.91a26.74,26.74,0,0,0,10.91-10.87l-3.73-1.88C59,129.48,52.6,133.7,42.84,132.91,45.33,124.35,51.33,118.71,56.57,112.21ZM41,75l1.53,0c.94-1.35,2.46-2.61,2.7-4.07a2.93,2.93,0,0,0-3.57-3.52,5.13,5.13,0,0,0-3.26,3.52C38.31,72.19,40.09,73.62,41,75Z"/><path class="bc1d1cd6-bd37-4fae-afb2-533283577f43" d="M48.77,49.24c-4.72-9.6-8.5-19.34-8-30.11.14-3.32,1.17-6.45,4.1-8.55C47,9,49.14,9.06,50.52,11.44,53.58,16.72,56,22,53.81,28.57S50.41,42.33,48.77,49.24Z"/><path class="bc1d1cd6-bd37-4fae-afb2-533283577f43" d="M132.76,144.24a8.7,8.7,0,1,1-8.63-8.7A8.66,8.66,0,0,1,132.76,144.24Z"/><path d="M41,75c-.94-1.36-2.72-2.79-2.6-4a5.13,5.13,0,0,1,3.26-3.52,2.93,2.93,0,0,1,3.57,3.52C45,72.39,43.5,73.65,42.56,75Z"/></svg>