<svg id="b44514b8-a95b-4f87-b061-a053a74f3d76" data-name="Capa 1" xmlns="http://www.w3.org/2000/svg" viewBox="0 0 180 180"><defs><style>.a3f132db-3964-4dde-ad65-7b849d000da0{fill:#fff;}</style></defs><title>_</title><path d="M90.46,10.81c.9-1.13,1.44-1.88,2-2.56,4.44-5,11-5.11,14.42.61a39.81,39.81,0,0,1,5.47,15.47c.85,8,0,16.07.07,24.11A6.64,6.64,0,0,0,114,52.76C125,63.42,125.7,76.44,115.59,88c-1.66,1.9-1,3.19-.31,4.92a159,159,0,0,1,12.08,44.27,14.51,14.51,0,0,1,.26,2.77c-.46,6.33-.09,11.61,4.86,17.26,6.75,7.7-.1,20.18-11.24,21.51-4.21.5-8.68-1.26-13-1.92-1.68-.25-3.56-.82-5.08-.35a41.57,41.57,0,0,1-25.4,0,7.5,7.5,0,0,0-5,.51c-6.6,3.19-13.09,3.28-19.36-.48-9-5.41-9.85-16.78-1.69-23.37,2.09-1.68,2.47-3.17,2.11-5.68-1.54-10.75,1.17-21.09,4-31.28,2.18-7.89,5.17-15.56,8-23.24.76-2.06,1-3.35-.7-5.21-9.74-11-9-24.61,1.8-34.58A4.9,4.9,0,0,0,68.52,48c-1.7-10.3-1.58-20.6,1.35-30.69a29.08,29.08,0,0,1,3.56-7.91c4-6.07,10.56-6.3,15.29-.78C89.23,9.19,89.68,9.81,90.46,10.81ZM70.21,92.71c-6.48,15.21-11.38,30.5-12.65,46.78-.25,3.2,0,6.43,0,10,7.78-1.24,13.91-.23,18.81,4.68,5.26,5.28,5.2,11.44,2.17,17.76,8.15,3.35,17.61,3.22,23.92-.29-2.4-4.68-3.1-9.54-.24-14.29a16.34,16.34,0,0,1,16.46-8.24c4.1.4,5.14-1.29,4.7-4.47-1.39-9.92-2.54-19.92-4.77-29.67-1.74-7.62-5-14.92-7.56-22.47C97,99.7,84.73,100.06,70.21,92.71ZM90.11,31.8a32.9,32.9,0,0,0-.38-4.73c-1.26-4.7-2.12-9.6-4.1-14-2.15-4.77-6-4.68-8.62-.2a24.65,24.65,0,0,0-2.56,6.21,63.64,63.64,0,0,0-.62,30.3c.62,2.84.17,4.37-2.21,6.18-11.52,8.79-11.34,23.55.52,31.87,10.31,7.24,21.54,7.82,32.79,2.38,15.53-7.5,17.19-24.38,3.57-34.88-1.78-1.37-2-2.51-1.59-4.63,2.44-11.32,2.46-22.63-1.26-33.72-1-3.08-2.16-6.95-6.19-6.84-3.7.1-5,3.73-5.84,6.75C92.28,21.13,91.43,25.91,90.11,31.8Zm-27,144c7.27-.71,13.12-5.57,13.26-11.44s-5-11.11-12-11.11a18.77,18.77,0,0,0-10.2,3.19c-5.71,4-5.38,11.75.41,15.73C57.09,173.93,60.27,174.67,63.13,175.85Zm54.39-.68c7.15,0,13.19-5,13.23-10.95s-5.87-11.1-13-11.16S104.6,158,104.54,164,110.34,175.14,117.52,175.17Z"/><path class="a3f132db-3964-4dde-ad65-7b849d000da0" d="M70.21,92.71c14.52,7.35,26.82,7,40.8-.18,2.6,7.55,5.82,14.85,7.56,22.47,2.23,9.75,3.38,19.75,4.77,29.67.44,3.18-.6,4.87-4.7,4.47a16.34,16.34,0,0,0-16.46,8.24c-2.86,4.75-2.16,9.61.24,14.29-6.31,3.51-15.77,3.64-23.92.29,3-6.32,3.09-12.48-2.17-17.76-4.9-4.91-11-5.92-18.81-4.68,0-3.6-.21-6.83,0-10C58.83,123.21,63.73,107.92,70.21,92.71ZM66.43,124a24.4,24.4,0,0,0,13.84,6.61c5.14.62,7.85-1.85,6.64-6.89s-3.29-9.64-5.15-14.87l-3.5,2.25c1.86,5.27,3.57,10.12,5.29,15l-1.4,1.22L68.69,122Zm47.91.28c-1.37-2.35-2.56-2.81-5.07-1.36-3.28,1.9-7.06,2.94-10.62,4.35l-1.31-1.37c1.77-4.86,3.54-9.72,5.41-14.88l-3.7-2c-1.82,5.26-3.86,10-5.06,15-1,4.26,1.15,7,4.91,6.79A23.69,23.69,0,0,0,114.34,124.25Z"/><path class="a3f132db-3964-4dde-ad65-7b849d000da0" d="M90.11,31.8c1.32-5.89,2.17-10.67,3.51-15.3.87-3,2.14-6.65,5.84-6.75,4-.11,5.16,3.76,6.19,6.84,3.72,11.09,3.7,22.4,1.26,33.72-.45,2.12-.19,3.26,1.59,4.63,13.62,10.5,12,27.38-3.57,34.88-11.25,5.44-22.48,4.86-32.79-2.38-11.86-8.32-12-23.08-.52-31.87,2.38-1.81,2.83-3.34,2.21-6.18a63.64,63.64,0,0,1,.62-30.3A24.65,24.65,0,0,1,77,12.88c2.66-4.48,6.47-4.57,8.62.2,2,4.39,2.84,9.29,4.1,14A32.9,32.9,0,0,1,90.11,31.8Zm12.94,19.43c1.44-10.83,2.71-21.25-3.33-31.16-1.67,1.82-3.16,3.68-3.38,5.68a136.19,136.19,0,0,0-1.07,17.7C95.39,50,95.72,50,103.05,51.23Zm-25,.57c3-1.78,7.34-.38,7.32-4.93,0-7.09-.28-14.19-.83-21.26-.15-1.93-1.73-3.76-2.65-5.63l-1.6.31C75.16,30.1,76.28,40.5,78.06,51.8ZM88.69,74.24c.11,1.82.75,3.6.14,4.63s-2.5,1.65-3.84,2.45H95.88c-4.57-.66-5.35-3.09-3-7.08Zm13.07-12.68c-1.6,2.23-3.11,3.43-3.13,4.66,0,1,1.78,3.06,2.56,3,1.27-.16,3.09-1.56,3.31-2.7S103.19,64,101.76,61.56ZM84.07,66.13c-2.38-1.47-3.79-3-4.87-2.82s-2.57,2-2.75,3.28c-.11.78,1.87,2.6,2.92,2.61C80.58,69.2,81.79,67.71,84.07,66.13ZM91.8,49c-.4-3.11-.75-5.87-1.1-8.63C89,48.91,89,48.91,91.8,49Z"/><path class="a3f132db-3964-4dde-ad65-7b849d000da0" d="M63.13,175.85c-2.86-1.18-6-1.92-8.54-3.63-5.79-4-6.12-11.69-.41-15.73a18.77,18.77,0,0,1,10.2-3.19c7.05,0,12.15,5.23,12,11.11S70.4,175.14,63.13,175.85Z"/><path class="a3f132db-3964-4dde-ad65-7b849d000da0" d="M117.52,175.17c-7.18,0-13-5.07-13-11.15s6-11,13.18-11,13.07,5.12,13,11.16S124.67,175.21,117.52,175.17Z"/><path d="M66.43,124l2.26-2,13.46,5.25,1.4-1.22c-1.72-4.85-3.43-9.7-5.29-15l3.5-2.25c1.86,5.23,4,9.94,5.15,14.87s-1.5,7.51-6.64,6.89A24.4,24.4,0,0,1,66.43,124Z"/><path d="M114.34,124.25A23.69,23.69,0,0,1,98.9,130.7c-3.76.2-5.94-2.53-4.91-6.79,1.2-5,3.24-9.71,5.06-15l3.7,2c-1.87,5.16-3.64,10-5.41,14.88l1.31,1.37c3.56-1.41,7.34-2.45,10.62-4.35C111.78,121.44,113,121.9,114.34,124.25Z"/><path d="M103.05,51.23C95.72,50,95.39,50,95.27,43.45a136.19,136.19,0,0,1,1.07-17.7c.22-2,1.71-3.86,3.38-5.68C105.76,30,104.49,40.4,103.05,51.23Z"/><path d="M78.06,51.8c-1.78-11.3-2.9-21.7,2.24-31.51L81.9,20c.92,1.87,2.5,3.7,2.65,5.63.55,7.07.79,14.17.83,21.26C85.4,51.42,81.08,50,78.06,51.8Z"/><path d="M88.69,74.24h4.22c-2.38,4-1.6,6.42,3,7.08H85c1.34-.8,3.16-1.29,3.84-2.45S88.8,76.06,88.69,74.24Z"/><path d="M101.76,61.56c1.43,2.4,3,3.83,2.74,4.92s-2,2.54-3.31,2.7c-.78.1-2.59-1.92-2.56-3C98.65,65,100.16,63.79,101.76,61.56Z"/><path d="M84.07,66.13c-2.28,1.58-3.49,3.07-4.7,3.07-1.05,0-3-1.83-2.92-2.61.18-1.27,1.6-3.07,2.75-3.28S81.69,64.66,84.07,66.13Z"/><path d="M91.8,49c-2.84-.05-2.84-.05-1.1-8.63C91.05,43.09,91.4,45.85,91.8,49Z"/></svg>