<svg id="fb5e51af-e6dc-4145-a9a2-f4f11cdef9e2" data-name="Capa 1" xmlns="http://www.w3.org/2000/svg" viewBox="0 0 180 180"><defs><style>.f8239493-0971-4301-826d-7630885f4498{fill:#fff;}</style></defs><title>_</title><path d="M40.5,111.28c-3.91,0-7.55.11-11.19,0-9.87-.33-16.24-6.59-16.88-16.48A31.44,31.44,0,0,1,30.49,64.3c1.35-.65,2.71-1.27,3.66-1.72-2.29-7.79-4.91-15.2-6.55-22.83-1-4.6-.66-9.54-.52-14.31a13.44,13.44,0,0,1,1.83-5.73c2.23-4.1,5.51-7.16,10.44-7.11,4.7,0,7,3.59,8.89,7.3.85,1.66,1.52,3.41,2.36,5.3a58.62,58.62,0,0,1,5-5.45c6.1-5.18,14.57-2.44,15.51,5.45.56,4.75-.46,9.79-1.37,14.58a63.88,63.88,0,0,1-3.58,10.8c-1.34,3.53-2.94,7-4,9.44,4.08,4.56,7.63,8.71,11.43,12.62.73.75,2.46.91,3.66.76,11.76-1.47,23.49-1.87,35.21.27,12.79,2.33,23.21,8.47,30.88,19.07.35.49.79.93,1.19,1.39,7.86-7.58,14.33-8.94,20.9-4.48a14.39,14.39,0,0,1,5.26,17.15c-2.83,7.11-9,9.87-18.86,8.31a78.66,78.66,0,0,1-.92,9.64,77.4,77.4,0,0,1-3.61,12.73c-3.63,9.19-9.89,15.66-20.2,16.79-9.79,1.08-19.61,1.94-29.44,2.52a20.67,20.67,0,0,1-8.13-1.63c-6.56-2.45-8-8-3.36-13.7-4.87-.62-9.54-1.34-14.23-1.68-.73-.05-1.75,1.55-2.37,2.56C65.36,149.2,60,154.12,51.3,153.92c-6.09-.13-9.69-4-7.65-9.71C45.88,138,46.41,133,41.84,127.6c-1.57-1.85-1.56-5.27-1.76-8A64.37,64.37,0,0,1,40.5,111.28ZM69.33,96.57c-1.73,1.6-3,3.3-4.68,4.22a148.63,148.63,0,0,1-15.27,7.47c-2.48,1-3.66,2.24-4.09,4.7-1.49,8.52-.37,16,7.81,20.34-1.71,4-3.61,7.56-4.81,11.37-1,3.32.37,4.75,3.89,4.63a13.74,13.74,0,0,0,10.87-6.13c2.06-2.83,3.69-6,5.33-8.68l23.05,2.38c-5.71-9.39-10.78-18.06-4.51-27.48,5.25-7.89,14.16-8.88,23.08-9.64v4.09c-4.53,1.2-9,1.94-13,3.55-7,2.8-9.26,7.56-7.4,14.93,2,7.82,6.9,13.39,13.7,17.45l6.73,4c-3.64,0-6.17-.16-8.67,0a95,95,0,0,0-10.5,1.33c-1,.19-2.54,1.42-2.58,2.24s1.11,2.27,2.09,2.81a15.19,15.19,0,0,0,5,1.59c11.63,1.65,23-.31,34.24-2.95a15.31,15.31,0,0,0,9.43-6.5c9.75-14,9.93-28.69,2.39-43.38-4.92-9.59-13.18-15.91-23.67-19s-21-3.47-31.64-2.57c-5,.42-10,1.16-15,1.77-2.31-6-5.58-10.88-11.76-13.23L57,69.43,53.86,67.5c4-10.2,8-19.76,11.43-29.55a31,31,0,0,0,1.26-11.58c-.23-4.34-4.4-5.84-7.74-3a14.26,14.26,0,0,0-3.76,4.71,82.24,82.24,0,0,0-5.22,13.4c-2.17,8.43-3.72,17-5.61,25.89-8.79-2.5-15.21,2.15-20.59,8.21A24.56,24.56,0,0,0,17.72,98c1.15-.45,1.82-.76,2.52-1s1.56-.43,2.4-.66c.41,5.42,1.31,6,6.12,4.9.73-.17,1.69.62,2.54,1l0,1.17-8,2.26c16.32,2.6,30-1.55,42.33-11.43ZM39.58,61.29l1.1-.66c.27-1.32.52-2.64.82-4,1.36-6,2.13-12.29,4.25-18C48.3,31.7,46,26,42.91,20.3c-2-3.66-5-4.13-7.61-.94a16.66,16.66,0,0,0-3.74,8.37c-1,11.31,2.83,21.65,7.33,31.77C39.15,60.08,39.35,60.69,39.58,61.29ZM157.43,111a9.45,9.45,0,1,0-9.54-9.34A9.59,9.59,0,0,0,157.43,111Z"/><path class="f8239493-0971-4301-826d-7630885f4498" d="M69.33,96.57l-3.77-2.39c-12.35,9.88-26,14-42.33,11.43l8-2.26,0-1.17c-.85-.35-1.81-1.14-2.54-1-4.81,1.14-5.71.52-6.12-4.9-.84.23-1.63.41-2.4.66s-1.37.54-2.52,1a24.56,24.56,0,0,1,5.91-22.41c5.38-6.06,11.8-10.71,20.59-8.21,1.89-8.88,3.44-17.46,5.61-25.89a82.24,82.24,0,0,1,5.22-13.4,14.26,14.26,0,0,1,3.76-4.71c3.34-2.81,7.51-1.31,7.74,3A31,31,0,0,1,65.29,38c-3.4,9.79-7.43,19.35-11.43,29.55L57,69.43l2.34-3.53c6.18,2.35,9.45,7.23,11.76,13.23,5-.61,10-1.35,15-1.77,10.68-.9,21.28-.5,31.64,2.57s18.75,9.43,23.67,19c7.54,14.69,7.36,29.41-2.39,43.38a15.31,15.31,0,0,1-9.43,6.5c-11.28,2.64-22.61,4.6-34.24,2.95a15.19,15.19,0,0,1-5-1.59c-1-.54-2.15-1.89-2.09-2.81s1.55-2,2.58-2.24a95,95,0,0,1,10.5-1.33c2.5-.2,5,0,8.67,0l-6.73-4c-6.8-4.06-11.73-9.63-13.7-17.45-1.86-7.37.35-12.13,7.4-14.93,4.07-1.61,8.49-2.35,13-3.55V99.75c-8.92.76-17.83,1.75-23.08,9.64-6.27,9.42-1.2,18.09,4.51,27.48l-23.05-2.38c-1.64,2.71-3.27,5.85-5.33,8.68a13.74,13.74,0,0,1-10.87,6.13c-3.52.12-4.94-1.31-3.89-4.63,1.2-3.81,3.1-7.4,4.81-11.37C44.92,129,43.8,121.48,45.29,113c.43-2.46,1.61-3.71,4.09-4.7a148.63,148.63,0,0,0,15.27-7.47C66.34,99.87,67.6,98.17,69.33,96.57ZM32.11,88.42l1.76,0c1-1.49,2.54-2.9,2.73-4.48a3.13,3.13,0,0,0-4-3.62,5.58,5.58,0,0,0-3.37,3.9C29.12,85.51,31.06,87,32.11,88.42Z"/><path class="f8239493-0971-4301-826d-7630885f4498" d="M39.58,61.29c-.23-.6-.43-1.21-.69-1.79C34.39,49.38,30.52,39,31.56,27.73a16.66,16.66,0,0,1,3.74-8.37c2.6-3.19,5.63-2.72,7.61.94C46,26,48.3,31.7,45.75,38.63c-2.12,5.76-2.89,12-4.25,18-.3,1.31-.55,2.63-.82,4Z"/><path class="f8239493-0971-4301-826d-7630885f4498" d="M157.43,111a9.45,9.45,0,1,1,9.51-9.38A9.57,9.57,0,0,1,157.43,111Z"/><path d="M32.11,88.42c-1.05-1.42-3-2.91-2.89-4.24a5.58,5.58,0,0,1,3.37-3.9,3.13,3.13,0,0,1,4,3.62c-.19,1.58-1.77,3-2.73,4.48Z"/></svg>