<svg id="ac835496-ffc4-4536-8475-41f830f3a6af" data-name="Capa 1" xmlns="http://www.w3.org/2000/svg" viewBox="0 0 180 180"><defs><style>.bff988be-f5d5-483c-8727-3a0a6d654893{fill:#fff;}</style></defs><title>_</title><path d="M132.5,83.36C147.59,87.7,152,93.66,152,109.07c0,14,0,28-.07,42-.12,15.63-8,23.33-23.7,23.31q-40.09,0-80.18-.09c-14.24,0-22.55-8.29-22.6-22.56-.06-13.68,0-27.36,0-41,.06-17.29,3.22-21.8,19.46-27.49,0-8.82-.87-17.86.22-26.67,1.33-10.67,4.31-21.14,6.6-31.69a7.71,7.71,0,0,1,.76-1.72C56.21,15.66,60.65,8.71,70,8.62,78.92,8.54,83.47,15,87.16,22.11c.35.69.78,1.34,1.51,2.59,1.19-2.05,2.15-3.72,3.13-5.38,8.45-14.38,22.66-14.51,31.05-.07,6.63,11.42,8.74,24.19,9.54,37.11C132.94,65.27,132.5,74.24,132.5,83.36ZM53.26,91.25c-2.51,0-4.84-.11-7.15,0-7.47.42-12.9,5.55-13,12.91q-.29,24.76,0,49.52c.1,8,5.56,13.12,13.59,13.14q42,.1,83.95,0c8.11,0,13.51-5.07,13.61-13.09q.28-24.75,0-49.52c-.08-7.4-5.47-12.55-12.91-13-2.3-.13-4.62,0-7.2,0,.41-6.19,1-11.79,1.13-17.4.41-15.48-.53-30.84-6.41-45.41-2.21-5.48-4.47-12.16-11.61-12.1S97.58,23,95.85,28.6c-2.55,8.2-4.95,16.68-5.59,25.18C89.33,66.05,90,78.45,90,91.12l-3.27-.3c.11-1,.17-1.61.24-2.22,2.11-18.27,1.91-36.43-3.33-54.21a51,51,0,0,0-6-13.22c-4.45-6.84-10.43-6.79-15.12-.16a40,40,0,0,0-4.7,9.18c-5.2,14.1-6.15,28.81-5.72,43.65C52.3,79.46,52.85,85.06,53.26,91.25Z"/><path class="bff988be-f5d5-483c-8727-3a0a6d654893" d="M53.26,91.25c-.41-6.19-1-11.79-1.12-17.41-.43-14.84.52-29.55,5.72-43.65A40,40,0,0,1,62.56,21c4.69-6.63,10.67-6.68,15.12.16a51,51,0,0,1,6,13.22C88.9,52.17,89.1,70.33,87,88.6c-.07.61-.13,1.23-.24,2.22l3.27.3c0-12.67-.69-25.07.24-37.34.64-8.5,3-17,5.59-25.18,1.73-5.58,4.35-12.19,11.44-12.25s9.4,6.62,11.61,12.1c5.88,14.57,6.82,29.93,6.41,45.41-.15,5.61-.72,11.21-1.13,17.4,2.58,0,4.9-.11,7.2,0,7.44.4,12.83,5.55,12.91,13q.27,24.77,0,49.52c-.1,8-5.5,13.07-13.61,13.09q-42,.1-83.95,0c-8,0-13.49-5.12-13.59-13.14q-.32-24.75,0-49.52c.08-7.36,5.51-12.49,13-12.91C48.42,91.14,50.75,91.25,53.26,91.25ZM115.89,91c0-11.62.4-22.87-.18-34.07-.27-5-2.22-10.07-4-14.9-.64-1.74-3-4-4.45-4s-3.1,2.55-4.53,4.09a5.76,5.76,0,0,0-.93,2.14C96.88,59.5,97,75.05,98.71,91Zm-37.2.26C80.42,75.6,80.63,60.59,76,46c-1-3.09-3.93-5.54-6-8.29-2,2.77-5,5.25-6,8.35-4.33,13.85-4.39,28.13-2.87,42.43A4,4,0,0,0,64,91.11C68.68,91.4,73.38,91.24,78.69,91.24Zm22.5,61.6c-1.16-.5-2.35-.93-3.47-1.5-2.08-1.07-4.73-1.77-6-3.47-.81-1.13,0-4,.91-5.63,1.66-2.8.83-3.7-2-3.86a31.42,31.42,0,0,0-4.23,0c-2.58.2-3.69,1.5-1.68,3.57s2.7,4.29.84,6.18c-1.54,1.55-4.08,2.11-6.16,3.15-1.1.55-2.16,1.2-4,2.24,6.07,2.61,9.87.92,13.3-2.48C92.22,154.64,96.06,156.07,101.19,152.84Zm10.1-37a6.67,6.67,0,1,0,6.79,6.88A6.79,6.79,0,0,0,111.29,115.84Zm-38.42,6.73a6.75,6.75,0,1,0-6.57,6.61A6.79,6.79,0,0,0,72.87,122.57Z"/><path d="M115.89,91H98.71C97,75.05,96.88,59.5,101.83,44.25a5.76,5.76,0,0,1,.93-2.14c1.43-1.54,3-4,4.53-4.09s3.81,2.25,4.45,4c1.75,4.83,3.7,9.86,4,14.9C116.29,68.11,115.89,79.36,115.89,91Z"/><path d="M78.69,91.24c-5.31,0-10,.16-14.68-.13a4,4,0,0,1-2.8-2.65C59.69,74.16,59.75,59.88,64.08,46c1-3.1,3.92-5.58,6-8.35,2,2.75,5,5.2,6,8.29C80.63,60.59,80.42,75.6,78.69,91.24Z"/><path d="M101.19,152.84c-5.13,3.23-9,1.8-12.41-1.79-3.43,3.4-7.23,5.09-13.3,2.48,1.84-1,2.9-1.69,4-2.24,2.08-1,4.62-1.6,6.16-3.15,1.86-1.89,1.12-4.15-.84-6.18s-.9-3.37,1.68-3.57a31.42,31.42,0,0,1,4.23,0c2.8.16,3.63,1.06,2,3.86-.94,1.6-1.72,4.5-.91,5.63,1.22,1.7,3.87,2.4,6,3.47C98.84,151.91,100,152.34,101.19,152.84Z"/><path d="M111.29,115.84a6.81,6.81,0,0,1,6.79,6.88,6.75,6.75,0,1,1-6.79-6.88Z"/><path d="M72.87,122.57a6.75,6.75,0,1,1-6.46-6.72A6.76,6.76,0,0,1,72.87,122.57Z"/></svg>