<svg id="ff3b7c27-677f-40a3-a9fb-8d3e42eb0199" data-name="Capa 1" xmlns="http://www.w3.org/2000/svg" viewBox="0 0 198.44 224.83"><defs><style>.b733e9e7-2b55-44d2-92a6-65efe42dac30{fill:#060604;}.f8fc06c2-0e70-4a56-a246-b90b61066088{fill:#f7e500;}.b9a9aeba-a5e8-490e-b45b-e7648b3b3a51{fill:#fa9000;}.aee9dfdb-e16f-4cf6-958e-3e79955832f2{fill:#00a9f7;}.b36baf15-6bdb-493e-88f5-137eea4fc64a{fill:#fdfdfd;}.a1548240-9a92-4aef-844b-a9ec22789baf{fill:#c8d2d7;}</style></defs><title>_</title><path class="b733e9e7-2b55-44d2-92a6-65efe42dac30" d="M105.81,0c1.53,2,3.93,1.11,5.87,1.61,28.82,7.38,42.94,38.94,28.85,65-1.29,2.39-1.51,4-.08,6.62,5.29,9.69,7,20.29,6.71,31.26,0,1.32-.67,3-.13,3.93,4.81,8.61,2.29,17.94,2.66,26.94.14,3.36.79,4.81,4.33,5.59,9.75,2.13,19.19,5.26,27.66,10.77,11,7.14,15.34,16.73,12.13,26.83-2.2,6.88-7.23,11.44-13.13,15.07-11.07,6.83-23.46,10-36.09,12.16-5,.87-9.18,2.35-13.06,6A44,44,0,0,1,104.84,224c-.37,0-.69.55-1,.84h-15C87.6,223.18,85.6,223.45,84,223c-8.17-2.22-15.58-5.93-21.53-11.92a16.48,16.48,0,0,0-9.84-5,120.43,120.43,0,0,1-12.23-2.34c-11.8-3-23.43-6.54-32.62-15.11C-2.56,179-2.53,166,7.54,156.21A45.1,45.1,0,0,1,19.93,148c10.29-4.85,21.23-7.51,32.42-9.23,5.58-.86,5.59-.85,7.54-3.76-10.58-5.74-11.38-7.18-13.14-19.63Q43.24,90.4,39.31,65.54c-1.67-10.69,2-16.89,12.56-19.65,3.17-.84,4.47-2.17,4.81-5.6A44.14,44.14,0,0,1,90,1.77c1.62-.42,3.67,0,4.84-1.77Zm25.95,164.72c6,.35,10.49-2.62,10.66-8.27.37-12.29.11-24.6.11-37.76a23.2,23.2,0,0,1-7.8,4.59c-3.8,1.17-7.4-.13-11-1.14,0,11.34-.09,22.45,0,33.55C123.83,160.91,126.32,163.51,131.76,164.72ZM51.47,146.23c-12.36,2.3-24.27,5.11-34.69,12.07-12.53,8.37-12.41,20,.18,28.31,7.86,5.22,16.7,8.08,25.79,10.15,26,5.91,52.4,6.74,78.9,4.62,15.93-1.27,31.69-3.65,46.63-9.74,5.73-2.33,11.18-5.21,15.29-10,5.14-6,5.14-12.59,0-18.47a30.77,30.77,0,0,0-8.14-6.51,79.82,79.82,0,0,0-21.34-8.09c-1.42-.34-3.48-2.3-4.29.74-.7,2.63.66,3.85,3.21,4.38a49.47,49.47,0,0,1,16.63,6.43c8.5,5.43,8.52,13.15.07,18.57-5.81,3.72-12.33,5.77-19,7.13-32.3,6.59-64.76,6.73-97.26,1.81-9.68-1.47-19.35-3.52-27.89-8.72-9.08-5.53-9.07-13.42-.05-19.07,5.7-3.59,12.12-5.47,18.62-6.78C48,152.29,50.7,151,51.47,146.23ZM142.42,170c-8.57,2.82-10.13,3-18-.38-2.42-1-2.4.55-3.11,1.65-4.6,7.06-11.29,9.86-18.74,7.83C94.88,177.06,90.22,171,90,162.59c-.12-4.48,0-9,0-13.47,0-10.68,0-10.65-10.51-13.2-3.58-.88-6.79-1.75-10.19,1.21-12.12,10.58-17.82,23.63-16.49,39.75.2,2.43,1,3.54,3.43,3.87,26.31,3.59,52.62,4.27,79,.22,7.25-1.12,7.4-1.27,7.44-8.56C142.59,171.76,142.5,171.1,142.42,170ZM138.6,45.29h-.15a18.22,18.22,0,0,0,0-4c-1.2-5.05-.75-11.06-5.73-14.28-13.13-8.48-35.63-5.06-45.9,6.66a17.32,17.32,0,0,0,1,23.87c8.18,7.9,18.24,10.91,29.25,10,15.08-1.26,19.33-5,21.26-17.29C138.52,48.63,138.5,47,138.6,45.29ZM123.66,15.65C109.69,3.57,87.38,5.22,74.18,19a37.41,37.41,0,0,0-.1,51.47C86.74,83.77,109,86.21,122.14,75c-3.6,0-6.48.08-9.35,0C101.45,74.61,91.22,71.33,83,63.1,71.79,51.77,72,37,83.71,26.17,95,15.8,108.62,13.77,123.66,15.65ZM116,125.7c-6.24,2.45-11.63,1.57-17-1.4-10.49-5.76-22.09-9.54-31.44-18.64,0,4.45,0,8.08,0,11.7,0,5.43,2.84,8.65,8,10q6.74,1.76,13.51,3.41c7,1.74,8.43,3.47,8.46,10.63,0,7.32-.15,14.65.08,22a9.07,9.07,0,0,0,9,8.84c4.72.11,9.21-3.17,9.32-7.89C116.19,151.56,116,138.8,116,125.7ZM67.2,74.18c-3.2,12.09,1.69,25.2,12.43,31.68,8.36,5,17.31,9.12,26.13,13.36,3.89,1.88,7.18.24,9.33-3.31a7.27,7.27,0,0,0-2.68-10c-2.39-1.47-5.08-2.46-7.49-3.91-8.16-5-18.89-6.32-23.3-16.57-.16-.37-.79-.57-1.22-.8A47.56,47.56,0,0,1,67.2,74.18Zm-5,52.77c-3.68-8.48-1.91-17-2.31-25.34-.21-4.47.13-9-.53-13.4S58,79.4,59.21,75.38c2.34-7.47.6-14.23-1.89-21.08-.36-1-.18-2.22-2.06-2.13a8.89,8.89,0,0,0-8.73,10.4Q50.66,91.12,55,119.63C55.53,123.38,57.58,125.92,62.23,127Zm77.56-26a56.87,56.87,0,0,0-4.48-21.69c-.4-1-.79-3.47-2.3-2.27-3.64,2.86-7.31,5.64-11.19,8.16-.8.53-.18,1.57.1,2.29a38.68,38.68,0,0,1,1.93,20.47c-.63,3.94,1.22,6.92,5.11,7.92,4.24,1.09,7.46-.62,9.29-4.67A21.55,21.55,0,0,0,139.79,100.91ZM71.56,208.5c14.4,12.15,39.93,11,51,.05A249.32,249.32,0,0,1,71.56,208.5Zm77-48.42c.88,5.77,1.59,10.87,1.17,16-.18,2.21,1.13,2,2.46,1.66,4.93-1.42,9.82-3,14.16-5.86,2.68-1.8,2.8-3.31,0-5.15C161.15,163.27,155.28,161.66,148.58,160.08Zm-102.39,0c-6.46,1.57-12.31,3.2-17.52,6.58-3,1.95-2.81,3.6,0,5.45,4.37,2.83,9.26,4.29,14.19,5.65,1.69.46,2.44,0,2.14-1.94C44.24,170.73,45.8,165.72,46.19,160.13ZM98.31,90.55c3,1.48,6.06,3,9.09,4.47s6,3,9.26,4.65c.38-2.94-.41-5.3-1-7.7-.62-2.7-1.45-4.29-5-3.19A53.94,53.94,0,0,1,98.31,90.55Z"/><path class="b733e9e7-2b55-44d2-92a6-65efe42dac30" d="M172.24,134.92c-2.49-.6-3.79-2.1-3.51-4.65s-.66-3.29-3.08-3.08-4.37-.84-4.29-3.6c.08-2.6,1.8-3.9,4.34-3.65s3.3-.52,3.05-3,.9-4.23,3.64-4.27,3.72,1.79,3.52,4.29c-.15,2,.2,3.23,2.62,3,2.67-.29,4.86.79,5,3.59s-2.11,3.93-4.77,3.67-3,1.27-2.84,3.37C176.09,133.15,174.76,134.55,172.24,134.92Z"/><path class="b733e9e7-2b55-44d2-92a6-65efe42dac30" d="M187.29,33.73c-2.29-.51-3.71-1.72-3.55-4.13s-.1-3.91-3.1-3.54c-2.52.31-4.27-.83-4.26-3.6s1.84-3.79,4.32-3.56,3.3-.71,3-3.1c-.29-2.59,1.07-4.41,3.56-4.44s4,1.69,3.6,4.34c-.38,2.89,1.13,3.39,3.5,3.19s4,1.17,4.05,3.4c.09,2.52-1.5,4.08-4.14,3.77-3.12-.35-3.62,1.22-3.43,3.8S189.38,33.33,187.29,33.73Z"/><path class="f8fc06c2-0e70-4a56-a246-b90b61066088" d="M51.47,146.23c-.77,4.8-3.48,6.06-7.3,6.82-6.5,1.31-12.92,3.19-18.62,6.78-9,5.65-9,13.54.05,19.07,8.54,5.2,18.21,7.25,27.89,8.72,32.5,4.92,65,4.78,97.26-1.81,6.67-1.36,13.19-3.41,19-7.13,8.45-5.42,8.43-13.14-.07-18.57a49.47,49.47,0,0,0-16.63-6.43c-2.55-.53-3.91-1.75-3.21-4.38.81-3,2.87-1.08,4.29-.74a79.82,79.82,0,0,1,21.34,8.09,30.77,30.77,0,0,1,8.14,6.51c5.1,5.88,5.1,12.48,0,18.47-4.11,4.8-9.56,7.68-15.29,10-14.94,6.09-30.7,8.47-46.63,9.74-26.5,2.12-52.86,1.29-78.9-4.62-9.09-2.07-17.93-4.93-25.79-10.15-12.59-8.35-12.71-19.94-.18-28.31C27.2,151.34,39.11,148.53,51.47,146.23Z"/><path class="b9a9aeba-a5e8-490e-b45b-e7648b3b3a51" d="M142.42,170c.08,1.06.17,1.72.17,2.37,0,7.29-.19,7.44-7.44,8.56-26.33,4.05-52.64,3.37-78.95-.22-2.42-.33-3.23-1.44-3.43-3.87-1.33-16.12,4.37-29.17,16.49-39.75,3.4-3,6.61-2.09,10.19-1.21C90,138.47,90,138.44,90,149.12c0,4.49-.09,9,0,13.47.23,8.42,4.89,14.47,12.55,16.55,7.45,2,14.14-.77,18.74-7.83.71-1.1.69-2.67,3.11-1.65C132.29,173,133.85,172.86,142.42,170Z"/><path class="aee9dfdb-e16f-4cf6-958e-3e79955832f2" d="M138.6,45.29c-.1,1.66-.08,3.34-.34,5-1.93,12.25-6.18,16-21.26,17.29-11,.92-21.07-2.09-29.25-10a17.32,17.32,0,0,1-1-23.87C97.05,22,119.55,18.55,132.68,27c5,3.22,4.53,9.23,5.73,14.28a18.22,18.22,0,0,1,0,4ZM114.1,26.34c-2.48-.13-4.88.2-5.25,3.2s1.81,4,4.37,4.21c7.86.56,13.89,3.14,14.6,12.3.09,1.17.63,3,2.76,2.8s3.78-.79,4.15-2.83a14.25,14.25,0,0,0-.2-5.4C132.74,32.54,124.62,26.94,114.1,26.34Z"/><path class="b36baf15-6bdb-493e-88f5-137eea4fc64a" d="M123.66,15.65c-15-1.88-28.69.15-39.95,10.52C72,37,71.79,51.77,83,63.1c8.18,8.23,18.41,11.51,29.75,11.88,2.87.09,5.75,0,9.35,0C109,86.21,86.74,83.77,74.08,70.45A37.41,37.41,0,0,1,74.18,19C87.38,5.22,109.69,3.57,123.66,15.65Z"/><path class="b36baf15-6bdb-493e-88f5-137eea4fc64a" d="M116,125.7c0,13.1.2,25.86-.11,38.6-.11,4.72-4.6,8-9.32,7.89a9.07,9.07,0,0,1-9-8.84c-.23-7.31,0-14.64-.08-22,0-7.16-1.44-8.89-8.46-10.63q-6.76-1.66-13.51-3.41c-5.13-1.34-8-4.56-8-10,0-3.62,0-7.25,0-11.7,9.35,9.1,21,12.88,31.44,18.64C104.36,127.27,109.75,128.15,116,125.7Z"/><path class="a1548240-9a92-4aef-844b-a9ec22789baf" d="M67.2,74.18A47.56,47.56,0,0,0,80.4,84.67c.43.23,1.06.43,1.22.8C86,95.72,96.76,97.09,104.92,102c2.41,1.45,5.1,2.44,7.49,3.91a7.27,7.27,0,0,1,2.68,10c-2.15,3.55-5.44,5.19-9.33,3.31C96.94,115,88,110.9,79.63,105.86,68.89,99.38,64,86.27,67.2,74.18Z"/><path class="a1548240-9a92-4aef-844b-a9ec22789baf" d="M62.23,127c-4.65-1-6.7-3.57-7.26-7.32Q50.69,91.1,46.53,62.57a8.89,8.89,0,0,1,8.73-10.4c1.88-.09,1.7,1.14,2.06,2.13,2.49,6.85,4.23,13.61,1.89,21.08-1.25,4-.48,8.5.18,12.83s.32,8.93.53,13.4C60.32,110,58.55,118.47,62.23,127Z"/><path class="a1548240-9a92-4aef-844b-a9ec22789baf" d="M139.79,100.91a21.55,21.55,0,0,1-1.54,10.21c-1.83,4-5.05,5.76-9.29,4.67-3.89-1-5.74-4-5.11-7.92a38.68,38.68,0,0,0-1.93-20.47c-.28-.72-.9-1.76-.1-2.29,3.88-2.52,7.55-5.3,11.19-8.16,1.51-1.2,1.9,1.31,2.3,2.27A56.87,56.87,0,0,1,139.79,100.91Z"/><path class="b36baf15-6bdb-493e-88f5-137eea4fc64a" d="M131.76,164.72c-5.44-1.21-7.93-3.81-8-9-.13-11.1,0-22.21,0-33.55,3.6,1,7.2,2.31,11,1.14,0,9.74-.13,19.49.11,29.23C135,157,134.22,161,131.76,164.72Z"/><path class="a1548240-9a92-4aef-844b-a9ec22789baf" d="M131.76,164.72c2.46-3.71,3.2-7.75,3.08-12.21-.24-9.74-.09-19.49-.11-29.23a23.2,23.2,0,0,0,7.8-4.59c0,13.16.26,25.47-.11,37.76C142.25,162.1,137.8,165.07,131.76,164.72Z"/><path class="b9a9aeba-a5e8-490e-b45b-e7648b3b3a51" d="M71.56,208.5a249.32,249.32,0,0,0,51,.05C111.49,219.49,86,220.65,71.56,208.5Z"/><path class="b36baf15-6bdb-493e-88f5-137eea4fc64a" d="M98.31,90.55a53.94,53.94,0,0,0,12.42-1.77c3.52-1.1,4.35.49,5,3.19.55,2.4,1.34,4.76,1,7.7-3.21-1.61-6.23-3.15-9.26-4.65S101.34,92,98.31,90.55Z"/><path class="b733e9e7-2b55-44d2-92a6-65efe42dac30" d="M22.29,90a3.64,3.64,0,0,1-4.09,3.64c-2.5-.08-3.62.53-3.34,3.27.26,2.59-1.19,4.16-3.84,4.06-2.48-.08-3.55-1.8-3.26-4.08.37-2.92-1.13-3.24-3.48-3.25S0,92.34.14,89.67C.28,87.35,2,86.15,4.25,86.19S8.11,86,7.77,83c-.29-2.52.93-4.29,3.71-4.11a3.36,3.36,0,0,1,3.39,4c-.3,2.65.69,3.41,3.27,3.29A3.62,3.62,0,0,1,22.29,90Z"/><path class="b733e9e7-2b55-44d2-92a6-65efe42dac30" d="M114.1,26.34c10.52.6,18.64,6.2,20.43,14.28a14.25,14.25,0,0,1,.2,5.4c-.37,2-2.14,2.69-4.15,2.83s-2.67-1.63-2.76-2.8c-.71-9.16-6.74-11.74-14.6-12.3-2.56-.18-4.73-1.18-4.37-4.21S111.62,26.21,114.1,26.34Z"/></svg>