<svg id="ae07fba9-ec91-4ba6-9a7b-6cc7092a7f17" data-name="Capa 1" xmlns="http://www.w3.org/2000/svg" viewBox="0 0 255.9 251.9"><defs><style>.a53ae90c-f638-4f1d-8dc3-a3951f5be3ba{fill:#030201;}.a1d54c13-aa40-40cd-a73f-42fa9ac8156b{fill:#1a1a1a;}.ed6196d9-7b72-4fb6-8d5f-ad9b042dcbfa{fill:#fd8900;}.a9803c89-85ae-43b3-80bb-18a0ff84df44{fill:#fc4b00;}.a2b4ff85-9068-4d8f-914a-da0cd49d6dd4{fill:#e4e4e4;}</style></defs><title>_</title><path class="a53ae90c-f638-4f1d-8dc3-a3951f5be3ba" d="M0,98V81.47c.55-.14.46-.59.51-1C2.45,63.8,8.24,48.61,18.57,35.31q21.82-28.1,57-33.94C78,1,80.62,1.1,83,0h5.5A2.64,2.64,0,0,0,92,0h2.49c.14.55.6.46,1,.48A74.78,74.78,0,0,1,111.67,3a88.8,88.8,0,0,1,43,25.31,86.19,86.19,0,0,1,19.88,33.58,2.9,2.9,0,0,0,3.15,2.37,65.59,65.59,0,0,1,16,2.18Q242.11,79.79,254,128.58c.83,3.44.63,7,1.87,10.36v14c-.74.29-.48,1-.54,1.5a76.68,76.68,0,0,1-7.89,26.6C234.79,205.4,215,220.18,187.81,225a7.45,7.45,0,0,0-3.37,1.47A130.78,130.78,0,0,1,166.74,238a114.44,114.44,0,0,1-37.86,12.48c-3.47.5-7,.49-10.42,1.4H114c-.51-.82-1.33-.53-2-.53-3.48,0-7,0-10.43,0-.71,0-1.52-.27-2,.53H93c-.27-.82-1-.46-1.48-.51a127.75,127.75,0,0,1-28.46-6c-17-5.73-31.25-16.1-45-27.16a12.22,12.22,0,0,1-.83-18.71c10.42-10.06,20.94-20.05,33.84-27,.51-.27,1.34-.34,1.35-1.21a1.31,1.31,0,0,0-.22-.17C22.85,156.6,5.59,133.35.82,100.93.67,99.94,1,98.75,0,98Zm199.43,115c4.23-.82,7.88-3,11.54-5.06a71.45,71.45,0,0,0,21.7-19,3.25,3.25,0,0,0,.14-3.72,2.8,2.8,0,0,0-2.95-1.71q-10.23.09-20.46,0a2.79,2.79,0,0,0-2.9,1.78c-2.43,5-4.94,10-7.45,14.95-.46.91-1,1.91-.5,2.85,1.65,3.21,1.6,6.53.87,9.93l-.11.22ZM106.6,243.27a165.46,165.46,0,0,0,17.94-.83,105,105,0,0,0,38.94-12.33c9.12-5,17.11-11.51,25.39-17.65,3.25-2.41,3.38-5.08.38-7.89s-6.28-5.72-9.39-8.6c-23-21.28-50-31.29-81.38-29.1-15.43,1.07-29.76,5.73-43.3,13.1-11.78,6.41-21.37,15.54-31.07,24.54-3.12,2.88-3,5.48.41,8.05,4.11,3.12,8.22,6.24,12.39,9.29a112.32,112.32,0,0,0,24,13.58C75.59,241.4,90.87,243.58,106.6,243.27ZM78.46,9.53l-.36.06A80.83,80.83,0,0,0,36.67,28.45c-1.05.91-.92,1.46,0,2.35,3.39,3.31,6.73,6.69,10.08,10.05,13.66,13.66,27.36,27.28,40.94,41,1.61,1.63,2.39,1.46,3.83-.07,3.11-3.35,6.35-6.61,9.71-9.71,1.64-1.51,1.63-2.43.18-4.12A87,87,0,0,1,80.81,22.5c-.53-3.79-.77-7.61-1.16-11.42C79.57,10.29,79.72,9.26,78.46,9.53ZM9.52,78.17c-.38,1.82.94,1.65,2,1.7a100.44,100.44,0,0,1,18.28,2.37,87.54,87.54,0,0,1,38.5,19.54c1.39,1.21,2.13,1.18,3.39-.15q5.06-5.35,10.41-10.42c1.29-1.21,1.22-1.83,0-3.06q-25.57-25.44-51-51c-1.44-1.45-2.06-1.13-3.21.23A81.9,81.9,0,0,0,16,56,77.94,77.94,0,0,0,9.52,78.17Zm3.11,10.3a18.85,18.85,0,0,1-2-.11c-1.49-.26-2,.19-2,1.82.42,19.6,6.77,37,19.39,52,1,1.15,1.52,1.57,2.83.25q15.81-16,31.77-31.81c1-1,1.24-1.55,0-2.63C48.13,95.78,31.42,89.47,12.63,88.47ZM93.55,8.88a29.25,29.25,0,0,1-3.16,0c-1.82-.24-2.57.21-2.2,2.27.43,2.44.47,5,.73,7.43A80.07,80.07,0,0,0,108,62.71c.88,1,1.34,1.26,2.42.17q16-16.12,32.1-32.13c.9-.9,1.05-1.37,0-2.3A80.62,80.62,0,0,0,93.55,8.88ZM144.9,79.42a3.5,3.5,0,0,0-.85.17,73.64,73.64,0,0,0-25.46,20c-.9,1.09-.87,1.65.47,2.1,3,1,4.49,3.29,5.54,6.2,1.85,5.12,4,10.13,6,15.2a3.44,3.44,0,0,0,2.08,2.23c4.87,1.85,9.71,3.75,14.52,5.76a2.77,2.77,0,0,0,3-.29q9.48-6.41,19-12.71a2.49,2.49,0,0,0,1.27-2.41c-.05-4.4-.09-8.82,0-13.22a3.35,3.35,0,0,0-1.69-3.24c-6.91-4.75-13.75-9.61-20.65-14.37C146.23,83.52,144.71,82,144.9,79.42Zm-55,78.63,0-.32A81.69,81.69,0,0,0,71,116.32c-.92-1.08-1.39-.64-2.13.09Q52.7,132.58,36.52,148.7c-1,1-.89,1.41.13,2.28a82.86,82.86,0,0,0,25.71,15,2.75,2.75,0,0,0,2.13.1,113,113,0,0,1,24.22-6.63C89.62,159.29,90.1,159,89.9,158.05Zm157.16-9.69c-4.95,1.33-4.95,1.34-9.42-1.65-6.29-4.2-12.59-8.38-18.84-12.63a2.82,2.82,0,0,0-3.35-.21c-3.2,1.76-6.47,3.4-9.78,4.95a3.61,3.61,0,0,0-2.1,2.53c-2.07,7.41-4.11,14.83-6.3,22.2a2.38,2.38,0,0,0,.7,2.81c2.46,2.36,4.89,4.76,7.24,7.24a4,4,0,0,0,3.25,1.36c8-.06,16,.06,24-.08,3,0,5.42.43,6.66,3.64A70.62,70.62,0,0,0,247.06,148.36ZM204.88,79.31c.09,2.8-1.52,4.31-3.53,5.69-6.84,4.7-13.61,9.51-20.42,14.25a3,3,0,0,0-1.69,2.74c.11,4.58.08,9.16,0,13.73a2.54,2.54,0,0,0,1.3,2.42q9.16,6,18.23,12.17a2.77,2.77,0,0,0,3.18.26c3.41-1.7,6.88-3.29,10.38-4.81a3.46,3.46,0,0,0,2.07-2.54c2.31-8.19,4.71-16.36,7-24.57.67-2.41,1.63-4.4,4.56-4.86A72.06,72.06,0,0,0,204.88,79.31Zm-30.11,82.63c4,0,8-.08,12,0a2.25,2.25,0,0,0,2.59-2q2.75-9.94,5.62-19.86c.33-1.13.28-1.87-.74-2.54q-9-6-18-12a2.11,2.11,0,0,0-2.71,0c-5.91,4-11.86,8-17.83,11.89a2,2,0,0,0-.91,2.7q3,9.89,5.67,19.84a2.26,2.26,0,0,0,2.62,2C166.94,161.89,170.85,161.94,174.77,161.94Zm-8.29-97.51a82.55,82.55,0,0,0-15.7-27.77c-1-1.19-1.53-.65-2.31.13q-16,16-32,31.94c-1.2,1.19-1,1.72.21,2.65,3,2.4,6.06,4.66,9.22,6.82,1.43,1,2.37.84,3.73-.09a79.29,79.29,0,0,1,24.57-11.28C158.22,65.75,162.33,65.23,166.48,64.43ZM153.42,168a4.92,4.92,0,0,0,0-1.18c-2.44-8.5-4.94-17-7.29-25.49a2.93,2.93,0,0,0-2.09-2.13c-4.38-1.73-8.78-3.41-13.11-5.26a2.64,2.64,0,0,0-3.44.72c-5.3,5.41-10.75,10.66-16,16.12-2.5,2.61-5,4.08-8.61,1.58.11,1.13.25,1.87.24,2.61-.05,2.52,1.12,3.14,3.6,3.08a104.92,104.92,0,0,1,26.17,3A118,118,0,0,1,153.42,168Zm77.92-65.45c-1.46-.32-2.13.32-2.58,2-1.81,6.71-3.8,13.37-5.83,20a2,2,0,0,0,.92,2.62q9.14,6,18.21,12.13a2.92,2.92,0,0,0,3,.17c2.54-1,1.62-2.74,1.39-4.54-1.44-11.34-5.76-21.53-12.05-31A2.84,2.84,0,0,0,231.34,102.5ZM93.77,138.33c.83-5,1.8-9.81,3.06-14.54a75.11,75.11,0,0,1,5.26-14c.58-1.16,0-1.66-.7-2.3-3.53-3.53-7.1-7-10.57-10.61-1-1-1.59-1-2.56,0-3.53,3.64-7.09,7.27-10.77,10.76-1.3,1.24-1.13,2-.06,3.23a85.22,85.22,0,0,1,12.75,19.28C91.47,132.87,92.58,135.62,93.77,138.33ZM174,72.63a16.59,16.59,0,0,1-2.71.31c-4.77-.07-9.36,1-14,1.94-1.71.33-1.94,1.49-2.46,2.72-.63,1.49.7,1.79,1.36,2.25C162,84,167.86,88,173.69,92.14c1,.72,1.55.58,2.54-.13,5.73-4.11,11.57-8.07,17.32-12.14.69-.49,2-.64,1.55-2.14-.42-1.34-.93-2.36-2.48-2.77C186.74,73.38,180.72,72.94,174,72.63Zm17.81,122.81c2.47-4.92,4.78-9.59,7.18-14.22.48-.94.21-1.43-.45-2.08-2.33-2.25-4.66-4.51-6.87-6.88a4.26,4.26,0,0,0-3.47-1.43c-8.72.06-17.45,0-26.18,0-.58,0-1.26-.25-1.94.43C172,177.44,182,186,191.77,195.44Zm-89.2-54.5c-.36,1.54.83,1.91,1.84,2.51,1.16.68,2,.36,2.84-.53q7.27-7.36,14.63-14.63a2,2,0,0,0,.51-2.6c-1.82-4.26-3.54-8.57-5.21-12.9a7,7,0,0,0-2.21-3.51c-1.38-1-2.36-1.06-3.34.72A73.39,73.39,0,0,0,102.57,140.94Zm17.79-55.65c0-.69-.55-.88-.94-1.15a79.16,79.16,0,0,1-9-7c-1-.94-1.63-.64-2.46.21-3.61,3.68-7.22,7.38-11,10.94-1.26,1.21-1,1.88.1,2.94,2.83,2.7,5.61,5.46,8.29,8.3,1.15,1.22,1.79,1.25,2.77-.16a80.66,80.66,0,0,1,11.43-13.19C119.84,85.86,120.11,85.55,120.36,85.29Z"/><path class="a1d54c13-aa40-40cd-a73f-42fa9ac8156b" d="M99.46,251.9c.52-.8,1.33-.53,2-.53,3.48,0,7,0,10.43,0,.7,0,1.52-.29,2,.53Z"/><path class="a1d54c13-aa40-40cd-a73f-42fa9ac8156b" d="M92,0a2.64,2.64,0,0,1-3.5,0Z"/><path class="ed6196d9-7b72-4fb6-8d5f-ad9b042dcbfa" d="M106.6,243.27c-15.73.31-31-1.87-45.65-7.84a112.32,112.32,0,0,1-24-13.58c-4.17-3-8.28-6.17-12.39-9.29-3.38-2.57-3.53-5.17-.41-8.05,9.7-9,19.29-18.13,31.07-24.54,13.54-7.37,27.87-12,43.3-13.1,31.38-2.19,58.39,7.82,81.38,29.1,3.11,2.88,6.29,5.7,9.39,8.6s2.87,5.48-.38,7.89c-8.28,6.14-16.27,12.69-25.39,17.65a105,105,0,0,1-38.94,12.33A165.46,165.46,0,0,1,106.6,243.27ZM68.13,217.51c2.75.06,4.3-1.79,4.35-5.19s0-3.32,3.33-3.26c1.65,0,3.59-.66,4.85.34,1,.81.19,2.67.39,4,.39,2.61,2.11,4.17,4.5,4s3.79-1.72,4-4.29C89.78,209,89.78,209,94,209a5.57,5.57,0,0,0,1,0c2.58-.5,3.44.63,3.07,3.11a6,6,0,0,0,.27,2.21,3.82,3.82,0,0,0,4.43,3.11,3.78,3.78,0,0,0,3.69-3.7,21.89,21.89,0,0,0,.08-3.24c0-1.06.37-1.55,1.46-1.48.74,0,1.5,0,2.24,0,1.49,0,3.26-.36,4.38.31s.32,2.61.53,4c.41,2.69,2,4.23,4.39,4.16s3.88-1.69,4.07-4.44c.28-4,.28-4,4.41-4h.75c3.36,0,3.36,0,3.48,3.46.1,3.17,1.49,4.9,4,5s4.29-1.66,4.48-4.85c.22-3.43.22-3.43,3.81-3.61l.25,0c2.56-.18,4.21-1.66,4.36-3.91s-1.42-4.05-4.05-4.51c-1.38-.25-3.24.6-4-.47s-.26-2.71-.46-4.09a4.29,4.29,0,0,0-4.33-4c-2.25.11-3.79,1.76-4,4.3-.38,4.16-.38,4.16-4.51,4.16h-.25c-3.7,0-3.7,0-3.91-3.74-.15-2.87-1.72-4.66-4.12-4.72s-4.07,1.76-4.36,4.54c-.41,3.92-.41,3.92-4.47,3.92h-.5c-3.5,0-3.5,0-3.61-3.53-.1-3-1.67-4.89-4.15-4.94-2.31,0-4.07,1.81-4.34,4.58-.39,3.89-.39,3.89-4.23,3.89h-1c-3.27,0-3.27,0-3.33-3.29s-1.63-5.15-4.18-5.18-4.21,2-4.32,5.1c-.12,3.37-.12,3.38-3.47,3.36-1.58,0-3.49.46-4.63-.26s-.26-2.78-.47-4.24a4.09,4.09,0,0,0-3.89-3.88c-2.12-.18-4.28,1-4.2,3,.15,4.35-1.53,5.86-5.77,5.81-2.12,0-3.2,2-3,4.18a3.84,3.84,0,0,0,3.63,3.79,18.45,18.45,0,0,0,3.24.09c1.19-.07,1.66.37,1.57,1.57a15.71,15.71,0,0,0,.05,3A4.15,4.15,0,0,0,68.13,217.51Z"/><path class="a9803c89-85ae-43b3-80bb-18a0ff84df44" d="M78.46,9.53c1.26-.27,1.11.76,1.19,1.55.39,3.81.63,7.63,1.16,11.42A87,87,0,0,0,101.4,68c1.45,1.69,1.46,2.61-.18,4.12-3.36,3.1-6.6,6.36-9.71,9.71-1.44,1.53-2.22,1.7-3.83.07C74.1,68.13,60.4,54.51,46.74,40.85c-3.35-3.36-6.69-6.74-10.08-10-.91-.89-1-1.44,0-2.35A80.83,80.83,0,0,1,78.1,9.59Z"/><path class="a9803c89-85ae-43b3-80bb-18a0ff84df44" d="M9.52,78.17A77.94,77.94,0,0,1,16,56,81.9,81.9,0,0,1,27.84,37.35c1.15-1.36,1.77-1.68,3.21-.23q25.42,25.59,51,51c1.23,1.23,1.3,1.85,0,3.06q-5.34,5.07-10.41,10.42c-1.26,1.33-2,1.36-3.39.15a87.54,87.54,0,0,0-38.5-19.54A100.44,100.44,0,0,0,11.5,79.87C10.46,79.82,9.14,80,9.52,78.17Z"/><path class="a9803c89-85ae-43b3-80bb-18a0ff84df44" d="M12.63,88.46c18.79,1,35.5,7.32,49.94,19.53,1.28,1.08,1.07,1.6,0,2.63q-15.93,15.85-31.77,31.81c-1.31,1.32-1.87.9-2.83-.25-12.62-15-19-32.4-19.39-52,0-1.63.52-2.08,2-1.82A16.54,16.54,0,0,0,12.63,88.46Z"/><path class="a9803c89-85ae-43b3-80bb-18a0ff84df44" d="M93.55,8.88a80.62,80.62,0,0,1,48.91,19.57c1.09.93.94,1.4,0,2.3q-16.09,16-32.1,32.13c-1.08,1.09-1.54.86-2.42-.17A80.07,80.07,0,0,1,88.92,18.56c-.26-2.47-.3-5-.73-7.43-.37-2.06.38-2.51,2.2-2.27A29.25,29.25,0,0,0,93.55,8.88Z"/><path class="a2b4ff85-9068-4d8f-914a-da0cd49d6dd4" d="M144.9,79.42c-.19,2.6,1.33,4.1,3.27,5.44,6.9,4.76,13.74,9.62,20.65,14.37a3.35,3.35,0,0,1,1.69,3.24c-.1,4.4-.06,8.82,0,13.22a2.49,2.49,0,0,1-1.27,2.41q-9.57,6.29-19,12.71a2.77,2.77,0,0,1-3,.29c-4.81-2-9.65-3.91-14.52-5.76a3.44,3.44,0,0,1-2.08-2.23c-2-5.07-4.17-10.08-6-15.2-1-2.91-2.51-5.19-5.54-6.2-1.34-.45-1.37-1-.47-2.1a73.64,73.64,0,0,1,25.46-20A3.5,3.5,0,0,1,144.9,79.42Z"/><path class="a9803c89-85ae-43b3-80bb-18a0ff84df44" d="M89.9,158.05c.2.9-.28,1.24-1.19,1.37a113,113,0,0,0-24.22,6.63,2.75,2.75,0,0,1-2.13-.1,82.86,82.86,0,0,1-25.71-15c-1-.87-1.1-1.32-.13-2.28q16.2-16.09,32.32-32.29c.74-.73,1.21-1.17,2.13-.09a81.69,81.69,0,0,1,18.89,41.41Z"/><path class="a2b4ff85-9068-4d8f-914a-da0cd49d6dd4" d="M247.06,148.36a70.62,70.62,0,0,1-7.95,30.16c-1.24-3.21-3.68-3.69-6.66-3.64-8,.14-16,0-24,.08a4,4,0,0,1-3.25-1.36c-2.35-2.48-4.78-4.88-7.24-7.24a2.38,2.38,0,0,1-.7-2.81c2.19-7.37,4.23-14.79,6.3-22.2a3.61,3.61,0,0,1,2.1-2.53c3.31-1.55,6.58-3.19,9.78-4.95a2.82,2.82,0,0,1,3.35.21c6.25,4.25,12.55,8.43,18.84,12.63C242.11,149.7,242.11,149.69,247.06,148.36Z"/><path class="a2b4ff85-9068-4d8f-914a-da0cd49d6dd4" d="M204.88,79.31A72.06,72.06,0,0,1,226,93.79c-2.93.46-3.89,2.45-4.56,4.86-2.26,8.21-4.66,16.38-7,24.57a3.46,3.46,0,0,1-2.07,2.54c-3.5,1.52-7,3.11-10.38,4.81a2.77,2.77,0,0,1-3.18-.26q-9.06-6.15-18.23-12.17a2.54,2.54,0,0,1-1.3-2.42c.06-4.57.09-9.15,0-13.73a3,3,0,0,1,1.69-2.74c6.81-4.74,13.58-9.55,20.42-14.25C203.36,83.62,205,82.11,204.88,79.31Z"/><path class="a1d54c13-aa40-40cd-a73f-42fa9ac8156b" d="M174.77,161.94c-3.92,0-7.83-.05-11.74,0a2.26,2.26,0,0,1-2.62-2q-2.72-10-5.67-19.84a2,2,0,0,1,.91-2.7c6-3.93,11.92-7.87,17.83-11.89a2.11,2.11,0,0,1,2.71,0q9,6,18,12c1,.67,1.07,1.41.74,2.54q-2.9,9.9-5.62,19.86a2.25,2.25,0,0,1-2.59,2C182.76,161.86,178.76,161.94,174.77,161.94Z"/><path class="a9803c89-85ae-43b3-80bb-18a0ff84df44" d="M166.48,64.43c-4.15.8-8.26,1.32-12.27,2.4a79.29,79.29,0,0,0-24.57,11.28c-1.36.93-2.3,1.07-3.73.09-3.16-2.16-6.24-4.42-9.22-6.82-1.16-.93-1.41-1.46-.21-2.65q16-15.9,32-31.94c.78-.78,1.3-1.32,2.31-.13A82.55,82.55,0,0,1,166.48,64.43Z"/><path class="a2b4ff85-9068-4d8f-914a-da0cd49d6dd4" d="M153.42,168a118,118,0,0,0-20.53-7,104.92,104.92,0,0,0-26.17-3c-2.48.06-3.65-.56-3.6-3.08,0-.74-.13-1.48-.24-2.61,3.62,2.5,6.11,1,8.61-1.58,5.24-5.46,10.69-10.71,16-16.12a2.64,2.64,0,0,1,3.44-.72c4.33,1.85,8.73,3.53,13.11,5.26a2.93,2.93,0,0,1,2.09,2.13c2.35,8.52,4.85,17,7.29,25.49A4.92,4.92,0,0,1,153.42,168Z"/><path class="a1d54c13-aa40-40cd-a73f-42fa9ac8156b" d="M199.42,212.91c.73-3.4.78-6.72-.87-9.93-.47-.94,0-1.94.5-2.85,2.51-5,5-9.94,7.45-14.95a2.79,2.79,0,0,1,2.9-1.78q10.23.09,20.46,0a2.8,2.8,0,0,1,2.95,1.71,3.25,3.25,0,0,1-.14,3.72,71.45,71.45,0,0,1-21.7,19c-3.66,2.06-7.31,4.24-11.54,5.06Z"/><path class="a1d54c13-aa40-40cd-a73f-42fa9ac8156b" d="M231.34,102.5a2.84,2.84,0,0,1,3.07,1.41c6.29,9.44,10.61,19.63,12.05,31,.23,1.8,1.15,3.55-1.39,4.54a2.92,2.92,0,0,1-3-.17q-9.09-6.09-18.21-12.13a2,2,0,0,1-.92-2.62c2-6.65,4-13.31,5.83-20C229.21,102.82,229.88,102.18,231.34,102.5Z"/><path class="a9803c89-85ae-43b3-80bb-18a0ff84df44" d="M93.77,138.33c-1.19-2.71-2.3-5.46-3.59-8.12a85.22,85.22,0,0,0-12.75-19.28c-1.07-1.22-1.24-2,.06-3.23,3.68-3.49,7.24-7.12,10.77-10.76,1-1,1.56-1.06,2.56,0,3.47,3.59,7,7.08,10.57,10.61.65.64,1.28,1.14.7,2.3a75.11,75.11,0,0,0-5.26,14C95.57,128.52,94.6,133.3,93.77,138.33Z"/><path class="a1d54c13-aa40-40cd-a73f-42fa9ac8156b" d="M174,72.63c6.76.31,12.78.75,18.66,2.33,1.55.41,2.06,1.43,2.48,2.77.47,1.5-.86,1.65-1.55,2.14C187.8,83.94,182,87.9,176.23,92c-1,.71-1.53.85-2.54.13C167.86,88,162,84,156.16,79.85c-.66-.46-2-.76-1.36-2.25.52-1.23.75-2.39,2.46-2.72,4.63-.92,9.22-2,14-1.94A16.59,16.59,0,0,0,174,72.63Z"/><path class="a2b4ff85-9068-4d8f-914a-da0cd49d6dd4" d="M191.77,195.44C182,186,172,177.44,160,171.31c.68-.68,1.36-.43,1.94-.43,8.73,0,17.46,0,26.18,0a4.26,4.26,0,0,1,3.47,1.43c2.21,2.37,4.54,4.63,6.87,6.88.66.65.93,1.14.45,2.08C196.55,185.85,194.24,190.52,191.77,195.44Z"/><path class="a1d54c13-aa40-40cd-a73f-42fa9ac8156b" d="M102.57,140.94A73.39,73.39,0,0,1,111.63,110c1-1.78,2-1.7,3.34-.72a7,7,0,0,1,2.21,3.51c1.67,4.33,3.39,8.64,5.21,12.9a2,2,0,0,1-.51,2.6q-7.36,7.26-14.63,14.63c-.88.89-1.68,1.21-2.84.53C103.4,142.85,102.21,142.48,102.57,140.94Z"/><path class="a9803c89-85ae-43b3-80bb-18a0ff84df44" d="M120.36,85.29c-.25.26-.52.57-.82.85a80.66,80.66,0,0,0-11.43,13.19c-1,1.41-1.62,1.38-2.77.16-2.68-2.84-5.46-5.6-8.29-8.3-1.12-1.06-1.36-1.73-.1-2.94,3.74-3.56,7.35-7.26,11-10.94.83-.85,1.44-1.15,2.46-.21a79.16,79.16,0,0,0,9,7C119.81,84.41,120.33,84.6,120.36,85.29Z"/><path class="a1d54c13-aa40-40cd-a73f-42fa9ac8156b" d="M199.43,212.92l-.12.21.11-.22Z"/><path class="a53ae90c-f638-4f1d-8dc3-a3951f5be3ba" d="M68.13,217.51A4.15,4.15,0,0,1,64,213.58a15.71,15.71,0,0,1-.05-3c.09-1.2-.38-1.64-1.57-1.57a18.45,18.45,0,0,1-3.24-.09,3.84,3.84,0,0,1-3.63-3.79c-.16-2.13.92-4.2,3-4.18,4.24,0,5.92-1.46,5.77-5.81-.08-2.06,2.08-3.19,4.2-3A4.09,4.09,0,0,1,72.45,196c.21,1.46-.68,3.51.47,4.24s3,.26,4.63.26c3.35,0,3.35,0,3.47-3.36.11-3.13,1.81-5.14,4.32-5.1s4.13,2,4.18,5.18.06,3.29,3.33,3.29h1c3.84,0,3.84,0,4.23-3.89.27-2.77,2-4.62,4.34-4.58,2.48.05,4,1.92,4.15,4.94.11,3.53.11,3.53,3.61,3.53h.5c4.06,0,4.06,0,4.47-3.92.29-2.78,2-4.61,4.36-4.54s4,1.85,4.12,4.72c.21,3.74.21,3.74,3.91,3.74h.25c4.13,0,4.13,0,4.51-4.16.23-2.54,1.77-4.19,4-4.3a4.29,4.29,0,0,1,4.33,4c.2,1.38-.24,3.14.46,4.09s2.65.22,4,.47c2.63.46,4.22,2.18,4.05,4.51s-1.8,3.73-4.36,3.91l-.25,0c-3.59.18-3.59.18-3.81,3.61-.19,3.19-1.83,4.95-4.48,4.85s-3.92-1.83-4-5c-.12-3.46-.12-3.46-3.48-3.46H128c-4.13,0-4.13,0-4.41,4-.19,2.75-1.69,4.38-4.07,4.44s-4-1.47-4.39-4.16c-.21-1.37.65-3.27-.53-4s-2.89-.27-4.38-.31c-.74,0-1.5,0-2.24,0-1.09-.07-1.49.42-1.46,1.48a21.89,21.89,0,0,1-.08,3.24,3.78,3.78,0,0,1-3.69,3.7,3.82,3.82,0,0,1-4.43-3.11,6,6,0,0,1-.27-2.21c.37-2.48-.49-3.61-3.07-3.11a5.57,5.57,0,0,1-1,0c-4.24,0-4.24,0-4.51,4.16-.17,2.57-1.64,4.17-4,4.29s-4.11-1.43-4.5-4c-.2-1.38.63-3.24-.39-4-1.26-1-3.2-.31-4.85-.34-3.29-.06-3.29,0-3.33,3.26S70.88,217.57,68.13,217.51Z"/></svg>