<svg id="aec499b1-a14d-49a9-820e-f81ba39bd10a" data-name="Capa 1" xmlns="http://www.w3.org/2000/svg" viewBox="0 0 538.65 538.65"><defs><style>.f45aa85f-aa2f-47df-921a-5eaf6a55db8a{fill:#050605;}.f23b6673-77fd-4491-8b37-0cb18c79f163{fill:#91e6ef;}.a988d2e3-ac7f-4286-8ddc-d2055a449839{fill:#5fd34d;}.a80e52ec-4cd2-4aba-b3d7-530544517b40{fill:#e9e9e9;}.a45ed4fb-bd46-488a-a241-be58250a3714{fill:#00c300;}.b831902c-5b22-4621-8833-5097065800dd{fill:#cacaca;}.e5d366a4-a627-4810-9153-fce08748f89b{fill:#5ed24c;}.ad1f7531-2931-4e4a-bb2d-3c6b54136110{fill:#a9a9a9;}.f0f4b4e4-0825-4506-85ff-99b5e94a9ab0{fill:#2fd8e5;}.b03181d4-951e-4f1f-9e6e-b61f50a635d7{fill:#7f7f7f;}.a91512c9-b76b-48cb-acb3-4a43e6167849{fill:#a7a7a7;}.a245b7e1-6706-44bb-a196-48e6bdd8c120{fill:#565656;}</style></defs><title>_</title><path class="f45aa85f-aa2f-47df-921a-5eaf6a55db8a" d="M148.43,0h2.39c.38.63.62,1.67,1.15,1.84C187,13.38,204.48,42.72,174.88,66c-.5.39-.45,1.46-.65,2.22,17.77,8.33,17.76,8.33,28.83-7,3.73-5.16,7.42-10.34,11.3-15.38,20.46-26.54,48.19-38.27,81-38.38,23.08-.08,36.2,12.85,37.65,35.85a143.26,143.26,0,0,1-.33,25c-.8,7,.7,9.35,8.17,10.62,95.5,16.24,157.73,71.26,188.48,162.74,4,11.84,3.33,24.81,9.35,36.07v57.46c-4.24,2-2.52,6.31-3.15,9.47-20.76,104.8-93.66,174.46-199.32,190.69-5.9.91-12.57-1.45-17.78,3.33H296.86c-7.36-4.43-15.84-3.09-23.76-4.41-65.92-11-117.43-44.41-155.57-99-3.83-5.49-5.2-10.69.16-16,7.52-1.75,10.61,3.68,14.05,8.62,11.07,15.91,23.44,30.57,39.43,43.16,7.12-31.53,20.51-47.51,43.5-51.48,20.1-3.46,37.4,3.95,53.46,15.57,28.71,20.78,76.08,12.7,95.8-16.42,10.89-16.09,25.73-25.24,44.6-29.14,14.91-3.08,29.28-1.12,43.74,2.1,13,5,25.4,11,36.13,20.13,2.11,1.8,4.4,4.06,6.6.14,10.6-18.83,18.78-38.5,22.84-61.13-21.54,6.64-39.57,4.51-55.34-9.4-3.59-5.77-6.43-11.82-7.33-18.67-1.45-11.1-8.68-16.52-18.94-18.55-5.46-1.08-11-1.63-16.53-2.39-24.54-3.35-35.81-20.82-28.51-44.52,4-13.08,10.92-24.77,19.43-35.33,7.05-8.74,7-17,1.35-26.27-6.89-11.31-16-20.85-24.11-31.14-14.65-18.54-25-37.56-6.93-60.8-11-2.86-20.66-5-30.11-7.91-15.24-4.66-27.74-3.95-33.42,14.1-.9,2.86-3.59,5.21-5.61,7.67-8.64,10.51-18.83,19.46-29.11,28.28-9.7,8.33,1.1,14,2.72,20.64.73,3,2.17,2.67,9.84-5.79,11-12.15,24.34-14.84,35.95-6.66a129.78,129.78,0,0,1,15.32,13.31c11.68,11.38,12.42,24.51,1.92,37.08q-11.88,14.2-24.57,27.71c-4,4.3-5,7.9-2,13.41,17.75,32.69,10.53,52-12.37,74.68-12.7,12.55-24.49,12.39-35-1.83-7.79-10.56-14.83-21.67-22.25-32.51-2.9-4.22-4.58-8.43-.77-13,6.12-3.76,10.26-1.29,13.79,4.09,5.86,8.92,11.89,17.72,17.92,26.53,8.8,12.86,8.83,12.84,18.89.79,16.12-16.44,17.81-25.94,8.11-46.91C302.89,241.6,295.39,225.8,288,210s-14.73-31.51-22.6-48.35l-37.86,34.86c-10.17,5.23-10.2,11.55-3.31,20.11,6.62,8.24,12,17.46,17.92,26.27,3.37,5,4.72,10-.89,14.51-6.42,2.39-9.47-1.83-12.47-6.28-6.44-9.55-13.22-18.9-19.3-28.67-3.16-5.07-5.38-5.53-9.77-1.31-10.33,9.92-20.9,19.6-31.78,28.91-4.49,3.84-4.72,7-2.09,12,6.34,11.88,12.3,24,18.18,36.09,10.71,22.05,8.24,36.53-8.93,53.88-10.38,10.48-19.52,10.13-29.25-1.25-10.6-12.39-20.94-25-31.8-37.17-2.61-2.92-3.61-9.64-10.77-6-6.5,3.33-10.57,6.52-9.31,15.16,3,20.47,6.2,40.82,14.09,60.06,2.15,5.25,2.64,9.8-.86,14.42-7.79,2-11.47-1.76-14-8.85-7.82-21.78-13.35-44-14.26-67.18-.2-5-1.67-7.51-6.33-9.74-15.32-7.34-23.18-21.62-16.74-37.14,5.2-12.55-1.42-15.17-8.94-20.5C31.2,242.69,12.92,235.19,0,220.25v-12c2.86.42,2.68-2.37,3.68-3.72,16.59-22.36,30.58-26.71,56.73-17.51,12,4.22,24.09,8,35.86,12.75,5.21,2.08,7.8.95,10.74-3.42,7.1-10.56,14-21.38,22.25-31,7.37-8.57,5.14-12-4-16.55-32.66-16.3-65-33.2-97.32-50.24-13.21-7-18.21-16.95-12.13-26.92,8.88-14.55,19.31-28.06,37-33.68,14-4.44,26.74-.67,39.46,4.11,6.36,2.39,10.37,1.23,15.23-4C120.16,24.44,129.78,7.29,148.43,0Zm187,179.23c-3.38-3.32-6.66-6.75-10.17-9.92-4.47-4-10.29-6.93-14.57-1.44-5.4,6.92-17.56,10.76-14.21,22.11,2.5,8.49,6.07,17.13,12,24.24.63,7.15,3.47,7.4,7.87,2.48,6.9-7.71,13.87-15.36,20.58-23.23C341.28,188.41,341.34,183.4,335.46,179.23ZM150.82,59.89c1.14,2,3.34,3,4.91,1.9C163.57,56.49,169.16,49,173.89,41c1.75-2.95-.6-5.92-3.24-8-4.27-4.14-8.43-8.39-12.81-12.4-5.05-4.61-10.23-4.17-14.7.74-8.24,9.06-16.25,18.34-25.07,28.33C129.57,54.24,139.62,58.81,150.82,59.89ZM74.09,241.7c4.9-6.63,9.69-13.36,14.75-19.87,3.35-4.31,4.14-7-2.4-9.07-12.76-4-25.15-9.25-38-13.14-9-2.75-18-2.39-24.68,6.06-7.49,5.27-9,9.59.5,15a446.3,446.3,0,0,1,37.58,24.48C68.43,249.92,71.52,248.08,74.09,241.7Zm94.1,94c7.34-7.25,8.43-15.67,4.38-24.87-2.54-5.76-5-11.63-8.19-17-5.18-8.68-7.43-24.93-14.73-24.85-7.94.09-15.73,12.65-23.59,19.78-7.1,3.29-6.74,7.05-1.74,12.55,10.39,11.46,20.73,23,30.08,35.36C160.46,344.62,164,342.44,168.19,335.69ZM152.78,131.5l29.63-41.33c-2.34-3.66-5.8-3.69-8.73-4.67-30.1-10.06-60.18-20.18-90.34-30C60.42,48,50.08,51.63,35.49,71.74c-8.69,5.77-6.56,10,1.59,14.21,32.56,16.72,65.22,33.27,97.39,50.71C143.57,141.6,148.79,140.77,152.78,131.5Zm268.72-4.71c.45-2.12-1.15-2.76-2.57-3.53-3.35-2.12-6.48-4.77-10.1-6.23-4.7-1.9-9-8.14-14.92-2.82-6.22,5.56-8.3,12.61-5.76,20.6,2.2,6.91,6.43,12.75,10.85,18.43,8.55,11,17.65,21.64,25.41,33.18,10.13,15.09,10.31,30.5-1.5,45.31a104.68,104.68,0,0,0-14.16,23.47c-9,20.61-3.43,30.14,18.8,31.9,13.91,1.11,26.53,5,36.58,15.25,2.25,5.89,5,11.65,6.66,17.7,3.61,13,14.47,20.64,28.44,19.29,15.11-1.46,22.51-8.73,23-23.48,2.52-69.64-23.41-127.11-75.27-173-7.43-6.58-14.5-14.77-25.44-16.35ZM70.1,283.64c3,14.1,10.69,18.22,22.69,11.75a55,55,0,0,0,10.46-7.83q36-32.42,71.76-65,58.35-53.07,116.62-106.26c19.81-18.14,28.1-41.13,26.35-67.62-.57-8.77-.39-18.75-11.4-22.65-5.28-3.8-11.33-2.93-17.2-2.68-29.23,1.2-51.09,15.17-67.75,38.68Q149.54,163.74,77.18,265.24C73.28,270.73,69.32,276.3,70.1,283.64ZM445.6,407.18c-25.26-8.6-52.81-1.28-66.87,17.76-30.08,40.75-81.29,49.37-122.91,20.81a72.06,72.06,0,0,0-13.55-7.45c-29.34-11.93-56.5,7.52-55.51,39.4.12,4,1.21,6.66,4.65,8.78,63.12,38.88,129.09,46.28,198.32,18.12,27.67-10.32,51.11-27,71.65-48,27.93-28.47,25.52-37.22-13.41-49.33A9.76,9.76,0,0,0,445.6,407.18Z"/><path class="f23b6673-77fd-4491-8b37-0cb18c79f163" d="M117.69,419.31c-5-6.65-9.38-13.61-10.52-22.11,3.5-4.61,3-9.16.86-14.41-7.89-19.24-11.1-39.59-14.09-60.06-1.26-8.64,2.81-11.83,9.31-15.16,7.16-3.66,8.16,3.06,10.77,6,10.86,12.15,21.2,24.78,31.8,37.17,9.73,11.38,18.87,11.73,29.25,1.25,17.17-17.35,19.64-31.83,8.93-53.88C178.12,286,172.16,273.88,165.82,262c-2.63-4.95-2.4-8.15,2.09-12,10.88-9.31,21.45-19,31.78-28.91,4.39-4.22,6.61-3.76,9.77,1.31,6.08,9.77,12.86,19.12,19.3,28.67,3,4.45,6.05,8.67,12.47,6.28,4.73,4.34,8.54,9.3,10.29,15.61-3.81,4.57-2.13,8.78.77,13,7.42,10.84,14.46,21.95,22.25,32.51,10.48,14.22,22.27,14.38,35,1.83,22.9-22.64,30.12-42,12.37-74.68-3-5.51-2.06-9.11,2-13.41q12.67-13.49,24.57-27.71c10.5-12.57,9.76-25.7-1.92-37.08a129.78,129.78,0,0,0-15.32-13.31c-11.61-8.18-24.93-5.49-35.95,6.66-7.67,8.46-9.11,8.81-9.84,5.79-1.62-6.68-12.42-12.31-2.72-20.64,10.28-8.82,20.47-17.77,29.11-28.28,2-2.46,4.71-4.81,5.61-7.67,5.68-18,18.18-18.76,33.42-14.1,9.45,2.89,19.12,5.05,30.11,7.91-18.07,23.24-7.72,42.26,6.93,60.8,8.14,10.29,17.22,19.83,24.11,31.14,5.64,9.26,5.7,17.53-1.35,26.27-8.51,10.56-15.4,22.25-19.43,35.33-7.3,23.7,4,41.17,28.51,44.52,5.52.76,11.07,1.31,16.53,2.39,10.26,2,17.49,7.45,18.94,18.55.9,6.85,3.74,12.9,7.33,18.67l-10.23,50.26c-14.46-3.22-28.83-5.18-43.74-2.1-18.87,3.9-33.71,13.05-44.6,29.14-19.72,29.12-67.09,37.2-95.8,16.42-16.06-11.62-33.36-19-53.46-15.57-23,4-36.38,19.95-43.5,51.48-16-12.59-28.36-27.25-39.43-43.16C128.3,423,125.21,417.56,117.69,419.31Z"/><path class="a988d2e3-ac7f-4286-8ddc-d2055a449839" d="M389.73,504.6c-69.23,28.16-135.2,20.76-198.32-18.12-3.44-2.12-4.53-4.75-4.65-8.78-1-31.88,26.17-51.33,55.51-39.4a72.06,72.06,0,0,1,13.55,7.45c41.62,28.56,92.83,19.94,122.91-20.81,14.06-19,41.61-26.36,66.87-17.76-2,9.84-6.54,18.7-10.57,27.76C423.62,460.56,407.47,483.1,389.73,504.6Z"/><path class="a80e52ec-4cd2-4aba-b3d7-530544517b40" d="M70.1,283.64c-.78-7.34,3.18-12.91,7.08-18.4Q149.38,163.62,221.63,62c16.66-23.51,38.52-37.48,67.75-38.68,5.87-.25,11.92-1.12,17.2,2.68-.07,3.12.59,6.48-.33,9.33-3.71,11.39,1.67,25.46-10.1,34.44C289.72,57.85,281,48.76,267,46.12c-5.66-1.06-11,0-12.57,5.85-1.72,6.48,3.06,9.26,8.77,9.8,10.06,1,15.4,7.45,18.56,16,1.27,3.44,2.24,6.64,5.48,8.64-1.33,10.15-9.43,15.47-16.05,21.48-29.37,26.7-59.19,52.9-88.61,79.54s-58.27,54-88.13,80.18C87.32,273.84,81.26,283,70.1,283.64Z"/><path class="a45ed4fb-bd46-488a-a241-be58250a3714" d="M421.57,126.54c10.94,1.58,18,9.77,25.44,16.35,51.86,45.86,77.79,103.33,75.27,173-.54,14.75-7.94,22-23,23.48-14,1.35-24.83-6.26-28.44-19.29-1.67-6.05-4.41-11.81-6.66-17.7,2.24-49.26-7.65-96.14-26.57-141.51C432.68,149.14,424.56,139,421.57,126.54Z"/><path class="b831902c-5b22-4621-8833-5097065800dd" d="M296.15,69.79c11.77-9,6.39-23.05,10.1-34.44.92-2.85.26-6.21.33-9.33,11,3.9,10.83,13.88,11.4,22.65,1.75,26.49-6.54,49.48-26.35,67.62Q233.45,169.57,175,222.55q-35.82,32.58-71.76,65a55,55,0,0,1-10.46,7.83c-12,6.47-19.7,2.35-22.69-11.75,11.16-.63,17.22-9.8,24.35-16.05,29.86-26.18,58.69-53.52,88.13-80.18s59.24-52.84,88.61-79.54c6.62-6,14.72-11.33,16.05-21.48C300.92,86.61,297.07,77.41,296.15,69.79Z"/><path class="e5d366a4-a627-4810-9153-fce08748f89b" d="M421.57,126.54c3,12.5,11.11,22.6,16,34.3,18.92,45.37,28.81,92.25,26.57,141.51-10.05-10.23-22.67-14.14-36.58-15.25-22.23-1.76-27.76-11.29-18.8-31.9a104.68,104.68,0,0,1,14.16-23.47c11.81-14.81,11.63-30.22,1.5-45.31-7.76-11.54-16.86-22.18-25.41-33.18-4.42-5.68-8.65-11.52-10.85-18.43-2.54-8-.46-15,5.76-20.6,6-5.32,10.22.92,14.92,2.82,3.62,1.46,6.75,4.11,10.1,6.23.16,1.69.72,3.09,2.57,3.53Z"/><path class="ad1f7531-2931-4e4a-bb2d-3c6b54136110" d="M35.49,71.74C50.08,51.63,60.42,48,83.34,55.46c30.16,9.86,60.24,20,90.34,30,2.93,1,6.39,1,8.73,4.67L152.78,131.5c-8.83.7-14.38-6.13-21.34-9.55C99.05,106,66.73,89.9,35.49,71.74Z"/><path class="ad1f7531-2931-4e4a-bb2d-3c6b54136110" d="M227.51,196.47l37.86-34.86c7.87,16.84,15.23,32.6,22.6,48.35s14.92,31.64,22.26,47.51c9.7,21,8,30.47-8.11,46.91-5.33-.4-6.85-5.13-9.23-8.55-12.23-17.63-24.58-35.2-36.18-53.24C246.88,227.28,235,213.26,227.51,196.47Z"/><path class="a45ed4fb-bd46-488a-a241-be58250a3714" d="M389.73,504.6c17.74-21.5,33.89-44,45.3-69.66,4-9.06,8.6-17.92,10.57-27.76a9.76,9.76,0,0,1,2.37.14c38.93,12.11,41.34,20.86,13.41,49.33C440.84,477.59,417.4,494.28,389.73,504.6Z"/><path class="f0f4b4e4-0825-4506-85ff-99b5e94a9ab0" d="M452.27,391.72l10.23-50.26c15.77,13.91,33.8,16,55.34,9.4C513.78,373.49,505.6,393.16,495,412c-2.2,3.92-4.49,1.66-6.6-.14C477.67,402.77,465.26,396.71,452.27,391.72Z"/><path class="b03181d4-951e-4f1f-9e6e-b61f50a635d7" d="M227.51,196.47c7.48,16.79,19.37,30.81,29.2,46.12,11.6,18,24,35.61,36.18,53.24,2.38,3.42,3.9,8.15,9.23,8.55-10.06,12.05-10.09,12.07-18.89-.79-6-8.81-12.06-17.61-17.92-26.53-3.53-5.38-7.67-7.85-13.79-4.09-1.75-6.31-5.56-11.27-10.29-15.61,5.61-4.51,4.26-9.47.89-14.51-5.91-8.81-11.3-18-17.92-26.27C217.31,208,217.34,201.7,227.51,196.47Z"/><path class="a91512c9-b76b-48cb-acb3-4a43e6167849" d="M126.06,288.74c7.86-7.13,15.65-19.69,23.59-19.78,7.3-.08,9.55,16.17,14.73,24.85,3.22,5.38,5.65,11.25,8.19,17,4.05,9.2,3,17.62-4.38,24.87C152.09,321.89,140.34,304.18,126.06,288.74Z"/><path class="a91512c9-b76b-48cb-acb3-4a43e6167849" d="M23.8,205.68c6.65-8.45,15.66-8.81,24.68-6.06,12.81,3.89,25.2,9.09,38,13.14,6.54,2.07,5.75,4.76,2.4,9.07-5.06,6.51-9.85,13.24-14.75,19.87-13.92-9-27.93-17.83-41.72-27C29,212.42,24.17,211,23.8,205.68Z"/><path class="b03181d4-951e-4f1f-9e6e-b61f50a635d7" d="M35.49,71.74C66.73,89.9,99.05,106,131.44,122c7,3.42,12.51,10.25,21.34,9.55-4,9.27-9.21,10.1-18.31,5.16-32.17-17.44-64.83-34-97.39-50.71C28.93,81.77,26.8,77.51,35.49,71.74Z"/><path class="b03181d4-951e-4f1f-9e6e-b61f50a635d7" d="M150.82,59.89c-11.2-1.08-21.25-5.65-32.75-10.21,8.82-10,16.83-19.27,25.07-28.33,4.47-4.91,9.65-5.35,14.7-.74,4.38,4,8.54,8.26,12.8,12.4C164.52,42.33,154.69,48.91,150.82,59.89Z"/><path class="b03181d4-951e-4f1f-9e6e-b61f50a635d7" d="M308.52,214.22c-5.94-7.11-9.51-15.75-12-24.24-3.35-11.35,8.81-15.19,14.21-22.11,4.28-5.49,10.1-2.6,14.57,1.44,3.51,3.17,6.79,6.6,10.17,9.92-.27,3.83-2.87,6.25-5.17,9C323,196.79,315.77,205.53,308.52,214.22Z"/><path class="b03181d4-951e-4f1f-9e6e-b61f50a635d7" d="M23.8,205.68c.37,5.34,5.15,6.74,8.57,9,13.79,9.18,27.8,18,41.72,27-2.57,6.38-5.66,8.22-12.21,3.51A446.3,446.3,0,0,0,24.3,220.73C14.83,215.27,16.31,211,23.8,205.68Z"/><path class="b03181d4-951e-4f1f-9e6e-b61f50a635d7" d="M126.06,288.74c14.28,15.44,26,33.15,42.13,46.95-4.15,6.75-7.73,8.93-13.79,1-9.35-12.31-19.69-23.9-30.08-35.36C119.32,295.79,119,292,126.06,288.74Z"/><path class="a245b7e1-6706-44bb-a196-48e6bdd8c120" d="M308.52,214.22c7.25-8.69,14.43-17.43,21.77-26,2.3-2.71,4.9-5.13,5.17-9,5.88,4.17,5.82,9.18,1.51,14.24-6.71,7.87-13.68,15.52-20.58,23.23C312,221.62,309.15,221.37,308.52,214.22Z"/><path class="a245b7e1-6706-44bb-a196-48e6bdd8c120" d="M150.82,59.89c3.87-11,13.7-17.56,19.82-26.88,2.65,2.05,5,5,3.25,8-4.73,8-10.32,15.51-18.16,20.81C154.16,62.86,152,61.87,150.82,59.89Z"/><path class="a45ed4fb-bd46-488a-a241-be58250a3714" d="M421.5,126.79c-1.85-.44-2.41-1.84-2.57-3.53C420.35,124,422,124.67,421.5,126.79Z"/><path class="f45aa85f-aa2f-47df-921a-5eaf6a55db8a" d="M296.15,69.79c.92,7.62,4.77,16.82-8.91,16.6-3.24-2-4.21-5.2-5.48-8.64-3.16-8.53-8.5-15-18.56-16-5.71-.54-10.49-3.32-8.77-9.8,1.58-5.9,6.91-6.91,12.57-5.85C281,48.76,289.72,57.85,296.15,69.79Z"/></svg>