<?xml version="1.0" encoding="utf-8"?>
<!-- Generator: Adobe Illustrator 24.0.2, SVG Export Plug-In . SVG Version: 6.00 Build 0)  -->
<svg version="1.1" id="Capa_1" xmlns="http://www.w3.org/2000/svg" xmlns:xlink="http://www.w3.org/1999/xlink" x="0px" y="0px"
	 viewBox="0 0 1692.3 286" style="enable-background:new 0 0 1692.3 286;" xml:space="preserve">
<style type="text/css">
	.st0{fill:#2E1B35;}
	.st1{fill:#FFFFFF;}
</style>
<path class="st0" d="M78.7,217.8c-2.5-18.2-4.5-35.8-7.5-53.3c-4.8-28.1-14.7-54.5-26.2-80.5c-5.6-12.5-7.9-25.8-4.8-39.5
	c5-22.4,27.7-32.6,47.8-21.8c12.1,6.6,20.7,16.5,27.2,28.5c11.5,21.2,17.4,44.3,20.9,67.9c2.3,15.2,3.6,30.6,5.4,46.4
	c3.9-0.2,8.2-0.1,12.4-0.7c1-0.1,2.4-2.5,2.3-3.8c-0.7-16.5-1-33-2.6-49.4c-2-20.2-5.7-40.3-7.5-60.5c-0.8-8.8,0.3-18,2.1-26.7
	c2.8-13.6,12-21.7,25.7-23.9c13.4-2.1,24.4,2.8,32.1,13.9c7.7,11,11.3,23.7,14.1,36.6c7.7,34.7,6.7,69.5,0.4,104.3
	c-1.7,9.5-4.4,18.8-6.4,28.2c-0.4,1.8,0.2,4.1,1.1,5.8c4.5,8.1,9.7,15.9,13.7,24.3c2.1,4.4,4.7,5.8,9.1,6.7
	c12.9,2.7,25.7,5.5,38.3,9.2c6.1,1.8,12,5.2,17.1,9c9,6.8,8.8,16.5,0.1,23.6c-8.9,7.3-19.7,10.3-30.5,13c-25,6.2-50.6,8.4-76.2,9.9
	c-41.4,2.4-82.7,1.2-123.6-5.1c-15-2.3-29.8-6.7-44.5-11c-4.9-1.4-9.5-4.8-13.4-8.3c-7-6.2-7.1-15,0.1-20.8
	c5.4-4.4,11.9-8.5,18.5-10.3c15.2-4.2,30.8-6.9,46.2-10.2C72.4,218.6,74.7,218.4,78.7,217.8z M90.4,269c1.4,0.2,2.9,0.5,4.4,0.6
	c42.5,3.4,84.9,3.1,127.3-1.6c3.3-0.4,4.2-1.8,4.1-4.8c-1-25.4-8.3-48.5-24.6-68.3c-2.7-3.3-3.7-6.2-2.6-10.4
	c2.8-10.8,5.6-21.6,7.6-32.5c5.1-27.8,6.8-55.9,2.6-84c-2.2-14.9-5.7-29.5-12.9-42.8c-4.5-8.3-11.8-12.1-19.6-11
	c-8.6,1.3-14.2,6-15.4,15.9c-1.2,9.5-1.7,19.4-0.3,28.8c4.7,32.5,9.2,65,9.7,97.8c0.2,9.3,0.3,9.3,9,12c5.5,1.7,7.8,5,6.5,9.4
	c-1.2,4.1-4.9,5.6-10.2,4.1c-12.9-3.7-26-3.9-39.1-1.7c-7.2,1.2-9.9-1.3-10.5-8.7c-1.5-18.9-2.7-37.9-5.3-56.6
	c-2.9-20.3-8.5-40.1-18.7-58.2c-5.3-9.5-12.2-17.5-22.1-22.4c-10.5-5.2-21.1-1.2-25.3,9.8c-1.2,3-1.7,6.5-1.8,9.7
	c-0.5,11.1,3,21.3,7.6,31.3c9.9,21.4,17.5,43.6,22.6,66.5c5.7,25.8,8.8,51.9,8.7,78.3C92,242.9,91,255.7,90.4,269z"/>
<path class="st1" d="M90.4,269c0.6-13.3,1.6-26.1,1.6-38.9c0.1-26.4-3-52.6-8.7-78.3c-5.1-23-12.7-45.1-22.6-66.5
	c-4.6-9.9-8.1-20.1-7.6-31.3c0.1-3.3,0.7-6.7,1.8-9.7c4.2-10.9,14.8-15,25.3-9.8c9.9,4.9,16.8,13,22.1,22.4
	c10.2,18.1,15.8,37.9,18.7,58.2c2.6,18.8,3.8,37.7,5.3,56.6c0.6,7.4,3.3,9.9,10.5,8.7c13.2-2.1,26.2-2,39.1,1.7
	c5.3,1.5,9-0.1,10.2-4.1c1.3-4.4-0.9-7.7-6.5-9.4c-8.7-2.7-8.9-2.7-9-12c-0.5-32.9-5.1-65.4-9.7-97.8c-1.4-9.4-0.9-19.3,0.3-28.8
	c1.2-9.9,6.9-14.6,15.4-15.9c7.8-1.1,15.1,2.7,19.6,11c7.2,13.4,10.7,27.9,12.9,42.8c4.3,28.2,2.6,56.2-2.6,84
	c-2,10.9-4.8,21.8-7.6,32.5c-1.1,4.3-0.1,7.1,2.6,10.4c16.2,19.8,23.6,42.9,24.6,68.3c0.1,3.1-0.8,4.4-4.1,4.8
	c-42.4,4.7-84.8,5-127.3,1.6C93.3,269.5,91.8,269.2,90.4,269z M139.6,234.1c-1-2.6-1.8-6.3-3.8-9.1c-4.1-6.1-11.3-5-13.9,1.8
	c-2.1,5.4-1.9,11,1.8,15.6c1.7,2.2,5.3,4.5,7.6,4.1c2.6-0.4,5-3.6,6.9-6.1C139.2,239.2,139,237,139.6,234.1z M181.8,230.6
	c0.9,2.2,1.6,5.9,3.6,8.8c4.1,6,11.2,5,13.9-1.8c2-5,1.9-10.4-1.3-14.7c-1.8-2.5-5.3-4.8-8.2-5.1c-4-0.4-6.1,3.4-7.2,7.1
	C182.3,226.2,182.2,227.7,181.8,230.6z M164.2,261.7c4.1-0.4,8.6-1.4,10.6-6.1c0.7-1.7,0.3-4.9-0.9-6.3c-3.2-3.9-7.8-3.9-12.4-2.9
	c-5.1,1.2-8.5,5.2-7.9,8.8C154.2,258.9,158.5,261.7,164.2,261.7z"/>
<path class="st0" d="M139.6,234.1c-0.6,2.9-0.4,5.1-1.5,6.3c-1.9,2.4-4.3,5.6-6.9,6.1c-2.3,0.4-5.9-2-7.6-4.1
	c-3.6-4.6-3.9-10.2-1.8-15.6c2.7-6.8,9.8-7.9,13.9-1.8C137.8,227.9,138.6,231.5,139.6,234.1z"/>
<path class="st0" d="M181.8,230.6c0.4-2.9,0.5-4.4,0.9-5.8c1.1-3.7,3.1-7.5,7.2-7.1c2.9,0.3,6.4,2.6,8.2,5.1
	c3.2,4.3,3.3,9.7,1.3,14.7c-2.7,6.8-9.8,7.9-13.9,1.8C183.5,236.5,182.7,232.8,181.8,230.6z"/>
<path class="st0" d="M164.2,261.7c-5.7,0-10-2.8-10.6-6.5c-0.6-3.6,2.9-7.6,7.9-8.8c4.5-1,9.2-1.1,12.4,2.9c1.2,1.5,1.6,4.6,0.9,6.3
	C172.8,260.3,168.3,261.3,164.2,261.7z"/>
<path class="st0" d="M367.4,170.2c0,8.9,0,17.2,0,25.5c0,10,0,19.9,0,29.9c0,7.4-4,11.6-10.7,11.6c-6.7,0-10.8-4.2-10.8-11.5
	c-0.1-50.2-0.1-100.4,0-150.6c0-7.2,3.8-11.6,10.8-11.6c16.2,0,32.4-0.4,48.5,0.8c25.4,2,43.3,18.4,48,42.3
	c4.8,24.5-5.3,45.4-27.9,57.6c-0.5,0.3-0.9,0.6-1.7,1.1c0.7,1.4,1.3,2.9,2.1,4.2c10.3,16.5,20.7,32.8,30.7,49.4
	c1.9,3.1,3.5,7.2,2.9,10.5c-0.5,2.8-3.9,6.2-6.8,7.3c-4.4,1.8-9.1,0.5-12-3.8c-3.9-5.7-7.4-11.6-11.1-17.4
	c-8.6-13.8-17.3-27.6-25.8-41.6c-1.7-2.8-3.4-4-6.9-3.9C387.1,170.4,377.5,170.2,367.4,170.2z M367.7,148.9
	c13.5,0,26.8,1.4,39.8-0.4c15.7-2.1,26-15.9,25.8-31.1c-0.2-16.4-10.6-30.4-26.5-32.4c-12.8-1.6-25.9-0.3-39.1-0.3
	C367.7,106.1,367.7,127.7,367.7,148.9z"/>
<path class="st0" d="M1295.8,159.2c-35.2,0-69.5,0-104.7,0c0,2.3,0,4.4,0,6.5c0,19.8,0,39.5,0,59.3c0,8.2-3.5,12.2-10.5,12.2
	c-6.8,0-10.7-4.2-10.7-12.1c0-49.8,0-99.7,0-149.5c0-9.4,6.9-14.4,15-11.2c4.8,1.9,6.2,5.6,6.2,10.4c-0.1,19.4,0,38.8,0,58.2
	c0,2,0,3.9,0,6.3c34.9,0,69.3,0,104.4,0c0.1-1.7,0.2-3.6,0.2-5.5c0-19.2-0.1-38.4,0-57.6c0-9.6,6.6-14.7,14.8-11.8
	c4.1,1.4,6.2,4.2,6.6,8.4c0.2,1.8,0.1,3.6,0.1,5.4c0,49.1,0,98.2,0,147.3c0,8.4-4.8,12.8-12.5,11.8c-5.6-0.8-9-5.2-9-12.4
	c-0.1-19.8,0-39.5,0-59.3C1295.8,163.6,1295.8,161.6,1295.8,159.2z"/>
<path class="st0" d="M811.3,134.9c10.5-10.9,21.5-17.7,35.3-19.6c31.3-4.2,58.8,14.7,65.6,45.4c6.1,27.8-3.5,53.5-26.6,68.1
	c-33.5,21.1-84.4,6.9-93.7-39.3c-1-5.1-1.3-10.4-1.3-15.6c-0.1-32-0.1-64.1-0.1-96.2c0-9.7,3.3-14.4,10.2-14.3
	c7.5,0,10.7,4.3,10.7,14.4c0,16.8,0,33.7,0,50.5C811.3,130,811.3,131.8,811.3,134.9z M811.2,175.8c-0.1,25.1,16.7,43.2,40.2,43.4
	c23.7,0.2,41.7-17.9,41.8-42c0.1-25-17.8-44.1-41.3-44C828.9,133.2,811.3,151.6,811.2,175.8z"/>
<path class="st0" d="M654.4,135c9.1-9.6,18.4-15.9,29.9-18.7c36.7-9.1,71.9,18.3,72.7,56c0.5,23.5-7.4,42.6-27.2,55.8
	c-32.1,21.4-84.6,9.4-94.9-38.4c-0.8-3.5-1.1-7.2-1.1-10.7c-0.1-34.8-0.1-69.5-0.1-104.3c0-8.8,6.6-13.3,14.7-10.2
	c4.9,1.8,6,5.8,6,10.5c0,17.7,0,35.5,0,53.2C654.4,129.9,654.4,131.6,654.4,135z M654.4,176.1c-0.7,30.2,26.5,51.2,56,40.4
	c17.5-6.4,27.3-24,26-44.6c-1.6-24.1-23-41.5-46.9-38.1C668.5,136.7,654.4,153.8,654.4,176.1z"/>
<path class="st0" d="M579.2,217.9c-10,10.9-20.8,17.2-34,19.5c-33,5.9-64.2-17.8-67.6-51.2c-2.3-22.7,3-42.6,21.1-57.5
	c19.2-15.8,41.3-18.5,64-9.5c22,8.7,35,26,36.9,49.6c1.6,19.4,1,39.1,0.9,58.6c0,6.4-4.7,10.1-11.2,9.9c-6.1-0.1-9.8-4-10.1-10.4
	C579.1,224.4,579.2,221.9,579.2,217.9z M538.4,219.2c23.6,0.1,41.4-18.1,41.7-42.4c0.3-24-18.4-43.7-41.5-43.6
	c-23.1,0.1-41.3,19.1-41.4,43.1C497.2,200.5,515,219.1,538.4,219.2z"/>
<path class="st0" d="M1582.1,183.6c0.5,16.2,15.2,32,32.1,35.4c13.3,2.6,25.5,0,36.9-7.4c1.9-1.2,4.2-2.2,6.5-2.5
	c5-0.8,8.6,1.6,10.3,6.2c1.6,4.3-0.1,7.7-3.9,10.3c-16.4,11-34.3,15.3-53.9,11.3c-31.7-6.6-50.7-33.3-48-65.8
	c1.7-20,9.3-36.7,26.7-47.3c19.9-12.1,41.3-13.2,61.7-1.6c20.2,11.4,26.7,30.9,26.5,53.1c-0.1,5.5-3.8,8.4-10.5,8.4
	c-13.1,0.1-26.2,0-39.2,0C1612.3,183.6,1597.4,183.6,1582.1,183.6z M1657.2,166.2c-1.4-19.8-16.9-34-36.3-33.6
	c-20.5,0.4-37.6,15.2-38.4,33.6C1607.3,166.2,1632,166.2,1657.2,166.2z"/>
<path class="st0" d="M1414.5,238.1c-36,0-61.7-25.8-61.5-61.8c0.2-36.3,25.6-61.9,61.5-61.9c36-0.1,62,26,62,62.2
	C1476.5,212.4,1450.5,238.1,1414.5,238.1z M1414.7,219.2c24,0,41.2-17.7,41.2-42.5c0.1-24.9-17.3-43.3-41.1-43.6
	c-23.4-0.2-41.5,18.5-41.7,43.2C1372.9,201,1390.5,219.2,1414.7,219.2z"/>
<path class="st0" d="M1018.8,138.6c-5.2-0.4-9.6-0.6-13.9-1.2c-4.6-0.6-6.9-3.6-7.1-8.2c-0.2-4.9,2.3-8.1,7-8.9
	c4.3-0.7,8.6-0.6,14-0.9c0-4.6,0-9.2,0-13.8c0-5.8-0.1-11.6,0-17.4c0.2-7.3,3.9-11.2,10.4-11.2c6.7,0,10.3,3.5,10.5,11.1
	c0.2,10.3,0.1,20.6,0.1,31.7c7.4,0,14.2-0.3,21,0.1c7.6,0.4,11.9,6.5,8.7,12.5c-1.3,2.3-4.4,4.2-7,5c-3.4,1-7.2,0.7-10.8,0.8
	c-3.6,0.1-7.2,0-11,0c-0.3,0.9-0.8,1.5-0.8,2.1c0,18.1-0.4,36.2,0.3,54.3c0.5,15.6,7.9,22,23.5,22c7,0,10.4,2.6,11.3,8.4
	c1,6.7-3.5,11.7-10.6,12.2c-27.7,2.1-45.2-17.2-45.5-43.6c-0.2-16.3,0-32.6,0-48.9C1018.8,142.7,1018.8,140.8,1018.8,138.6z"/>
<path class="st0" d="M1526,137.3c0,19-0.1,38,0.1,57c0,4.3,0.4,8.7,1.6,12.8c2,6.9,5.9,9.3,12.8,9.4c8.3,0.1,11.7,2.9,11.9,9.9
	c0.2,6.1-4.6,10.4-11.9,10.7c-18,0.7-31.5-10.7-34.4-29.4c-0.8-4.8-1.2-9.7-1.2-14.6c-0.1-38.2-0.1-76.4,0-114.6
	c0-2.7,0.2-5.4,0.8-8.1c1.2-5,5-7.1,9.7-7c4.8,0.2,8.9,2.1,9.9,7.5c0.4,2.5,0.6,5,0.6,7.6C1526,98.2,1526,117.8,1526,137.3z"/>
<path class="st0" d="M950,176c0-16.5,0-32.9,0-49.4c0-7.1,3.8-11.1,10.4-11.2c6.3-0.1,10.5,3.6,10.5,10.5c0.1,33.7,0.1,67.3,0,101
	c0,7.1-4.3,10.6-11.1,10.3c-6.2-0.3-9.7-4.2-9.7-11.2C949.9,209.3,950,192.7,950,176z"/>
<path class="st0" d="M974.2,81c0,8.2-6,14-14,13.9c-7.7-0.1-13.5-6.1-13.5-13.9c0-8,6.2-14.1,14.1-14
	C968.4,67.1,974.2,73.2,974.2,81z"/>
<path class="st0" d="M367.7,148.9c0-21.2,0-42.8,0-64.2c13.2,0,26.4-1.3,39.1,0.3c15.9,2,26.3,16,26.5,32.4
	c0.2,15.1-10.1,28.9-25.8,31.1C394.5,150.3,381.2,148.9,367.7,148.9z"/>
<path class="st0" d="M811.2,175.8c0.1-24.2,17.7-42.6,40.7-42.7c23.5-0.1,41.4,19,41.3,44c-0.1,24.2-18.1,42.2-41.8,42
	C827.9,219,811.1,200.9,811.2,175.8z"/>
<path class="st0" d="M654.4,176.1c0-22.3,14.1-39.4,35.1-42.3c23.9-3.3,45.3,14.1,46.9,38.1c1.4,20.6-8.5,38.2-26,44.6
	C680.8,227.2,653.7,206.2,654.4,176.1z"/>
<path class="st0" d="M538.4,219.2c-23.4-0.1-41.2-18.7-41.1-42.9c0.1-24,18.3-43,41.4-43.1c23-0.1,41.7,19.6,41.5,43.6
	C579.8,201,562,219.2,538.4,219.2z"/>
<path class="st0" d="M1657.2,166.2c-25.1,0-49.9,0-74.7,0c0.9-18.4,17.9-33.2,38.4-33.6C1640.2,132.3,1655.8,146.4,1657.2,166.2z"/>
<path class="st0" d="M1414.7,219.2c-24.1,0-41.8-18.2-41.6-42.9c0.2-24.7,18.3-43.4,41.7-43.2c23.8,0.3,41.2,18.7,41.1,43.6
	C1455.8,201.5,1438.6,219.1,1414.7,219.2z"/>
</svg>
