<?xml version="1.0" encoding="iso-8859-1"?>
<!-- Generator: Adobe Illustrator 24.0.2, SVG Export Plug-In . SVG Version: 6.00 Build 0)  -->
<svg version="1.1" id="Capa_1" xmlns="http://www.w3.org/2000/svg" xmlns:xlink="http://www.w3.org/1999/xlink" x="0px" y="0px"
	 viewBox="0 0 300.205 285.997" style="enable-background:new 0 0 300.205 285.997;" xml:space="preserve">
<g>
	<path style="fill:#2E1B35;" d="M78.718,217.777c-2.519-18.174-4.524-35.841-7.495-53.344
		c-4.769-28.086-14.699-54.549-26.214-80.519c-5.552-12.522-7.926-25.846-4.846-39.545c5.029-22.365,27.675-32.646,47.767-21.782
		c12.127,6.558,20.742,16.532,27.225,28.501c11.506,21.242,17.384,44.272,20.889,67.93c2.259,15.247,3.579,30.634,5.375,46.445
		c3.948-0.173,8.229-0.12,12.415-0.722c0.976-0.14,2.375-2.537,2.321-3.844c-0.676-16.465-0.974-32.981-2.586-49.364
		c-1.988-20.207-5.665-40.252-7.501-60.468c-0.798-8.784,0.277-18.008,2.099-26.697c2.843-13.561,11.98-21.739,25.707-23.893
		c13.416-2.106,24.352,2.812,32.1,13.873c7.684,10.969,11.276,23.722,14.133,36.591c7.702,34.694,6.679,69.499,0.418,104.251
		c-1.706,9.468-4.404,18.753-6.352,28.183c-0.369,1.788,0.201,4.116,1.113,5.765c4.499,8.138,9.74,15.902,13.73,24.269
		c2.085,4.373,4.663,5.814,9.092,6.731c12.856,2.662,25.723,5.484,38.293,9.228c6.077,1.81,11.997,5.16,17.106,8.99
		c9.013,6.756,8.824,16.456,0.072,23.621c-8.88,7.27-19.694,10.319-30.549,12.992c-25.021,6.16-50.583,8.351-76.212,9.863
		c-41.379,2.44-82.669,1.181-123.638-5.075c-15.041-2.297-29.807-6.738-44.462-11.013c-4.898-1.429-9.54-4.839-13.45-8.302
		c-6.952-6.158-7.125-14.998,0.092-20.844c5.441-4.408,11.885-8.473,18.539-10.308c15.199-4.193,30.796-6.943,46.243-10.23
		C72.401,218.579,74.718,218.366,78.718,217.777z M90.412,269.009c1.417,0.215,2.883,0.53,4.366,0.65
		c42.474,3.442,84.897,3.073,127.274-1.608c3.264-0.361,4.194-1.75,4.078-4.803c-0.96-25.376-8.333-48.462-24.562-68.29
		c-2.677-3.271-3.726-6.157-2.605-10.412c2.838-10.772,5.588-21.601,7.61-32.547c5.144-27.842,6.829-55.86,2.577-84.01
		c-2.249-14.888-5.726-29.469-12.933-42.833c-4.471-8.29-11.809-12.115-19.616-10.972c-8.57,1.256-14.18,6.001-15.424,15.896
		c-1.192,9.479-1.651,19.38-0.299,28.789c4.669,32.492,9.185,64.957,9.727,97.85c0.153,9.28,0.315,9.277,9.048,11.97
		c5.548,1.711,7.8,4.958,6.496,9.367c-1.201,4.061-4.927,5.649-10.192,4.123c-12.909-3.742-25.964-3.872-39.116-1.723
		c-7.206,1.178-9.876-1.343-10.47-8.717c-1.522-18.897-2.671-37.868-5.319-56.619c-2.872-20.342-8.457-40.088-18.662-58.206
		c-5.338-9.477-12.234-17.501-22.133-22.429c-10.495-5.225-21.114-1.153-25.29,9.782c-1.162,3.044-1.694,6.46-1.84,9.736
		c-0.496,11.116,3.041,21.343,7.609,31.254c9.86,21.391,17.529,43.579,22.588,66.534c5.676,25.75,8.821,51.91,8.712,78.327
		C91.984,242.908,90.998,255.695,90.412,269.009z"/>
	<path style="fill:#FFFFFF;" d="M90.412,269.009c0.586-13.314,1.571-26.101,1.624-38.891c0.109-26.417-3.036-52.577-8.712-78.327
		c-5.059-22.954-12.728-45.143-22.588-66.534c-4.569-9.911-8.106-20.139-7.609-31.254c0.146-3.276,0.677-6.692,1.84-9.736
		c4.176-10.935,14.795-15.007,25.29-9.782c9.899,4.928,16.795,12.953,22.133,22.429c10.205,18.118,15.79,37.864,18.662,58.206
		c2.648,18.751,3.797,37.722,5.319,56.619c0.594,7.374,3.264,9.895,10.47,8.717c13.152-2.149,26.207-2.019,39.116,1.723
		c5.265,1.526,8.992-0.062,10.192-4.123c1.303-4.41-0.948-7.656-6.496-9.367c-8.733-2.693-8.895-2.69-9.048-11.97
		c-0.542-32.893-5.058-65.357-9.727-97.85c-1.352-9.409-0.892-19.31,0.299-28.789c1.244-9.895,6.853-14.64,15.424-15.896
		c7.807-1.144,15.145,2.682,19.616,10.972c7.207,13.364,10.684,27.945,12.933,42.833c4.252,28.15,2.567,56.168-2.577,84.01
		c-2.023,10.947-4.772,21.776-7.61,32.547c-1.121,4.255-0.072,7.141,2.605,10.412c16.23,19.828,23.602,42.914,24.562,68.29
		c0.115,3.052-0.814,4.442-4.078,4.803c-42.377,4.681-84.8,5.05-127.274,1.608C93.296,269.538,91.829,269.224,90.412,269.009z
		 M139.614,234.116c-1.031-2.575-1.829-6.258-3.8-9.137c-4.146-6.056-11.255-5.039-13.947,1.802
		c-2.14,5.436-1.868,11.028,1.77,15.602c1.731,2.177,5.329,4.523,7.644,4.141c2.589-0.427,4.955-3.643,6.878-6.073
		C139.164,239.18,139.012,236.992,139.614,234.116z M181.82,230.628c0.878,2.215,1.648,5.905,3.619,8.769
		c4.14,6.018,11.215,4.982,13.941-1.843c2.016-5.048,1.944-10.403-1.285-14.728c-1.841-2.466-5.293-4.821-8.23-5.113
		c-4.042-0.402-6.105,3.378-7.174,7.086C182.283,226.213,182.236,227.731,181.82,230.628z M164.174,261.688
		c4.104-0.392,8.65-1.407,10.631-6.063c0.736-1.73,0.273-4.863-0.911-6.343c-3.155-3.946-7.841-3.918-12.359-2.873
		c-5.083,1.176-8.517,5.201-7.947,8.825C154.167,258.911,158.521,261.703,164.174,261.688z"/>
	<path style="fill:#2E1B35;" d="M139.614,234.116c-0.602,2.876-0.45,5.064-1.456,6.336c-1.923,2.43-4.289,5.645-6.878,6.073
		c-2.315,0.382-5.913-1.964-7.644-4.141c-3.637-4.574-3.909-10.166-1.77-15.602c2.693-6.841,9.801-7.858,13.947-1.802
		C137.785,227.858,138.583,231.541,139.614,234.116z"/>
	<path style="fill:#2E1B35;" d="M181.82,230.628c0.416-2.897,0.463-4.415,0.87-5.829c1.069-3.707,3.133-7.488,7.174-7.086
		c2.937,0.292,6.389,2.647,8.23,5.113c3.229,4.325,3.301,9.679,1.285,14.728c-2.726,6.825-9.801,7.862-13.941,1.843
		C183.468,236.533,182.698,232.843,181.82,230.628z"/>
	<path style="fill:#2E1B35;" d="M164.174,261.688c-5.654,0.014-10.007-2.778-10.585-6.454c-0.57-3.624,2.864-7.649,7.947-8.825
		c4.517-1.045,9.204-1.073,12.359,2.873c1.183,1.48,1.646,4.613,0.911,6.343C172.825,260.282,168.278,261.296,164.174,261.688z"/>
</g>
</svg>
