<?xml version="1.0" encoding="utf-8"?>
<!-- Generator: Adobe Illustrator 24.0.2, SVG Export Plug-In . SVG Version: 6.00 Build 0)  -->
<svg version="1.1" id="Capa_1" xmlns="http://www.w3.org/2000/svg" xmlns:xlink="http://www.w3.org/1999/xlink" x="0px" y="0px"
	 viewBox="0 0 1353.8 286" style="enable-background:new 0 0 1353.8 286;" xml:space="preserve">
<style type="text/css">
	.st0{fill:#2E1B35;}
</style>
<path class="st0" d="M28.9,170.2c0,8.9,0,17.2,0,25.5c0,10,0,19.9,0,29.9c0,7.4-4,11.6-10.7,11.6S7.4,233,7.4,225.7
	c-0.1-50.2-0.1-100.4,0-150.6c0-7.2,3.8-11.6,10.8-11.6c16.2,0,32.4-0.4,48.5,0.8c25.4,2,43.3,18.4,48,42.3
	c4.8,24.5-5.3,45.4-27.9,57.6c-0.5,0.3-0.9,0.6-1.7,1.1c0.7,1.4,1.3,2.9,2.1,4.2c10.3,16.5,20.7,32.8,30.7,49.4
	c1.9,3.1,3.5,7.2,2.9,10.5c-0.5,2.8-3.9,6.2-6.8,7.3c-4.4,1.8-9.1,0.5-12-3.8c-3.9-5.7-7.4-11.6-11.1-17.4
	c-8.6-13.8-17.3-27.6-25.8-41.6c-1.7-2.8-3.4-4-6.9-3.9C48.6,170.4,39,170.2,28.9,170.2z M29.2,148.9c13.5,0,26.8,1.4,39.8-0.4
	c15.7-2.1,26-15.9,25.8-31.1C94.6,101,84.2,87,68.3,85c-12.8-1.6-25.9-0.3-39.1-0.3C29.2,106.1,29.2,127.7,29.2,148.9z"/>
<path class="st0" d="M957.3,159.2c-35.2,0-69.5,0-104.7,0c0,2.3,0,4.4,0,6.5c0,19.8,0,39.5,0,59.3c0,8.2-3.5,12.2-10.5,12.2
	c-6.8,0-10.7-4.2-10.7-12.1c0-49.8,0-99.7,0-149.5c0-9.4,6.9-14.4,15-11.2c4.8,1.9,6.2,5.6,6.2,10.4c-0.1,19.4,0,38.8,0,58.2
	c0,2,0,3.9,0,6.3c34.9,0,69.3,0,104.4,0c0.1-1.7,0.2-3.6,0.2-5.5c0-19.2-0.1-38.4,0-57.6c0-9.6,6.6-14.7,14.8-11.8
	c4.1,1.4,6.2,4.2,6.6,8.4c0.2,1.8,0.1,3.6,0.1,5.4c0,49.1,0,98.2,0,147.3c0,8.4-4.8,12.8-12.5,11.8c-5.6-0.8-9-5.2-9-12.4
	c-0.1-19.8,0-39.5,0-59.3C957.3,163.6,957.3,161.6,957.3,159.2z"/>
<path class="st0" d="M472.8,134.9c10.5-10.9,21.5-17.7,35.3-19.6c31.3-4.2,58.8,14.7,65.6,45.4c6.1,27.8-3.5,53.5-26.6,68.1
	c-33.5,21.1-84.4,6.9-93.7-39.3c-1-5.1-1.3-10.4-1.3-15.6c-0.1-32-0.1-64.1-0.1-96.2c0-9.7,3.3-14.4,10.2-14.3
	c7.5,0,10.7,4.3,10.7,14.4c0,16.8,0,33.7,0,50.5C472.8,130,472.8,131.8,472.8,134.9z M472.7,175.8c-0.1,25.1,16.7,43.2,40.2,43.4
	c23.7,0.2,41.7-17.9,41.8-42c0.1-25-17.8-44.1-41.3-44C490.4,133.2,472.8,151.6,472.7,175.8z"/>
<path class="st0" d="M315.9,135c9.1-9.6,18.4-15.9,29.9-18.7c36.7-9.1,71.9,18.3,72.7,56c0.5,23.5-7.4,42.6-27.2,55.8
	c-32.1,21.4-84.6,9.4-94.9-38.4c-0.8-3.5-1.1-7.2-1.1-10.7c-0.1-34.8-0.1-69.5-0.1-104.3c0-8.8,6.6-13.3,14.7-10.2
	c4.9,1.8,6,5.8,6,10.5c0,17.7,0,35.5,0,53.2C315.9,129.9,315.9,131.6,315.9,135z M315.9,176.1c-0.7,30.2,26.5,51.2,56,40.4
	c17.5-6.4,27.3-24,26-44.6c-1.6-24.1-23-41.5-46.9-38.1C330,136.7,315.9,153.8,315.9,176.1z"/>
<path class="st0" d="M240.7,217.9c-10,10.9-20.8,17.2-34,19.5c-33,5.9-64.2-17.8-67.6-51.2c-2.3-22.7,3-42.6,21.1-57.5
	c19.2-15.8,41.3-18.5,64-9.5c22,8.7,35,26,36.9,49.6c1.6,19.4,1,39.1,0.9,58.6c0,6.4-4.7,10.1-11.2,9.9c-6.1-0.1-9.8-4-10.1-10.4
	C240.6,224.4,240.7,221.9,240.7,217.9z M199.9,219.2c23.6,0.1,41.4-18.1,41.7-42.4c0.3-24-18.4-43.7-41.5-43.6
	c-23.1,0.1-41.3,19.1-41.4,43.1C158.7,200.5,176.5,219.1,199.9,219.2z"/>
<path class="st0" d="M1243.6,183.6c0.5,16.2,15.2,32,32.1,35.4c13.3,2.6,25.5,0,36.9-7.4c1.9-1.2,4.2-2.2,6.5-2.5
	c5-0.8,8.6,1.6,10.3,6.2c1.6,4.3-0.1,7.7-3.9,10.3c-16.4,11-34.3,15.3-53.9,11.3c-31.7-6.6-50.7-33.3-48-65.8
	c1.7-20,9.3-36.7,26.7-47.3c19.9-12.1,41.3-13.2,61.7-1.6c20.2,11.4,26.7,30.9,26.5,53.1c-0.1,5.5-3.8,8.4-10.5,8.4
	c-13.1,0.1-26.2,0-39.2,0C1273.8,183.6,1258.9,183.6,1243.6,183.6z M1318.7,166.2c-1.4-19.8-16.9-34-36.3-33.6
	c-20.5,0.4-37.6,15.2-38.4,33.6C1268.8,166.2,1293.5,166.2,1318.7,166.2z"/>
<path class="st0" d="M1076,238.1c-36,0-61.7-25.8-61.5-61.8c0.2-36.3,25.6-61.9,61.5-61.9c36-0.1,62,26,62,62.2
	C1138,212.4,1112,238.1,1076,238.1z M1076.2,219.2c24,0,41.2-17.7,41.2-42.5c0.1-24.9-17.3-43.3-41.1-43.6
	c-23.4-0.2-41.5,18.5-41.7,43.2S1052,219.2,1076.2,219.2z"/>
<path class="st0" d="M680.3,138.6c-5.2-0.4-9.6-0.6-13.9-1.2c-4.6-0.6-6.9-3.6-7.1-8.2c-0.2-4.9,2.3-8.1,7-8.9
	c4.3-0.7,8.6-0.6,14-0.9c0-4.6,0-9.2,0-13.8c0-5.8-0.1-11.6,0-17.4c0.2-7.3,3.9-11.2,10.4-11.2c6.7,0,10.3,3.5,10.5,11.1
	c0.2,10.3,0.1,20.6,0.1,31.7c7.4,0,14.2-0.3,21,0.1c7.6,0.4,11.9,6.5,8.7,12.5c-1.3,2.3-4.4,4.2-7,5c-3.4,1-7.2,0.7-10.8,0.8
	c-3.6,0.1-7.2,0-11,0c-0.3,0.9-0.8,1.5-0.8,2.1c0,18.1-0.4,36.2,0.3,54.3c0.5,15.6,7.9,22,23.5,22c7,0,10.4,2.6,11.3,8.4
	c1,6.7-3.5,11.7-10.6,12.2c-27.7,2.1-45.2-17.2-45.5-43.6c-0.2-16.3,0-32.6,0-48.9C680.3,142.7,680.3,140.8,680.3,138.6z"/>
<path class="st0" d="M1187.5,137.3c0,19-0.1,38,0.1,57c0,4.3,0.4,8.7,1.6,12.8c2,6.9,5.9,9.3,12.8,9.4c8.3,0.1,11.7,2.9,11.9,9.9
	c0.2,6.1-4.6,10.4-11.9,10.7c-18,0.7-31.5-10.7-34.4-29.4c-0.8-4.8-1.2-9.7-1.2-14.6c-0.1-38.2-0.1-76.4,0-114.6
	c0-2.7,0.2-5.4,0.8-8.1c1.2-5,5-7.1,9.7-7c4.8,0.2,8.9,2.1,9.9,7.5c0.4,2.5,0.6,5,0.6,7.6C1187.5,98.2,1187.5,117.8,1187.5,137.3z"
	/>
<path class="st0" d="M611.5,176c0-16.5,0-32.9,0-49.4c0-7.1,3.8-11.1,10.4-11.2c6.3-0.1,10.5,3.6,10.5,10.5c0.1,33.7,0.1,67.3,0,101
	c0,7.1-4.3,10.6-11.1,10.3c-6.2-0.3-9.7-4.2-9.7-11.2C611.4,209.3,611.5,192.7,611.5,176z"/>
<path class="st0" d="M635.7,81c0,8.2-6,14-14,13.9c-7.7-0.1-13.5-6.1-13.5-13.9c0-8,6.2-14.1,14.1-14
	C629.9,67.1,635.7,73.2,635.7,81z"/>
<path class="st0" d="M29.2,148.9c0-21.2,0-42.8,0-64.2c13.2,0,26.4-1.3,39.1,0.3c15.9,2,26.3,16,26.5,32.4
	c0.2,15.1-10.1,28.9-25.8,31.1C56,150.3,42.7,148.9,29.2,148.9z"/>
<path class="st0" d="M472.7,175.8c0.1-24.2,17.7-42.6,40.7-42.7c23.5-0.1,41.4,19,41.3,44c-0.1,24.2-18.1,42.2-41.8,42
	C489.4,219,472.6,200.9,472.7,175.8z"/>
<path class="st0" d="M315.9,176.1c0-22.3,14.1-39.4,35.1-42.3c23.9-3.3,45.3,14.1,46.9,38.1c1.4,20.6-8.5,38.2-26,44.6
	C342.3,227.2,315.2,206.2,315.9,176.1z"/>
<path class="st0" d="M199.9,219.2c-23.4-0.1-41.2-18.7-41.1-42.9c0.1-24,18.3-43,41.4-43.1c23-0.1,41.7,19.6,41.5,43.6
	C241.3,201,223.5,219.2,199.9,219.2z"/>
<path class="st0" d="M1318.7,166.2c-25.1,0-49.9,0-74.7,0c0.9-18.4,17.9-33.2,38.4-33.6C1301.7,132.3,1317.3,146.4,1318.7,166.2z"/>
<path class="st0" d="M1076.2,219.2c-24.1,0-41.8-18.2-41.6-42.9c0.2-24.7,18.3-43.4,41.7-43.2c23.8,0.3,41.2,18.7,41.1,43.6
	C1117.3,201.5,1100.1,219.1,1076.2,219.2z"/>
</svg>
