<?xml version="1.0" encoding="utf-8"?>
<!-- Generator: Adobe Illustrator 24.0.2, SVG Export Plug-In . SVG Version: 6.00 Build 0)  -->
<svg version="1.1" id="e419ba42-2367-4426-9d21-a7576166c904"
	 xmlns="http://www.w3.org/2000/svg" xmlns:xlink="http://www.w3.org/1999/xlink" x="0px" y="0px" viewBox="0 0 340 50"
	 style="enable-background:new 0 0 340 50;" xml:space="preserve">
<style type="text/css">
	.st0{fill:#DEE6EF;}
	.st1{fill:#E6313D;stroke:#000000;stroke-width:3;stroke-miterlimit:10;}
	.st2{fill:#DEE6EF;stroke:#000000;stroke-width:3;stroke-miterlimit:10;}
</style>
<title>_</title>
<g>
	<polyline class="st0" points="335,-9.1 335,45.4 34.2,45.4 5,22 5,-9.1 	"/>
	<path d="M335,50.3H34.2C33,50.3,32,50,31,49.2L1.8,25.7C0.7,24.9,0,23.4,0,22v-31h9.9v28.7L36,40.4h294.1V-9.1h9.9v54.5
		C340,48.2,337.9,50.3,335,50.3z"/>
</g>
<circle class="st1" cx="50.3" cy="21.5" r="9.9"/>
<path class="st2" d="M297.9,34.7L297.9,34.7z"/>
<path class="st2" d="M297.9,24.8L297.9,24.8z"/>
<path class="st2" d="M297.9,14.9L297.9,14.9z"/>
<path class="st2" d="M297.9,5L297.9,5z"/>
</svg>
